<svg width="36" height="36" viewBox="0 0 36 36" fill="none" xmlns="http://www.w3.org/2000/svg">
<rect width="36" height="36" rx="18" fill="url(#paint0_linear_144_551)" fill-opacity="0.3"/>
<path d="M12.1707 15.5021C12.631 15.5021 13.0041 15.8752 13.0041 16.3355C14.3664 16.3355 15.6196 16.8024 16.6124 17.5851L18.4208 17.5855C19.5308 17.5855 20.5283 18.0678 21.2149 18.8344L23.8374 18.8355C25.4977 18.8355 26.9311 19.8065 27.6008 21.2116C25.6302 23.8121 22.439 25.5021 18.8374 25.5021C16.5118 25.5021 14.5456 24.9994 12.9533 24.1205C12.838 24.4401 12.5311 24.6688 12.1707 24.6688H9.67074C9.2105 24.6688 8.8374 24.2956 8.8374 23.8355V16.3355C8.8374 15.8752 9.2105 15.5021 9.67074 15.5021H12.1707ZM13.0049 18.0021L13.0041 22.1864L13.0419 22.2141C14.5367 23.2646 16.4858 23.8355 18.8374 23.8355C21.3408 23.8355 23.6696 22.8724 25.3667 21.2276L25.4774 21.1163L25.3781 21.0326C24.9914 20.7301 24.5171 20.5424 24.0083 20.5079L23.8374 20.5021L22.0777 20.5013C22.1386 20.7696 22.1708 21.0487 22.1708 21.3355V22.1688H14.6707V20.5021L20.3291 20.5013L20.3004 20.4359C19.9833 19.7746 19.3275 19.3065 18.5578 19.2566L18.4208 19.2521L15.9796 19.252C15.2235 18.4808 14.1701 18.0023 13.0049 18.0021ZM11.3374 17.1688H10.5041V23.0021H11.3374V17.1688ZM19.3761 10.9816L19.6705 11.2764L19.9653 10.9816C20.7789 10.168 22.0981 10.168 22.9117 10.9816C23.7253 11.7952 23.7253 13.1143 22.9117 13.9279L19.6708 17.1688L16.4298 13.9279C15.6162 13.1143 15.6162 11.7952 16.4298 10.9816C17.2434 10.168 18.5625 10.168 19.3761 10.9816ZM17.6083 12.1601C17.4637 12.3047 17.4477 12.5293 17.5595 12.691L17.6074 12.7485L19.6699 14.8113L21.7332 12.7494C21.8778 12.6047 21.8938 12.3802 21.7813 12.2178L21.7332 12.1601C21.5885 12.0155 21.364 11.9994 21.2014 12.112L21.1437 12.1603L19.6694 13.6341L18.1967 12.1592L18.1399 12.1119C17.9775 11.9994 17.753 12.0155 17.6083 12.1601Z" fill="#0F1114"/>
<defs>
<linearGradient id="paint0_linear_144_551" x1="0" y1="0" x2="36" y2="36" gradientUnits="userSpaceOnUse">
<stop stop-color="#4F15F4"/>
<stop offset="1" stop-color="#13A9EA" stop-opacity="0.5"/>
</linearGradient>
</defs>
</svg>
