<svg width="125" height="60" viewBox="0 0 125 60" fill="none" xmlns="http://www.w3.org/2000/svg">
<path fill-rule="evenodd" clip-rule="evenodd" d="M103.5 12.5C105.433 12.5 107 14.067 107 16C107 17.933 105.433 19.5 103.5 19.5H83.5C85.433 19.5 87 21.067 87 23C87 24.933 85.433 26.5 83.5 26.5H94.5C96.433 26.5 98 28.067 98 30C98 31.933 96.433 33.5 94.5 33.5H89.413C86.9758 33.5 85 35.067 85 37C85 38.2887 86 39.4553 88 40.5C89.933 40.5 91.5 42.067 91.5 44C91.5 45.933 89.933 47.5 88 47.5H46.5C44.567 47.5 43 45.933 43 44C43 42.067 44.567 40.5 46.5 40.5H27C25.067 40.5 23.5 38.933 23.5 37C23.5 35.067 25.067 33.5 27 33.5H47C48.933 33.5 50.5 31.933 50.5 30C50.5 28.067 48.933 26.5 47 26.5H34.5C32.567 26.5 31 24.933 31 23C31 21.067 32.567 19.5 34.5 19.5H54.5C54.5 19.5 54.5 17.933 54.5 16C54.5 14.067 54.5 12.5 54.5 12.5H103.5ZM103.5 26.5C105.433 26.5 107 28.067 107 30C107 31.933 105.433 33.5 103.5 33.5C101.567 33.5 100 31.933 100 30C100 28.067 101.567 26.5 103.5 26.5Z" fill="#D1E7FE"/>
<path fill-rule="evenodd" clip-rule="evenodd" d="M76.8357 12.0003L81.4866 45.9217L81.9045 49.3249C82.0391 50.4212 81.2594 51.4191 80.1631 51.5537L50.883 55.1488C49.7867 55.2834 48.7888 54.5038 48.6542 53.4075L44.1463 16.6937C44.079 16.1455 44.4688 15.6466 45.017 15.5793C45.0204 15.5789 45.0239 15.5785 45.0274 15.5781L47.4565 15.3056" fill="white"/>
<path d="M47.6618 53.5287L43.1539 16.8152C43.0193 15.7189 43.7989 14.721 44.8953 14.5864C44.902 14.5855 44.9088 14.5846 44.9156 14.5839L47.3448 14.3112C47.8937 14.2496 48.3893 14.6449 48.4508 15.1937C48.5124 15.7425 48.117 16.2372 47.5682 16.2988L45.139 16.5715L49.6468 53.285C49.7142 53.8332 50.2131 54.223 50.7613 54.1557L80.0414 50.5605L80.1426 50.5432C80.6367 50.4308 80.9751 49.9599 80.9121 49.4461L80.496 46.0575L75.8449 12.1361C75.7699 11.589 76.1531 11.0839 76.7002 11.0088C77.2473 10.934 77.7515 11.3172 77.8266 11.8643L82.4776 45.7857L82.8971 49.2024C83.0991 50.8469 81.9296 52.3437 80.2851 52.5456L51.005 56.1408C49.3605 56.3427 47.8637 55.1732 47.6618 53.5287Z" fill="#75AFFE"/>
<path fill-rule="evenodd" clip-rule="evenodd" d="M49.4209 15.084L51.7144 14.8267L49.4209 15.084Z" fill="white"/>
<path d="M51.6032 13.8337C52.152 13.7722 52.6466 14.1676 52.7082 14.7164C52.7698 15.2652 52.3744 15.7599 51.8256 15.8215L49.5323 16.0794C48.9836 16.1408 48.4889 15.7455 48.4273 15.1968C48.3657 14.6479 48.7611 14.1533 49.3099 14.0917L51.6032 13.8337Z" fill="#75AFFE"/>
<path fill-rule="evenodd" clip-rule="evenodd" d="M53.3359 9C53.3359 6.79086 55.1268 5 57.3359 5H77.2863C78.3467 5 79.3637 5.42109 80.1138 6.1707L85.6635 11.7169C86.4142 12.4672 86.8359 13.485 86.8359 14.5463V43C86.8359 45.2091 85.0451 47 82.8359 47H57.3359C55.1268 47 53.3359 45.2091 53.3359 43V9Z" fill="white"/>
<path d="M77.2861 5C78.3466 5 79.3642 5.42129 80.1143 6.1709L85.6631 11.7168C86.4137 12.4669 86.8358 13.4847 86.8359 14.5459V43C86.8359 45.2091 85.0451 47 82.8359 47H57.3359C55.1268 47 53.3359 45.2091 53.3359 43V9C53.3359 6.79086 55.1268 5 57.3359 5H77.2861ZM57.3359 7C56.2314 7 55.3359 7.89543 55.3359 9V43C55.3359 44.1046 56.2314 45 57.3359 45H82.8359C83.9405 45 84.8359 44.1046 84.8359 43V14.5459C84.8358 14.0155 84.6251 13.5068 84.25 13.1318L78.7002 7.58496C78.3252 7.21023 77.8163 7 77.2861 7H57.3359Z" fill="#1B6AFC"/>
<path d="M77.3359 12V6.20117C77.3359 5.64889 77.7837 5.20117 78.3359 5.20117C78.8882 5.20117 79.3359 5.64889 79.3359 6.20117V12C79.3361 12.276 79.5599 12.5 79.8359 12.5H83.8027C84.355 12.5 84.8027 12.9477 84.8027 13.5C84.8026 14.0522 84.3549 14.5 83.8027 14.5H79.8359C78.4553 14.5 77.3361 13.3806 77.3359 12Z" fill="#1B6AFC"/>
<path d="M72 38C72.5523 38 73 38.4477 73 39C73 39.5523 72.5523 40 72 40H59C58.4477 40 58 39.5523 58 39C58 38.4477 58.4477 38 59 38H72ZM80.5 31.5C81.0523 31.5 81.5 31.9477 81.5 32.5C81.5 33.0523 81.0523 33.5 80.5 33.5H59C58.4477 33.5 58 33.0523 58 32.5C58 31.9477 58.4477 31.5 59 31.5H80.5ZM80.5 25C81.0523 25 81.5 25.4477 81.5 26C81.5 26.5523 81.0523 27 80.5 27H59C58.4477 27 58 26.5523 58 26C58 25.4477 58.4477 25 59 25H80.5ZM80.5 18.5C81.0523 18.5 81.5 18.9477 81.5 19.5C81.5 20.0523 81.0523 20.5 80.5 20.5H59C58.4477 20.5 58 20.0523 58 19.5C58 18.9477 58.4477 18.5 59 18.5H80.5ZM72 12.5C72.5523 12.5 73 12.9477 73 13.5C73 14.0523 72.5523 14.5 72 14.5H59C58.4477 14.5 58 14.0523 58 13.5C58 12.9477 58.4477 12.5 59 12.5H72Z" fill="#75AFFE"/>
</svg>
