<svg width="125" height="60" viewBox="0 0 125 60" fill="none" xmlns="http://www.w3.org/2000/svg">
<path fill-rule="evenodd" clip-rule="evenodd" d="M103.5 8.5C105.433 8.5 107 10.067 107 12C107 13.933 105.433 15.5 103.5 15.5H83.5C85.433 15.5 87 17.067 87 19C87 20.933 85.433 22.5 83.5 22.5H94.5C96.433 22.5 98 24.067 98 26C98 27.933 96.433 29.5 94.5 29.5H89.413C86.9758 29.5 85 31.067 85 33C85 34.2887 86 35.4553 88 36.5C89.933 36.5 91.5 38.067 91.5 40C91.5 41.933 89.933 43.5 88 43.5H46.5C44.567 43.5 43 41.933 43 40C43 38.067 44.567 36.5 46.5 36.5H27C25.067 36.5 23.5 34.933 23.5 33C23.5 31.067 25.067 29.5 27 29.5H47C48.933 29.5 50.5 27.933 50.5 26C50.5 24.067 48.933 22.5 47 22.5H34.5C32.567 22.5 31 20.933 31 19C31 17.067 32.567 15.5 34.5 15.5H54.5C52.567 15.5 51 13.933 51 12C51 10.067 60 10.5 59.5 8L103.5 8.5ZM103.5 22.5C105.433 22.5 107 24.067 107 26C107 27.933 105.433 29.5 103.5 29.5C101.567 29.5 100 27.933 100 26C100 24.067 101.567 22.5 103.5 22.5Z" fill="#D1E7FE"/>
<path d="M60.25 42.5C69.5008 42.5 77 35.0008 77 25.75C77 16.4992 69.5008 9 60.25 9C50.9992 9 43.5 16.4992 43.5 25.75C43.5 35.0008 50.9992 42.5 60.25 42.5Z" fill="#D1E7FE"/>
<path d="M76 25.75C76 17.0515 68.9485 10 60.25 10C51.5515 10 44.5 17.0515 44.5 25.75C44.5 34.4485 51.5515 41.5 60.25 41.5C68.9485 41.5 76 34.4485 76 25.75ZM78 25.75C78 35.5531 70.0531 43.5 60.25 43.5C50.4469 43.5 42.5 35.5531 42.5 25.75C42.5 15.9469 50.4469 8 60.25 8C70.0531 8 78 15.9469 78 25.75Z" fill="#1B6AFC"/>
<path fill-rule="evenodd" clip-rule="evenodd" d="M57.566 38.7469C58.4454 38.9093 59.3401 38.9936 60.25 39C67.5678 39 73.5 33.0678 73.5 25.75C73.5 18.4322 67.5678 12.5 60.25 12.5C58.3702 12.5 56.5818 12.8915 54.9619 13.5973C52.1469 14.8239 49.8408 17 48.448 19.7209C47.5223 21.5295 47 23.5787 47 25.75C47 27.72 47.4299 29.5896 48.2011 31.2701C48.7516 32.4698 49.4761 33.5731 50.3422 34.5478" fill="white"/>
<path d="M72.5 25.75C72.5 18.9845 67.0155 13.5 60.25 13.5C58.5102 13.5 56.8575 13.8617 55.3613 14.5137C52.7592 15.6475 50.6258 17.6607 49.3379 20.1768C48.4827 21.8475 48 23.7409 48 25.75C48 27.5731 48.3981 29.3003 49.1104 30.8525C49.6191 31.9613 50.2887 32.9822 51.0898 33.8838C51.4564 34.2965 51.4192 34.9281 51.0068 35.2949C50.594 35.6618 49.9616 35.6248 49.5947 35.2119C48.6638 34.1643 47.8843 32.9781 47.292 31.6875C46.462 29.8788 46 27.8668 46 25.75C46 23.4168 46.5615 21.2118 47.5576 19.2656C49.0553 16.3397 51.5347 14 54.5625 12.6807C56.306 11.9209 58.2302 11.5 60.25 11.5C68.1201 11.5 74.5 17.8799 74.5 25.75C74.5 33.6201 68.1201 40 60.25 40H60.2432C59.2758 39.9932 58.3226 39.9036 57.3848 39.7305C56.8417 39.6302 56.4828 39.1085 56.583 38.5654C56.6833 38.0225 57.2041 37.6637 57.7471 37.7637C58.5669 37.915 59.4026 37.9929 60.2539 37.999C67.0176 37.9969 72.5 32.5142 72.5 25.75Z" fill="#1B6AFC"/>
<path d="M51.1223 35.4065C51.4706 34.978 52.101 34.9127 52.5296 35.261C53.5229 36.0684 54.6445 36.7233 55.8587 37.1897C56.3742 37.3877 56.6318 37.9662 56.4338 38.4817C56.2358 38.9973 55.6574 39.2549 55.1419 39.0569C53.7277 38.5137 52.4225 37.7522 51.2678 36.8137C50.8393 36.4654 50.7741 35.8351 51.1223 35.4065Z" fill="#1B6AFC"/>
<path d="M77.707 41.293L76.293 42.707L73.293 39.707L74.707 38.293L77.707 41.293Z" fill="#1B6AFC"/>
<path fill-rule="evenodd" clip-rule="evenodd" d="M76.5154 41.5145C75.5691 42.4608 75.5691 43.9952 76.5154 44.9415L82.0581 50.4842C83.0044 51.4305 84.5388 51.4305 85.4851 50.4842C86.4315 49.5378 86.4315 48.0035 85.4851 47.0571L79.9425 41.5145C78.9961 40.5681 77.4618 40.5681 76.5154 41.5145Z" fill="#D1E7FE"/>
<path d="M75.8083 40.8093C77.1452 39.4724 79.3123 39.4724 80.6491 40.8093L86.1921 46.3513C87.529 47.6882 87.529 49.8562 86.1921 51.1931C84.8552 52.53 82.6872 52.53 81.3503 51.1931L75.8083 45.6501C74.4714 44.3132 74.4714 42.1462 75.8083 40.8093ZM79.2351 42.2234C78.6793 41.6675 77.7782 41.6675 77.2224 42.2234C76.6666 42.7792 76.6666 43.6802 77.2224 44.2361L82.7654 49.779C83.3212 50.3345 84.2223 50.3347 84.7781 49.779C85.3338 49.2233 85.3335 48.3222 84.7781 47.7663L79.2351 42.2234Z" fill="#1B6AFC"/>
<path d="M78.2929 41.7929C78.6834 41.4024 79.3164 41.4024 79.707 41.7929L85.207 47.2929C85.5975 47.6834 85.5975 48.3164 85.207 48.707C84.8164 49.0975 84.1834 49.0975 83.7929 48.707L78.2929 43.207C77.9024 42.8164 77.9024 42.1834 78.2929 41.7929Z" fill="white"/>
<path fill-rule="evenodd" clip-rule="evenodd" d="M57.0003 20.0003C57.0003 25.7993 61.7013 30.5003 67.5003 30.5003C68.6394 30.5003 69.7362 30.3188 70.7634 29.9833C69.0868 34.1438 65.0115 37.0806 60.2503 37.0806C53.9927 37.0806 48.9199 32.0078 48.9199 25.7503C48.9199 20.08 53.0851 15.3826 58.5228 14.5508C57.5567 16.1399 57.0003 18.0051 57.0003 20.0003Z" fill="#D1E7FE"/>
<path d="M50 26C50 21.6408 52.6563 17.9044 56.4346 16.3164C56.8761 16.1309 57.3752 16.2865 57.6396 16.6631C57.6479 16.2029 57.9754 15.7945 58.4453 15.7012C59.1106 15.5691 59.7977 15.5 60.5 15.5C61.0523 15.5 61.5 15.9477 61.5 16.5C61.5 17.0523 61.0523 17.5 60.5 17.5C59.929 17.5 59.3718 17.5563 58.834 17.6631C58.4333 17.7425 58.0418 17.57 57.8213 17.2559C57.8142 17.6396 57.5866 18.0019 57.21 18.1602C54.1476 19.4471 52 22.4738 52 26C52 26.5523 51.5523 27 51 27C50.4477 27 50 26.5523 50 26Z" fill="#75AFFE"/>
<path d="M87.0879 24.8887C87.6402 24.8887 88.0879 25.3364 88.0879 25.8887C88.0879 26.441 87.6402 26.8887 87.0879 26.8887H83C82.4477 26.8887 82 26.441 82 25.8887C82 25.3364 82.4477 24.8887 83 24.8887H87.0879ZM90.25 21C90.8023 21 91.25 21.4477 91.25 22C91.25 22.5523 90.8023 23 90.25 23H81.6621C81.1098 23 80.6621 22.5523 80.6621 22C80.6621 21.4477 81.1098 21 81.6621 21H90.25ZM93.75 21C94.3023 21 94.75 21.4477 94.75 22C94.75 22.5523 94.3023 23 93.75 23H92.6396C92.0874 23 91.6396 22.5523 91.6396 22C91.6396 21.4477 92.0874 21 92.6396 21H93.75Z" fill="#75AFFE"/>
<path d="M42.0879 35.8887C42.6402 35.8887 43.0879 36.3364 43.0879 36.8887C43.0879 37.441 42.6402 37.8887 42.0879 37.8887H38C37.4478 37.8885 37 37.4409 37 36.8887C37 36.3365 37.4478 35.8888 38 35.8887H42.0879ZM28.25 31.5C28.8023 31.5 29.25 31.9477 29.25 32.5C29.25 33.0523 28.8023 33.5 28.25 33.5H26.1396C25.5874 33.5 25.1396 33.0523 25.1396 32.5C25.1396 31.9477 25.5874 31.5 26.1396 31.5H28.25ZM39.75 31.5C40.3023 31.5 40.75 31.9477 40.75 32.5C40.75 33.0523 40.3023 33.5 39.75 33.5H31.1621C30.6099 33.4999 30.1621 33.0522 30.1621 32.5C30.1621 31.9478 30.6099 31.5001 31.1621 31.5H39.75Z" fill="#75AFFE"/>
</svg>
