<svg width="36" height="36" viewBox="0 0 36 36" fill="none" xmlns="http://www.w3.org/2000/svg">
<rect width="36" height="36" rx="18" fill="url(#paint0_linear_144_607)" fill-opacity="0.3"/>
<path d="M11.3332 21.3333V24.6666H14.6665V26.3333H9.6665V21.3333H11.3332ZM26.3332 21.3333V26.3333H21.3332V24.6666H24.6665V21.3333H26.3332ZM14.2498 13.8333C14.2498 15.618 15.4965 17.1115 17.1665 17.4904V22.1666H18.8332L18.834 17.4902C20.5036 17.111 21.7498 15.6177 21.7498 13.8333H23.4165C23.4165 15.9227 22.2335 17.7358 20.5008 18.6393L20.4998 23.8333H15.4998L15.4998 18.6397C13.7666 17.7364 12.5832 15.923 12.5832 13.8333H14.2498ZM17.9998 12.1666C19.1504 12.1666 20.0832 13.0994 20.0832 14.25C20.0832 15.4006 19.1504 16.3333 17.9998 16.3333C16.8493 16.3333 15.9165 15.4006 15.9165 14.25C15.9165 13.0994 16.8493 12.1666 17.9998 12.1666ZM14.6665 9.66663V11.3333L11.3332 11.3325V14.6666H9.6665V9.66663H14.6665ZM26.3332 9.66663V14.6666H24.6665V11.3333H21.3332V9.66663H26.3332Z" fill="#0F1114"/>
<defs>
<linearGradient id="paint0_linear_144_607" x1="0" y1="0" x2="36" y2="36" gradientUnits="userSpaceOnUse">
<stop stop-color="#1F93FF"/>
<stop offset="1" stop-color="#00FFE0" stop-opacity="0.5"/>
</linearGradient>
</defs>
</svg>
