<svg width="36" height="36" viewBox="0 0 36 36" fill="none" xmlns="http://www.w3.org/2000/svg">
<rect width="36" height="36" rx="18" fill="url(#paint0_linear_144_1284)" fill-opacity="0.3"/>
<path d="M18 18.8331L23 26.3331H13L18 18.8331ZM18 21.8331L16.1167 24.6664H19.8834L18 21.8331ZM17.1161 16.8003C16.628 16.3122 16.628 15.5207 17.1161 15.0326C17.6043 14.5444 18.3958 14.5444 18.884 15.0326C19.372 15.5207 19.372 16.3122 18.884 16.8003C18.3958 17.2885 17.6043 17.2885 17.1161 16.8003ZM12.4021 10.3185L13.5806 11.497C11.1399 13.9378 11.1399 17.8951 13.5806 20.3358L12.4021 21.5144C9.31046 18.4227 9.31046 13.4102 12.4021 10.3185ZM23.598 10.3185C26.6896 13.4102 26.6896 18.4227 23.598 21.5144L22.4195 20.3358C24.8602 17.8951 24.8602 13.9378 22.4195 11.497L23.598 10.3185ZM14.7591 12.6755L15.9377 13.854C14.7986 14.9931 14.7986 16.8398 15.9377 17.9788L14.7591 19.1573C12.9692 17.3674 12.9692 14.4654 14.7591 12.6755ZM21.241 12.6755C23.0309 14.4654 23.0309 17.3674 21.241 19.1573L20.0625 17.9788C21.2015 16.8398 21.2015 14.9931 20.0625 13.854L21.241 12.6755Z" fill="#0F1114"/>
<defs>
<linearGradient id="paint0_linear_144_1284" x1="0" y1="0" x2="36" y2="36" gradientUnits="userSpaceOnUse">
<stop stop-color="#159DFF"/>
<stop offset="1" stop-color="#85FF3A" stop-opacity="0.5"/>
</linearGradient>
</defs>
</svg>
