<svg width="36" height="36" viewBox="0 0 36 36" fill="none" xmlns="http://www.w3.org/2000/svg">
<rect width="36" height="36" rx="18" fill="url(#paint0_linear_144_1072)" fill-opacity="0.3"/>
<path d="M11.3333 13.119V23.8057L15.5539 21.9969L20.554 24.4969L24.6666 22.7343V12.0476L25.7525 11.5822C25.964 11.4916 26.209 11.5896 26.2996 11.8011C26.3218 11.853 26.3333 11.9088 26.3333 11.9652V23.8333L20.5 26.3333L15.5 23.8333L10.2474 26.0844C10.0359 26.1751 9.79097 26.0771 9.70032 25.8656C9.67808 25.8137 9.66663 25.7578 9.66663 25.7014V13.8333L11.3333 13.119ZM21.5355 17.3688L18 20.9044L14.4644 17.3688C12.5118 15.4162 12.5118 12.2504 14.4644 10.2978C16.417 8.34517 19.5829 8.34517 21.5355 10.2978C23.4881 12.2504 23.4881 15.4162 21.5355 17.3688ZM18 18.5474L20.357 16.1904C21.6587 14.8886 21.6587 12.7781 20.357 11.4763C19.0552 10.1746 16.9447 10.1746 15.6429 11.4763C14.3412 12.7781 14.3412 14.8886 15.6429 16.1904L18 18.5474Z" fill="#0F1114"/>
<defs>
<linearGradient id="paint0_linear_144_1072" x1="0" y1="0" x2="36" y2="36" gradientUnits="userSpaceOnUse">
<stop stop-color="#F48015"/>
<stop offset="1" stop-color="#5DF415" stop-opacity="0.5"/>
</linearGradient>
</defs>
</svg>
