<svg width="172" height="172" viewBox="0 0 172 172" fill="none" xmlns="http://www.w3.org/2000/svg">
<g clip-path="url(#clip0_324_5268)">
<path d="M113.762 44.8275C109.328 43.645 105.216 41.1187 101.614 36.3081C102.77 31.2825 103.899 26.2837 105.054 21.2581C108.656 26.0687 112.768 28.595 117.202 29.7775C116.073 34.8031 114.918 39.8287 113.762 44.8275Z" fill="#324A5E"/>
<path d="M127.791 45.15C122.953 45.795 118.196 45.9831 113.789 44.8275C114.944 39.8019 116.073 34.8031 117.229 29.7775C121.663 30.96 126.393 30.745 131.231 30.1C130.075 35.1256 128.919 40.1512 127.791 45.15Z" fill="#EFF3F5"/>
<path d="M142.411 42.7581C137.573 43.4031 132.628 44.505 127.791 45.15C128.946 40.1244 130.075 35.1256 131.231 30.1C136.068 29.455 141.013 28.3531 145.851 27.7081C144.695 32.7338 143.566 37.7325 142.411 42.7581Z" fill="#324A5E"/>
<path d="M156.413 43.0806C151.978 41.8981 147.248 42.1131 142.411 42.7581C143.566 37.7325 144.695 32.7338 145.851 27.7081C150.688 27.0631 155.445 26.875 159.853 28.0306C158.724 33.0563 157.568 38.055 156.413 43.0806Z" fill="#EFF3F5"/>
<path d="M168.56 51.6C164.959 46.7894 160.847 44.2631 156.412 43.0806C157.568 38.055 158.697 33.0563 159.852 28.0306C164.287 29.2131 168.399 31.7394 172 36.55C170.844 41.5756 169.716 46.5744 168.56 51.6Z" fill="#324A5E"/>
<path d="M110.322 59.8775C105.887 58.695 101.776 56.1687 98.1743 51.3581C99.3299 46.3325 100.459 41.3337 101.614 36.3081C105.216 41.1187 109.327 43.645 113.762 44.8275C112.633 49.8531 111.477 54.8787 110.322 59.8775Z" fill="#EFF3F5"/>
<path d="M124.351 60.2269C119.513 60.8719 114.756 61.06 110.349 59.9044C111.504 54.8787 112.633 49.88 113.789 44.8544C118.223 46.0369 122.953 45.8219 127.791 45.1769C126.635 50.1756 125.479 55.2012 124.351 60.2269Z" fill="#324A5E"/>
<path d="M138.971 57.8081C134.133 58.4531 129.188 59.555 124.351 60.2C125.506 55.1744 126.635 50.1756 127.791 45.15C132.628 44.505 137.573 43.4031 142.411 42.7581C141.255 47.7837 140.126 52.7825 138.971 57.8081Z" fill="#EFF3F5"/>
<path d="M152.972 58.1306C148.538 56.9481 143.808 57.1631 138.971 57.8081C140.126 52.7825 141.255 47.7837 142.411 42.7581C147.248 42.1131 152.005 41.925 156.412 43.0806C155.284 48.1063 154.128 53.1319 152.972 58.1306Z" fill="#324A5E"/>
<path d="M165.12 66.65C161.519 61.8394 157.407 59.3131 152.973 58.1306C154.128 53.105 155.257 48.1063 156.413 43.0806C160.847 44.2631 164.959 46.7894 168.56 51.6C167.404 56.6256 166.276 61.6512 165.12 66.65Z" fill="#EFF3F5"/>
<path d="M106.882 74.9275C102.448 73.745 98.3356 71.2187 94.7344 66.4081C95.89 61.3825 97.0187 56.3837 98.1744 51.3581C101.776 56.1687 105.887 58.695 110.322 59.8775C109.193 64.9031 108.038 69.9287 106.882 74.9275Z" fill="#324A5E"/>
<path d="M120.911 75.2769C116.073 75.9219 111.316 76.11 106.909 74.9544C108.064 69.9287 109.193 64.93 110.349 59.9044C114.783 61.0869 119.513 60.8719 124.351 60.2269C123.195 65.2256 122.039 70.2512 120.911 75.2769Z" fill="#EFF3F5"/>
<path d="M135.531 72.8581C130.693 73.5031 125.748 74.605 120.911 75.25C122.066 70.2244 123.195 65.2256 124.351 60.2C129.188 59.555 134.133 58.4531 138.971 57.8081C137.815 62.8337 136.686 67.8594 135.531 72.8581Z" fill="#324A5E"/>
<path d="M149.533 73.1806C145.098 71.9981 140.368 72.2131 135.531 72.8581C136.686 67.8325 137.815 62.8338 138.971 57.8081C143.808 57.1631 148.565 56.975 152.973 58.1306C151.844 63.1563 150.688 68.1819 149.533 73.1806Z" fill="#EFF3F5"/>
<path d="M161.68 81.7C158.079 76.8894 153.967 74.3631 149.532 73.1806C150.688 68.155 151.817 63.1562 152.972 58.1306C157.407 59.3131 161.519 61.8394 165.12 66.65C163.964 71.6756 162.836 76.7012 161.68 81.7Z" fill="#324A5E"/>
<path d="M65.1934 159.629L99.2574 10.5807L107.116 12.3759L73.0543 161.425L65.1934 159.629Z" fill="#E5C06E"/>
<path d="M58.2381 44.8275C62.6725 43.645 66.7843 41.1187 70.3856 36.3081C69.23 31.2825 68.1012 26.2837 66.9456 21.2581C63.3443 26.0687 59.2325 28.595 54.7981 29.7775C55.9268 34.8031 57.0825 39.8287 58.2381 44.8275Z" fill="#324A5E"/>
<path d="M44.2094 45.15C49.0469 45.795 53.8038 45.9831 58.2113 44.8275C57.0557 39.8019 55.9269 34.8031 54.7713 29.7775C50.3369 30.96 45.6069 30.745 40.7694 30.1C41.925 35.1256 43.0807 40.1512 44.2094 45.15Z" fill="#EFF3F5"/>
<path d="M29.5894 42.7581C34.4269 43.4031 39.3719 44.505 44.2094 45.15C43.0538 40.1244 41.925 35.1256 40.7694 30.1C35.9319 29.455 30.9869 28.3531 26.1494 27.7081C27.305 32.7338 28.4338 37.7325 29.5894 42.7581Z" fill="#324A5E"/>
<path d="M15.5875 43.0806C20.0218 41.8981 24.7518 42.1131 29.5893 42.7581C28.4337 37.7325 27.305 32.7338 26.1493 27.7081C21.3118 27.0631 16.555 26.875 12.1475 28.0306C13.2762 33.0563 14.4318 38.055 15.5875 43.0806Z" fill="#EFF3F5"/>
<path d="M3.44 51.6C7.04125 46.7894 11.1531 44.2631 15.5875 43.0806C14.4319 38.055 13.3031 33.0563 12.1475 28.0306C7.71313 29.2131 3.60125 31.7394 0 36.55C1.15562 41.5756 2.28437 46.5744 3.44 51.6Z" fill="#324A5E"/>
<path d="M61.6782 59.8775C66.1125 58.695 70.2244 56.1687 73.8257 51.3581C72.67 46.3325 71.5413 41.3337 70.3857 36.3081C66.7844 41.1187 62.6725 43.645 58.2382 44.8275C59.3669 49.8531 60.5225 54.8787 61.6782 59.8775Z" fill="#EFF3F5"/>
<path d="M47.6493 60.2269C52.4868 60.8719 57.2437 61.06 61.6512 59.9044C60.4956 54.8787 59.3668 49.88 58.2112 44.8544C53.7768 46.0369 49.0469 45.8219 44.2094 45.1769C45.365 50.1756 46.5206 55.2012 47.6493 60.2269Z" fill="#324A5E"/>
<path d="M33.0293 57.8081C37.8668 58.4531 42.8118 59.555 47.6762 60.2C46.5206 55.1744 45.3918 50.1756 44.2362 45.15C39.3987 44.505 34.4537 43.4031 29.6162 42.7581C30.745 47.7837 31.8737 52.7825 33.0293 57.8081Z" fill="#EFF3F5"/>
<path d="M19.0275 58.1306C23.4619 56.9481 28.1919 57.1631 33.0294 57.8081C31.8738 52.7825 30.745 47.7837 29.5894 42.7581C24.7519 42.1131 19.995 41.925 15.5875 43.0806C16.7163 48.1063 17.8719 53.1319 19.0275 58.1306Z" fill="#324A5E"/>
<path d="M6.87994 66.65C10.4812 61.8394 14.5931 59.3131 19.0274 58.1306C17.8718 53.105 16.7431 48.1063 15.5874 43.0806C11.1531 44.2631 7.04119 46.7894 3.43994 51.6C4.59557 56.6256 5.72432 61.6512 6.87994 66.65Z" fill="#EFF3F5"/>
<path d="M65.1181 74.9275C69.5525 73.745 73.6643 71.2187 77.2656 66.4081C76.11 61.3825 74.9812 56.3837 73.8256 51.3581C70.2243 56.1687 66.1125 58.695 61.6781 59.8775C62.8069 64.9031 63.9625 69.9287 65.1181 74.9275Z" fill="#324A5E"/>
<path d="M51.0894 75.2769C55.9269 75.9219 60.6838 76.11 65.0913 74.9544C63.9357 69.9287 62.8069 64.93 61.6513 59.9044C57.2169 61.0869 52.4869 60.8719 47.6494 60.2269C48.805 65.2256 49.9607 70.2512 51.0894 75.2769Z" fill="#EFF3F5"/>
<path d="M36.4693 72.8581C41.3068 73.5031 46.2518 74.605 51.0893 75.25C49.9337 70.2244 48.8049 65.2256 47.6493 60.2C42.8118 59.555 37.8668 58.4531 33.0024 57.8081C34.1849 62.8337 35.3137 67.8594 36.4693 72.8581Z" fill="#324A5E"/>
<path d="M22.4675 73.1806C26.9018 71.9981 31.6318 72.2131 36.4693 72.8581C35.3137 67.8325 34.185 62.8338 33.0293 57.8081C28.1918 57.1631 23.435 56.975 19.0275 58.1306C20.1562 63.1563 21.3118 68.1819 22.4675 73.1806Z" fill="#EFF3F5"/>
<path d="M10.32 81.7C13.9213 76.8894 18.0331 74.3631 22.4675 73.1806C21.3119 68.155 20.1831 63.1562 19.0275 58.1306C14.5931 59.3131 10.4813 61.8394 6.88 66.65C8.03563 71.6756 9.16438 76.7012 10.32 81.7Z" fill="#324A5E"/>
<path d="M64.9111 12.3786L72.7694 10.5807L106.833 159.629L98.9725 161.427L64.9111 12.3786Z" fill="#FBD984"/>
</g>
<defs>
<clipPath id="clip0_324_5268">
<rect width="172" height="172" fill="white"/>
</clipPath>
</defs>
</svg>
