<svg width="36" height="36" viewBox="0 0 36 36" fill="none" xmlns="http://www.w3.org/2000/svg">
<rect width="36" height="36" rx="18" fill="url(#paint0_linear_129_882)" fill-opacity="0.3"/>
<path d="M24.0355 11.9645C25.2542 13.1857 25.7123 14.875 25.4104 16.4473C25.8845 16.581 26.3323 16.8335 26.706 17.2044C27.8759 18.3658 27.8759 20.2489 26.706 21.4103L22.1667 25.9167L19.6484 23.4167L17.1666 25.9042L10.1012 18.8275C8.34758 16.8642 8.41313 13.8492 10.2978 11.9645C12.1847 10.0776 15.2044 10.0141 17.1675 11.7738C19.125 10.0167 22.15 10.075 24.0355 11.9645ZM18.8017 18.3872C18.2884 18.8968 18.2884 19.7179 18.8017 20.2275L22.1667 23.5682L25.5317 20.2275C26.045 19.7179 26.045 18.8968 25.5317 18.3872C25.0117 17.8709 24.1635 17.8709 23.6417 18.389L22.165 19.8505L20.9925 18.6875L20.6899 18.3872C20.1699 17.8709 19.3217 17.8709 18.8017 18.3872ZM11.4763 13.143C10.2349 14.3844 10.1726 16.3728 11.3166 17.686L17.1666 23.5453L18.4659 22.2433L17.6275 21.4103C16.4575 20.2489 16.4575 18.3658 17.6275 17.2044C18.7974 16.043 20.6942 16.043 21.8641 17.2044L22.1664 17.5043L22.4693 17.2044C22.8231 16.8532 23.2435 16.6081 23.69 16.4693C24.0364 15.3298 23.7549 14.0427 22.8559 13.1418C21.6066 11.89 19.5897 11.8392 18.2809 13.0141L17.1683 14.0127L16.0551 13.0148C14.7425 11.8383 12.7293 11.8901 11.4763 13.143Z" fill="#0F1114"/>
<defs>
<linearGradient id="paint0_linear_129_882" x1="0" y1="0" x2="36" y2="36" gradientUnits="userSpaceOnUse">
<stop stop-color="#4F15F4"/>
<stop offset="1" stop-color="#13A9EA" stop-opacity="0.5"/>
</linearGradient>
</defs>
</svg>
