<svg width="36" height="36" viewBox="0 0 36 36" fill="none" xmlns="http://www.w3.org/2000/svg">
<rect width="36" height="36" rx="18" fill="url(#paint0_linear_144_642)" fill-opacity="0.3"/>
<path d="M13.3788 23.8333L9.66663 26.75V11.3333C9.66663 10.8731 10.0397 10.5 10.5 10.5H25.5C25.9602 10.5 26.3333 10.8731 26.3333 11.3333V23C26.3333 23.4602 25.9602 23.8333 25.5 23.8333H13.3788ZM11.3333 23.3209L12.8023 22.1667H24.6666V12.1667H11.3333V23.3209ZM18.0148 20.2498L15.2158 17.4508C14.4836 16.7186 14.4836 15.5314 15.2158 14.7992C15.948 14.0669 17.1352 14.0669 17.8675 14.7992L18.0148 14.9465L18.162 14.7992C18.8943 14.0669 20.0815 14.0669 20.8137 14.7992C21.546 15.5314 21.546 16.7186 20.8137 17.4508L18.0148 20.2498Z" fill="#0F1114"/>
<defs>
<linearGradient id="paint0_linear_144_642" x1="0" y1="0" x2="36" y2="36" gradientUnits="userSpaceOnUse">
<stop stop-color="#FF3AEB"/>
<stop offset="1" stop-color="#3AF3FF" stop-opacity="0.5"/>
</linearGradient>
</defs>
</svg>
