<svg width="251" height="200" viewBox="0 0 251 200" fill="none" xmlns="http://www.w3.org/2000/svg">
<path fill-rule="evenodd" clip-rule="evenodd" d="M207.5 65C211.366 65 214.5 68.134 214.5 72C214.5 75.866 211.366 79 207.5 79H167.5C171.366 79 174.5 82.134 174.5 86C174.5 89.866 171.366 93 167.5 93H189.5C193.366 93 196.5 96.134 196.5 100C196.5 103.866 193.366 107 189.5 107H179.326C174.452 107 170.5 110.134 170.5 114C170.5 116.577 172.5 118.911 176.5 121C180.366 121 183.5 124.134 183.5 128C183.5 131.866 180.366 135 176.5 135H93.5C89.634 135 86.5 131.866 86.5 128C86.5 124.134 89.634 121 93.5 121H54.5C50.634 121 47.5 117.866 47.5 114C47.5 110.134 50.634 107 54.5 107H94.5C98.366 107 101.5 103.866 101.5 100C101.5 96.134 98.366 93 94.5 93H69.5C65.634 93 62.5 89.866 62.5 86C62.5 82.134 65.634 79 69.5 79H109.5C105.634 79 102.5 75.866 102.5 72C102.5 68.134 105.634 65 109.5 65H207.5ZM207.5 93C211.366 93 214.5 96.134 214.5 100C214.5 103.866 211.366 107 207.5 107C203.634 107 200.5 103.866 200.5 100C200.5 96.134 203.634 93 207.5 93Z" fill="#EEF3F7"/>
<path fill-rule="evenodd" clip-rule="evenodd" d="M73.2707 94H72.3228C66.2592 94 61.3438 89.0917 61.3438 83.037C61.3438 76.9824 66.2592 72.0741 72.3228 72.0741C72.3619 72.0741 72.401 72.0743 72.4401 72.0747C73.4161 63.5831 80.3646 57 88.7914 57C97.6731 57 104.913 64.3132 105.248 73.4661C110.618 73.8128 115.344 79.0396 115.344 84.4897C115.344 88.9647 112.03 94 108.104 94H80.802" fill="white"/>
<path d="M73.2707 94H72.3228C66.2592 94 61.3438 89.0917 61.3438 83.037C61.3438 76.9824 66.2592 72.0741 72.3228 72.0741C72.3619 72.0741 72.401 72.0743 72.4401 72.0747C73.4161 63.5831 80.3646 57 88.7914 57C97.6731 57 104.913 64.3132 105.248 73.4661C110.618 73.8128 115.344 79.0396 115.344 84.4897C115.344 88.9647 112.03 94 108.104 94H80.802" stroke="#A180FF" stroke-width="2.5" stroke-linecap="round"/>
<path d="M133.6 139.242C133.424 139.462 133.227 139.663 133.011 139.842C131.301 141.254 128.794 140.993 127.4 139.242C117.118 126.324 109.436 115.134 104.331 105.664C99.2111 96.1666 96.75 88.5216 96.75 82.6608C96.75 63.6341 111.882 48.25 130.5 48.25C149.118 48.25 164.25 63.6341 164.25 82.6608C164.25 88.5216 161.789 96.1666 156.669 105.664C151.564 115.134 143.882 126.324 133.6 139.242L134.578 140.02L133.6 139.242Z" fill="white" stroke="#642EFF" stroke-width="2.5"/>
<path fill-rule="evenodd" clip-rule="evenodd" d="M104.523 98.2466C105.362 100.138 106.34 102.139 107.463 104.252C112.243 113.243 119.474 123.94 129.225 136.363C129.81 137.11 130.829 137.206 131.526 136.621C131.617 136.545 131.7 136.459 131.775 136.363C141.526 123.94 148.757 113.243 153.537 104.252C158.355 95.188 160.5 88.1868 160.5 83.0645C160.5 70.4005 153.201 59.559 142.77 54.711C141.37 59.5107 139.459 64.0926 137.1 68.3936C142.752 70.9559 146.691 76.7076 146.691 83.3922C146.691 92.461 139.442 99.8127 130.5 99.8127C124.474 99.8127 119.217 96.474 116.43 91.5212C112.716 94.1398 108.73 96.3986 104.523 98.2466Z" fill="#642EFF" fill-opacity="0.08"/>
<path d="M113.421 138.23C114.101 138.109 114.553 137.459 114.431 136.78C114.31 136.1 113.66 135.648 112.981 135.77L113.421 138.23ZM106.008 137.4C105.346 137.598 104.971 138.295 105.169 138.956C105.367 139.618 106.063 139.993 106.725 139.795L106.008 137.4ZM102.706 141.234C103.34 140.961 103.632 140.226 103.359 139.592C103.086 138.958 102.351 138.665 101.717 138.938L102.706 141.234ZM148.547 135.866C147.869 135.74 147.216 136.187 147.09 136.866C146.963 137.545 147.411 138.197 148.09 138.324L148.547 135.866ZM112.981 135.77C110.457 136.221 108.116 136.769 106.008 137.4L106.725 139.795C108.729 139.195 110.976 138.668 113.421 138.23L112.981 135.77ZM101.717 138.938C99.5329 139.878 97.7097 140.963 96.4133 142.191C95.1152 143.421 94.25 144.892 94.25 146.565H96.75C96.75 145.815 97.1302 144.956 98.1326 144.006C99.1367 143.055 100.669 142.111 102.706 141.234L101.717 138.938ZM94.25 146.565C94.25 148.663 95.6011 150.435 97.5049 151.85C99.4322 153.282 102.141 154.519 105.376 155.535C111.862 157.574 120.744 158.815 130.5 158.815V156.315C120.926 156.315 112.308 155.093 106.126 153.15C103.028 152.177 100.611 151.043 98.996 149.843C97.3576 148.626 96.75 147.504 96.75 146.565H94.25ZM130.5 158.815C140.256 158.815 149.138 157.574 155.624 155.535C158.859 154.519 161.568 153.282 163.495 151.85C165.399 150.435 166.75 148.663 166.75 146.565H164.25C164.25 147.504 163.642 148.626 162.004 149.843C160.389 151.043 157.972 152.177 154.874 153.15C148.692 155.093 140.074 156.315 130.5 156.315V158.815ZM166.75 146.565C166.75 143.797 164.425 141.591 161.36 139.937C158.193 138.227 153.758 136.836 148.547 135.866L148.09 138.324C153.165 139.269 157.321 140.598 160.173 142.137C163.127 143.731 164.25 145.302 164.25 146.565H166.75Z" fill="#642EFF"/>
<circle cx="130.5" cy="83" r="15.75" stroke="#642EFF" stroke-width="2.5"/>
<path fill-rule="evenodd" clip-rule="evenodd" d="M173.289 57.2237C172.375 54.9372 170.563 53.1254 168.276 52.2106L166.5 51.5L168.276 50.7893C170.563 49.8746 172.375 48.0628 173.289 45.7763L174 44L174.711 45.7763C175.625 48.0628 177.437 49.8746 179.724 50.7893L181.5 51.5L179.724 52.2106C177.437 53.1254 175.625 54.9372 174.711 57.2237L174 59L173.289 57.2237Z" stroke="#A180FF" stroke-width="2.5" stroke-linejoin="round"/>
<path fill-rule="evenodd" clip-rule="evenodd" d="M153.191 128H152.5C148.082 128 144.5 124.418 144.5 120C144.5 115.582 148.082 112 152.5 112C152.529 112 152.557 112 152.585 112C153.297 105.804 158.36 101 164.5 101C170.972 101 176.247 106.337 176.491 113.016C180.404 113.269 183.848 117.083 183.848 121.06C183.848 124.326 181.433 128 178.572 128H158.678" fill="white"/>
<path d="M153.191 128H152.5C148.082 128 144.5 124.418 144.5 120C144.5 115.582 148.082 112 152.5 112C152.529 112 152.557 112 152.585 112C153.297 105.804 158.36 101 164.5 101C170.972 101 176.247 106.337 176.491 113.016C180.404 113.269 183.848 117.083 183.848 121.06C183.848 124.326 181.433 128 178.572 128H158.678" stroke="#A180FF" stroke-width="2.5" stroke-linecap="round"/>
</svg>
