<svg width="93" height="60" viewBox="0 0 93 60" fill="none" xmlns="http://www.w3.org/2000/svg">
<path d="M-7.79999 17L-41.2 0.899998L-74.5 17L-107.9 0.899998L-141.3 17L-175 0.799999L-174.4 0.0999985L-141.3 16L-107.9 0L-74.5 16L-41.2 0L-7.79999 16L25.6 0L59.0001 16L92.1 0.0999985L92.7 0.799999L59.0001 17L25.6 0.899998L-7.79999 17Z" fill="#242D3D"/>
<path d="M-7.79999 31.1L-41.2 15L-74.5 31.1L-107.9 15L-141.3 31.1L-175 14.9L-174.4 14.2L-141.3 30.1L-107.9 14.1L-74.5 30.1L-41.2 14.1L-7.79999 30.1L25.6 14.1L59.0001 30.1L92.1 14.2L92.7 14.9L59.0001 31.1L25.6 15L-7.79999 31.1Z" fill="#6B61E4"/>
<path d="M-7.79999 45.8L-41.2 29.8L-74.5 45.8L-107.9 29.8L-141.3 45.8L-175 29.6L-174.4 29L-141.3 44.9L-107.9 28.8L-74.5 44.9L-41.2 28.8L-7.79999 44.9L25.6 28.8L59.0001 44.9L92.1 29L92.7 29.6L59.0001 45.8L25.6 29.8L-7.79999 45.8Z" fill="#242D3D"/>
<path d="M-7.79999 59.9L-41.2 43.9L-74.5 59.9L-107.9 43.9L-141.3 59.9L-175 43.7L-174.4 43L-141.3 59L-107.9 42.9L-74.5 59L-41.2 42.9L-7.79999 59L25.6 42.9L59.0001 59L92.1 43L92.7 43.7L59.0001 59.9L25.6 43.9L-7.79999 59.9Z" fill="#6B61E4"/>
</svg>
