<svg width="123" height="264" viewBox="0 0 123 264" fill="none" xmlns="http://www.w3.org/2000/svg">
<path d="M61.5 193.079C95.4655 193.079 123 165.498 123 131.474C123 97.4506 95.4655 69.8691 61.5 69.8691C27.5345 69.8691 0 97.4506 0 131.474C0 165.498 27.5345 193.079 61.5 193.079Z" fill="#F3B822"/>
<path d="M61.5008 121.106C28.2008 121.106 1.05078 93.9101 1.05078 60.5532C1.05078 27.1964 28.2008 0 61.5008 0C94.8008 0 121.951 27.1964 121.951 60.5532C121.801 93.9101 94.8008 121.106 61.5008 121.106ZM61.5008 2.25384C29.4008 2.25384 3.30078 28.3984 3.30078 60.5532C3.30078 92.7081 29.4008 119.003 61.5008 119.003C93.6008 119.003 119.851 92.8583 119.851 60.5532C119.701 28.3984 93.6008 2.25384 61.5008 2.25384Z" fill="#3A434F"/>
<path d="M75.4499 202.395C75.4499 210.208 69.1499 216.368 61.4999 216.368V215.016C68.5499 215.016 74.2499 209.306 74.2499 202.244C74.2499 195.182 68.5499 189.473 61.4999 189.473V188.12C69.1499 188.271 75.4499 194.581 75.4499 202.395Z" fill="black"/>
<path d="M85.2015 202.395C85.2015 215.617 74.5516 226.285 61.3516 226.285V224.933C73.8016 224.933 83.8516 214.866 83.8516 202.395C83.8516 189.923 73.8016 179.856 61.3516 179.856V178.504C74.5516 178.504 85.2015 189.172 85.2015 202.395Z" fill="black"/>
<path d="M93.8999 202.395C93.8999 220.275 79.3499 234.85 61.4999 234.85V233.498C78.5999 233.498 92.5499 219.524 92.5499 202.395C92.5499 185.265 78.5999 171.292 61.4999 171.292V169.939C79.3499 169.939 93.8999 184.514 93.8999 202.395Z" fill="black"/>
<path d="M102.45 202.395C102.45 224.933 84.1499 243.415 61.4999 243.415V242.062C83.3999 242.062 101.1 224.182 101.1 202.395C101.1 180.608 83.2499 162.727 61.4999 162.727V161.375C83.9999 161.375 102.45 179.706 102.45 202.395Z" fill="black"/>
<path d="M112.352 202.395C112.352 230.493 89.5516 253.482 61.3516 253.482V252.129C88.6516 252.129 111.002 229.891 111.002 202.395C111.002 175.048 88.8016 152.66 61.3516 152.66V151.307C89.5516 151.307 112.352 174.146 112.352 202.395Z" fill="black"/>
<path d="M123 202.395C123 236.353 95.3999 264 61.4999 264V262.647C94.6499 262.647 121.65 235.601 121.65 202.395C121.65 169.188 94.6499 142.142 61.4999 142.142V140.79C95.3999 140.79 123 168.437 123 202.395Z" fill="black"/>
<path d="M47.3984 202.395C47.3984 210.208 53.6984 216.369 61.3484 216.369V215.016C54.2984 215.016 48.5984 209.307 48.5984 202.245C48.5984 195.183 54.2984 189.473 61.3484 189.473V188.12C53.6984 188.271 47.3984 194.581 47.3984 202.395Z" fill="black"/>
<path d="M37.6486 202.395C37.6486 215.618 48.2986 226.286 61.4986 226.286V224.933C49.0486 224.933 38.9986 214.866 38.9986 202.395C38.9986 189.924 49.0486 179.857 61.4986 179.857V178.504C48.2986 178.504 37.6486 189.172 37.6486 202.395Z" fill="black"/>
<path d="M29.1016 202.395C29.1016 220.275 43.6515 234.85 61.5015 234.85V233.498C44.4015 233.498 30.4515 219.524 30.4515 202.395C30.4515 185.265 44.4015 171.292 61.5015 171.292V169.939C43.6515 169.939 29.1016 184.514 29.1016 202.395Z" fill="black"/>
<path d="M20.5508 202.395C20.5508 224.933 38.8508 243.415 61.5008 243.415V242.062C39.6008 242.062 21.9008 224.182 21.9008 202.395C21.9008 180.608 39.7508 162.727 61.5008 162.727V161.375C38.8508 161.375 20.5508 179.706 20.5508 202.395Z" fill="black"/>
<path d="M10.5 202.395C10.5 230.493 33.3 253.482 61.5 253.482V252.13C34.2 252.13 11.85 229.892 11.85 202.395C11.85 175.048 34.05 152.66 61.5 152.66V151.308C33.3 151.308 10.5 174.147 10.5 202.395Z" fill="black"/>
<path d="M0 202.395C0 236.353 27.6 264 61.5 264V262.648C28.35 262.648 1.35004 235.602 1.35004 202.395C1.35004 169.188 28.35 142.142 61.5 142.142V140.79C27.6 140.79 0 168.437 0 202.395Z" fill="black"/>
</svg>
