<svg width="170" height="158" viewBox="0 0 170 158" fill="none" xmlns="http://www.w3.org/2000/svg">
<path fill-rule="evenodd" clip-rule="evenodd" d="M80.4984 6.79999C80.4984 8.34639 79.2448 9.59998 77.6984 9.59998C76.152 9.59998 74.8984 8.34639 74.8984 6.79999C74.8984 5.25359 76.152 4 77.6984 4C79.2448 4 80.4984 5.25359 80.4984 6.79999ZM77.7 20.3C79.4673 20.3 80.9 18.8673 80.9 17.1C80.9 15.3327 79.4673 13.9 77.7 13.9C75.9327 13.9 74.5 15.3327 74.5 17.1C74.5 18.8673 75.9327 20.3 77.7 20.3ZM81.3015 28.1C81.3015 30.0882 79.6898 31.7 77.7015 31.7C75.7133 31.7 74.1016 30.0882 74.1016 28.1C74.1016 26.1117 75.7133 24.5 77.7015 24.5C79.6898 24.5 81.3015 26.1117 81.3015 28.1ZM77.7008 43.8C79.8547 43.8 81.6008 42.0539 81.6008 39.9C81.6008 37.7461 79.8547 36 77.7008 36C75.5469 36 73.8008 37.7461 73.8008 39.9C73.8008 42.0539 75.5469 43.8 77.7008 43.8ZM81.9984 52.4C81.9984 54.7748 80.0732 56.7 77.6984 56.7C75.3236 56.7 73.3984 54.7748 73.3984 52.4C73.3984 50.0252 75.3236 48.1 77.6984 48.1C80.0732 48.1 81.9984 50.0252 81.9984 52.4ZM77.7 70.4C80.2957 70.4 82.4 68.2957 82.4 65.7C82.4 63.1042 80.2957 61 77.7 61C75.1042 61 73 63.1042 73 65.7C73 68.2957 75.1042 70.4 77.7 70.4ZM77.6992 84.6C80.4606 84.6 82.6992 82.3614 82.6992 79.6C82.6992 76.8386 80.4606 74.6 77.6992 74.6C74.9378 74.6 72.6992 76.8386 72.6992 79.6C72.6992 82.3614 74.9378 84.6 77.6992 84.6ZM64.1008 60.4C66.4756 60.4 68.4008 58.4748 68.4008 56.1C68.4008 53.7252 66.4756 51.8 64.1008 51.8C61.726 51.8 59.8008 53.7252 59.8008 56.1C59.8008 58.4748 61.726 60.4 64.1008 60.4ZM61.6984 45.2C61.6984 47.3539 59.9523 49.1 57.7984 49.1C55.6445 49.1 53.8984 47.3539 53.8984 45.2C53.8984 43.0461 55.6445 41.3 57.7984 41.3C59.9523 41.3 61.6984 43.0461 61.6984 45.2ZM51.9008 38.6C53.889 38.6 55.5008 36.9883 55.5008 35C55.5008 33.0118 53.889 31.4 51.9008 31.4C49.9126 31.4 48.3008 33.0118 48.3008 35C48.3008 36.9883 49.9126 38.6 51.9008 38.6ZM49.5992 25.5C49.5992 27.2673 48.1665 28.7 46.3992 28.7C44.6319 28.7 43.1992 27.2673 43.1992 25.5C43.1992 23.7327 44.6319 22.3 46.3992 22.3C48.1665 22.3 49.5992 23.7327 49.5992 25.5ZM41.1984 19.3C42.7448 19.3 43.9984 18.0464 43.9984 16.5C43.9984 14.9536 42.7448 13.7 41.1984 13.7C39.652 13.7 38.3984 14.9536 38.3984 16.5C38.3984 18.0464 39.652 19.3 41.1984 19.3ZM70.2984 72.7C70.2984 75.2957 68.1942 77.4 65.5984 77.4C63.0027 77.4 60.8984 75.2957 60.8984 72.7C60.8984 70.1042 63.0027 68 65.5984 68C68.1942 68 70.2984 70.1042 70.2984 72.7ZM54.1008 70.3C56.4756 70.3 58.4008 68.3748 58.4008 66C58.4008 63.6251 56.4756 61.7 54.1008 61.7C51.726 61.7 49.8008 63.6251 49.8008 66C49.8008 68.3748 51.726 70.3 54.1008 70.3ZM47.1984 59.8C47.1984 61.9539 45.4523 63.7 43.2984 63.7C41.1445 63.7 39.3984 61.9539 39.3984 59.8C39.3984 57.6461 41.1445 55.9 43.2984 55.9C45.4523 55.9 47.1984 57.6461 47.1984 59.8ZM33.1 57.5C35.0882 57.5 36.7 55.8882 36.7 53.9C36.7 51.9118 35.0882 50.3 33.1 50.3C31.1118 50.3 29.5 51.9118 29.5 53.9C29.5 55.8882 31.1118 57.5 33.1 57.5ZM26.7008 48.4C26.7008 50.1673 25.2681 51.5999 23.5008 51.5999C21.7335 51.5999 20.3008 50.1673 20.3008 48.4C20.3008 46.6327 21.7335 45.2 23.5008 45.2C25.2681 45.2 26.7008 46.6327 26.7008 48.4ZM14.6008 46C16.1472 46 17.4008 44.7464 17.4008 43.2C17.4008 41.6536 16.1472 40.4 14.6008 40.4C13.0544 40.4 11.8008 41.6536 11.8008 43.2C11.8008 44.7464 13.0544 46 14.6008 46ZM54.7992 79.6C54.7992 81.9748 52.874 83.9 50.4992 83.9C48.1244 83.9 46.1992 81.9748 46.1992 79.6C46.1992 77.2252 48.1244 75.3 50.4992 75.3C52.874 75.3 54.7992 77.2252 54.7992 79.6ZM37.9 83.5C40.0539 83.5 41.8 81.7539 41.8 79.5999C41.8 77.446 40.0539 75.7 37.9 75.7C35.7461 75.7 34 77.446 34 79.5999C34 81.7539 35.7461 83.5 37.9 83.5ZM29.8016 79.6C29.8016 81.5882 28.1898 83.2 26.2016 83.2C24.2133 83.2 22.6016 81.5882 22.6016 79.6C22.6016 77.6117 24.2133 76 26.2016 76C28.1898 76 29.8016 77.6117 29.8016 79.6ZM15.0984 82.8C16.8657 82.8 18.2984 81.3673 18.2984 79.6C18.2984 77.8327 16.8657 76.4 15.0984 76.4C13.3311 76.4 11.8984 77.8327 11.8984 79.6C11.8984 81.3673 13.3311 82.8 15.0984 82.8ZM7.59999 79.6C7.59999 81.1464 6.34639 82.4 4.79999 82.4C3.25359 82.4 2 81.1464 2 79.6C2 78.0536 3.25359 76.8 4.79999 76.8C6.34639 76.8 7.59999 78.0536 7.59999 79.6ZM65.5984 91.3C68.1942 91.3 70.2984 89.1957 70.2984 86.6C70.2984 84.0043 68.1942 81.9 65.5984 81.9C63.0027 81.9 60.8984 84.0043 60.8984 86.6C60.8984 89.1957 63.0027 91.3 65.5984 91.3ZM58.4008 93.2C58.4008 95.5748 56.4756 97.5 54.1008 97.5C51.726 97.5 49.8008 95.5748 49.8008 93.2C49.8008 90.8252 51.726 88.9 54.1008 88.9C56.4756 88.9 58.4008 90.8252 58.4008 93.2ZM43.2984 103.4C45.4523 103.4 47.1984 101.654 47.1984 99.5C47.1984 97.3461 45.4523 95.6 43.2984 95.6C41.1445 95.6 39.3984 97.3461 39.3984 99.5C39.3984 101.654 41.1445 103.4 43.2984 103.4ZM36.7 105.4C36.7 107.388 35.0882 109 33.1 109C31.1118 109 29.5 107.388 29.5 105.4C29.5 103.412 31.1118 101.8 33.1 101.8C35.0882 101.8 36.7 103.412 36.7 105.4ZM23.5008 114.1C25.2681 114.1 26.7008 112.667 26.7008 110.9C26.7008 109.133 25.2681 107.7 23.5008 107.7C21.7335 107.7 20.3008 109.133 20.3008 110.9C20.3008 112.667 21.7335 114.1 23.5008 114.1ZM17.4008 116.1C17.4008 117.646 16.1472 118.9 14.6008 118.9C13.0544 118.9 11.8008 117.646 11.8008 116.1C11.8008 114.554 13.0544 113.3 14.6008 113.3C16.1472 113.3 17.4008 114.554 17.4008 116.1ZM64.1008 107.5C66.4756 107.5 68.4008 105.575 68.4008 103.2C68.4008 100.825 66.4756 98.9 64.1008 98.9C61.726 98.9 59.8008 100.825 59.8008 103.2C59.8008 105.575 61.726 107.5 64.1008 107.5ZM61.6984 114C61.6984 116.154 59.9523 117.9 57.7984 117.9C55.6445 117.9 53.8984 116.154 53.8984 114C53.8984 111.846 55.6445 110.1 57.7984 110.1C59.9523 110.1 61.6984 111.846 61.6984 114ZM51.9008 127.9C53.889 127.9 55.5008 126.288 55.5008 124.3C55.5008 122.312 53.889 120.7 51.9008 120.7C49.9126 120.7 48.3008 122.312 48.3008 124.3C48.3008 126.288 49.9126 127.9 51.9008 127.9ZM49.5992 133.8C49.5992 135.567 48.1665 137 46.3992 137C44.6319 137 43.1992 135.567 43.1992 133.8C43.1992 132.033 44.6319 130.6 46.3992 130.6C48.1665 130.6 49.5992 132.033 49.5992 133.8ZM41.1984 145.6C42.7448 145.6 43.9984 144.346 43.9984 142.8C43.9984 141.254 42.7448 140 41.1984 140C39.652 140 38.3984 141.254 38.3984 142.8C38.3984 144.346 39.652 145.6 41.1984 145.6ZM82.4 93.6C82.4 96.1957 80.2957 98.3 77.7 98.3C75.1042 98.3 73 96.1957 73 93.6C73 91.0043 75.1042 88.9 77.7 88.9C80.2957 88.9 82.4 91.0043 82.4 93.6ZM77.6984 111.2C80.0732 111.2 81.9984 109.275 81.9984 106.9C81.9984 104.525 80.0732 102.6 77.6984 102.6C75.3236 102.6 73.3984 104.525 73.3984 106.9C73.3984 109.275 75.3236 111.2 77.6984 111.2ZM81.6008 119.4C81.6008 121.554 79.8547 123.3 77.7008 123.3C75.5469 123.3 73.8008 121.554 73.8008 119.4C73.8008 117.246 75.5469 115.5 77.7008 115.5C79.8547 115.5 81.6008 117.246 81.6008 119.4ZM77.7015 134.8C79.6898 134.8 81.3015 133.188 81.3015 131.2C81.3015 129.212 79.6898 127.6 77.7015 127.6C75.7133 127.6 74.1016 129.212 74.1016 131.2C74.1016 133.188 75.7133 134.8 77.7015 134.8ZM80.9 142.2C80.9 143.967 79.4673 145.4 77.7 145.4C75.9327 145.4 74.5 143.967 74.5 142.2C74.5 140.433 75.9327 139 77.7 139C79.4673 139 80.9 140.433 80.9 142.2ZM77.6984 155.3C79.2448 155.3 80.4984 154.046 80.4984 152.5C80.4984 150.954 79.2448 149.7 77.6984 149.7C76.152 149.7 74.8984 150.954 74.8984 152.5C74.8984 154.046 76.152 155.3 77.6984 155.3ZM95.6 103.2C95.6 105.575 93.6748 107.5 91.3 107.5C88.9252 107.5 87 105.575 87 103.2C87 100.825 88.9252 98.9 91.3 98.9C93.6748 98.9 95.6 100.825 95.6 103.2ZM97.5016 117.9C99.6555 117.9 101.402 116.154 101.402 114C101.402 111.846 99.6555 110.1 97.5016 110.1C95.3476 110.1 93.6016 111.846 93.6016 114C93.6016 116.154 95.3476 117.9 97.5016 117.9ZM107.001 124.3C107.001 126.288 105.389 127.9 103.401 127.9C101.413 127.9 99.8008 126.288 99.8008 124.3C99.8008 122.312 101.413 120.7 103.401 120.7C105.389 120.7 107.001 122.312 107.001 124.3ZM109.001 137C110.768 137 112.201 135.567 112.201 133.8C112.201 132.033 110.768 130.6 109.001 130.6C107.233 130.6 105.801 132.033 105.801 133.8C105.801 135.567 107.233 137 109.001 137ZM116.901 142.8C116.901 144.346 115.647 145.6 114.101 145.6C112.554 145.6 111.301 144.346 111.301 142.8C111.301 141.254 112.554 140 114.101 140C115.647 140 116.901 141.254 116.901 142.8ZM89.8015 91.3C92.3973 91.3 94.5016 89.1957 94.5016 86.6C94.5016 84.0043 92.3973 81.9 89.8015 81.9C87.2058 81.9 85.1016 84.0043 85.1016 86.6C85.1016 89.1957 87.2058 91.3 89.8015 91.3ZM105.498 93.2C105.498 95.5748 103.573 97.5 101.198 97.5C98.8236 97.5 96.8984 95.5748 96.8984 93.2C96.8984 90.8252 98.8236 88.9 101.198 88.9C103.573 88.9 105.498 90.8252 105.498 93.2ZM112.099 103.4C114.253 103.4 115.999 101.654 115.999 99.5C115.999 97.3461 114.253 95.6 112.099 95.6C109.945 95.6 108.199 97.3461 108.199 99.5C108.199 101.654 109.945 103.4 112.099 103.4ZM125.899 105.4C125.899 107.388 124.287 109 122.299 109C120.311 109 118.699 107.388 118.699 105.4C118.699 103.412 120.311 101.8 122.299 101.8C124.287 101.8 125.899 103.412 125.899 105.4ZM131.899 114.1C133.667 114.1 135.099 112.667 135.099 110.9C135.099 109.133 133.667 107.7 131.899 107.7C130.132 107.7 128.699 109.133 128.699 110.9C128.699 112.667 130.132 114.1 131.899 114.1ZM143.6 116.1C143.6 117.646 142.346 118.9 140.8 118.9C139.254 118.9 138 117.646 138 116.1C138 114.554 139.254 113.3 140.8 113.3C142.346 113.3 143.6 114.554 143.6 116.1ZM104.902 83.9C107.276 83.9 109.202 81.9748 109.202 79.6C109.202 77.2252 107.276 75.3 104.902 75.3C102.527 75.3 100.602 77.2252 100.602 79.6C100.602 81.9748 102.527 83.9 104.902 83.9ZM121.3 79.5999C121.3 81.7539 119.554 83.5 117.4 83.5C115.246 83.5 113.5 81.7539 113.5 79.5999C113.5 77.446 115.246 75.7 117.4 75.7C119.554 75.7 121.3 77.446 121.3 79.5999ZM129.202 83.2C131.19 83.2 132.802 81.5882 132.802 79.6C132.802 77.6117 131.19 76 129.202 76C127.213 76 125.602 77.6117 125.602 79.6C125.602 81.5882 127.213 83.2 129.202 83.2ZM143.4 79.6C143.4 81.3673 141.967 82.8 140.2 82.8C138.433 82.8 137 81.3673 137 79.6C137 77.8327 138.433 76.4 140.2 76.4C141.967 76.4 143.4 77.8327 143.4 79.6ZM150.601 82.4C152.147 82.4 153.401 81.1464 153.401 79.6C153.401 78.0536 152.147 76.8 150.601 76.8C149.054 76.8 147.801 78.0536 147.801 79.6C147.801 81.1464 149.054 82.4 150.601 82.4ZM94.5016 72.7C94.5016 75.2957 92.3973 77.4 89.8015 77.4C87.2058 77.4 85.1016 75.2957 85.1016 72.7C85.1016 70.1042 87.2058 68 89.8015 68C92.3973 68 94.5016 70.1042 94.5016 72.7ZM101.198 70.3C103.573 70.3 105.498 68.3748 105.498 66C105.498 63.6251 103.573 61.7 101.198 61.7C98.8236 61.7 96.8984 63.6251 96.8984 66C96.8984 68.3748 98.8236 70.3 101.198 70.3ZM115.999 59.8C115.999 61.9539 114.253 63.7 112.099 63.7C109.945 63.7 108.199 61.9539 108.199 59.8C108.199 57.6461 109.945 55.9 112.099 55.9C114.253 55.9 115.999 57.6461 115.999 59.8ZM122.299 57.5C124.287 57.5 125.899 55.8882 125.899 53.9C125.899 51.9118 124.287 50.3 122.299 50.3C120.311 50.3 118.699 51.9118 118.699 53.9C118.699 55.8882 120.311 57.5 122.299 57.5ZM135.099 48.4C135.099 50.1673 133.667 51.5999 131.899 51.5999C130.132 51.5999 128.699 50.1673 128.699 48.4C128.699 46.6327 130.132 45.2 131.899 45.2C133.667 45.2 135.099 46.6327 135.099 48.4ZM140.8 46C142.346 46 143.6 44.7464 143.6 43.2C143.6 41.6536 142.346 40.4 140.8 40.4C139.254 40.4 138 41.6536 138 43.2C138 44.7464 139.254 46 140.8 46ZM109.698 51.5C109.698 53.6539 107.952 55.4 105.798 55.4C103.645 55.4 101.898 53.6539 101.898 51.5C101.898 49.3461 103.645 47.6 105.798 47.6C107.952 47.6 109.698 49.3461 109.698 51.5ZM114.1 46.8C116.088 46.8 117.7 45.1882 117.7 43.2C117.7 41.2118 116.088 39.6 114.1 39.6C112.112 39.6 110.5 41.2118 110.5 43.2C110.5 45.1882 112.112 46.8 114.1 46.8ZM125.099 35.4C125.099 37.1673 123.667 38.5999 121.899 38.5999C120.132 38.5999 118.699 37.1673 118.699 35.4C118.699 33.6327 120.132 32.2 121.899 32.2C123.667 32.2 125.099 33.6327 125.099 35.4ZM129.198 30.9C130.745 30.9 131.998 29.6464 131.998 28.1C131.998 26.5536 130.745 25.3 129.198 25.3C127.652 25.3 126.398 26.5536 126.398 28.1C126.398 29.6464 127.652 30.9 129.198 30.9ZM101.402 45.2C101.402 47.3539 99.6555 49.1 97.5016 49.1C95.3476 49.1 93.6016 47.3539 93.6016 45.2C93.6016 43.0461 95.3476 41.3 97.5016 41.3C99.6555 41.3 101.402 43.0461 101.402 45.2ZM103.401 38.6C105.389 38.6 107.001 36.9883 107.001 35C107.001 33.0118 105.389 31.4 103.401 31.4C101.413 31.4 99.8008 33.0118 99.8008 35C99.8008 36.9883 101.413 38.6 103.401 38.6ZM112.201 25.5C112.201 27.2673 110.768 28.7 109.001 28.7C107.233 28.7 105.801 27.2673 105.801 25.5C105.801 23.7327 107.233 22.3 109.001 22.3C110.768 22.3 112.201 23.7327 112.201 25.5ZM114.101 19.3C115.647 19.3 116.901 18.0464 116.901 16.5C116.901 14.9536 115.647 13.7 114.101 13.7C112.554 13.7 111.301 14.9536 111.301 16.5C111.301 18.0464 112.554 19.3 114.101 19.3ZM91.9016 41.3C91.9016 43.4539 90.1555 45.2 88.0016 45.2C85.8476 45.2 84.1016 43.4539 84.1016 41.3C84.1016 39.1461 85.8476 37.4 88.0016 37.4C90.1555 37.4 91.9016 39.1461 91.9016 41.3ZM90.9984 33.5C92.9867 33.5 94.5984 31.8882 94.5984 29.9C94.5984 27.9118 92.9867 26.3 90.9984 26.3C89.0102 26.3 87.3984 27.9118 87.3984 29.9C87.3984 31.8882 89.0102 33.5 90.9984 33.5ZM97.0992 19.2C97.0992 20.9673 95.6665 22.4 93.8992 22.4C92.1319 22.4 90.6992 20.9673 90.6992 19.2C90.6992 17.4327 92.1319 16 93.8992 16C95.6665 16 97.0992 17.4327 97.0992 19.2ZM96.4992 12C98.0456 12 99.2992 10.7464 99.2992 9.20001C99.2992 7.65361 98.0456 6.40002 96.4992 6.40002C94.9528 6.40002 93.6992 7.65361 93.6992 9.20001C93.6992 10.7464 94.9528 12 96.4992 12ZM71.3 41.3C71.3 43.4539 69.5539 45.2 67.4 45.2C65.2461 45.2 63.5 43.4539 63.5 41.3C63.5 39.1461 65.2461 37.4 67.4 37.4C69.5539 37.4 71.3 39.1461 71.3 41.3ZM64.2992 33.5C66.2875 33.5 67.8992 31.8882 67.8992 29.9C67.8992 27.9118 66.2875 26.3 64.2992 26.3C62.311 26.3 60.6992 27.9118 60.6992 29.9C60.6992 31.8882 62.311 33.5 64.2992 33.5ZM64.7008 19.2C64.7008 20.9673 63.2681 22.4 61.5008 22.4C59.7335 22.4 58.3008 20.9673 58.3008 19.2C58.3008 17.4327 59.7335 16 61.5008 16C63.2681 16 64.7008 17.4327 64.7008 19.2ZM58.8 12C60.3464 12 61.6 10.7464 61.6 9.20001C61.6 7.65361 60.3464 6.40002 58.8 6.40002C57.2536 6.40002 56 7.65361 56 9.20001C56 10.7464 57.2536 12 58.8 12ZM53.4992 51.5C53.4992 53.6539 51.7531 55.4 49.5992 55.4C47.4453 55.4 45.6992 53.6539 45.6992 51.5C45.6992 49.3461 47.4453 47.6 49.5992 47.6C51.7531 47.6 53.4992 49.3461 53.4992 51.5ZM41.2016 46.8C43.1898 46.8 44.8016 45.1882 44.8016 43.2C44.8016 41.2118 43.1898 39.6 41.2016 39.6C39.2133 39.6 37.6016 41.2118 37.6016 43.2C37.6016 45.1882 39.2133 46.8 41.2016 46.8ZM36.5992 35.4C36.5992 37.1673 35.1665 38.5999 33.3992 38.5999C31.6319 38.5999 30.1992 37.1673 30.1992 35.4C30.1992 33.6327 31.6319 32.2 33.3992 32.2C35.1665 32.2 36.5992 33.6327 36.5992 35.4ZM26.1008 30.9C27.6472 30.9 28.9008 29.6464 28.9008 28.1C28.9008 26.5536 27.6472 25.3 26.1008 25.3C24.5544 25.3 23.3008 26.5536 23.3008 28.1C23.3008 29.6464 24.5544 30.9 26.1008 30.9ZM43.1984 69.4C43.1984 71.5539 41.4523 73.3 39.2984 73.3C37.1445 73.3 35.3984 71.5539 35.3984 69.4C35.3984 67.2461 37.1445 65.5 39.2984 65.5C41.4523 65.5 43.1984 67.2461 43.1984 69.4ZM27.9008 69.9C29.889 69.9 31.5008 68.2882 31.5008 66.3C31.5008 64.3117 29.889 62.7 27.9008 62.7C25.9126 62.7 24.3008 64.3117 24.3008 66.3C24.3008 68.2882 25.9126 69.9 27.9008 69.9ZM20.4 63.4C20.4 65.1673 18.9673 66.5999 17.2 66.5999C15.4327 66.5999 14 65.1673 14 63.4C14 61.6327 15.4327 60.2 17.2 60.2C18.9673 60.2 20.4 61.6327 20.4 63.4ZM7.29999 63.6C8.84639 63.6 10.1 62.3464 10.1 60.8C10.1 59.2536 8.84639 58 7.29999 58C5.75359 58 4.5 59.2536 4.5 60.8C4.5 62.3464 5.75359 63.6 7.29999 63.6ZM43.1984 89.9C43.1984 92.0539 41.4523 93.8 39.2984 93.8C37.1445 93.8 35.3984 92.0539 35.3984 89.9C35.3984 87.7461 37.1445 86 39.2984 86C41.4523 86 43.1984 87.7461 43.1984 89.9ZM27.9008 96.6C29.889 96.6 31.5008 94.9883 31.5008 93C31.5008 91.0118 29.889 89.4 27.9008 89.4C25.9126 89.4 24.3008 91.0118 24.3008 93C24.3008 94.9883 25.9126 96.6 27.9008 96.6ZM20.4 95.8C20.4 97.5673 18.9673 99 17.2 99C15.4327 99 14 97.5673 14 95.8C14 94.0327 15.4327 92.6 17.2 92.6C18.9673 92.6 20.4 94.0327 20.4 95.8ZM7.29999 101.3C8.84639 101.3 10.1 100.046 10.1 98.5C10.1 96.9536 8.84639 95.7 7.29999 95.7C5.75359 95.7 4.5 96.9536 4.5 98.5C4.5 100.046 5.75359 101.3 7.29999 101.3ZM53.4992 107.7C53.4992 109.854 51.7531 111.6 49.5992 111.6C47.4453 111.6 45.6992 109.854 45.6992 107.7C45.6992 105.546 47.4453 103.8 49.5992 103.8C51.7531 103.8 53.4992 105.546 53.4992 107.7ZM41.2016 119.7C43.1898 119.7 44.8016 118.088 44.8016 116.1C44.8016 114.112 43.1898 112.5 41.2016 112.5C39.2133 112.5 37.6016 114.112 37.6016 116.1C37.6016 118.088 39.2133 119.7 41.2016 119.7ZM36.5992 123.9C36.5992 125.667 35.1665 127.1 33.3992 127.1C31.6319 127.1 30.1992 125.667 30.1992 123.9C30.1992 122.133 31.6319 120.7 33.3992 120.7C35.1665 120.7 36.5992 122.133 36.5992 123.9ZM26.1008 134C27.6472 134 28.9008 132.746 28.9008 131.2C28.9008 129.654 27.6472 128.4 26.1008 128.4C24.5544 128.4 23.3008 129.654 23.3008 131.2C23.3008 132.746 24.5544 134 26.1008 134ZM71.3 118C71.3 120.154 69.5539 121.9 67.4 121.9C65.2461 121.9 63.5 120.154 63.5 118C63.5 115.846 65.2461 114.1 67.4 114.1C69.5539 114.1 71.3 115.846 71.3 118ZM64.2992 133C66.2875 133 67.8992 131.388 67.8992 129.4C67.8992 127.412 66.2875 125.8 64.2992 125.8C62.311 125.8 60.6992 127.412 60.6992 129.4C60.6992 131.388 62.311 133 64.2992 133ZM64.7008 140.1C64.7008 141.867 63.2681 143.3 61.5008 143.3C59.7335 143.3 58.3008 141.867 58.3008 140.1C58.3008 138.333 59.7335 136.9 61.5008 136.9C63.2681 136.9 64.7008 138.333 64.7008 140.1ZM58.8 152.8C60.3464 152.8 61.6 151.546 61.6 150C61.6 148.454 60.3464 147.2 58.8 147.2C57.2536 147.2 56 148.454 56 150C56 151.546 57.2536 152.8 58.8 152.8ZM91.9016 118C91.9016 120.154 90.1555 121.9 88.0016 121.9C85.8476 121.9 84.1016 120.154 84.1016 118C84.1016 115.846 85.8476 114.1 88.0016 114.1C90.1555 114.1 91.9016 115.846 91.9016 118ZM90.9984 133C92.9867 133 94.5984 131.388 94.5984 129.4C94.5984 127.412 92.9867 125.8 90.9984 125.8C89.0102 125.8 87.3984 127.412 87.3984 129.4C87.3984 131.388 89.0102 133 90.9984 133ZM97.0992 140.1C97.0992 141.867 95.6665 143.3 93.8992 143.3C92.1319 143.3 90.6992 141.867 90.6992 140.1C90.6992 138.333 92.1319 136.9 93.8992 136.9C95.6665 136.9 97.0992 138.333 97.0992 140.1ZM96.4992 152.8C98.0456 152.8 99.2992 151.546 99.2992 150C99.2992 148.454 98.0456 147.2 96.4992 147.2C94.9528 147.2 93.6992 148.454 93.6992 150C93.6992 151.546 94.9528 152.8 96.4992 152.8ZM109.698 107.7C109.698 109.854 107.952 111.6 105.798 111.6C103.645 111.6 101.898 109.854 101.898 107.7C101.898 105.546 103.645 103.8 105.798 103.8C107.952 103.8 109.698 105.546 109.698 107.7ZM114.1 119.7C116.088 119.7 117.7 118.088 117.7 116.1C117.7 114.112 116.088 112.5 114.1 112.5C112.112 112.5 110.5 114.112 110.5 116.1C110.5 118.088 112.112 119.7 114.1 119.7ZM125.099 123.9C125.099 125.667 123.667 127.1 121.899 127.1C120.132 127.1 118.699 125.667 118.699 123.9C118.699 122.133 120.132 120.7 121.899 120.7C123.667 120.7 125.099 122.133 125.099 123.9ZM129.198 134C130.745 134 131.998 132.746 131.998 131.2C131.998 129.654 130.745 128.4 129.198 128.4C127.652 128.4 126.398 129.654 126.398 131.2C126.398 132.746 127.652 134 129.198 134ZM119.999 89.9C119.999 92.0539 118.253 93.8 116.099 93.8C113.945 93.8 112.199 92.0539 112.199 89.9C112.199 87.7461 113.945 86 116.099 86C118.253 86 119.999 87.7461 119.999 89.9ZM127.401 96.6C129.389 96.6 131.001 94.9883 131.001 93C131.001 91.0118 129.389 89.4 127.401 89.4C125.413 89.4 123.801 91.0118 123.801 93C123.801 94.9883 125.413 96.6 127.401 96.6ZM141.298 95.8C141.298 97.5673 139.866 99 138.098 99C136.331 99 134.898 97.5673 134.898 95.8C134.898 94.0327 136.331 92.6 138.098 92.6C139.866 92.6 141.298 94.0327 141.298 95.8ZM148.101 101.3C149.647 101.3 150.901 100.046 150.901 98.5C150.901 96.9536 149.647 95.7 148.101 95.7C146.554 95.7 145.301 96.9536 145.301 98.5C145.301 100.046 146.554 101.3 148.101 101.3ZM119.999 69.4C119.999 71.5539 118.253 73.3 116.099 73.3C113.945 73.3 112.199 71.5539 112.199 69.4C112.199 67.2461 113.945 65.5 116.099 65.5C118.253 65.5 119.999 67.2461 119.999 69.4ZM127.401 69.9C129.389 69.9 131.001 68.2882 131.001 66.3C131.001 64.3117 129.389 62.7 127.401 62.7C125.413 62.7 123.801 64.3117 123.801 66.3C123.801 68.2882 125.413 69.9 127.401 69.9ZM141.298 63.4C141.298 65.1673 139.866 66.5999 138.098 66.5999C136.331 66.5999 134.898 65.1673 134.898 63.4C134.898 61.6327 136.331 60.2 138.098 60.2C139.866 60.2 141.298 61.6327 141.298 63.4ZM148.101 63.6C149.647 63.6 150.901 62.3464 150.901 60.8C150.901 59.2536 149.647 58 148.101 58C146.554 58 145.301 59.2536 145.301 60.8C145.301 62.3464 146.554 63.6 148.101 63.6ZM95.6 56.1C95.6 58.4748 93.6748 60.4 91.3 60.4C88.9252 60.4 87 58.4748 87 56.1C87 53.7252 88.9252 51.8 91.3 51.8C93.6748 51.8 95.6 53.7252 95.6 56.1Z" fill="url(#paint0_linear_242_3985)"/>
<path d="M132.092 47.7475L134.249 42.8058C136.17 38.4083 139.626 34.9076 143.937 32.9941L149.875 30.358C151.763 29.5199 151.763 26.7732 149.875 25.9351L144.122 23.3813C139.7 21.4186 136.182 17.7883 134.295 13.2407L132.109 7.97444C131.298 6.02015 128.598 6.02016 127.787 7.97444L125.602 13.2407C123.714 17.7883 120.196 21.4186 115.775 23.3813L110.022 25.9351C108.133 26.7732 108.133 29.5199 110.022 30.358L115.96 32.9941C120.271 34.9076 123.727 38.4083 125.647 42.8058L127.805 47.7475C128.634 49.6468 131.263 49.6468 132.092 47.7475ZM153.693 59.7793L154.3 58.3886C155.382 55.9092 157.33 53.9349 159.761 52.8549L161.63 52.0243C162.641 51.5751 162.641 50.1058 161.63 49.6566L159.866 48.8724C157.372 47.7647 155.389 45.7174 154.326 43.1536L153.703 41.6508C153.268 40.6036 151.82 40.6036 151.386 41.6508L150.763 43.1536C149.7 45.7174 147.717 47.7647 145.223 48.8724L143.459 49.6566C142.448 50.1058 142.448 51.5751 143.459 52.0243L145.328 52.8549C147.759 53.9349 149.707 55.9092 150.789 58.3886L151.396 59.7793C151.84 60.7973 153.249 60.7973 153.693 59.7793Z" fill="url(#paint1_linear_242_3985)"/>
<defs>
<linearGradient id="paint0_linear_242_3985" x1="2" y1="4" x2="153" y2="155" gradientUnits="userSpaceOnUse">
<stop stop-color="#6B61E4"/>
<stop offset="1" stop-color="#E4B761"/>
</linearGradient>
<linearGradient id="paint1_linear_242_3985" x1="114.368" y1="24.2725" x2="155.103" y2="41.4996" gradientUnits="userSpaceOnUse">
<stop stop-color="#A5F4E7"/>
<stop offset="0.240519" stop-color="#AA9EFC"/>
<stop offset="0.510417" stop-color="#E8AFE2"/>
<stop offset="0.6875" stop-color="#FFF7AF"/>
<stop offset="1" stop-color="#A7DEED"/>
</linearGradient>
</defs>
</svg>
