<svg width="277" height="182" viewBox="0 0 277 182" fill="none" xmlns="http://www.w3.org/2000/svg">
<path d="M222.212 63.027L221.789 65.1534L223.681 64.0945L242.002 53.8394L260.322 64.0945L262.214 65.1535L261.792 63.027L257.7 42.4339L273.114 28.179L274.706 26.7071L272.553 26.4518L251.703 23.9797L242.91 4.91453L242.002 2.94586L241.094 4.91453L232.3 23.9797L211.45 26.4518L209.297 26.7071L210.889 28.179L226.303 42.4339L222.212 63.027ZM242.49 45.7088L242.002 45.4354L241.513 45.7088L232.08 50.9888L234.187 40.3861L234.296 39.8371L233.885 39.4571L225.949 32.1175L236.683 30.8447L237.239 30.7787L237.474 30.2705L242.002 20.4543L246.529 30.2705L246.764 30.7787L247.32 30.8447L258.054 32.1175L250.118 39.4571L249.707 39.8371L249.816 40.3861L251.923 50.9888L242.49 45.7088Z" fill="#F54966" stroke="#F54966" stroke-width="2"/>
<path d="M9.61538 127.416L9.19287 129.542L11.0846 128.483L20.0008 123.493L28.9169 128.483L30.8087 129.542L30.3862 127.416L28.3949 117.394L35.8966 110.457L37.4883 108.985L35.3353 108.729L25.1885 107.526L20.9089 98.2478L20.0008 96.2791L19.0927 98.2478L14.813 107.526L4.66612 108.729L2.51319 108.985L4.10491 110.457L11.6067 117.394L9.61538 127.416ZM20.4892 118.418L20.0008 118.145L19.5124 118.418L15.7418 120.529L16.5839 116.29L16.693 115.741L16.282 115.361L13.1096 112.428L17.4006 111.919L17.9565 111.853L18.1909 111.345L20.0008 107.421L21.8106 111.345L22.0451 111.853L22.6009 111.919L26.8919 112.428L23.7195 115.361L23.3085 115.741L23.4176 116.29L24.2597 120.529L20.4892 118.418Z" fill="#F54966" stroke="#F54966" stroke-width="2"/>
<path d="M138.486 166.191L139 166.5L139.514 166.191C140.459 165.624 141.514 165.002 142.664 164.324C151.606 159.051 166.261 150.409 179.269 138.144C193.954 124.298 206.667 105.72 206.667 82C206.667 58.1769 189.863 41 169 41C156.686 41 145.841 47.3827 139 53.9343C132.159 47.3827 121.314 41 109 41C88.3915 41 71.3333 58.1724 71.3333 82C71.3333 105.72 84.0457 124.298 98.7307 138.144C111.739 150.409 126.394 159.051 135.336 164.324C136.486 165.002 137.541 165.624 138.486 166.191ZM144.693 145.179L144.693 145.179C142.863 146.333 141.043 147.446 139 148.67C136.957 147.446 135.137 146.333 133.307 145.179L133.307 145.179C127.454 141.492 122.188 137.827 117.257 133.903C97.5194 118.201 86.6667 101.195 86.6667 82C86.6667 66.8211 96.7147 56.3333 109 56.3333C115.847 56.3333 123.371 59.9749 128.865 65.4685L138.293 74.8966L139 75.6038L139.707 74.8966L149.135 65.4685C154.629 59.9749 162.152 56.3333 169 56.3333C181.431 56.3333 191.333 66.7146 191.333 82C191.333 101.195 180.48 118.201 160.743 133.903C155.812 137.827 150.546 141.492 144.693 145.179Z" fill="#F54966" stroke="#F54966" stroke-width="2"/>
</svg>
