<svg width="188" height="47" viewBox="0 0 188 47" fill="none" xmlns="http://www.w3.org/2000/svg">
<path d="M35.7 0H11.9L0 20.6L11.9 41.2H35.7L47.6 20.6L35.7 0Z" fill="#6B61E4"/>
<path d="M47.9008 46.6H23.5008L11.3008 25.3999L23.5008 4.19995H48.0008L60.2008 25.3999L47.9008 46.6ZM24.1008 45.5H47.3008L58.9008 25.5L47.3008 5.49995H24.1008L12.5008 25.5L24.1008 45.5Z" fill="#475261"/>
<path d="M175.598 46.6H151.098L138.898 25.3999L151.098 4.19995H175.598L187.798 25.3999L175.598 46.6ZM151.798 45.5H174.998L186.598 25.5L174.998 5.49995H151.798L140.198 25.5L151.798 45.5Z" fill="#475261"/>
<path d="M151.502 4.19995H47.6016V5.29996H151.502V4.19995Z" fill="#475261"/>
<path d="M187.2 24.8H59.5V25.9H187.2V24.8Z" fill="#475261"/>
<path d="M151.502 45.5H47.6016V46.6H151.502V45.5Z" fill="#475261"/>
</svg>
