<svg width="338" height="60" viewBox="0 0 338 60" fill="none" xmlns="http://www.w3.org/2000/svg">
<path d="M7.024 16.568C6.736 16.568 6.592 16.488 6.592 16.328C6.592 16.2 6.816 16.008 7.264 15.752C7.584 15.592 7.744 15.48 7.744 15.416L7.648 15.368C7.552 15.368 7.392 15.4 7.168 15.464C6.976 15.528 6.768 15.592 6.544 15.656C6.352 15.72 6.192 15.784 6.064 15.848C5.968 15.912 5.872 15.96 5.776 15.992C5.584 15.992 5.408 15.912 5.248 15.752C5.12 15.592 5.056 15.416 5.056 15.224V15.032C5.056 14.904 5.008 14.84 4.912 14.84C4.848 14.84 4.8 14.792 4.768 14.696C4.768 14.6 4.704 14.504 4.576 14.408C4.48 14.28 4.432 14.184 4.432 14.12C4.432 14.056 4.464 14.008 4.528 13.976C4.592 13.912 4.624 13.8 4.624 13.64V13.304C4.624 13.176 4.672 13.064 4.768 12.968C4.896 12.872 4.976 12.808 5.008 12.776L4.912 12.584L4.72 12.68C4.656 12.68 4.576 12.616 4.48 12.488C4.416 12.36 4.384 12.232 4.384 12.104C4.384 11.336 5.296 10.6 7.12 9.896C8.944 9.192 11.104 8.616 13.6 8.168C16.128 7.72 18.432 7.496 20.512 7.496C22.688 7.496 24.224 7.816 25.12 8.456C25.184 8.584 25.216 8.744 25.216 8.936C25.216 9.384 25.36 9.656 25.648 9.752C25.936 9.816 26.144 9.912 26.272 10.04C26.4 10.136 26.464 10.296 26.464 10.52C26.464 10.744 26.528 10.888 26.656 10.952C26.784 10.984 26.848 11.032 26.848 11.096C26.848 11.128 26.816 11.144 26.752 11.144H26.56C26.496 11.144 26.448 11.192 26.416 11.288C26.416 11.384 26.352 11.496 26.224 11.624C26.096 11.752 26.032 11.896 26.032 12.056C26.032 12.216 25.92 12.344 25.696 12.44C25.504 12.504 25.408 12.6 25.408 12.728L25.456 13.064C25.456 13.32 25.328 13.464 25.072 13.496C24.816 13.496 24.64 13.608 24.544 13.832C24.448 14.056 24.224 14.168 23.872 14.168C23.68 14.168 23.36 14.12 22.912 14.024C22.496 13.896 21.904 13.832 21.136 13.832C19.312 13.832 17.056 14.088 14.368 14.6C11.68 15.08 9.6 15.64 8.128 16.28C7.68 16.472 7.312 16.568 7.024 16.568ZM3.712 48.152C3.584 48.152 3.504 48.056 3.472 47.864C3.472 47.768 3.552 47.624 3.712 47.432C3.872 47.272 4.048 47.144 4.24 47.048L4.288 46.904H4.24C4.144 46.904 3.968 46.952 3.712 47.048C3.104 47.272 2.736 47.448 2.608 47.576C2.48 47.704 2.4 47.768 2.368 47.768C2.24 47.768 2.112 47.688 1.984 47.528C1.824 47.368 1.696 47.144 1.6 46.856C1.472 46.568 1.344 46.392 1.216 46.328C1.088 46.264 1.024 45.96 1.024 45.416C1.024 45.256 1.04 45.096 1.072 44.936C1.104 44.808 1.136 44.712 1.168 44.648C1.2 44.616 1.232 44.584 1.264 44.552C1.264 44.552 1.264 44.536 1.264 44.504H1.12C0.8 44.504 0.64 44.344 0.64 44.024C0.64 43.736 0.8 43.368 1.12 42.92C1.408 42.472 1.808 42.088 2.32 41.768C2.832 41.448 3.696 41.112 4.912 40.76C6.16 40.408 7.44 40.136 8.752 39.944L9.136 39.896C9.968 39.768 10.384 39.656 10.384 39.56C10.384 39.528 10.288 39.416 10.096 39.224C9.68 38.84 9.376 38.328 9.184 37.688C9.024 37.016 8.944 36.28 8.944 35.48C8.944 34.136 9.104 32.664 9.424 31.064C9.776 29.432 10.144 27.8 10.528 26.168C11.232 23.544 11.648 21.4 11.776 19.736C11.84 18.424 12.16 17.272 12.736 16.28C13.344 15.288 13.968 14.792 14.608 14.792C15.024 14.792 15.264 14.904 15.328 15.128L15.376 15.464H15.424L15.52 15.416C15.808 15.16 16.048 15.032 16.24 15.032C16.528 15.032 16.672 15.272 16.672 15.752V16.328C16.672 16.52 16.72 16.616 16.816 16.616C16.912 16.616 17.008 16.552 17.104 16.424C17.2 16.264 17.36 16.184 17.584 16.184C17.872 16.184 18.032 16.36 18.064 16.712C18.064 16.936 18.08 17.08 18.112 17.144C18.176 17.208 18.304 17.24 18.496 17.24H18.544C18.704 17.272 18.832 17.32 18.928 17.384C19.024 17.416 19.072 17.56 19.072 17.816C19.072 18.168 18.96 18.84 18.736 19.832C18.064 22.808 17.568 24.936 17.248 26.216C16.192 30.696 15.584 33.992 15.424 36.104C15.424 36.392 15.408 36.536 15.376 36.536C15.344 36.504 15.296 36.472 15.232 36.44C15.2 36.376 15.184 36.232 15.184 36.008C15.184 35.272 15.36 33.992 15.712 32.168C16.096 30.312 16.496 28.504 16.912 26.744L17.92 22.472L18.16 21.128L18.064 21.176C17.968 21.24 17.904 21.304 17.872 21.368L17.92 21.848L17.872 21.896L17.728 21.8C17.728 21.992 17.664 22.472 17.536 23.24C15.52 32.04 14.512 37.24 14.512 38.84L14.608 39.032V39.128L17.344 39.08C19.04 39.08 20.032 39.384 20.32 39.992C20.448 40.184 20.512 40.328 20.512 40.424C20.512 40.456 20.448 40.504 20.32 40.568C20.192 40.632 20.128 40.696 20.128 40.76C20.128 40.888 20.368 40.952 20.848 40.952C21.456 40.952 21.76 41.064 21.76 41.288C21.76 41.544 21.76 41.688 21.76 41.72C21.792 41.752 21.824 41.768 21.856 41.768C21.888 41.8 21.936 41.816 22 41.816C22.064 41.816 22.096 41.848 22.096 41.912C22.096 42.008 22.064 42.056 22 42.056C21.968 42.056 21.92 42.12 21.856 42.248C21.664 42.536 21.568 42.744 21.568 42.872C21.568 43.032 21.536 43.112 21.472 43.112C21.408 43.112 21.36 43.128 21.328 43.16C21.328 43.192 21.312 43.256 21.28 43.352C21.28 43.48 21.216 43.544 21.088 43.544C20.992 43.544 20.944 43.592 20.944 43.688L20.992 44.12C20.992 44.312 20.896 44.456 20.704 44.552C20.416 44.744 20.24 44.888 20.176 44.984C20.112 45.08 20.032 45.144 19.936 45.176C19.872 45.24 19.76 45.288 19.6 45.32C19.472 45.352 18.8 45.4 17.584 45.464C14.736 45.592 12.144 45.864 9.808 46.28C7.472 46.728 5.728 47.24 4.576 47.816C4.192 48.04 3.904 48.152 3.712 48.152ZM42.8298 44.648C42.2858 44.648 41.7578 44.52 41.2458 44.264C40.7658 44.04 40.2858 43.752 39.8058 43.4C39.3258 43.048 38.9738 42.744 38.7498 42.488C37.2458 40.504 36.0298 38.168 35.1018 35.48C34.1738 32.76 33.4378 30.248 32.8938 27.944C32.1898 25 31.5658 23.272 31.0218 22.76H30.9738C30.6858 22.76 30.3498 23.72 29.9658 25.64C29.6138 27.528 29.2778 29.704 28.9578 32.168C28.6378 34.632 28.3658 36.84 28.1418 38.792C27.9498 40.744 27.8538 41.736 27.8538 41.768L27.9018 42.104C27.9018 42.2 27.8538 42.28 27.7578 42.344C27.6938 42.44 27.5978 42.616 27.4698 42.872C27.3738 43.16 27.2138 43.4 26.9898 43.592C26.7658 43.784 26.5578 43.88 26.3658 43.88C26.2058 43.88 26.0778 43.8 25.9818 43.64C25.9178 43.48 25.8538 43.352 25.7898 43.256C25.6938 43.384 25.5978 43.512 25.5018 43.64C25.4058 43.768 25.3098 43.88 25.2138 43.976C25.1178 44.072 25.0058 44.12 24.8778 44.12C24.6218 44.12 24.3818 44.024 24.1578 43.832C23.9338 43.64 23.6938 43.48 23.4378 43.352C23.1818 43.224 22.9578 42.936 22.7658 42.488C22.5738 42.04 22.3498 41.784 22.0938 41.72C22.0297 41.72 21.9657 41.688 21.9017 41.624C21.8377 41.56 21.8057 41.336 21.8057 40.952C21.8057 40.216 22.0298 37.64 22.4778 33.224C22.9898 28.456 23.8378 24.216 25.0218 20.504C26.2058 16.76 27.4378 14.472 28.7178 13.64C29.2298 13.384 29.9338 13.256 30.8298 13.256C31.4058 13.256 31.8218 13.368 32.0778 13.592C32.3338 13.784 32.7018 13.912 33.1818 13.976C33.5018 14.008 33.8538 14.152 34.2378 14.408C34.6538 14.664 35.1178 15.208 35.6298 16.04C36.7178 17.864 38.0298 21.672 39.5658 27.464C40.3018 30.216 40.9578 32.44 41.5338 34.136C42.1098 35.832 42.5098 36.68 42.7338 36.68C43.2138 36.52 44.2058 33.144 45.7098 26.552C47.2138 19.928 48.1578 14.808 48.5417 11.192C48.6378 10.2 48.7498 9.48 48.8778 9.032C49.0378 8.552 49.2618 8.136 49.5498 7.784C49.8698 7.4 50.1738 7.208 50.4618 7.208C50.7498 7.208 50.9258 7.4 50.9898 7.784C50.9898 7.976 51.0378 8.072 51.1338 8.072C51.2298 8.072 51.3098 7.944 51.3738 7.688C51.4698 7.432 51.6138 7.304 51.8058 7.304C51.9658 7.336 52.0938 7.352 52.1898 7.352C52.2858 7.352 52.3338 7.576 52.3338 8.024C52.3338 8.472 52.4138 8.696 52.5738 8.696C52.6698 8.696 52.8138 8.584 53.0058 8.36C53.3578 8.04 53.6138 7.88 53.7738 7.88C53.9018 7.88 53.9658 7.96 53.9658 8.12C53.9658 8.248 54.0458 8.616 54.2058 9.224C54.3978 9.832 54.5418 10.136 54.6378 10.136C54.7338 10.136 54.7818 10.36 54.7818 10.808C54.7818 12.024 54.4458 14.424 53.7738 18.008C53.1018 21.56 52.3498 25.16 51.5178 28.808C50.6858 32.456 49.9658 35.24 49.3578 37.16C48.5898 39.528 47.6298 41.368 46.4778 42.68C45.3258 43.992 44.1098 44.648 42.8298 44.648ZM42.4458 37.16C42.4458 37.064 42.3498 36.792 42.1578 36.344C41.0378 33.56 39.9338 30.088 38.8458 25.928C38.2058 23.656 37.5978 21.608 37.0218 19.784C36.4458 17.928 35.9018 16.632 35.3898 15.896C35.2298 15.704 35.1178 15.608 35.0538 15.608L35.0058 15.656C35.0058 15.784 35.0858 15.992 35.2458 16.28C35.5018 16.664 35.6298 16.92 35.6298 17.048V17.24C35.6298 17.432 35.6778 17.528 35.7738 17.528H35.8698C35.8698 17.912 35.9658 18.36 36.1578 18.872C37.0858 21.56 37.8698 24.2 38.5098 26.792C39.4058 30.568 40.4938 33.688 41.7738 36.152C42.1578 36.824 42.3818 37.16 42.4458 37.16ZM63.8414 19.064H63.7934C63.7614 19.064 63.7454 19.032 63.7454 18.968L63.7934 18.872C63.8254 18.872 63.8574 18.904 63.8894 18.968L63.8414 19.064ZM62.7854 46.328C62.4654 46.328 62.2414 46.248 62.1134 46.088C61.9854 45.96 61.8094 45.896 61.5854 45.896C61.3614 45.896 61.1214 45.816 60.8654 45.656C60.6094 45.496 60.4014 45.272 60.2414 44.984C60.1134 44.728 59.9694 44.504 59.8094 44.312C59.6494 44.12 59.5694 43.944 59.5694 43.784L59.6174 43.64C59.7134 43.384 59.7614 43.16 59.7614 42.968C59.7614 42.68 59.6334 42.408 59.3774 42.152C59.1534 41.896 59.0094 41.768 58.9454 41.768C58.9134 41.768 58.8974 41.8 58.8974 41.864L59.0414 43.064L58.5134 43.016C58.3534 43.016 58.2574 43.112 58.2254 43.304C58.1934 43.528 58.0974 43.688 57.9374 43.784C57.7774 43.912 57.6014 43.976 57.4094 43.976C57.1534 43.976 56.9614 43.88 56.8334 43.688C56.7054 43.496 56.5614 43.4 56.4014 43.4C56.2734 43.4 56.2094 43.464 56.2094 43.592V43.736C56.2094 43.832 56.1774 43.88 56.1134 43.88C55.9534 43.88 55.7134 43.752 55.3934 43.496C55.1054 43.24 54.8174 42.936 54.5294 42.584C54.2414 42.264 54.0654 41.96 54.0014 41.672C53.9374 41.416 53.8574 41.16 53.7614 40.904L53.6654 40.616C53.4734 40.264 53.3774 39.672 53.3774 38.84C53.3774 36.568 54.0814 32.536 55.4894 26.744C56.2574 23.608 56.8014 21.208 57.1214 19.544C57.4094 18.136 57.6174 17.288 57.7454 17C56.9454 17.32 56.4654 17.56 56.3054 17.72C56.1454 17.88 56.0654 18.088 56.0654 18.344C56.0654 18.6 55.9374 18.744 55.6814 18.776C55.4254 18.776 55.2814 18.872 55.2494 19.064C55.1854 19.448 54.9454 19.64 54.5294 19.64C54.2414 19.64 54.0174 19.512 53.8574 19.256C53.7294 18.968 53.5694 18.824 53.3774 18.824C53.2174 18.824 53.1214 18.904 53.0894 19.064L53.1374 19.304C53.1374 19.368 53.1054 19.4 53.0414 19.4C52.9454 19.4 52.8174 19.352 52.6574 19.256C52.4974 19.16 52.1614 18.744 51.6494 18.008C51.4254 17.656 51.3134 17.368 51.3134 17.144C51.3134 16.888 51.2494 16.584 51.1214 16.232C50.9934 15.88 50.9294 15.56 50.9294 15.272C50.9294 13.672 52.3054 12.328 55.0574 11.24C57.8094 10.12 60.9774 9.56 64.5614 9.56C66.7054 9.56 68.8654 9.8 71.0414 10.28C75.1694 11.24 78.5454 12.968 81.1694 15.464C83.7934 17.928 85.1054 20.6 85.1054 23.48C85.0734 24.6 84.8814 25.704 84.5294 26.792C84.2094 27.88 83.8574 28.664 83.4734 29.144L83.5694 28.904C84.4014 27.112 84.8174 25.48 84.8174 24.008C84.8174 23.336 84.7854 22.744 84.7214 22.232C84.6574 21.688 84.5934 21.416 84.5294 21.416C84.4974 21.416 84.4814 21.672 84.4814 22.184C84.4814 22.472 84.4174 23 84.2894 23.768C84.1934 24.536 84.0814 25.288 83.9534 26.024C83.8574 26.728 83.7774 27.16 83.7134 27.32C83.6814 27.48 83.6334 27.656 83.5694 27.848C83.4734 28.424 83.1054 29.352 82.4654 30.632C81.8254 31.88 80.5454 33.592 78.6254 35.768C76.2254 38.296 73.3134 40.68 69.8894 42.92C66.4974 45.192 64.1294 46.328 62.7854 46.328ZM60.2894 16.76C60.3214 16.76 60.3534 16.744 60.3854 16.712C60.4494 16.648 60.4814 16.584 60.4814 16.52C60.4814 16.488 60.4494 16.456 60.3854 16.424C60.3214 16.424 60.2734 16.44 60.2414 16.472C60.2094 16.504 60.1934 16.568 60.1934 16.664C60.2254 16.728 60.2574 16.76 60.2894 16.76ZM59.3294 41.24C59.3614 41.24 59.4094 41.192 59.4734 41.096C59.5694 41 59.6494 40.888 59.7134 40.76C59.7774 40.632 59.8094 40.504 59.8094 40.376C59.8094 40.28 59.7614 40.232 59.6654 40.232C59.4414 40.232 59.2974 40.504 59.2334 41.048C59.2334 41.176 59.2654 41.24 59.3294 41.24ZM60.4334 40.088C60.5614 40.088 60.7054 40.024 60.8654 39.896C60.8974 39.864 60.9774 39.848 61.1054 39.848H61.8734C62.7694 39.848 64.4334 39.048 66.8654 37.448C69.3294 35.816 71.5214 34.056 73.4414 32.168C76.8654 28.52 78.5774 25.432 78.5774 22.904C78.5774 22.2 78.4334 21.576 78.1454 21.032C77.2494 19.464 75.5694 18.216 73.1054 17.288C70.6734 16.36 67.9694 15.896 64.9934 15.896L63.2174 15.944C62.8014 15.944 62.4814 15.96 62.2574 15.992C62.0334 15.992 61.8734 16.008 61.7774 16.04C61.6814 16.04 61.6014 16.04 61.5374 16.04L61.4894 16.616C61.4894 17.224 61.6014 17.528 61.8254 17.528L61.9694 17.48C62.2574 17.288 62.4654 17.192 62.5934 17.192C62.8814 17.192 63.0254 17.528 63.0254 18.2C63.0254 18.552 63.0414 18.776 63.0734 18.872C63.1374 18.968 63.1694 19.096 63.1694 19.256C63.1694 20.152 62.7534 22.392 61.9214 25.976C61.1214 29.272 60.6734 31.08 60.5774 31.4C60.2574 32.616 59.9694 34.008 59.7134 35.576C59.4894 37.112 59.3774 38.2 59.3774 38.84L59.4734 39.464C59.4734 39.592 59.4574 39.704 59.4254 39.8C59.3934 39.864 59.3774 39.928 59.3774 39.992C59.3774 40.056 59.4254 40.088 59.5214 40.088C59.6494 40.088 59.7134 39.928 59.7134 39.608V39.416C59.7134 38.104 59.9374 36.392 60.3854 34.28C60.8334 32.136 61.3294 29.944 61.8734 27.704C62.5774 24.696 63.0894 22.232 63.4094 20.312C63.4414 20.024 63.4894 19.8 63.5534 19.64C63.6494 19.448 63.7134 19.352 63.7454 19.352L63.8414 19.544C63.8414 19.96 63.4254 21.864 62.5934 25.256C62.0174 27.72 61.4414 30.28 60.8654 32.936C60.2894 35.56 60.0014 37.528 60.0014 38.84C60.0014 39.608 60.1454 40.024 60.4334 40.088ZM89.434 16.952C89.178 16.952 89.018 16.904 88.954 16.808V16.712C88.954 16.616 88.986 16.536 89.05 16.472L89.098 16.328C89.098 16.296 89.082 16.28 89.05 16.28C88.89 16.28 88.778 16.328 88.714 16.424C88.618 16.52 88.49 16.568 88.33 16.568C88.074 16.568 87.802 16.488 87.514 16.328C87.258 16.168 87.13 15.992 87.13 15.8C87.13 15.672 87.018 15.496 86.794 15.272C86.538 15.016 86.41 14.664 86.41 14.216C86.41 13.96 86.474 13.784 86.602 13.688L86.65 13.592C86.65 13.528 86.586 13.448 86.458 13.352C86.234 13.256 86.122 13.08 86.122 12.824C86.122 12.536 86.25 12.2 86.506 11.816C86.762 11.432 87.098 11.112 87.514 10.856C88.186 10.408 89.69 10.056 92.026 9.8C94.394 9.544 96.842 9.416 99.37 9.416C101.418 9.416 103.114 9.512 104.458 9.704C105.802 9.864 106.474 10.12 106.474 10.472C106.474 10.6 106.506 10.712 106.57 10.808C106.666 10.872 106.714 10.904 106.714 10.904L106.57 11.144C106.57 11.208 106.714 11.272 107.002 11.336C107.29 11.4 107.514 11.48 107.674 11.576C107.866 11.64 107.962 11.768 107.962 11.96C107.962 12.12 108.042 12.232 108.202 12.296C108.33 12.328 108.394 12.392 108.394 12.488C108.394 12.584 108.33 12.632 108.202 12.632C108.106 12.632 108.042 12.728 108.01 12.92C107.978 13.08 107.93 13.16 107.866 13.16C107.802 13.16 107.754 13.288 107.722 13.544C107.69 13.768 107.61 13.912 107.482 13.976C107.354 14.04 107.274 14.152 107.242 14.312C107.242 14.472 107.226 14.632 107.194 14.792C107.162 14.952 107.05 15.08 106.858 15.176C106.602 15.304 106.474 15.416 106.474 15.512C106.474 15.8 106.122 15.944 105.418 15.944L104.506 15.848C103.834 15.72 102.714 15.656 101.146 15.656C99.066 15.656 96.906 15.768 94.666 15.992C92.426 16.184 91.05 16.424 90.538 16.712C90.154 16.872 89.786 16.952 89.434 16.952ZM89.434 16.184H89.29C89.29 16.216 89.322 16.232 89.386 16.232L89.434 16.184ZM94.234 45.08C91.002 44.824 88.506 43.752 86.746 41.864C85.018 39.976 84.154 37.464 84.154 34.328C84.154 32.152 84.586 29.72 85.45 27.032C86.442 24.024 87.354 21.816 88.186 20.408C89.018 18.968 89.834 18.248 90.634 18.248L91.114 18.344C91.37 18.44 91.498 18.52 91.498 18.584C91.498 18.648 91.418 18.728 91.258 18.824C91.13 18.952 91.066 19.096 91.066 19.256C91.066 19.288 91.082 19.304 91.114 19.304C91.21 19.304 91.322 19.24 91.45 19.112C91.802 18.824 92.09 18.68 92.314 18.68C92.57 18.68 92.698 18.808 92.698 19.064C92.698 19.224 92.602 19.448 92.41 19.736C92.282 19.864 92.218 19.992 92.218 20.12C92.218 20.28 92.298 20.36 92.458 20.36C92.65 20.36 92.842 20.28 93.034 20.12C93.29 19.96 93.482 19.88 93.61 19.88C93.866 19.88 93.994 20.184 93.994 20.792V21.272C93.994 21.528 94.01 21.656 94.042 21.656L94.378 21.464C94.474 21.4 94.57 21.368 94.666 21.368C94.698 21.368 94.714 21.384 94.714 21.416C94.714 21.48 94.618 21.592 94.426 21.752C94.106 22.072 93.946 22.296 93.946 22.424L93.994 22.472L94.042 22.424H94.138C94.17 22.424 94.186 22.44 94.186 22.472C94.186 22.536 94.122 22.616 93.994 22.712C93.898 22.776 93.85 22.856 93.85 22.952V23.144C93.85 23.304 93.802 23.512 93.706 23.768C93.642 23.992 93.578 24.168 93.514 24.296L97.066 23.96C97.834 23.832 98.506 23.768 99.082 23.768C99.338 23.768 99.514 23.784 99.61 23.816C99.93 23.944 100.17 24.008 100.33 24.008C100.49 24.008 100.618 24.056 100.714 24.152C100.842 24.248 100.906 24.376 100.906 24.536C100.906 24.696 100.858 24.824 100.762 24.92L100.474 25.256L102.49 25.064C102.394 25.352 102.346 25.528 102.346 25.592C102.346 25.72 102.41 25.816 102.538 25.88C102.698 25.912 102.778 25.944 102.778 25.976L102.73 26.072C102.666 26.136 102.602 26.328 102.538 26.648C102.506 26.936 102.442 27.144 102.346 27.272L102.202 27.464L102.25 27.56L102.202 27.704C102.138 27.768 102.106 27.88 102.106 28.04V28.28C102.106 28.504 101.962 28.76 101.674 29.048C101.418 29.336 101.114 29.56 100.762 29.72C100.186 29.944 98.026 30.232 94.282 30.584L91.114 30.824C90.954 31.464 90.826 32.488 90.73 33.896L90.682 34.808C90.682 36.248 90.986 37.304 91.594 37.976C92.234 38.616 93.29 38.936 94.762 38.936C96.522 38.936 99.098 38.504 102.49 37.64C103.994 37.288 105.338 36.92 106.522 36.536C107.738 36.12 108.554 35.784 108.97 35.528C109.418 35.24 109.834 35.096 110.218 35.096C110.506 35.096 110.65 35.176 110.65 35.336C110.65 35.432 110.602 35.528 110.506 35.624C110.41 35.72 110.362 35.8 110.362 35.864C110.426 35.864 110.618 35.784 110.938 35.624C111.098 35.496 111.274 35.432 111.466 35.432C111.786 35.432 111.946 35.592 111.946 35.912C111.946 36.072 111.882 36.232 111.754 36.392L111.562 36.776C111.562 36.936 111.658 37.016 111.85 37.016C112.074 37.016 112.298 36.904 112.522 36.68C112.618 36.584 112.746 36.536 112.906 36.536C113.194 36.536 113.338 36.632 113.338 36.824V37.016C113.338 37.144 113.386 37.272 113.482 37.4C113.578 37.528 113.626 37.624 113.626 37.688L113.53 37.928L113.482 38.12C113.482 38.152 113.498 38.168 113.53 38.168C113.594 38.168 113.674 38.12 113.77 38.024L113.818 37.976C113.754 38.104 113.61 38.344 113.386 38.696C113.194 39.048 113.098 39.336 113.098 39.56V39.656C113.098 40.36 112.074 41.144 110.026 42.008C108.01 42.872 105.594 43.608 102.778 44.216C99.994 44.824 97.546 45.128 95.434 45.128L94.234 45.08ZM90.442 36.44C90.474 36.44 90.49 36.392 90.49 36.296L90.442 35.912L90.394 34.952C90.394 33.672 90.554 32.44 90.874 31.256L90.922 31.112L90.874 31.064L90.73 31.112C90.57 31.144 90.41 31.544 90.25 32.312C90.09 33.08 90.01 33.8 90.01 34.472C90.01 34.888 90.042 35.16 90.106 35.288C90.17 35.416 90.266 35.768 90.394 36.344L90.442 36.44ZM113.869 45.896C113.805 45.832 113.773 45.72 113.773 45.56C113.773 45.4 113.709 45.32 113.581 45.32C113.453 45.32 113.341 45.384 113.245 45.512C113.149 45.672 113.021 45.752 112.861 45.752C112.541 45.752 112.157 45.528 111.709 45.08C111.261 44.664 110.973 44.2 110.845 43.688C110.781 43.432 110.701 43.224 110.605 43.064C110.509 42.904 110.413 42.68 110.317 42.392C110.221 42.104 110.173 41.592 110.173 40.856C110.173 39.384 110.525 36.44 111.229 32.024C112.861 22.424 113.677 16.696 113.677 14.84V14.6L113.533 14.552L112.957 14.648C112.381 14.808 112.029 14.984 111.901 15.176C111.773 15.336 111.661 15.416 111.565 15.416C111.469 15.416 111.357 15.48 111.229 15.608C110.877 15.992 110.461 16.184 109.981 16.184C109.661 16.184 109.293 16.104 108.877 15.944C108.461 15.752 108.189 15.624 108.061 15.56C107.901 15.496 107.789 15.448 107.725 15.416C107.629 15.384 107.517 15.272 107.389 15.08C107.261 14.888 107.053 14.584 106.765 14.168C106.605 13.944 106.525 13.576 106.525 13.064C106.525 12.872 106.573 12.68 106.669 12.488C106.669 12.456 106.637 12.408 106.573 12.344C106.509 12.28 106.445 12.2 106.381 12.104C106.317 12.008 106.285 11.88 106.285 11.72C106.285 11.56 106.349 11.352 106.477 11.096C107.085 10.008 108.429 9.192 110.509 8.648C112.589 8.104 114.989 7.832 117.709 7.832C120.301 7.832 122.941 8.088 125.629 8.6C128.349 9.112 130.749 9.864 132.829 10.856C134.557 11.784 136.045 13.032 137.293 14.6C138.573 16.136 139.213 17.496 139.213 18.68C139.213 19.384 139.117 19.976 138.925 20.456C138.765 20.936 138.653 21.176 138.589 21.176V21.128L138.685 20.696C138.909 20.024 139.021 19.448 139.021 18.968C139.021 18.52 138.973 18.168 138.877 17.912C138.781 17.624 138.701 17.48 138.637 17.48V17.528C138.445 19.736 137.933 21.656 137.101 23.288C136.301 24.92 134.413 26.808 131.437 28.952C128.461 31.096 123.661 34.072 117.037 37.88C116.909 38.744 116.845 39.624 116.845 40.52L116.941 41.864C116.941 42.12 116.893 42.248 116.797 42.248L116.365 42.056C116.173 42.056 116.077 42.344 116.077 42.92C116.077 43.176 116.029 43.384 115.933 43.544C115.869 43.736 115.837 43.96 115.837 44.216C115.837 44.472 115.821 44.632 115.789 44.696C115.789 44.76 115.725 44.792 115.597 44.792C115.501 44.792 115.421 44.808 115.357 44.84C115.325 44.872 115.309 44.92 115.309 44.984V45.08C115.309 45.176 115.229 45.288 115.069 45.416C114.941 45.576 114.781 45.704 114.589 45.8C114.397 45.928 114.221 45.992 114.061 45.992L113.869 45.896ZM116.365 41.816C116.461 41.816 116.557 41.176 116.653 39.896L116.797 38.024H116.749C116.397 38.056 116.221 38.904 116.221 40.568C116.221 41.4 116.269 41.816 116.365 41.816ZM119.821 15.896L119.773 15.8L119.725 15.896H119.821ZM119.917 16.76L119.869 16.616L119.725 16.712L119.917 16.76ZM119.821 17V16.952C119.821 16.92 119.805 16.904 119.773 16.904L119.725 16.952C119.725 16.984 119.741 17 119.773 17H119.821ZM117.901 29.96C118.125 29.96 118.493 28.168 119.005 24.584C119.549 21 119.821 18.648 119.821 17.528C119.821 17.304 119.805 17.192 119.773 17.192C119.645 17.192 119.581 17.24 119.581 17.336C119.581 17.432 119.437 18.536 119.149 20.648C118.893 22.728 118.733 23.88 118.669 24.104L118.621 24.344L118.669 24.44L118.861 24.344C118.733 24.536 118.589 25.032 118.429 25.832C118.045 27.816 117.853 29.144 117.853 29.816L117.901 29.96ZM118.333 29.912C118.461 29.848 118.589 29.784 118.717 29.72C118.845 29.656 119.197 29.432 119.773 29.048C128.285 24.024 132.541 20.488 132.541 18.44C132.541 17.832 131.901 17.192 130.621 16.52C129.373 15.848 127.837 15.304 126.013 14.888C123.773 14.408 121.901 14.168 120.397 14.168C119.949 14.168 119.709 14.216 119.677 14.312C119.709 14.312 119.741 14.344 119.773 14.408C119.805 14.44 119.869 14.472 119.965 14.504C120.061 14.536 120.125 14.552 120.157 14.552H120.205C120.429 14.552 120.541 14.744 120.541 15.128C120.541 15.736 120.365 17.016 120.013 18.968C119.629 21.176 119.069 24.824 118.333 29.912ZM140.715 16.952C140.459 16.952 140.299 16.904 140.235 16.808V16.712C140.235 16.616 140.267 16.536 140.331 16.472L140.379 16.328C140.379 16.296 140.363 16.28 140.331 16.28C140.171 16.28 140.059 16.328 139.995 16.424C139.899 16.52 139.771 16.568 139.611 16.568C139.355 16.568 139.083 16.488 138.795 16.328C138.539 16.168 138.411 15.992 138.411 15.8C138.411 15.672 138.299 15.496 138.075 15.272C137.819 15.016 137.691 14.664 137.691 14.216C137.691 13.96 137.755 13.784 137.883 13.688L137.931 13.592C137.931 13.528 137.867 13.448 137.739 13.352C137.515 13.256 137.403 13.08 137.403 12.824C137.403 12.536 137.531 12.2 137.787 11.816C138.043 11.432 138.379 11.112 138.795 10.856C139.467 10.408 140.971 10.056 143.307 9.8C145.675 9.544 148.123 9.416 150.651 9.416C152.699 9.416 154.395 9.512 155.739 9.704C157.083 9.864 157.755 10.12 157.755 10.472C157.755 10.6 157.787 10.712 157.851 10.808C157.947 10.872 157.995 10.904 157.995 10.904L157.851 11.144C157.851 11.208 157.995 11.272 158.283 11.336C158.571 11.4 158.795 11.48 158.955 11.576C159.147 11.64 159.243 11.768 159.243 11.96C159.243 12.12 159.323 12.232 159.483 12.296C159.611 12.328 159.675 12.392 159.675 12.488C159.675 12.584 159.611 12.632 159.483 12.632C159.387 12.632 159.323 12.728 159.291 12.92C159.259 13.08 159.211 13.16 159.147 13.16C159.083 13.16 159.035 13.288 159.003 13.544C158.971 13.768 158.891 13.912 158.763 13.976C158.635 14.04 158.555 14.152 158.523 14.312C158.523 14.472 158.507 14.632 158.475 14.792C158.443 14.952 158.331 15.08 158.139 15.176C157.883 15.304 157.755 15.416 157.755 15.512C157.755 15.8 157.403 15.944 156.699 15.944L155.787 15.848C155.115 15.72 153.995 15.656 152.427 15.656C150.347 15.656 148.187 15.768 145.947 15.992C143.707 16.184 142.331 16.424 141.819 16.712C141.435 16.872 141.067 16.952 140.715 16.952ZM140.715 16.184H140.571C140.571 16.216 140.603 16.232 140.667 16.232L140.715 16.184ZM145.515 45.08C142.283 44.824 139.787 43.752 138.027 41.864C136.299 39.976 135.435 37.464 135.435 34.328C135.435 32.152 135.867 29.72 136.731 27.032C137.723 24.024 138.635 21.816 139.467 20.408C140.299 18.968 141.115 18.248 141.915 18.248L142.395 18.344C142.651 18.44 142.779 18.52 142.779 18.584C142.779 18.648 142.699 18.728 142.539 18.824C142.411 18.952 142.347 19.096 142.347 19.256C142.347 19.288 142.363 19.304 142.395 19.304C142.491 19.304 142.603 19.24 142.731 19.112C143.083 18.824 143.371 18.68 143.595 18.68C143.851 18.68 143.979 18.808 143.979 19.064C143.979 19.224 143.883 19.448 143.691 19.736C143.563 19.864 143.499 19.992 143.499 20.12C143.499 20.28 143.579 20.36 143.739 20.36C143.931 20.36 144.123 20.28 144.315 20.12C144.571 19.96 144.763 19.88 144.891 19.88C145.147 19.88 145.275 20.184 145.275 20.792V21.272C145.275 21.528 145.291 21.656 145.323 21.656L145.659 21.464C145.755 21.4 145.851 21.368 145.947 21.368C145.979 21.368 145.995 21.384 145.995 21.416C145.995 21.48 145.899 21.592 145.707 21.752C145.387 22.072 145.227 22.296 145.227 22.424L145.275 22.472L145.323 22.424H145.419C145.451 22.424 145.467 22.44 145.467 22.472C145.467 22.536 145.403 22.616 145.275 22.712C145.179 22.776 145.131 22.856 145.131 22.952V23.144C145.131 23.304 145.083 23.512 144.987 23.768C144.923 23.992 144.859 24.168 144.795 24.296L148.347 23.96C149.115 23.832 149.787 23.768 150.363 23.768C150.619 23.768 150.795 23.784 150.891 23.816C151.211 23.944 151.451 24.008 151.611 24.008C151.771 24.008 151.899 24.056 151.995 24.152C152.123 24.248 152.187 24.376 152.187 24.536C152.187 24.696 152.139 24.824 152.043 24.92L151.755 25.256L153.771 25.064C153.675 25.352 153.627 25.528 153.627 25.592C153.627 25.72 153.691 25.816 153.819 25.88C153.979 25.912 154.059 25.944 154.059 25.976L154.011 26.072C153.947 26.136 153.883 26.328 153.819 26.648C153.787 26.936 153.723 27.144 153.627 27.272L153.483 27.464L153.531 27.56L153.483 27.704C153.419 27.768 153.387 27.88 153.387 28.04V28.28C153.387 28.504 153.243 28.76 152.955 29.048C152.699 29.336 152.395 29.56 152.043 29.72C151.467 29.944 149.307 30.232 145.563 30.584L142.395 30.824C142.235 31.464 142.107 32.488 142.011 33.896L141.963 34.808C141.963 36.248 142.267 37.304 142.875 37.976C143.515 38.616 144.571 38.936 146.043 38.936C147.803 38.936 150.379 38.504 153.771 37.64C155.275 37.288 156.619 36.92 157.803 36.536C159.019 36.12 159.835 35.784 160.251 35.528C160.699 35.24 161.115 35.096 161.499 35.096C161.787 35.096 161.931 35.176 161.931 35.336C161.931 35.432 161.883 35.528 161.787 35.624C161.691 35.72 161.643 35.8 161.643 35.864C161.707 35.864 161.899 35.784 162.219 35.624C162.379 35.496 162.555 35.432 162.747 35.432C163.067 35.432 163.227 35.592 163.227 35.912C163.227 36.072 163.163 36.232 163.035 36.392L162.843 36.776C162.843 36.936 162.939 37.016 163.131 37.016C163.355 37.016 163.579 36.904 163.803 36.68C163.899 36.584 164.027 36.536 164.187 36.536C164.475 36.536 164.619 36.632 164.619 36.824V37.016C164.619 37.144 164.667 37.272 164.763 37.4C164.859 37.528 164.907 37.624 164.907 37.688L164.811 37.928L164.763 38.12C164.763 38.152 164.779 38.168 164.811 38.168C164.875 38.168 164.955 38.12 165.051 38.024L165.099 37.976C165.035 38.104 164.891 38.344 164.667 38.696C164.475 39.048 164.379 39.336 164.379 39.56V39.656C164.379 40.36 163.355 41.144 161.307 42.008C159.291 42.872 156.875 43.608 154.059 44.216C151.275 44.824 148.827 45.128 146.715 45.128L145.515 45.08ZM141.723 36.44C141.755 36.44 141.771 36.392 141.771 36.296L141.723 35.912L141.675 34.952C141.675 33.672 141.835 32.44 142.155 31.256L142.203 31.112L142.155 31.064L142.011 31.112C141.851 31.144 141.691 31.544 141.531 32.312C141.371 33.08 141.291 33.8 141.291 34.472C141.291 34.888 141.323 35.16 141.387 35.288C141.451 35.416 141.547 35.768 141.675 36.344L141.723 36.44ZM182.142 44.648C181.598 44.648 181.07 44.52 180.558 44.264C180.078 44.04 179.598 43.752 179.118 43.4C178.638 43.048 178.286 42.744 178.062 42.488C176.558 40.504 175.342 38.168 174.414 35.48C173.486 32.76 172.75 30.248 172.206 27.944C171.502 25 170.878 23.272 170.334 22.76H170.286C169.998 22.76 169.662 23.72 169.278 25.64C168.926 27.528 168.59 29.704 168.27 32.168C167.95 34.632 167.678 36.84 167.454 38.792C167.262 40.744 167.166 41.736 167.166 41.768L167.214 42.104C167.214 42.2 167.166 42.28 167.07 42.344C167.006 42.44 166.91 42.616 166.782 42.872C166.686 43.16 166.526 43.4 166.302 43.592C166.078 43.784 165.87 43.88 165.678 43.88C165.518 43.88 165.39 43.8 165.294 43.64C165.23 43.48 165.166 43.352 165.102 43.256C165.006 43.384 164.91 43.512 164.814 43.64C164.718 43.768 164.622 43.88 164.526 43.976C164.43 44.072 164.318 44.12 164.19 44.12C163.934 44.12 163.694 44.024 163.47 43.832C163.246 43.64 163.006 43.48 162.75 43.352C162.494 43.224 162.27 42.936 162.078 42.488C161.886 42.04 161.662 41.784 161.406 41.72C161.342 41.72 161.278 41.688 161.214 41.624C161.15 41.56 161.118 41.336 161.118 40.952C161.118 40.216 161.342 37.64 161.79 33.224C162.302 28.456 163.15 24.216 164.334 20.504C165.518 16.76 166.75 14.472 168.03 13.64C168.542 13.384 169.246 13.256 170.142 13.256C170.718 13.256 171.134 13.368 171.39 13.592C171.646 13.784 172.014 13.912 172.494 13.976C172.814 14.008 173.166 14.152 173.55 14.408C173.966 14.664 174.43 15.208 174.942 16.04C176.03 17.864 177.342 21.672 178.878 27.464C179.614 30.216 180.27 32.44 180.846 34.136C181.422 35.832 181.822 36.68 182.046 36.68C182.526 36.52 183.518 33.144 185.022 26.552C186.526 19.928 187.47 14.808 187.854 11.192C187.95 10.2 188.062 9.48 188.19 9.032C188.35 8.552 188.574 8.136 188.862 7.784C189.182 7.4 189.486 7.208 189.774 7.208C190.062 7.208 190.238 7.4 190.302 7.784C190.302 7.976 190.35 8.072 190.446 8.072C190.542 8.072 190.622 7.944 190.686 7.688C190.782 7.432 190.926 7.304 191.118 7.304C191.278 7.336 191.406 7.352 191.502 7.352C191.598 7.352 191.646 7.576 191.646 8.024C191.646 8.472 191.726 8.696 191.886 8.696C191.982 8.696 192.126 8.584 192.318 8.36C192.67 8.04 192.926 7.88 193.086 7.88C193.214 7.88 193.278 7.96 193.278 8.12C193.278 8.248 193.358 8.616 193.518 9.224C193.71 9.832 193.854 10.136 193.95 10.136C194.046 10.136 194.094 10.36 194.094 10.808C194.094 12.024 193.758 14.424 193.086 18.008C192.414 21.56 191.662 25.16 190.83 28.808C189.998 32.456 189.278 35.24 188.67 37.16C187.902 39.528 186.942 41.368 185.79 42.68C184.638 43.992 183.422 44.648 182.142 44.648ZM181.758 37.16C181.758 37.064 181.662 36.792 181.47 36.344C180.35 33.56 179.246 30.088 178.158 25.928C177.518 23.656 176.91 21.608 176.334 19.784C175.758 17.928 175.214 16.632 174.702 15.896C174.542 15.704 174.43 15.608 174.366 15.608L174.318 15.656C174.318 15.784 174.398 15.992 174.558 16.28C174.814 16.664 174.942 16.92 174.942 17.048V17.24C174.942 17.432 174.99 17.528 175.086 17.528H175.182C175.182 17.912 175.278 18.36 175.47 18.872C176.398 21.56 177.182 24.2 177.822 26.792C178.718 30.568 179.806 33.688 181.086 36.152C181.47 36.824 181.694 37.16 181.758 37.16ZM203.154 19.064H203.106C203.074 19.064 203.058 19.032 203.058 18.968L203.106 18.872C203.138 18.872 203.17 18.904 203.202 18.968L203.154 19.064ZM202.098 46.328C201.778 46.328 201.554 46.248 201.426 46.088C201.298 45.96 201.122 45.896 200.898 45.896C200.674 45.896 200.434 45.816 200.178 45.656C199.922 45.496 199.714 45.272 199.554 44.984C199.426 44.728 199.282 44.504 199.122 44.312C198.962 44.12 198.882 43.944 198.882 43.784L198.93 43.64C199.026 43.384 199.074 43.16 199.074 42.968C199.074 42.68 198.946 42.408 198.69 42.152C198.466 41.896 198.322 41.768 198.258 41.768C198.226 41.768 198.21 41.8 198.21 41.864L198.354 43.064L197.826 43.016C197.666 43.016 197.57 43.112 197.538 43.304C197.506 43.528 197.41 43.688 197.25 43.784C197.09 43.912 196.914 43.976 196.722 43.976C196.466 43.976 196.274 43.88 196.146 43.688C196.018 43.496 195.874 43.4 195.714 43.4C195.586 43.4 195.522 43.464 195.522 43.592V43.736C195.522 43.832 195.49 43.88 195.426 43.88C195.266 43.88 195.026 43.752 194.706 43.496C194.418 43.24 194.13 42.936 193.842 42.584C193.554 42.264 193.378 41.96 193.314 41.672C193.25 41.416 193.17 41.16 193.074 40.904L192.978 40.616C192.786 40.264 192.69 39.672 192.69 38.84C192.69 36.568 193.394 32.536 194.802 26.744C195.57 23.608 196.114 21.208 196.434 19.544C196.722 18.136 196.93 17.288 197.058 17C196.258 17.32 195.778 17.56 195.618 17.72C195.458 17.88 195.378 18.088 195.378 18.344C195.378 18.6 195.25 18.744 194.994 18.776C194.738 18.776 194.594 18.872 194.562 19.064C194.498 19.448 194.258 19.64 193.842 19.64C193.554 19.64 193.33 19.512 193.17 19.256C193.042 18.968 192.882 18.824 192.69 18.824C192.53 18.824 192.434 18.904 192.402 19.064L192.45 19.304C192.45 19.368 192.418 19.4 192.354 19.4C192.258 19.4 192.13 19.352 191.97 19.256C191.81 19.16 191.474 18.744 190.962 18.008C190.738 17.656 190.626 17.368 190.626 17.144C190.626 16.888 190.562 16.584 190.434 16.232C190.306 15.88 190.242 15.56 190.242 15.272C190.242 13.672 191.618 12.328 194.37 11.24C197.122 10.12 200.29 9.56 203.874 9.56C206.018 9.56 208.178 9.8 210.354 10.28C214.482 11.24 217.858 12.968 220.482 15.464C223.106 17.928 224.418 20.6 224.418 23.48C224.386 24.6 224.194 25.704 223.842 26.792C223.522 27.88 223.17 28.664 222.786 29.144L222.882 28.904C223.714 27.112 224.13 25.48 224.13 24.008C224.13 23.336 224.098 22.744 224.034 22.232C223.97 21.688 223.906 21.416 223.842 21.416C223.81 21.416 223.794 21.672 223.794 22.184C223.794 22.472 223.73 23 223.602 23.768C223.506 24.536 223.394 25.288 223.266 26.024C223.17 26.728 223.09 27.16 223.026 27.32C222.994 27.48 222.946 27.656 222.882 27.848C222.786 28.424 222.418 29.352 221.778 30.632C221.138 31.88 219.858 33.592 217.938 35.768C215.538 38.296 212.626 40.68 209.202 42.92C205.81 45.192 203.442 46.328 202.098 46.328ZM199.602 16.76C199.634 16.76 199.666 16.744 199.698 16.712C199.762 16.648 199.794 16.584 199.794 16.52C199.794 16.488 199.762 16.456 199.698 16.424C199.634 16.424 199.586 16.44 199.554 16.472C199.522 16.504 199.506 16.568 199.506 16.664C199.538 16.728 199.57 16.76 199.602 16.76ZM198.642 41.24C198.674 41.24 198.722 41.192 198.786 41.096C198.882 41 198.962 40.888 199.026 40.76C199.09 40.632 199.122 40.504 199.122 40.376C199.122 40.28 199.074 40.232 198.978 40.232C198.754 40.232 198.61 40.504 198.546 41.048C198.546 41.176 198.578 41.24 198.642 41.24ZM199.746 40.088C199.874 40.088 200.018 40.024 200.178 39.896C200.21 39.864 200.29 39.848 200.418 39.848H201.186C202.082 39.848 203.746 39.048 206.178 37.448C208.642 35.816 210.834 34.056 212.754 32.168C216.178 28.52 217.89 25.432 217.89 22.904C217.89 22.2 217.746 21.576 217.458 21.032C216.562 19.464 214.882 18.216 212.418 17.288C209.986 16.36 207.282 15.896 204.306 15.896L202.53 15.944C202.114 15.944 201.794 15.96 201.57 15.992C201.346 15.992 201.186 16.008 201.09 16.04C200.994 16.04 200.914 16.04 200.85 16.04L200.802 16.616C200.802 17.224 200.914 17.528 201.138 17.528L201.282 17.48C201.57 17.288 201.778 17.192 201.906 17.192C202.194 17.192 202.338 17.528 202.338 18.2C202.338 18.552 202.354 18.776 202.386 18.872C202.45 18.968 202.482 19.096 202.482 19.256C202.482 20.152 202.066 22.392 201.234 25.976C200.434 29.272 199.986 31.08 199.89 31.4C199.57 32.616 199.282 34.008 199.026 35.576C198.802 37.112 198.69 38.2 198.69 38.84L198.786 39.464C198.786 39.592 198.77 39.704 198.738 39.8C198.706 39.864 198.69 39.928 198.69 39.992C198.69 40.056 198.738 40.088 198.834 40.088C198.962 40.088 199.026 39.928 199.026 39.608V39.416C199.026 38.104 199.25 36.392 199.698 34.28C200.146 32.136 200.642 29.944 201.186 27.704C201.89 24.696 202.402 22.232 202.722 20.312C202.754 20.024 202.802 19.8 202.866 19.64C202.962 19.448 203.026 19.352 203.058 19.352L203.154 19.544C203.154 19.96 202.738 21.864 201.906 25.256C201.33 27.72 200.754 30.28 200.178 32.936C199.602 35.56 199.314 37.528 199.314 38.84C199.314 39.608 199.458 40.024 199.746 40.088ZM228.747 16.952C228.491 16.952 228.331 16.904 228.267 16.808V16.712C228.267 16.616 228.299 16.536 228.363 16.472L228.411 16.328C228.411 16.296 228.395 16.28 228.363 16.28C228.203 16.28 228.091 16.328 228.027 16.424C227.931 16.52 227.803 16.568 227.643 16.568C227.387 16.568 227.115 16.488 226.827 16.328C226.571 16.168 226.443 15.992 226.443 15.8C226.443 15.672 226.331 15.496 226.107 15.272C225.851 15.016 225.723 14.664 225.723 14.216C225.723 13.96 225.787 13.784 225.915 13.688L225.963 13.592C225.963 13.528 225.899 13.448 225.771 13.352C225.547 13.256 225.435 13.08 225.435 12.824C225.435 12.536 225.563 12.2 225.819 11.816C226.075 11.432 226.411 11.112 226.827 10.856C227.499 10.408 229.003 10.056 231.339 9.8C233.707 9.544 236.155 9.416 238.683 9.416C240.731 9.416 242.427 9.512 243.771 9.704C245.115 9.864 245.787 10.12 245.787 10.472C245.787 10.6 245.819 10.712 245.883 10.808C245.979 10.872 246.027 10.904 246.027 10.904L245.883 11.144C245.883 11.208 246.027 11.272 246.315 11.336C246.603 11.4 246.827 11.48 246.987 11.576C247.179 11.64 247.275 11.768 247.275 11.96C247.275 12.12 247.355 12.232 247.515 12.296C247.643 12.328 247.707 12.392 247.707 12.488C247.707 12.584 247.643 12.632 247.515 12.632C247.419 12.632 247.355 12.728 247.323 12.92C247.291 13.08 247.243 13.16 247.179 13.16C247.115 13.16 247.067 13.288 247.035 13.544C247.003 13.768 246.923 13.912 246.795 13.976C246.667 14.04 246.587 14.152 246.555 14.312C246.555 14.472 246.539 14.632 246.507 14.792C246.475 14.952 246.363 15.08 246.171 15.176C245.915 15.304 245.787 15.416 245.787 15.512C245.787 15.8 245.435 15.944 244.731 15.944L243.819 15.848C243.147 15.72 242.027 15.656 240.459 15.656C238.379 15.656 236.219 15.768 233.979 15.992C231.739 16.184 230.363 16.424 229.851 16.712C229.467 16.872 229.099 16.952 228.747 16.952ZM228.747 16.184H228.603C228.603 16.216 228.635 16.232 228.699 16.232L228.747 16.184ZM233.547 45.08C230.315 44.824 227.819 43.752 226.059 41.864C224.331 39.976 223.466 37.464 223.466 34.328C223.466 32.152 223.899 29.72 224.763 27.032C225.755 24.024 226.667 21.816 227.499 20.408C228.331 18.968 229.147 18.248 229.947 18.248L230.427 18.344C230.683 18.44 230.811 18.52 230.811 18.584C230.811 18.648 230.731 18.728 230.571 18.824C230.443 18.952 230.379 19.096 230.379 19.256C230.379 19.288 230.395 19.304 230.427 19.304C230.523 19.304 230.635 19.24 230.763 19.112C231.115 18.824 231.403 18.68 231.627 18.68C231.883 18.68 232.011 18.808 232.011 19.064C232.011 19.224 231.915 19.448 231.723 19.736C231.595 19.864 231.531 19.992 231.531 20.12C231.531 20.28 231.611 20.36 231.771 20.36C231.963 20.36 232.155 20.28 232.347 20.12C232.603 19.96 232.795 19.88 232.923 19.88C233.179 19.88 233.307 20.184 233.307 20.792V21.272C233.307 21.528 233.323 21.656 233.355 21.656L233.691 21.464C233.787 21.4 233.883 21.368 233.979 21.368C234.011 21.368 234.027 21.384 234.027 21.416C234.027 21.48 233.931 21.592 233.739 21.752C233.419 22.072 233.259 22.296 233.259 22.424L233.307 22.472L233.355 22.424H233.451C233.483 22.424 233.499 22.44 233.499 22.472C233.499 22.536 233.435 22.616 233.307 22.712C233.211 22.776 233.163 22.856 233.163 22.952V23.144C233.163 23.304 233.115 23.512 233.019 23.768C232.955 23.992 232.891 24.168 232.827 24.296L236.379 23.96C237.147 23.832 237.819 23.768 238.395 23.768C238.651 23.768 238.827 23.784 238.923 23.816C239.243 23.944 239.483 24.008 239.643 24.008C239.803 24.008 239.931 24.056 240.027 24.152C240.155 24.248 240.219 24.376 240.219 24.536C240.219 24.696 240.171 24.824 240.075 24.92L239.787 25.256L241.803 25.064C241.707 25.352 241.659 25.528 241.659 25.592C241.659 25.72 241.723 25.816 241.851 25.88C242.011 25.912 242.091 25.944 242.091 25.976L242.043 26.072C241.979 26.136 241.915 26.328 241.851 26.648C241.819 26.936 241.755 27.144 241.659 27.272L241.515 27.464L241.563 27.56L241.515 27.704C241.451 27.768 241.419 27.88 241.419 28.04V28.28C241.419 28.504 241.275 28.76 240.987 29.048C240.731 29.336 240.427 29.56 240.075 29.72C239.499 29.944 237.339 30.232 233.595 30.584L230.427 30.824C230.267 31.464 230.139 32.488 230.043 33.896L229.995 34.808C229.995 36.248 230.299 37.304 230.907 37.976C231.547 38.616 232.603 38.936 234.075 38.936C235.835 38.936 238.411 38.504 241.803 37.64C243.307 37.288 244.651 36.92 245.835 36.536C247.051 36.12 247.867 35.784 248.283 35.528C248.731 35.24 249.147 35.096 249.531 35.096C249.819 35.096 249.963 35.176 249.963 35.336C249.963 35.432 249.915 35.528 249.819 35.624C249.723 35.72 249.675 35.8 249.675 35.864C249.739 35.864 249.931 35.784 250.251 35.624C250.411 35.496 250.587 35.432 250.779 35.432C251.099 35.432 251.259 35.592 251.259 35.912C251.259 36.072 251.195 36.232 251.067 36.392L250.875 36.776C250.875 36.936 250.971 37.016 251.163 37.016C251.387 37.016 251.611 36.904 251.835 36.68C251.931 36.584 252.059 36.536 252.219 36.536C252.507 36.536 252.651 36.632 252.651 36.824V37.016C252.651 37.144 252.699 37.272 252.795 37.4C252.891 37.528 252.939 37.624 252.939 37.688L252.843 37.928L252.795 38.12C252.795 38.152 252.811 38.168 252.843 38.168C252.907 38.168 252.987 38.12 253.083 38.024L253.131 37.976C253.067 38.104 252.923 38.344 252.699 38.696C252.507 39.048 252.411 39.336 252.411 39.56V39.656C252.411 40.36 251.387 41.144 249.339 42.008C247.323 42.872 244.907 43.608 242.091 44.216C239.307 44.824 236.859 45.128 234.747 45.128L233.547 45.08ZM229.755 36.44C229.787 36.44 229.803 36.392 229.803 36.296L229.755 35.912L229.707 34.952C229.707 33.672 229.867 32.44 230.187 31.256L230.235 31.112L230.187 31.064L230.043 31.112C229.883 31.144 229.723 31.544 229.562 32.312C229.403 33.08 229.323 33.8 229.323 34.472C229.323 34.888 229.355 35.16 229.419 35.288C229.483 35.416 229.579 35.768 229.707 36.344L229.755 36.44ZM270.174 44.648C269.63 44.648 269.102 44.52 268.59 44.264C268.11 44.04 267.63 43.752 267.15 43.4C266.67 43.048 266.318 42.744 266.094 42.488C264.59 40.504 263.374 38.168 262.446 35.48C261.518 32.76 260.782 30.248 260.238 27.944C259.534 25 258.91 23.272 258.366 22.76H258.318C258.03 22.76 257.694 23.72 257.31 25.64C256.958 27.528 256.622 29.704 256.302 32.168C255.982 34.632 255.71 36.84 255.486 38.792C255.294 40.744 255.198 41.736 255.198 41.768L255.246 42.104C255.246 42.2 255.198 42.28 255.102 42.344C255.038 42.44 254.942 42.616 254.814 42.872C254.718 43.16 254.558 43.4 254.334 43.592C254.11 43.784 253.902 43.88 253.71 43.88C253.55 43.88 253.422 43.8 253.326 43.64C253.262 43.48 253.198 43.352 253.134 43.256C253.038 43.384 252.942 43.512 252.846 43.64C252.75 43.768 252.654 43.88 252.558 43.976C252.462 44.072 252.35 44.12 252.222 44.12C251.966 44.12 251.726 44.024 251.502 43.832C251.278 43.64 251.038 43.48 250.782 43.352C250.526 43.224 250.302 42.936 250.11 42.488C249.918 42.04 249.694 41.784 249.438 41.72C249.373 41.72 249.309 41.688 249.245 41.624C249.181 41.56 249.149 41.336 249.149 40.952C249.149 40.216 249.374 37.64 249.822 33.224C250.334 28.456 251.182 24.216 252.366 20.504C253.55 16.76 254.782 14.472 256.062 13.64C256.574 13.384 257.278 13.256 258.174 13.256C258.75 13.256 259.166 13.368 259.422 13.592C259.678 13.784 260.046 13.912 260.526 13.976C260.846 14.008 261.198 14.152 261.582 14.408C261.998 14.664 262.462 15.208 262.974 16.04C264.062 17.864 265.374 21.672 266.91 27.464C267.646 30.216 268.302 32.44 268.878 34.136C269.454 35.832 269.854 36.68 270.078 36.68C270.558 36.52 271.55 33.144 273.054 26.552C274.558 19.928 275.502 14.808 275.885 11.192C275.982 10.2 276.094 9.48 276.222 9.032C276.382 8.552 276.606 8.136 276.894 7.784C277.214 7.4 277.518 7.208 277.806 7.208C278.094 7.208 278.27 7.4 278.334 7.784C278.334 7.976 278.382 8.072 278.478 8.072C278.574 8.072 278.654 7.944 278.718 7.688C278.814 7.432 278.958 7.304 279.15 7.304C279.31 7.336 279.438 7.352 279.534 7.352C279.63 7.352 279.678 7.576 279.678 8.024C279.678 8.472 279.758 8.696 279.918 8.696C280.014 8.696 280.158 8.584 280.35 8.36C280.702 8.04 280.958 7.88 281.118 7.88C281.246 7.88 281.31 7.96 281.31 8.12C281.31 8.248 281.39 8.616 281.55 9.224C281.742 9.832 281.886 10.136 281.982 10.136C282.078 10.136 282.126 10.36 282.126 10.808C282.126 12.024 281.79 14.424 281.118 18.008C280.446 21.56 279.694 25.16 278.862 28.808C278.03 32.456 277.31 35.24 276.702 37.16C275.934 39.528 274.974 41.368 273.822 42.68C272.67 43.992 271.454 44.648 270.174 44.648ZM269.79 37.16C269.79 37.064 269.694 36.792 269.502 36.344C268.382 33.56 267.278 30.088 266.19 25.928C265.55 23.656 264.942 21.608 264.366 19.784C263.79 17.928 263.246 16.632 262.734 15.896C262.574 15.704 262.462 15.608 262.398 15.608L262.35 15.656C262.35 15.784 262.43 15.992 262.59 16.28C262.846 16.664 262.974 16.92 262.974 17.048V17.24C262.974 17.432 263.022 17.528 263.118 17.528H263.214C263.214 17.912 263.31 18.36 263.502 18.872C264.43 21.56 265.214 24.2 265.854 26.792C266.75 30.568 267.838 33.688 269.118 36.152C269.502 36.824 269.726 37.16 269.79 37.16ZM298.176 35.576H298.128C298.096 35.576 298.08 35.544 298.08 35.48C298.08 35.448 298.096 35.432 298.128 35.432L298.224 35.48L298.176 35.576ZM299.232 30.584C299.2 30.584 299.184 30.552 299.184 30.488C299.184 30.456 299.2 30.44 299.232 30.44V30.584ZM298.896 31.592C298.928 31.496 298.96 31.384 298.992 31.256C299.024 31.128 299.056 31.016 299.088 30.92C299.152 30.792 299.2 30.728 299.232 30.728C299.2 30.824 299.168 30.952 299.136 31.112C299.136 31.24 299.104 31.368 299.04 31.496C299.008 31.592 298.976 31.64 298.944 31.64L298.896 31.592ZM297.792 37.016C297.792 36.92 297.808 36.776 297.84 36.584C297.872 36.36 297.904 36.168 297.936 36.008C298 35.816 298.064 35.72 298.128 35.72C298.128 35.976 298.048 36.344 297.888 36.824L297.792 37.016ZM297.456 40.856C297.392 40.856 297.328 40.68 297.264 40.328C297.264 39.944 297.328 39.384 297.456 38.648C297.584 37.912 297.68 37.544 297.744 37.544L297.6 39.608C297.6 40.44 297.552 40.856 297.456 40.856ZM298.752 32.264L298.896 32.072L298.944 32.12C298.88 32.248 298.832 32.312 298.8 32.312L298.752 32.264ZM301.056 21.224H301.008C300.976 21.224 300.96 21.176 300.96 21.08C300.96 20.984 300.976 20.936 301.008 20.936L301.104 21.128L301.056 21.224ZM299.28 29.864L299.472 29.624L299.52 29.672C299.488 29.704 299.456 29.752 299.424 29.816C299.392 29.848 299.36 29.864 299.328 29.864H299.28ZM299.376 30.248H299.328C299.296 30.248 299.28 30.216 299.28 30.152C299.28 30.088 299.296 30.056 299.328 30.056C299.36 30.056 299.392 30.088 299.424 30.152L299.376 30.248ZM293.952 44.792C293.76 44.792 293.376 44.552 292.8 44.072C292.224 43.592 291.856 43.112 291.696 42.632C291.632 42.376 291.472 42.072 291.216 41.72C291.024 41.496 290.928 41.032 290.928 40.328C290.928 38.632 291.616 34.872 292.992 29.048C294.016 24.504 294.688 21.208 295.008 19.16C295.136 18.36 295.28 17.704 295.44 17.192C295.44 17.128 295.392 17.096 295.296 17.096C295.104 17.096 294.672 17.176 294 17.336C292.912 17.624 291.76 17.96 290.544 18.344C287.92 19.176 286.4 19.768 285.984 20.12C285.824 20.28 285.744 20.424 285.744 20.552C285.744 20.712 285.824 20.808 285.984 20.84C286.176 20.84 286.272 20.888 286.272 20.984C286.272 21.016 286.208 21.048 286.08 21.08C285.952 21.08 285.888 21.176 285.888 21.368C285.888 21.528 285.84 21.64 285.744 21.704C285.68 21.768 285.648 21.912 285.648 22.136C285.648 22.328 285.584 22.472 285.456 22.568C285.328 22.664 285.264 22.776 285.264 22.904L285.312 23.384C285.312 23.576 285.2 23.72 284.976 23.816C284.784 23.912 284.688 24.04 284.688 24.2C284.688 24.552 284.272 24.728 283.44 24.728C282.704 24.728 281.728 24.568 280.512 24.248C280.256 24.184 279.952 24.008 279.6 23.72C279.248 23.432 278.928 23.128 278.64 22.808C278.352 22.456 278.176 22.136 278.112 21.848C278.016 21.56 277.92 21.256 277.824 20.936C277.696 20.616 277.632 20.28 277.632 19.928C277.632 18.136 279.2 16.392 282.336 14.696C285.504 13 289.84 11.592 295.344 10.472C299.92 9.672 304.176 9.272 308.112 9.272C310.544 9.272 312.576 9.416 314.208 9.704C315.84 9.992 316.736 10.424 316.896 11C316.928 11.192 316.976 11.336 317.04 11.432C317.136 11.496 317.296 11.56 317.52 11.624C317.744 11.688 317.936 11.784 318.096 11.912C318.256 12.008 318.336 12.088 318.336 12.152L318.288 12.296C318.288 12.328 318.368 12.44 318.528 12.632C318.72 12.792 318.864 12.904 318.96 12.968L318.48 13.16C318.16 13.32 318 13.496 318 13.688L318.048 13.928C318.048 14.024 318 14.136 317.904 14.264C317.712 14.552 317.616 14.824 317.616 15.08C317.616 15.304 317.584 15.448 317.52 15.512C317.488 15.576 317.376 15.608 317.184 15.608C317.024 15.608 316.944 15.656 316.944 15.752C316.944 15.816 316.816 15.96 316.56 16.184C316.336 16.408 316.08 16.52 315.792 16.52C315.568 16.52 315.408 16.456 315.312 16.328C315.248 16.168 315.136 16.088 314.976 16.088L314.496 16.136C314.304 16.136 314.08 16.088 313.824 15.992C313.568 15.864 312.928 15.768 311.904 15.704C310.88 15.64 309.728 15.608 308.448 15.608C307.072 15.608 305.696 15.64 304.32 15.704C301.184 15.864 299.552 16.184 299.424 16.664C299.424 16.888 299.456 17 299.52 17C299.616 17 299.776 16.92 300 16.76C300.224 16.568 300.416 16.472 300.576 16.472C300.96 16.472 301.152 16.952 301.152 17.912C301.152 18.968 301.04 20.216 300.816 21.656H300.864V21.704L300.768 21.752C300.192 25.24 299.408 29.048 298.416 33.176C297.936 35.352 297.52 37.288 297.168 38.984C296.816 40.68 296.64 41.864 296.64 42.536L296.736 43.208C296.736 43.336 296.704 43.416 296.64 43.448C296.576 43.512 296.496 43.544 296.4 43.544C296.304 43.576 296.208 43.608 296.112 43.64C296.048 43.704 296.016 43.832 296.016 44.024C296.016 44.216 295.92 44.376 295.728 44.504C295.568 44.664 295.408 44.744 295.248 44.744C295.056 44.744 294.912 44.664 294.816 44.504C294.656 44.152 294.512 43.976 294.384 43.976C294.32 44.008 294.256 44.056 294.192 44.12C294.16 44.184 294.128 44.248 294.096 44.312C294.064 44.376 294.048 44.472 294.048 44.6C294.048 44.728 294.016 44.792 293.952 44.792ZM298.608 32.936C298.608 32.84 298.672 32.696 298.8 32.504L298.848 32.552C298.816 32.712 298.736 32.856 298.608 32.984V32.936ZM298.272 34.76L298.224 34.712C298.288 34.584 298.336 34.52 298.368 34.52C298.4 34.52 298.416 34.536 298.416 34.568L298.272 34.76ZM301.776 18.248C301.744 18.248 301.728 18.232 301.728 18.2C301.728 18.168 301.712 18.104 301.68 18.008L301.488 18.056C301.456 18.056 301.44 18.04 301.44 18.008C301.44 17.912 301.52 17.848 301.68 17.816C301.744 17.816 301.792 17.832 301.824 17.864C301.856 17.896 301.872 17.928 301.872 17.96L301.776 18.248ZM299.472 29.336C299.824 28.12 300.4 25.352 301.2 21.032C301.456 19.528 301.6 18.76 301.632 18.728C301.664 18.696 301.68 18.664 301.68 18.632C301.712 18.632 301.728 18.712 301.728 18.872C301.728 19.256 301.616 19.992 301.392 21.08C301.2 22.168 300.96 23.336 300.672 24.584C300.416 25.8 300.176 26.872 299.952 27.8C299.728 28.696 299.584 29.192 299.52 29.288C299.488 29.352 299.456 29.416 299.424 29.48L299.472 29.336ZM298.32 35.144H298.272C298.208 35.144 298.176 35.128 298.176 35.096C298.176 35.064 298.192 35.048 298.224 35.048C298.288 35.048 298.32 35.064 298.32 35.096V35.144ZM298.32 34.136C298.32 33.976 298.4 33.832 298.56 33.704V33.752C298.56 33.912 298.496 34.056 298.368 34.184L298.32 34.136ZM298.464 33.512C298.528 33.384 298.592 33.32 298.656 33.32V33.416C298.592 33.48 298.544 33.512 298.512 33.512H298.464ZM335.202 12.296H335.154C335.09 12.296 335.057 12.28 335.057 12.248C335.057 12.184 335.09 12.152 335.154 12.152L335.202 12.296ZM335.154 41.672H335.057V41.576L335.106 41.528L335.202 41.624L335.154 41.672ZM335.057 17.96H335.01C334.946 17.96 334.914 17.944 334.914 17.912C334.914 17.88 334.93 17.864 334.962 17.864C335.026 17.864 335.057 17.88 335.057 17.912V17.96ZM323.298 48.344C322.05 48.344 320.786 48.264 319.506 48.104C315.186 47.464 311.746 46.264 309.186 44.504C306.657 42.744 305.393 40.824 305.393 38.744C305.393 37.528 305.873 36.344 306.833 35.192C307.345 34.712 307.745 34.472 308.034 34.472C308.226 34.472 308.322 34.552 308.322 34.712L308.226 35.096C308.098 35.384 308.034 35.576 308.034 35.672C308.066 35.672 308.146 35.608 308.274 35.48C308.402 35.32 308.546 35.16 308.706 35C308.866 34.808 309.026 34.616 309.186 34.424L309.33 34.52C309.426 34.616 309.538 34.728 309.666 34.856C309.826 34.952 309.906 35.064 309.906 35.192C309.906 35.256 309.858 35.32 309.762 35.384C309.666 35.448 309.618 35.576 309.618 35.768C309.618 35.992 309.666 36.104 309.762 36.104C309.826 36.104 309.986 35.992 310.242 35.768C310.722 35.416 311.042 35.24 311.202 35.24C311.33 35.24 311.394 35.336 311.394 35.528C311.394 35.688 311.426 35.8 311.49 35.864C311.586 35.928 311.65 35.992 311.682 36.056C311.746 36.12 311.778 36.376 311.778 36.824L312.258 36.44L312.21 36.536C312.082 36.76 312.018 37.064 312.018 37.448C312.018 37.832 312.066 38.248 312.162 38.696C312.29 39.112 312.466 39.432 312.69 39.656C313.522 40.424 314.93 41.048 316.914 41.528C318.93 42.008 320.978 42.248 323.058 42.248C324.466 42.248 325.778 42.12 326.994 41.864C327.73 41.768 328.098 41.608 328.098 41.384C328.098 41.192 327.842 40.872 327.33 40.424C326.85 39.976 326.034 39.304 324.882 38.408C320.306 34.728 317.01 31.752 314.993 29.48C313.01 27.176 311.666 24.904 310.962 22.664C310.61 21.608 310.434 20.584 310.434 19.592C310.434 17.384 311.17 15.288 312.642 13.304C314.114 11.288 316.194 9.592 318.882 8.216C321.73 6.936 324.45 6.296 327.042 6.296C329.282 6.296 330.85 6.712 331.746 7.544C332.034 7.8 332.37 8.056 332.754 8.312C333.49 8.76 334.178 9.368 334.818 10.136C335.458 10.872 335.778 12.056 335.778 13.688C335.778 14.552 335.65 15.576 335.394 16.76C335.266 17.368 335.17 17.672 335.106 17.672L335.057 17.576L335.25 16.472C335.41 15.64 335.49 14.792 335.49 13.928C335.49 13.096 335.426 12.376 335.298 11.768C335.17 11.128 335.01 10.808 334.818 10.808C334.786 10.808 334.77 10.856 334.77 10.952C334.77 11.336 334.85 11.608 335.01 11.768C335.01 11.8 334.978 11.848 334.914 11.912C334.85 11.976 334.818 12.104 334.818 12.296C334.946 13.32 335.01 14.056 335.01 14.504C335.01 17.128 334.354 20.024 333.042 23.192C331.762 26.36 330.242 28.648 328.482 30.056C328.066 30.344 327.762 30.488 327.57 30.488C327.474 30.488 327.426 30.44 327.426 30.344C327.426 30.248 327.522 30.072 327.714 29.816C328.034 29.464 328.194 29.24 328.194 29.144C328.066 29.144 327.714 29.352 327.138 29.768C326.722 30.056 326.338 30.2 325.986 30.2C325.634 30.2 325.458 30.072 325.458 29.816L325.506 29.48C325.506 29.448 325.458 29.432 325.362 29.432C325.266 29.432 325.202 29.4 325.17 29.336C325.138 29.272 325.042 29.224 324.882 29.192C324.722 29.16 324.642 29.08 324.642 28.952L324.738 28.472L324.594 28.04C324.594 27.944 324.61 27.848 324.642 27.752C324.706 27.656 324.754 27.576 324.786 27.512C324.85 27.416 324.882 27.352 324.882 27.32L324.45 27.416C324.13 27.416 323.97 27.224 323.97 26.84C323.97 26.36 324.242 25.768 324.786 25.064C325.906 23.752 326.914 21.912 327.81 19.544C328.706 17.176 329.154 15.32 329.154 13.976C329.154 13.432 329.026 13.048 328.77 12.824C328.546 12.568 328.098 12.44 327.426 12.44C326.498 12.44 325.362 12.664 324.018 13.112C322.674 13.528 321.41 14.088 320.226 14.792C318.082 16.232 317.01 17.848 317.01 19.64C317.01 21.144 317.602 22.712 318.786 24.344C320.738 27 324.034 30.152 328.674 33.8C332.77 37.096 335.026 39.416 335.442 40.76C335.538 41.08 335.586 41.288 335.586 41.384C335.586 41.512 335.586 41.608 335.586 41.672C335.298 40.712 335.026 40.232 334.77 40.232C334.642 40.232 334.578 40.44 334.578 40.856C334.578 41.24 334.642 41.432 334.77 41.432L334.962 41.336C334.962 41.56 334.93 41.784 334.866 42.008C334.866 42.136 334.898 42.2 334.962 42.2C334.994 42.2 335.042 42.152 335.106 42.056C335.17 41.96 335.25 41.848 335.346 41.72L334.962 42.488C334.77 42.904 334.674 43.288 334.674 43.64C334.674 45.048 333.538 46.184 331.266 47.048C329.026 47.912 326.37 48.344 323.298 48.344ZM334.914 11.864V11.816C334.914 11.784 334.898 11.768 334.866 11.768C334.802 11.768 334.77 11.784 334.77 11.816C334.77 11.848 334.802 11.864 334.866 11.864H334.914ZM317.25 22.328V22.28C317.25 22.152 317.186 21.832 317.058 21.32C316.866 20.456 316.77 19.864 316.77 19.544C316.77 19.192 316.722 19.016 316.626 19.016C316.594 19.016 316.546 19.112 316.482 19.304C316.418 19.496 316.386 19.752 316.386 20.072C316.386 20.328 316.418 20.552 316.482 20.744C316.546 20.936 316.69 21.208 316.914 21.56C316.946 21.624 316.978 21.736 317.01 21.896C317.074 22.024 317.138 22.12 317.202 22.184L317.25 22.328ZM317.442 22.52L317.394 22.424L317.346 22.52C317.346 22.552 317.362 22.568 317.394 22.568L317.442 22.52Z" fill="#DC1438"/>
</svg>
