<svg width="225" height="60" viewBox="0 0 225 60" fill="none" xmlns="http://www.w3.org/2000/svg">
<path d="M6.184 16.952C5.928 16.952 5.768 16.904 5.704 16.808V16.712C5.704 16.616 5.736 16.536 5.8 16.472L5.848 16.328C5.848 16.296 5.832 16.28 5.8 16.28C5.64 16.28 5.528 16.328 5.464 16.424C5.368 16.52 5.24 16.568 5.08 16.568C4.824 16.568 4.552 16.488 4.264 16.328C4.008 16.168 3.88 15.992 3.88 15.8C3.88 15.672 3.768 15.496 3.544 15.272C3.288 15.016 3.16 14.664 3.16 14.216C3.16 13.96 3.224 13.784 3.352 13.688L3.4 13.592C3.4 13.528 3.336 13.448 3.208 13.352C2.984 13.256 2.872 13.08 2.872 12.824C2.872 12.536 3 12.2 3.256 11.816C3.512 11.432 3.848 11.112 4.264 10.856C4.936 10.408 6.44 10.056 8.776 9.8C11.144 9.544 13.592 9.416 16.12 9.416C18.168 9.416 19.864 9.512 21.208 9.704C22.552 9.864 23.224 10.12 23.224 10.472C23.224 10.6 23.256 10.712 23.32 10.808C23.416 10.872 23.464 10.904 23.464 10.904L23.32 11.144C23.32 11.208 23.464 11.272 23.752 11.336C24.04 11.4 24.264 11.48 24.424 11.576C24.616 11.64 24.712 11.768 24.712 11.96C24.712 12.12 24.792 12.232 24.952 12.296C25.08 12.328 25.144 12.392 25.144 12.488C25.144 12.584 25.08 12.632 24.952 12.632C24.856 12.632 24.792 12.728 24.76 12.92C24.728 13.08 24.68 13.16 24.616 13.16C24.552 13.16 24.504 13.288 24.472 13.544C24.44 13.768 24.36 13.912 24.232 13.976C24.104 14.04 24.024 14.152 23.992 14.312C23.992 14.472 23.976 14.632 23.944 14.792C23.912 14.952 23.8 15.08 23.608 15.176C23.352 15.304 23.224 15.416 23.224 15.512C23.224 15.8 22.872 15.944 22.168 15.944L21.256 15.848C20.584 15.72 19.464 15.656 17.896 15.656C15.816 15.656 13.656 15.768 11.416 15.992C9.176 16.184 7.8 16.424 7.288 16.712C6.904 16.872 6.536 16.952 6.184 16.952ZM6.184 16.184H6.04C6.04 16.216 6.072 16.232 6.136 16.232L6.184 16.184ZM10.984 45.08C7.752 44.824 5.256 43.752 3.496 41.864C1.768 39.976 0.904 37.464 0.904 34.328C0.904 32.152 1.336 29.72 2.2 27.032C3.192 24.024 4.104 21.816 4.936 20.408C5.768 18.968 6.584 18.248 7.384 18.248L7.864 18.344C8.12 18.44 8.248 18.52 8.248 18.584C8.248 18.648 8.168 18.728 8.008 18.824C7.88 18.952 7.816 19.096 7.816 19.256C7.816 19.288 7.832 19.304 7.864 19.304C7.96 19.304 8.072 19.24 8.2 19.112C8.552 18.824 8.84 18.68 9.064 18.68C9.32 18.68 9.448 18.808 9.448 19.064C9.448 19.224 9.352 19.448 9.16 19.736C9.032 19.864 8.968 19.992 8.968 20.12C8.968 20.28 9.048 20.36 9.208 20.36C9.4 20.36 9.592 20.28 9.784 20.12C10.04 19.96 10.232 19.88 10.36 19.88C10.616 19.88 10.744 20.184 10.744 20.792V21.272C10.744 21.528 10.76 21.656 10.792 21.656L11.128 21.464C11.224 21.4 11.32 21.368 11.416 21.368C11.448 21.368 11.464 21.384 11.464 21.416C11.464 21.48 11.368 21.592 11.176 21.752C10.856 22.072 10.696 22.296 10.696 22.424L10.744 22.472L10.792 22.424H10.888C10.92 22.424 10.936 22.44 10.936 22.472C10.936 22.536 10.872 22.616 10.744 22.712C10.648 22.776 10.6 22.856 10.6 22.952V23.144C10.6 23.304 10.552 23.512 10.456 23.768C10.392 23.992 10.328 24.168 10.264 24.296L13.816 23.96C14.584 23.832 15.256 23.768 15.832 23.768C16.088 23.768 16.264 23.784 16.36 23.816C16.68 23.944 16.92 24.008 17.08 24.008C17.24 24.008 17.368 24.056 17.464 24.152C17.592 24.248 17.656 24.376 17.656 24.536C17.656 24.696 17.608 24.824 17.512 24.92L17.224 25.256L19.24 25.064C19.144 25.352 19.096 25.528 19.096 25.592C19.096 25.72 19.16 25.816 19.288 25.88C19.448 25.912 19.528 25.944 19.528 25.976L19.48 26.072C19.416 26.136 19.352 26.328 19.288 26.648C19.256 26.936 19.192 27.144 19.096 27.272L18.952 27.464L19 27.56L18.952 27.704C18.888 27.768 18.856 27.88 18.856 28.04V28.28C18.856 28.504 18.712 28.76 18.424 29.048C18.168 29.336 17.864 29.56 17.512 29.72C16.936 29.944 14.776 30.232 11.032 30.584L7.864 30.824C7.704 31.464 7.576 32.488 7.48 33.896L7.432 34.808C7.432 36.248 7.736 37.304 8.344 37.976C8.984 38.616 10.04 38.936 11.512 38.936C13.272 38.936 15.848 38.504 19.24 37.64C20.744 37.288 22.088 36.92 23.272 36.536C24.488 36.12 25.304 35.784 25.72 35.528C26.168 35.24 26.584 35.096 26.968 35.096C27.256 35.096 27.4 35.176 27.4 35.336C27.4 35.432 27.352 35.528 27.256 35.624C27.16 35.72 27.112 35.8 27.112 35.864C27.176 35.864 27.368 35.784 27.688 35.624C27.848 35.496 28.024 35.432 28.216 35.432C28.536 35.432 28.696 35.592 28.696 35.912C28.696 36.072 28.632 36.232 28.504 36.392L28.312 36.776C28.312 36.936 28.408 37.016 28.6 37.016C28.824 37.016 29.048 36.904 29.272 36.68C29.368 36.584 29.496 36.536 29.656 36.536C29.944 36.536 30.088 36.632 30.088 36.824V37.016C30.088 37.144 30.136 37.272 30.232 37.4C30.328 37.528 30.376 37.624 30.376 37.688L30.28 37.928L30.232 38.12C30.232 38.152 30.248 38.168 30.28 38.168C30.344 38.168 30.424 38.12 30.52 38.024L30.568 37.976C30.504 38.104 30.36 38.344 30.136 38.696C29.944 39.048 29.848 39.336 29.848 39.56V39.656C29.848 40.36 28.824 41.144 26.776 42.008C24.76 42.872 22.344 43.608 19.528 44.216C16.744 44.824 14.296 45.128 12.184 45.128L10.984 45.08ZM7.192 36.44C7.224 36.44 7.24 36.392 7.24 36.296L7.192 35.912L7.144 34.952C7.144 33.672 7.304 32.44 7.624 31.256L7.672 31.112L7.624 31.064L7.48 31.112C7.32 31.144 7.16 31.544 7 32.312C6.84 33.08 6.76 33.8 6.76 34.472C6.76 34.888 6.792 35.16 6.856 35.288C6.92 35.416 7.016 35.768 7.144 36.344L7.192 36.44ZM65.995 13.976C66.187 14.2 66.283 15 66.283 16.376C66.283 17.944 66.235 18.728 66.139 18.728L65.995 13.976ZM65.995 19.88C65.963 19.88 65.947 19.8 65.947 19.64C65.947 19.48 65.963 19.4 65.995 19.4C66.027 19.464 66.043 19.544 66.043 19.64C66.043 19.8 66.027 19.88 65.995 19.88ZM29.419 46.616C29.323 46.552 29.211 46.488 29.083 46.424C28.955 46.36 28.859 46.296 28.795 46.232C28.571 46.072 28.347 45.944 28.123 45.848C27.931 45.752 27.739 45.464 27.547 44.984C27.355 44.536 27.211 44.312 27.115 44.312C26.795 44.312 26.587 42.568 26.491 39.08C26.491 36.648 26.683 33.72 27.067 30.296C27.483 26.84 28.187 23.368 29.179 19.88C30.171 16.392 31.563 13.272 33.355 10.52C34.123 9.368 34.779 8.664 35.323 8.408C35.899 8.152 36.475 8.024 37.051 8.024H37.243C37.627 8.024 38.059 7.992 38.539 7.928L38.827 8.12C39.243 8.536 39.611 8.744 39.931 8.744C40.283 8.744 40.779 9.016 41.419 9.56C42.059 10.104 42.523 10.664 42.811 11.24C43.963 13.864 44.955 18.024 45.787 23.72L45.835 24.2C45.963 25.352 46.091 25.928 46.219 25.928C46.315 25.928 46.427 25.784 46.555 25.496L46.603 25.4C51.531 16.76 55.387 11.672 58.171 10.136C58.875 9.848 59.627 9.704 60.427 9.704C61.227 9.704 61.851 9.864 62.299 10.184C62.747 10.504 63.035 10.664 63.163 10.664C63.291 10.664 63.547 10.776 63.931 11C64.763 11.512 65.355 12.088 65.707 12.728C65.803 12.856 65.851 12.984 65.851 13.112C65.851 13.208 65.851 13.272 65.851 13.304C65.883 13.336 65.915 13.4 65.947 13.496C65.979 13.56 65.995 13.624 65.995 13.688C65.995 13.72 65.979 13.736 65.947 13.736C65.883 13.736 65.819 13.624 65.755 13.4C65.691 13.144 65.579 12.92 65.419 12.728C65.259 12.504 65.115 12.392 64.987 12.392C64.987 12.68 65.067 13.256 65.227 14.12C65.387 14.952 65.499 15.448 65.563 15.608C65.691 15.96 65.755 16.504 65.755 17.24C65.755 19.032 65.483 21.592 64.939 24.92C64.427 28.216 63.899 31.368 63.355 34.376C62.683 38.088 62.347 40.344 62.347 41.144C62.443 41.496 62.491 41.736 62.491 41.864C62.491 41.96 62.443 42.008 62.347 42.008C62.251 42.008 62.187 42.024 62.155 42.056C61.995 42.152 61.883 42.312 61.819 42.536C61.755 42.792 61.611 43 61.387 43.16C61.195 43.352 61.019 43.448 60.859 43.448C60.731 43.448 60.667 43.368 60.667 43.208C60.667 43.048 60.619 42.92 60.523 42.824C60.459 42.728 60.379 42.68 60.283 42.68C60.187 42.68 60.091 42.728 59.995 42.824C59.899 42.92 59.851 43.064 59.851 43.256C59.851 43.448 59.787 43.544 59.659 43.544C59.499 43.544 59.115 43.288 58.507 42.776C57.995 42.392 57.659 41.96 57.499 41.48C57.403 41.192 57.275 40.968 57.115 40.808C56.955 40.648 56.827 40.456 56.731 40.232C56.635 40.008 56.587 39.592 56.587 38.984C56.587 37.096 57.291 32.376 58.699 24.824C59.371 21.144 59.707 18.744 59.707 17.624L59.659 17.048C59.595 17.176 59.435 17.368 59.179 17.624C56.811 20.216 54.107 24.52 51.067 30.536C50.107 32.456 49.323 33.88 48.715 34.808C47.691 36.344 46.875 37.112 46.267 37.112C46.107 37.112 45.963 37.096 45.835 37.064C45.707 37.032 45.579 37.016 45.451 37.016L44.779 37.112C44.107 37.112 43.371 36.68 42.571 35.816C41.771 34.92 41.163 33.832 40.747 32.552C40.235 30.728 39.787 28.424 39.403 25.64C38.923 22.024 38.299 18.808 37.531 15.992C36.667 17.336 35.739 19.72 34.747 23.144C33.787 26.568 33.227 30.12 33.067 33.8C33.067 34.248 33.019 34.536 32.923 34.664C32.859 34.76 32.811 34.824 32.779 34.856C32.779 34.856 32.779 34.872 32.779 34.904C32.843 34.904 32.891 34.92 32.923 34.952C32.987 34.984 33.019 35.208 33.019 35.624C33.051 36.04 33.067 36.84 33.067 38.024C33.067 39.208 33.083 40.072 33.115 40.616C33.147 41.16 33.195 41.528 33.259 41.72C33.355 41.912 33.403 42.072 33.403 42.2C33.403 42.392 33.307 42.536 33.115 42.632H32.971L33.019 42.488C32.987 42.424 32.955 42.392 32.923 42.392C32.795 42.392 32.731 42.488 32.731 42.68C32.731 42.776 32.747 42.824 32.779 42.824C32.843 42.824 32.875 42.872 32.875 42.968L32.827 43.832C32.827 43.992 32.843 44.12 32.875 44.216C32.939 44.312 32.971 44.408 32.971 44.504C32.971 44.76 32.827 45.096 32.539 45.512C32.123 46.056 31.659 46.424 31.147 46.616C31.115 46.616 31.083 46.584 31.051 46.52C31.019 46.488 30.971 46.424 30.907 46.328C30.875 46.264 30.827 46.184 30.763 46.088C30.667 46.152 30.555 46.232 30.427 46.328C30.299 46.456 30.187 46.552 30.091 46.616C29.995 46.68 29.899 46.712 29.803 46.712L29.419 46.616ZM32.875 41.336C32.907 41.336 32.923 40.088 32.923 37.592C32.923 35.96 32.907 35.144 32.875 35.144L32.827 35.768C32.795 36.216 32.763 36.76 32.731 37.4C32.731 38.04 32.731 38.664 32.731 39.272C32.731 40.648 32.779 41.336 32.875 41.336ZM45.691 27.08C45.787 27.08 45.851 26.904 45.883 26.552C45.883 25.976 45.675 24.472 45.259 22.04C44.843 19.608 44.347 17.224 43.771 14.888C43.099 12.232 42.475 10.744 41.899 10.424L41.851 10.472C41.851 10.568 41.931 10.744 42.091 11C42.251 11.256 42.347 11.576 42.379 11.96C42.379 12.12 42.411 12.2 42.475 12.2L42.571 12.152V12.248C42.603 12.568 42.747 13.208 43.003 14.168C44.123 18.68 44.843 22.168 45.163 24.632C45.355 26.264 45.531 27.08 45.691 27.08ZM70.4159 45.896C70.3519 45.832 70.3199 45.72 70.3199 45.56C70.3199 45.4 70.2559 45.32 70.1279 45.32C69.9999 45.32 69.8879 45.384 69.7919 45.512C69.6959 45.672 69.5679 45.752 69.4079 45.752C69.0879 45.752 68.7039 45.528 68.2559 45.08C67.8079 44.664 67.5199 44.2 67.3919 43.688C67.3279 43.432 67.2479 43.224 67.1519 43.064C67.0559 42.904 66.9599 42.68 66.8639 42.392C66.7679 42.104 66.7199 41.592 66.7199 40.856C66.7199 39.384 67.0719 36.44 67.7759 32.024C69.4079 22.424 70.2239 16.696 70.2239 14.84V14.6L70.0799 14.552L69.5039 14.648C68.9279 14.808 68.5759 14.984 68.4479 15.176C68.3199 15.336 68.2079 15.416 68.1119 15.416C68.0159 15.416 67.9039 15.48 67.7759 15.608C67.4239 15.992 67.0079 16.184 66.5279 16.184C66.2079 16.184 65.8399 16.104 65.4239 15.944C65.0079 15.752 64.7359 15.624 64.6079 15.56C64.4479 15.496 64.3359 15.448 64.2719 15.416C64.1759 15.384 64.0639 15.272 63.9359 15.08C63.8079 14.888 63.5999 14.584 63.3119 14.168C63.1519 13.944 63.0719 13.576 63.0719 13.064C63.0719 12.872 63.1199 12.68 63.2159 12.488C63.2159 12.456 63.1839 12.408 63.1199 12.344C63.0559 12.28 62.9919 12.2 62.9279 12.104C62.8639 12.008 62.8319 11.88 62.8319 11.72C62.8319 11.56 62.8959 11.352 63.0239 11.096C63.6319 10.008 64.9759 9.192 67.0559 8.648C69.1359 8.104 71.5359 7.832 74.2559 7.832C76.8479 7.832 79.4879 8.088 82.1759 8.6C84.8959 9.112 87.2959 9.864 89.3759 10.856C91.1039 11.784 92.5919 13.032 93.8399 14.6C95.1199 16.136 95.7599 17.496 95.7599 18.68C95.7599 19.384 95.6639 19.976 95.4719 20.456C95.3119 20.936 95.1999 21.176 95.1359 21.176V21.128L95.2319 20.696C95.4559 20.024 95.5679 19.448 95.5679 18.968C95.5679 18.52 95.5199 18.168 95.4239 17.912C95.3279 17.624 95.2479 17.48 95.1839 17.48V17.528C94.9919 19.736 94.4799 21.656 93.6479 23.288C92.8479 24.92 90.9599 26.808 87.9839 28.952C85.0079 31.096 80.2079 34.072 73.5839 37.88C73.4559 38.744 73.3919 39.624 73.3919 40.52L73.4879 41.864C73.4879 42.12 73.4399 42.248 73.3439 42.248L72.9119 42.056C72.7199 42.056 72.6239 42.344 72.6239 42.92C72.6239 43.176 72.5759 43.384 72.4799 43.544C72.4159 43.736 72.3839 43.96 72.3839 44.216C72.3839 44.472 72.3679 44.632 72.3359 44.696C72.3359 44.76 72.2719 44.792 72.1439 44.792C72.0479 44.792 71.9679 44.808 71.9039 44.84C71.8719 44.872 71.8559 44.92 71.8559 44.984V45.08C71.8559 45.176 71.7759 45.288 71.6159 45.416C71.4879 45.576 71.3279 45.704 71.1359 45.8C70.9439 45.928 70.7679 45.992 70.6079 45.992L70.4159 45.896ZM72.9119 41.816C73.0079 41.816 73.1039 41.176 73.1999 39.896L73.3439 38.024H73.2959C72.9439 38.056 72.7679 38.904 72.7679 40.568C72.7679 41.4 72.8159 41.816 72.9119 41.816ZM76.3679 15.896L76.3199 15.8L76.2719 15.896H76.3679ZM76.4639 16.76L76.4159 16.616L76.2719 16.712L76.4639 16.76ZM76.3679 17V16.952C76.3679 16.92 76.3519 16.904 76.3199 16.904L76.2719 16.952C76.2719 16.984 76.2879 17 76.3199 17H76.3679ZM74.4479 29.96C74.6719 29.96 75.0399 28.168 75.5519 24.584C76.0959 21 76.3679 18.648 76.3679 17.528C76.3679 17.304 76.3519 17.192 76.3199 17.192C76.1919 17.192 76.1279 17.24 76.1279 17.336C76.1279 17.432 75.9839 18.536 75.6959 20.648C75.4399 22.728 75.2799 23.88 75.2159 24.104L75.1679 24.344L75.2159 24.44L75.4079 24.344C75.2799 24.536 75.1359 25.032 74.9759 25.832C74.5919 27.816 74.3999 29.144 74.3999 29.816L74.4479 29.96ZM74.8799 29.912C75.0079 29.848 75.1359 29.784 75.2639 29.72C75.3919 29.656 75.7439 29.432 76.3199 29.048C84.8319 24.024 89.0879 20.488 89.0879 18.44C89.0879 17.832 88.4479 17.192 87.1679 16.52C85.9199 15.848 84.3839 15.304 82.5599 14.888C80.3199 14.408 78.4479 14.168 76.9439 14.168C76.4959 14.168 76.2559 14.216 76.2239 14.312C76.2559 14.312 76.2879 14.344 76.3199 14.408C76.3519 14.44 76.4159 14.472 76.5119 14.504C76.6079 14.536 76.6719 14.552 76.7039 14.552H76.7519C76.9759 14.552 77.0879 14.744 77.0879 15.128C77.0879 15.736 76.9119 17.016 76.5599 18.968C76.1759 21.176 75.6159 24.824 74.8799 29.912ZM122.769 28.952C122.737 28.952 122.721 28.936 122.721 28.904L122.769 28.856L122.865 28.904L122.769 28.952ZM103.953 46.52C100.689 46.168 98.1129 44.584 96.2249 41.768C94.3369 38.984 93.3929 35.608 93.3929 31.64C93.3929 29.208 93.7929 26.68 94.5929 24.056C96.1609 19.352 98.3849 15.368 101.265 12.104C104.177 8.808 106.865 7.16 109.329 7.16C110.129 7.224 110.817 7.336 111.393 7.496C111.809 7.624 112.177 7.848 112.497 8.168C112.689 8.392 113.025 8.664 113.505 8.984C113.857 9.208 114.161 9.496 114.417 9.848C114.993 10.648 115.281 11.176 115.281 11.432L115.233 11.48C114.881 11.064 114.657 10.856 114.561 10.856C114.465 10.856 114.401 10.952 114.369 11.144C114.337 11.336 114.305 11.56 114.273 11.816C114.273 12.072 114.241 12.312 114.177 12.536C114.145 12.728 114.097 12.872 114.033 12.968C113.969 13.032 113.937 13.112 113.937 13.208L113.985 13.544C113.985 13.672 113.953 13.816 113.889 13.976C113.857 14.104 113.809 14.168 113.745 14.168L113.553 14.024C113.489 14.024 113.377 14.152 113.217 14.408C113.089 14.632 112.913 14.824 112.689 14.984C112.497 15.112 112.321 15.176 112.161 15.176C112.001 15.176 111.905 15.08 111.873 14.888C111.873 14.664 111.825 14.504 111.729 14.408C111.665 14.312 111.585 14.264 111.489 14.264C111.393 14.264 111.297 14.312 111.201 14.408C111.105 14.504 111.057 14.616 111.057 14.744C111.057 14.872 111.009 14.936 110.913 14.936C110.657 14.936 110.401 14.728 110.145 14.312C109.889 13.896 109.601 13.688 109.281 13.688C109.057 13.688 108.769 13.8 108.417 14.024C107.009 15.016 105.617 16.472 104.241 18.392C102.897 20.312 101.905 22.232 101.265 24.152C101.137 24.472 101.025 24.728 100.929 24.92C100.865 25.112 100.801 25.208 100.737 25.208C100.673 25.208 100.641 25.24 100.641 25.304C100.641 25.368 100.689 25.432 100.785 25.496C100.785 25.72 100.721 26.136 100.593 26.744C100.145 29.208 99.9209 31.112 99.9209 32.456C99.9209 33.288 100.001 34.056 100.161 34.76C101.025 38.6 102.561 40.52 104.769 40.52C106.081 40.52 107.697 39.88 109.617 38.6C111.697 37.128 113.393 35.128 114.705 32.6C116.017 30.072 116.673 27.816 116.673 25.832C116.673 24.2 116.145 23.048 115.089 22.376C114.833 22.28 114.545 22.232 114.225 22.232C113.617 22.232 112.977 22.376 112.305 22.664C111.665 22.92 111.249 23.256 111.057 23.672C110.993 23.832 110.929 23.944 110.865 24.008C110.801 24.04 110.737 24.072 110.673 24.104C110.641 24.136 110.593 24.184 110.529 24.248C110.465 24.28 110.385 24.376 110.289 24.536C110.225 24.696 110.081 24.84 109.857 24.968C109.665 25.096 109.489 25.16 109.329 25.16C109.169 25.16 109.073 25.064 109.041 24.872C109.041 24.808 109.121 24.536 109.281 24.056C109.281 24.024 109.265 24.008 109.233 24.008H109.185C109.121 24.008 109.009 24.056 108.849 24.152C108.721 24.216 108.593 24.312 108.465 24.44C108.369 24.568 108.273 24.728 108.177 24.92C108.113 25.08 108.001 25.16 107.841 25.16C107.585 25.16 107.345 24.936 107.121 24.488C107.025 24.328 106.897 24.216 106.737 24.152C106.609 24.056 106.481 23.912 106.353 23.72C106.257 23.528 106.209 23.128 106.209 22.52C106.209 22.232 106.177 22.088 106.113 22.088L105.825 22.184C105.633 22.184 105.537 22.024 105.537 21.704C105.537 21.352 105.665 20.888 105.921 20.312C106.209 19.736 106.577 19.208 107.025 18.728C108.913 16.936 111.025 16.04 113.361 16.04C115.089 16.04 116.769 16.552 118.401 17.576C121.089 19.4 122.593 21.192 122.913 22.952C123.073 24.2 123.153 25.272 123.153 26.168C123.153 27.352 123.073 28.104 122.913 28.424L123.057 26.216C123.057 24.744 122.897 23.576 122.577 22.712C122.289 21.848 122.097 21.416 122.001 21.416L121.953 21.464C121.953 21.688 121.985 22.008 122.049 22.424C122.337 23.768 122.481 25.16 122.481 26.6C122.481 31.016 120.849 35.368 117.585 39.656C113.777 44.264 109.617 46.568 105.105 46.568L103.953 46.52ZM100.305 36.632C100.305 36.472 100.209 35.992 100.017 35.192C99.7609 34.008 99.6329 32.904 99.6329 31.88C99.6329 30.152 99.9049 28.376 100.449 26.552C100.545 26.136 100.593 25.864 100.593 25.736V25.64C100.561 25.64 100.433 26.008 100.209 26.744C99.9529 27.704 99.7769 28.248 99.6809 28.376C99.3929 28.76 99.2489 29.848 99.2489 31.64C99.2489 33.208 99.3769 34.344 99.6329 35.048C100.017 36.136 100.241 36.68 100.305 36.68V36.632ZM100.497 37.064C100.529 37.064 100.545 37.048 100.545 37.016L100.257 36.824C100.321 36.984 100.401 37.064 100.497 37.064ZM100.641 37.304C100.641 37.24 100.625 37.208 100.593 37.208C100.561 37.208 100.545 37.24 100.545 37.304C100.545 37.336 100.561 37.352 100.593 37.352L100.641 37.304ZM148.097 20.888H148.049C148.017 20.888 148.001 20.872 148.001 20.84H148.097V20.888ZM147.953 20.648C147.889 20.648 147.857 20.568 147.857 20.408C147.857 20.216 147.873 20.12 147.905 20.12C147.937 20.12 147.953 20.152 147.953 20.216C147.985 20.248 148.001 20.344 148.001 20.504C148.001 20.6 147.985 20.648 147.953 20.648ZM148.049 26.696C148.017 26.696 148.001 26.616 148.001 26.456L148.049 26.216L148.097 26.504L148.049 26.696ZM148.097 21.176H148.049C148.017 21.176 148.001 21.16 148.001 21.128C148.001 21.096 148.017 21.08 148.049 21.08L148.097 21.176ZM147.665 20.072H147.617C147.585 20.072 147.569 20.04 147.569 19.976C147.569 19.912 147.585 19.88 147.617 19.88C147.649 19.88 147.681 19.912 147.713 19.976L147.665 20.072ZM129.617 43.928C129.137 43.928 128.545 43.736 127.841 43.352C125.121 41.912 123.761 38.712 123.761 33.752C123.761 30.424 124.257 26.936 125.249 23.288C126.273 19.608 127.409 16.504 128.657 13.976C129.937 11.416 130.961 10.136 131.729 10.136C131.889 10.136 132.017 10.184 132.113 10.28C132.209 10.376 132.289 10.424 132.353 10.424C132.449 10.424 132.545 10.376 132.641 10.28C132.769 10.184 132.913 10.136 133.073 10.136C133.233 10.136 133.377 10.216 133.505 10.376C133.665 10.504 133.745 10.68 133.745 10.904L133.601 11.576C133.633 11.576 133.697 11.528 133.793 11.432C133.921 11.336 134.081 11.24 134.273 11.144C134.497 11.016 134.705 10.952 134.897 10.952C135.057 10.952 135.169 11.064 135.233 11.288C135.297 11.48 135.409 11.576 135.569 11.576C135.729 11.576 135.809 11.624 135.809 11.72C135.809 11.784 135.825 11.816 135.857 11.816L136.001 11.768C136.161 11.768 136.289 11.896 136.385 12.152C136.385 12.248 136.305 12.328 136.145 12.392C135.985 12.424 135.825 12.472 135.665 12.536V14.216C135.665 14.792 135.617 15.08 135.521 15.08H135.377C135.313 15.08 135.265 15.176 135.233 15.368C135.201 15.56 135.009 15.88 134.657 16.328C134.145 16.968 133.377 18.76 132.353 21.704C131.329 24.616 130.593 27.784 130.145 31.208C130.113 31.592 130.097 32.04 130.097 32.552C130.097 33.16 130.113 33.768 130.145 34.376C130.209 34.984 130.273 35.496 130.337 35.912C130.433 36.328 130.529 36.536 130.625 36.536C131.073 36.408 132.129 35.032 133.793 32.408C135.489 29.784 137.329 26.616 139.313 22.904C140.049 21.528 140.625 20.504 141.041 19.832C141.457 19.128 141.793 18.664 142.049 18.44C142.337 18.216 142.641 18.104 142.961 18.104H143.153C143.377 18.104 143.585 18.072 143.777 18.008C144.001 17.912 144.209 17.864 144.401 17.864C144.721 17.864 144.945 18.104 145.073 18.584C145.073 18.744 145.121 18.824 145.217 18.824C145.761 18.6 146.081 18.488 146.177 18.488C146.369 18.488 146.513 18.584 146.609 18.776C146.737 18.936 146.865 19.016 146.993 19.016C147.121 19.016 147.281 19.128 147.473 19.352L147.521 19.4L147.473 19.208C147.825 19.432 148.001 19.656 148.001 19.88L147.953 19.928L147.617 19.784C147.457 19.784 147.377 19.928 147.377 20.216C147.377 20.344 147.409 20.424 147.473 20.456L147.665 20.264L147.713 20.36C147.713 20.52 147.665 20.648 147.569 20.744C147.473 20.808 147.425 20.936 147.425 21.128L147.473 21.272L147.617 21.128C147.713 21.128 147.761 22.824 147.761 26.216C147.761 28.712 147.841 30.776 148.001 32.408C148.193 34.04 148.673 35.24 149.441 36.008L149.873 36.392L149.585 35.816C149.361 35.464 149.105 34.856 148.817 33.992C148.433 32.904 148.145 30.952 147.953 28.136C148.017 28.136 148.177 29.176 148.433 31.256L148.625 32.408C149.297 35.064 149.921 36.392 150.497 36.392L150.737 36.296C151.761 35.56 152.897 33.704 154.145 30.728C155.425 27.752 156.577 24.216 157.601 20.12C157.953 18.648 158.273 17.624 158.561 17.048C158.849 16.472 159.217 16.168 159.665 16.136H159.857C159.953 16.136 160.001 16.184 160.001 16.28V16.856C160.001 17.016 160.017 17.096 160.049 17.096C160.145 17.096 160.289 16.92 160.481 16.568C160.673 16.184 160.865 15.992 161.057 15.992C161.281 15.992 161.409 16.216 161.441 16.664L161.393 17.192C161.393 17.448 161.473 17.576 161.633 17.576C161.793 17.576 161.985 17.4 162.209 17.048C162.273 16.92 162.337 16.824 162.401 16.76C162.465 16.664 162.545 16.616 162.641 16.616C162.737 16.584 162.849 16.552 162.977 16.52C163.073 16.52 163.121 16.536 163.121 16.568C163.121 16.6 163.121 16.664 163.121 16.76C163.121 16.824 163.137 16.904 163.169 17C163.201 17.096 163.265 17.192 163.361 17.288C163.489 17.384 163.553 17.528 163.553 17.72C163.553 17.912 163.617 18.008 163.745 18.008C163.777 18.008 163.841 17.96 163.937 17.864C164.001 17.864 164.033 18.024 164.033 18.344C164.033 19.464 163.889 20.568 163.601 21.656C162.289 27 160.881 31.24 159.377 34.376C156.657 40.072 153.681 42.92 150.449 42.92C148.849 42.92 147.393 42.312 146.081 41.096C144.801 39.912 143.777 38.472 143.009 36.776C142.273 35.048 141.905 33.448 141.905 31.976C141.905 31.816 141.873 31.736 141.809 31.736C141.617 31.736 141.137 32.44 140.369 33.848C139.345 35.64 137.985 37.624 136.289 39.8C134.625 41.976 132.801 43.304 130.817 43.784C130.337 43.88 129.937 43.928 129.617 43.928ZM130.001 33.224V33.176C130.001 33.144 129.985 33.128 129.953 33.128C129.889 33.128 129.857 33.144 129.857 33.176C129.857 33.208 129.889 33.224 129.953 33.224H130.001ZM130.001 36.968C130.097 36.968 130.145 36.888 130.145 36.728L129.905 33.416L129.809 35.864C129.809 36.6 129.873 36.968 130.001 36.968ZM147.041 19.4V19.352C147.041 19.32 147.009 19.304 146.945 19.304C146.913 19.304 146.897 19.32 146.897 19.352C146.897 19.384 146.929 19.4 146.993 19.4H147.041ZM167.715 16.952C167.459 16.952 167.299 16.904 167.235 16.808V16.712C167.235 16.616 167.267 16.536 167.331 16.472L167.379 16.328C167.379 16.296 167.363 16.28 167.331 16.28C167.171 16.28 167.059 16.328 166.995 16.424C166.899 16.52 166.771 16.568 166.611 16.568C166.355 16.568 166.083 16.488 165.795 16.328C165.539 16.168 165.411 15.992 165.411 15.8C165.411 15.672 165.299 15.496 165.075 15.272C164.819 15.016 164.691 14.664 164.691 14.216C164.691 13.96 164.755 13.784 164.883 13.688L164.931 13.592C164.931 13.528 164.867 13.448 164.739 13.352C164.515 13.256 164.403 13.08 164.403 12.824C164.403 12.536 164.531 12.2 164.787 11.816C165.043 11.432 165.379 11.112 165.795 10.856C166.467 10.408 167.971 10.056 170.307 9.8C172.675 9.544 175.123 9.416 177.651 9.416C179.699 9.416 181.395 9.512 182.739 9.704C184.083 9.864 184.755 10.12 184.755 10.472C184.755 10.6 184.787 10.712 184.851 10.808C184.947 10.872 184.995 10.904 184.995 10.904L184.851 11.144C184.851 11.208 184.995 11.272 185.283 11.336C185.571 11.4 185.795 11.48 185.955 11.576C186.147 11.64 186.243 11.768 186.243 11.96C186.243 12.12 186.323 12.232 186.483 12.296C186.611 12.328 186.675 12.392 186.675 12.488C186.675 12.584 186.611 12.632 186.483 12.632C186.387 12.632 186.323 12.728 186.291 12.92C186.259 13.08 186.211 13.16 186.147 13.16C186.083 13.16 186.035 13.288 186.003 13.544C185.971 13.768 185.891 13.912 185.763 13.976C185.635 14.04 185.555 14.152 185.523 14.312C185.523 14.472 185.507 14.632 185.475 14.792C185.443 14.952 185.331 15.08 185.139 15.176C184.883 15.304 184.755 15.416 184.755 15.512C184.755 15.8 184.403 15.944 183.699 15.944L182.787 15.848C182.115 15.72 180.995 15.656 179.427 15.656C177.347 15.656 175.187 15.768 172.947 15.992C170.707 16.184 169.331 16.424 168.819 16.712C168.435 16.872 168.067 16.952 167.715 16.952ZM167.715 16.184H167.571C167.571 16.216 167.603 16.232 167.667 16.232L167.715 16.184ZM172.515 45.08C169.283 44.824 166.787 43.752 165.027 41.864C163.299 39.976 162.435 37.464 162.435 34.328C162.435 32.152 162.867 29.72 163.731 27.032C164.723 24.024 165.635 21.816 166.467 20.408C167.299 18.968 168.115 18.248 168.915 18.248L169.395 18.344C169.651 18.44 169.779 18.52 169.779 18.584C169.779 18.648 169.699 18.728 169.539 18.824C169.411 18.952 169.347 19.096 169.347 19.256C169.347 19.288 169.363 19.304 169.395 19.304C169.491 19.304 169.603 19.24 169.731 19.112C170.083 18.824 170.371 18.68 170.595 18.68C170.851 18.68 170.979 18.808 170.979 19.064C170.979 19.224 170.883 19.448 170.691 19.736C170.563 19.864 170.499 19.992 170.499 20.12C170.499 20.28 170.579 20.36 170.739 20.36C170.931 20.36 171.123 20.28 171.315 20.12C171.571 19.96 171.763 19.88 171.891 19.88C172.147 19.88 172.275 20.184 172.275 20.792V21.272C172.275 21.528 172.291 21.656 172.323 21.656L172.659 21.464C172.755 21.4 172.851 21.368 172.947 21.368C172.979 21.368 172.995 21.384 172.995 21.416C172.995 21.48 172.899 21.592 172.707 21.752C172.387 22.072 172.227 22.296 172.227 22.424L172.275 22.472L172.323 22.424H172.419C172.451 22.424 172.467 22.44 172.467 22.472C172.467 22.536 172.403 22.616 172.275 22.712C172.179 22.776 172.131 22.856 172.131 22.952V23.144C172.131 23.304 172.083 23.512 171.987 23.768C171.923 23.992 171.859 24.168 171.795 24.296L175.347 23.96C176.115 23.832 176.787 23.768 177.363 23.768C177.619 23.768 177.795 23.784 177.891 23.816C178.211 23.944 178.451 24.008 178.611 24.008C178.771 24.008 178.899 24.056 178.995 24.152C179.123 24.248 179.187 24.376 179.187 24.536C179.187 24.696 179.139 24.824 179.043 24.92L178.755 25.256L180.771 25.064C180.675 25.352 180.627 25.528 180.627 25.592C180.627 25.72 180.691 25.816 180.819 25.88C180.979 25.912 181.059 25.944 181.059 25.976L181.011 26.072C180.947 26.136 180.883 26.328 180.819 26.648C180.787 26.936 180.723 27.144 180.627 27.272L180.483 27.464L180.531 27.56L180.483 27.704C180.419 27.768 180.387 27.88 180.387 28.04V28.28C180.387 28.504 180.243 28.76 179.955 29.048C179.699 29.336 179.395 29.56 179.043 29.72C178.467 29.944 176.307 30.232 172.563 30.584L169.395 30.824C169.235 31.464 169.107 32.488 169.011 33.896L168.963 34.808C168.963 36.248 169.267 37.304 169.875 37.976C170.515 38.616 171.571 38.936 173.043 38.936C174.803 38.936 177.379 38.504 180.771 37.64C182.275 37.288 183.619 36.92 184.803 36.536C186.019 36.12 186.835 35.784 187.251 35.528C187.699 35.24 188.115 35.096 188.499 35.096C188.787 35.096 188.931 35.176 188.931 35.336C188.931 35.432 188.883 35.528 188.787 35.624C188.691 35.72 188.643 35.8 188.643 35.864C188.707 35.864 188.899 35.784 189.219 35.624C189.379 35.496 189.555 35.432 189.747 35.432C190.067 35.432 190.227 35.592 190.227 35.912C190.227 36.072 190.163 36.232 190.035 36.392L189.843 36.776C189.843 36.936 189.939 37.016 190.131 37.016C190.355 37.016 190.579 36.904 190.803 36.68C190.899 36.584 191.027 36.536 191.187 36.536C191.475 36.536 191.619 36.632 191.619 36.824V37.016C191.619 37.144 191.667 37.272 191.763 37.4C191.859 37.528 191.907 37.624 191.907 37.688L191.811 37.928L191.763 38.12C191.763 38.152 191.779 38.168 191.811 38.168C191.875 38.168 191.955 38.12 192.051 38.024L192.099 37.976C192.035 38.104 191.891 38.344 191.667 38.696C191.475 39.048 191.379 39.336 191.379 39.56V39.656C191.379 40.36 190.355 41.144 188.307 42.008C186.291 42.872 183.875 43.608 181.059 44.216C178.275 44.824 175.827 45.128 173.715 45.128L172.515 45.08ZM168.723 36.44C168.755 36.44 168.771 36.392 168.771 36.296L168.723 35.912L168.675 34.952C168.675 33.672 168.835 32.44 169.155 31.256L169.203 31.112L169.155 31.064L169.011 31.112C168.851 31.144 168.691 31.544 168.531 32.312C168.371 33.08 168.291 33.8 168.291 34.472C168.291 34.888 168.323 35.16 168.387 35.288C168.451 35.416 168.547 35.768 168.675 36.344L168.723 36.44ZM215.574 14.648C215.542 14.648 215.526 14.632 215.526 14.6L215.574 14.552L215.622 14.6L215.574 14.648ZM220.422 51.32C218.758 51.096 215.686 50.024 211.206 48.104C202.342 44.04 197.91 39.608 197.91 34.808C197.91 33.912 198.086 33 198.438 32.072C199.43 29.544 201.638 26.328 205.062 22.424C206.278 20.984 207.318 19.688 208.182 18.536C209.046 17.352 209.478 16.408 209.478 15.704C209.478 15.416 209.366 15.176 209.142 14.984C207.414 13.8 204.886 13.208 201.558 13.208C198.646 13.208 195.398 13.72 191.814 14.744C191.59 14.808 191.446 14.888 191.382 14.984C191.35 15.048 191.334 15.16 191.334 15.32C191.334 15.48 191.302 15.592 191.238 15.656C191.174 15.72 191.11 15.784 191.046 15.848C190.886 15.848 190.774 15.976 190.71 16.232C190.518 16.648 189.942 16.856 188.982 16.856C187.606 16.856 186.63 16.6 186.054 16.088C185.766 15.864 185.51 15.624 185.286 15.368C185.062 15.08 184.95 14.84 184.95 14.648C184.918 14.424 184.902 14.232 184.902 14.072C184.87 13.912 184.806 13.784 184.71 13.688C184.582 13.56 184.486 13.432 184.422 13.304C184.326 13.176 184.278 13.016 184.278 12.824C184.278 12.44 184.518 11.896 184.998 11.192C186.022 10.008 188.086 9.032 191.19 8.264C194.294 7.496 197.494 7.112 200.79 7.112C205.878 7.112 209.974 8.232 213.078 10.472C215.158 12.008 216.198 13.592 216.198 15.224C216.198 15.64 216.134 15.976 216.006 16.232C215.974 16.232 215.958 15.976 215.958 15.464C215.958 14.952 215.926 14.584 215.862 14.36C215.798 14.136 215.702 13.928 215.574 13.736C215.478 13.544 215.382 13.336 215.286 13.112L215.238 14.792C215.238 15.112 215.254 15.336 215.286 15.464C215.382 15.72 215.43 16.04 215.43 16.424C215.43 17.672 215.014 19.096 214.182 20.696C213.542 21.848 212.006 23.88 209.574 26.792C207.814 28.872 206.518 30.552 205.686 31.832C204.886 33.08 204.486 34.152 204.486 35.048C204.486 35.656 204.662 36.232 205.014 36.776C205.366 37.32 205.878 37.896 206.55 38.504C207.894 39.656 210.054 40.952 213.03 42.392C216.038 43.832 218.646 44.824 220.854 45.368C221.334 45.464 221.67 45.64 221.862 45.896C222.054 46.184 222.358 46.344 222.774 46.376C223.19 46.44 223.43 46.584 223.494 46.808C223.558 47.032 223.654 47.144 223.782 47.144C223.942 47.144 224.022 47.192 224.022 47.288C224.022 47.32 224.006 47.336 223.974 47.336C223.942 47.368 223.91 47.384 223.878 47.384C223.846 47.384 223.814 47.4 223.782 47.432L223.83 47.72C223.83 47.752 223.814 47.784 223.782 47.816C223.782 47.848 223.734 47.88 223.638 47.912C223.542 47.976 223.494 48.056 223.494 48.152L223.542 48.488C223.542 48.616 223.494 48.744 223.398 48.872C223.334 49.032 223.302 49.144 223.302 49.208C223.302 49.272 223.334 49.336 223.398 49.4C223.462 49.464 223.494 49.56 223.494 49.688C223.494 49.976 223.382 50.152 223.158 50.216C222.966 50.28 222.87 50.392 222.87 50.552L222.918 50.792C222.918 51.176 222.374 51.368 221.286 51.368L220.422 51.32ZM204.246 35.912C204.278 35.912 204.294 35.736 204.294 35.384C204.262 34.904 204.214 34.664 204.15 34.664C204.118 34.664 204.086 34.744 204.054 34.904C204.022 35.064 204.006 35.224 204.006 35.384C204.006 35.64 204.086 35.816 204.246 35.912ZM215.814 15.32C215.782 15.32 215.766 15.304 215.766 15.272L215.814 15.224L215.91 15.272L215.814 15.32ZM197.766 17.096C197.766 17 197.814 16.952 197.91 16.952L198.006 17C198.006 17.032 197.974 17.08 197.91 17.144C197.878 17.208 197.846 17.24 197.814 17.24L197.766 17.096ZM193.062 42.104C192.998 42.104 192.934 42.056 192.87 41.96C192.838 41.896 192.79 41.784 192.726 41.624C192.662 41.496 192.582 41.336 192.486 41.144C192.454 41.176 192.406 41.224 192.342 41.288C192.278 41.384 192.198 41.48 192.102 41.576C192.006 41.704 191.958 41.816 191.958 41.912C191.958 42.04 191.894 42.104 191.766 42.104C191.446 42.104 191.174 41.992 190.95 41.768C190.726 41.544 190.534 41.4 190.374 41.336C190.214 41.272 190.086 41.192 189.99 41.096C189.894 41 189.782 40.792 189.654 40.472C189.526 40.152 189.382 39.912 189.222 39.752C189.062 39.592 188.934 39.384 188.838 39.128C188.742 38.872 188.694 38.424 188.694 37.784C188.694 35.96 189.414 31.048 190.854 23.048C191.43 20.072 191.814 18.232 192.006 17.528C192.198 16.824 192.518 16.264 192.966 15.848C193.414 15.4 193.782 15.176 194.07 15.176C194.358 15.176 194.502 15.336 194.502 15.656C194.534 15.976 194.566 16.136 194.598 16.136C194.63 16.136 194.71 16.008 194.838 15.752C195.062 15.4 195.27 15.224 195.462 15.224C195.59 15.224 195.702 15.288 195.798 15.416C195.894 15.544 195.942 15.704 195.942 15.896C195.942 16.152 195.878 16.408 195.75 16.664C195.75 16.76 195.814 16.808 195.942 16.808C196.07 16.808 196.262 16.712 196.518 16.52C196.774 16.296 196.982 16.184 197.142 16.184C197.398 16.184 197.558 16.488 197.622 17.096L197.862 17.912C197.894 17.88 197.942 17.8 198.006 17.672C198.102 17.544 198.198 17.416 198.294 17.288C198.39 17.16 198.454 17.096 198.486 17.096C198.55 17.096 198.582 17.144 198.582 17.24C198.582 17.464 198.486 17.688 198.294 17.912C198.134 18.104 198.054 18.296 198.054 18.488C198.054 18.616 198.07 18.696 198.102 18.728C198.166 18.76 198.198 18.808 198.198 18.872C198.198 19.16 198.118 19.704 197.958 20.504C197.798 21.272 197.686 21.864 197.622 22.28C197.558 22.664 197.51 22.936 197.478 23.096C197.446 23.224 197.382 23.288 197.286 23.288C197.222 23.288 196.742 25.848 195.846 30.968C194.982 36.088 194.55 39.128 194.55 40.088V40.136C194.518 40.328 194.502 40.488 194.502 40.616C194.502 40.712 194.422 40.76 194.262 40.76C194.102 40.76 194.022 40.888 194.022 41.144C194.022 41.4 193.894 41.624 193.638 41.816C193.382 42.008 193.19 42.104 193.062 42.104ZM197.286 23C197.35 23 197.382 22.92 197.382 22.76L197.286 22.568L197.238 22.76C197.238 22.92 197.254 23 197.286 23ZM197.382 22.424C197.606 21.272 197.718 20.584 197.718 20.36V20.312C197.686 20.312 197.638 20.472 197.574 20.792C197.51 21.08 197.446 21.624 197.382 22.424ZM198.054 19.256L197.958 19.064C197.926 19.064 197.91 19.096 197.91 19.16C197.91 19.32 197.926 19.4 197.958 19.4L198.054 19.256Z" fill="#DC1438"/>
</svg>
