<svg width="251" height="60" viewBox="0 0 251 60" fill="none" xmlns="http://www.w3.org/2000/svg">
<path d="M6.184 16.952C5.928 16.952 5.768 16.904 5.704 16.808V16.712C5.704 16.616 5.736 16.536 5.8 16.472L5.848 16.328C5.848 16.296 5.832 16.28 5.8 16.28C5.64 16.28 5.528 16.328 5.464 16.424C5.368 16.52 5.24 16.568 5.08 16.568C4.824 16.568 4.552 16.488 4.264 16.328C4.008 16.168 3.88 15.992 3.88 15.8C3.88 15.672 3.768 15.496 3.544 15.272C3.288 15.016 3.16 14.664 3.16 14.216C3.16 13.96 3.224 13.784 3.352 13.688L3.4 13.592C3.4 13.528 3.336 13.448 3.208 13.352C2.984 13.256 2.872 13.08 2.872 12.824C2.872 12.536 3 12.2 3.256 11.816C3.512 11.432 3.848 11.112 4.264 10.856C4.936 10.408 6.44 10.056 8.776 9.8C11.144 9.544 13.592 9.416 16.12 9.416C18.168 9.416 19.864 9.512 21.208 9.704C22.552 9.864 23.224 10.12 23.224 10.472C23.224 10.6 23.256 10.712 23.32 10.808C23.416 10.872 23.464 10.904 23.464 10.904L23.32 11.144C23.32 11.208 23.464 11.272 23.752 11.336C24.04 11.4 24.264 11.48 24.424 11.576C24.616 11.64 24.712 11.768 24.712 11.96C24.712 12.12 24.792 12.232 24.952 12.296C25.08 12.328 25.144 12.392 25.144 12.488C25.144 12.584 25.08 12.632 24.952 12.632C24.856 12.632 24.792 12.728 24.76 12.92C24.728 13.08 24.68 13.16 24.616 13.16C24.552 13.16 24.504 13.288 24.472 13.544C24.44 13.768 24.36 13.912 24.232 13.976C24.104 14.04 24.024 14.152 23.992 14.312C23.992 14.472 23.976 14.632 23.944 14.792C23.912 14.952 23.8 15.08 23.608 15.176C23.352 15.304 23.224 15.416 23.224 15.512C23.224 15.8 22.872 15.944 22.168 15.944L21.256 15.848C20.584 15.72 19.464 15.656 17.896 15.656C15.816 15.656 13.656 15.768 11.416 15.992C9.176 16.184 7.8 16.424 7.288 16.712C6.904 16.872 6.536 16.952 6.184 16.952ZM6.184 16.184H6.04C6.04 16.216 6.072 16.232 6.136 16.232L6.184 16.184ZM10.984 45.08C7.752 44.824 5.256 43.752 3.496 41.864C1.768 39.976 0.904 37.464 0.904 34.328C0.904 32.152 1.336 29.72 2.2 27.032C3.192 24.024 4.104 21.816 4.936 20.408C5.768 18.968 6.584 18.248 7.384 18.248L7.864 18.344C8.12 18.44 8.248 18.52 8.248 18.584C8.248 18.648 8.168 18.728 8.008 18.824C7.88 18.952 7.816 19.096 7.816 19.256C7.816 19.288 7.832 19.304 7.864 19.304C7.96 19.304 8.072 19.24 8.2 19.112C8.552 18.824 8.84 18.68 9.064 18.68C9.32 18.68 9.448 18.808 9.448 19.064C9.448 19.224 9.352 19.448 9.16 19.736C9.032 19.864 8.968 19.992 8.968 20.12C8.968 20.28 9.048 20.36 9.208 20.36C9.4 20.36 9.592 20.28 9.784 20.12C10.04 19.96 10.232 19.88 10.36 19.88C10.616 19.88 10.744 20.184 10.744 20.792V21.272C10.744 21.528 10.76 21.656 10.792 21.656L11.128 21.464C11.224 21.4 11.32 21.368 11.416 21.368C11.448 21.368 11.464 21.384 11.464 21.416C11.464 21.48 11.368 21.592 11.176 21.752C10.856 22.072 10.696 22.296 10.696 22.424L10.744 22.472L10.792 22.424H10.888C10.92 22.424 10.936 22.44 10.936 22.472C10.936 22.536 10.872 22.616 10.744 22.712C10.648 22.776 10.6 22.856 10.6 22.952V23.144C10.6 23.304 10.552 23.512 10.456 23.768C10.392 23.992 10.328 24.168 10.264 24.296L13.816 23.96C14.584 23.832 15.256 23.768 15.832 23.768C16.088 23.768 16.264 23.784 16.36 23.816C16.68 23.944 16.92 24.008 17.08 24.008C17.24 24.008 17.368 24.056 17.464 24.152C17.592 24.248 17.656 24.376 17.656 24.536C17.656 24.696 17.608 24.824 17.512 24.92L17.224 25.256L19.24 25.064C19.144 25.352 19.096 25.528 19.096 25.592C19.096 25.72 19.16 25.816 19.288 25.88C19.448 25.912 19.528 25.944 19.528 25.976L19.48 26.072C19.416 26.136 19.352 26.328 19.288 26.648C19.256 26.936 19.192 27.144 19.096 27.272L18.952 27.464L19 27.56L18.952 27.704C18.888 27.768 18.856 27.88 18.856 28.04V28.28C18.856 28.504 18.712 28.76 18.424 29.048C18.168 29.336 17.864 29.56 17.512 29.72C16.936 29.944 14.776 30.232 11.032 30.584L7.864 30.824C7.704 31.464 7.576 32.488 7.48 33.896L7.432 34.808C7.432 36.248 7.736 37.304 8.344 37.976C8.984 38.616 10.04 38.936 11.512 38.936C13.272 38.936 15.848 38.504 19.24 37.64C20.744 37.288 22.088 36.92 23.272 36.536C24.488 36.12 25.304 35.784 25.72 35.528C26.168 35.24 26.584 35.096 26.968 35.096C27.256 35.096 27.4 35.176 27.4 35.336C27.4 35.432 27.352 35.528 27.256 35.624C27.16 35.72 27.112 35.8 27.112 35.864C27.176 35.864 27.368 35.784 27.688 35.624C27.848 35.496 28.024 35.432 28.216 35.432C28.536 35.432 28.696 35.592 28.696 35.912C28.696 36.072 28.632 36.232 28.504 36.392L28.312 36.776C28.312 36.936 28.408 37.016 28.6 37.016C28.824 37.016 29.048 36.904 29.272 36.68C29.368 36.584 29.496 36.536 29.656 36.536C29.944 36.536 30.088 36.632 30.088 36.824V37.016C30.088 37.144 30.136 37.272 30.232 37.4C30.328 37.528 30.376 37.624 30.376 37.688L30.28 37.928L30.232 38.12C30.232 38.152 30.248 38.168 30.28 38.168C30.344 38.168 30.424 38.12 30.52 38.024L30.568 37.976C30.504 38.104 30.36 38.344 30.136 38.696C29.944 39.048 29.848 39.336 29.848 39.56V39.656C29.848 40.36 28.824 41.144 26.776 42.008C24.76 42.872 22.344 43.608 19.528 44.216C16.744 44.824 14.296 45.128 12.184 45.128L10.984 45.08ZM7.192 36.44C7.224 36.44 7.24 36.392 7.24 36.296L7.192 35.912L7.144 34.952C7.144 33.672 7.304 32.44 7.624 31.256L7.672 31.112L7.624 31.064L7.48 31.112C7.32 31.144 7.16 31.544 7 32.312C6.84 33.08 6.76 33.8 6.76 34.472C6.76 34.888 6.792 35.16 6.856 35.288C6.92 35.416 7.016 35.768 7.144 36.344L7.192 36.44ZM67.995 13.976C68.187 14.2 68.283 15 68.283 16.376C68.283 17.944 68.235 18.728 68.139 18.728L67.995 13.976ZM67.995 19.88C67.963 19.88 67.947 19.8 67.947 19.64C67.947 19.48 67.963 19.4 67.995 19.4C68.027 19.464 68.043 19.544 68.043 19.64C68.043 19.8 68.027 19.88 67.995 19.88ZM31.419 46.616C31.323 46.552 31.211 46.488 31.083 46.424C30.955 46.36 30.859 46.296 30.795 46.232C30.571 46.072 30.347 45.944 30.123 45.848C29.931 45.752 29.739 45.464 29.547 44.984C29.355 44.536 29.211 44.312 29.115 44.312C28.795 44.312 28.587 42.568 28.491 39.08C28.491 36.648 28.683 33.72 29.067 30.296C29.483 26.84 30.187 23.368 31.179 19.88C32.171 16.392 33.563 13.272 35.355 10.52C36.123 9.368 36.779 8.664 37.323 8.408C37.899 8.152 38.475 8.024 39.051 8.024H39.243C39.627 8.024 40.059 7.992 40.539 7.928L40.827 8.12C41.243 8.536 41.611 8.744 41.931 8.744C42.283 8.744 42.779 9.016 43.419 9.56C44.059 10.104 44.523 10.664 44.811 11.24C45.963 13.864 46.955 18.024 47.787 23.72L47.835 24.2C47.963 25.352 48.091 25.928 48.219 25.928C48.315 25.928 48.427 25.784 48.555 25.496L48.603 25.4C53.531 16.76 57.387 11.672 60.171 10.136C60.875 9.848 61.627 9.704 62.427 9.704C63.227 9.704 63.851 9.864 64.299 10.184C64.747 10.504 65.035 10.664 65.163 10.664C65.291 10.664 65.547 10.776 65.931 11C66.763 11.512 67.355 12.088 67.707 12.728C67.803 12.856 67.851 12.984 67.851 13.112C67.851 13.208 67.851 13.272 67.851 13.304C67.883 13.336 67.915 13.4 67.947 13.496C67.979 13.56 67.995 13.624 67.995 13.688C67.995 13.72 67.979 13.736 67.947 13.736C67.883 13.736 67.819 13.624 67.755 13.4C67.691 13.144 67.579 12.92 67.419 12.728C67.259 12.504 67.115 12.392 66.987 12.392C66.987 12.68 67.067 13.256 67.227 14.12C67.387 14.952 67.499 15.448 67.563 15.608C67.691 15.96 67.755 16.504 67.755 17.24C67.755 19.032 67.483 21.592 66.939 24.92C66.427 28.216 65.899 31.368 65.355 34.376C64.683 38.088 64.347 40.344 64.347 41.144C64.443 41.496 64.491 41.736 64.491 41.864C64.491 41.96 64.443 42.008 64.347 42.008C64.251 42.008 64.187 42.024 64.155 42.056C63.995 42.152 63.883 42.312 63.819 42.536C63.755 42.792 63.611 43 63.387 43.16C63.195 43.352 63.019 43.448 62.859 43.448C62.731 43.448 62.667 43.368 62.667 43.208C62.667 43.048 62.619 42.92 62.523 42.824C62.459 42.728 62.379 42.68 62.283 42.68C62.187 42.68 62.091 42.728 61.995 42.824C61.899 42.92 61.851 43.064 61.851 43.256C61.851 43.448 61.787 43.544 61.659 43.544C61.499 43.544 61.115 43.288 60.507 42.776C59.995 42.392 59.659 41.96 59.499 41.48C59.403 41.192 59.275 40.968 59.115 40.808C58.955 40.648 58.827 40.456 58.731 40.232C58.635 40.008 58.587 39.592 58.587 38.984C58.587 37.096 59.291 32.376 60.699 24.824C61.371 21.144 61.707 18.744 61.707 17.624L61.659 17.048C61.595 17.176 61.435 17.368 61.179 17.624C58.811 20.216 56.107 24.52 53.067 30.536C52.107 32.456 51.323 33.88 50.715 34.808C49.691 36.344 48.875 37.112 48.267 37.112C48.107 37.112 47.963 37.096 47.835 37.064C47.707 37.032 47.579 37.016 47.451 37.016L46.779 37.112C46.107 37.112 45.371 36.68 44.571 35.816C43.771 34.92 43.163 33.832 42.747 32.552C42.235 30.728 41.787 28.424 41.403 25.64C40.923 22.024 40.299 18.808 39.531 15.992C38.667 17.336 37.739 19.72 36.747 23.144C35.787 26.568 35.227 30.12 35.067 33.8C35.067 34.248 35.019 34.536 34.923 34.664C34.859 34.76 34.811 34.824 34.779 34.856C34.779 34.856 34.779 34.872 34.779 34.904C34.843 34.904 34.891 34.92 34.923 34.952C34.987 34.984 35.019 35.208 35.019 35.624C35.051 36.04 35.067 36.84 35.067 38.024C35.067 39.208 35.083 40.072 35.115 40.616C35.147 41.16 35.195 41.528 35.259 41.72C35.355 41.912 35.403 42.072 35.403 42.2C35.403 42.392 35.307 42.536 35.115 42.632H34.971L35.019 42.488C34.987 42.424 34.955 42.392 34.923 42.392C34.795 42.392 34.731 42.488 34.731 42.68C34.731 42.776 34.747 42.824 34.779 42.824C34.843 42.824 34.875 42.872 34.875 42.968L34.827 43.832C34.827 43.992 34.843 44.12 34.875 44.216C34.939 44.312 34.971 44.408 34.971 44.504C34.971 44.76 34.827 45.096 34.539 45.512C34.123 46.056 33.659 46.424 33.147 46.616C33.115 46.616 33.083 46.584 33.051 46.52C33.019 46.488 32.971 46.424 32.907 46.328C32.875 46.264 32.827 46.184 32.763 46.088C32.667 46.152 32.555 46.232 32.427 46.328C32.299 46.456 32.187 46.552 32.091 46.616C31.995 46.68 31.899 46.712 31.803 46.712L31.419 46.616ZM34.875 41.336C34.907 41.336 34.923 40.088 34.923 37.592C34.923 35.96 34.907 35.144 34.875 35.144L34.827 35.768C34.795 36.216 34.763 36.76 34.731 37.4C34.731 38.04 34.731 38.664 34.731 39.272C34.731 40.648 34.779 41.336 34.875 41.336ZM47.691 27.08C47.787 27.08 47.851 26.904 47.883 26.552C47.883 25.976 47.675 24.472 47.259 22.04C46.843 19.608 46.347 17.224 45.771 14.888C45.099 12.232 44.475 10.744 43.899 10.424L43.851 10.472C43.851 10.568 43.931 10.744 44.091 11C44.251 11.256 44.347 11.576 44.379 11.96C44.379 12.12 44.411 12.2 44.475 12.2L44.571 12.152V12.248C44.603 12.568 44.747 13.208 45.003 14.168C46.123 18.68 46.843 22.168 47.163 24.632C47.355 26.264 47.531 27.08 47.691 27.08ZM74.4159 45.896C74.3519 45.832 74.3199 45.72 74.3199 45.56C74.3199 45.4 74.2559 45.32 74.1279 45.32C73.9999 45.32 73.8879 45.384 73.7919 45.512C73.6959 45.672 73.5679 45.752 73.4079 45.752C73.0879 45.752 72.7039 45.528 72.2559 45.08C71.8079 44.664 71.5199 44.2 71.3919 43.688C71.3279 43.432 71.2479 43.224 71.1519 43.064C71.0559 42.904 70.9599 42.68 70.8639 42.392C70.7679 42.104 70.7199 41.592 70.7199 40.856C70.7199 39.384 71.0719 36.44 71.7759 32.024C73.4079 22.424 74.2239 16.696 74.2239 14.84V14.6L74.0799 14.552L73.5039 14.648C72.9279 14.808 72.5759 14.984 72.4479 15.176C72.3199 15.336 72.2079 15.416 72.1119 15.416C72.0159 15.416 71.9039 15.48 71.7759 15.608C71.4239 15.992 71.0079 16.184 70.5279 16.184C70.2079 16.184 69.8399 16.104 69.4239 15.944C69.0079 15.752 68.7359 15.624 68.6079 15.56C68.4479 15.496 68.3359 15.448 68.2719 15.416C68.1759 15.384 68.0639 15.272 67.9359 15.08C67.8079 14.888 67.5999 14.584 67.3119 14.168C67.1519 13.944 67.0719 13.576 67.0719 13.064C67.0719 12.872 67.1199 12.68 67.2159 12.488C67.2159 12.456 67.1839 12.408 67.1199 12.344C67.0559 12.28 66.9919 12.2 66.9279 12.104C66.8639 12.008 66.8319 11.88 66.8319 11.72C66.8319 11.56 66.8959 11.352 67.0239 11.096C67.6319 10.008 68.9759 9.192 71.0559 8.648C73.1359 8.104 75.5359 7.832 78.2559 7.832C80.8479 7.832 83.4879 8.088 86.1759 8.6C88.8959 9.112 91.2959 9.864 93.3759 10.856C95.1039 11.784 96.5919 13.032 97.8399 14.6C99.1199 16.136 99.7599 17.496 99.7599 18.68C99.7599 19.384 99.6639 19.976 99.4719 20.456C99.3119 20.936 99.1999 21.176 99.1359 21.176V21.128L99.2319 20.696C99.4559 20.024 99.5679 19.448 99.5679 18.968C99.5679 18.52 99.5199 18.168 99.4239 17.912C99.3279 17.624 99.2479 17.48 99.1839 17.48V17.528C98.9919 19.736 98.4799 21.656 97.6479 23.288C96.8479 24.92 94.9599 26.808 91.9839 28.952C89.0079 31.096 84.2079 34.072 77.5839 37.88C77.4559 38.744 77.3919 39.624 77.3919 40.52L77.4879 41.864C77.4879 42.12 77.4399 42.248 77.3439 42.248L76.9119 42.056C76.7199 42.056 76.6239 42.344 76.6239 42.92C76.6239 43.176 76.5759 43.384 76.4799 43.544C76.4159 43.736 76.3839 43.96 76.3839 44.216C76.3839 44.472 76.3679 44.632 76.3359 44.696C76.3359 44.76 76.2719 44.792 76.1439 44.792C76.0479 44.792 75.9679 44.808 75.9039 44.84C75.8719 44.872 75.8559 44.92 75.8559 44.984V45.08C75.8559 45.176 75.7759 45.288 75.6159 45.416C75.4879 45.576 75.3279 45.704 75.1359 45.8C74.9439 45.928 74.7679 45.992 74.6079 45.992L74.4159 45.896ZM76.9119 41.816C77.0079 41.816 77.1039 41.176 77.1999 39.896L77.3439 38.024H77.2959C76.9439 38.056 76.7679 38.904 76.7679 40.568C76.7679 41.4 76.8159 41.816 76.9119 41.816ZM80.3679 15.896L80.3199 15.8L80.2719 15.896H80.3679ZM80.4639 16.76L80.4159 16.616L80.2719 16.712L80.4639 16.76ZM80.3679 17V16.952C80.3679 16.92 80.3519 16.904 80.3199 16.904L80.2719 16.952C80.2719 16.984 80.2879 17 80.3199 17H80.3679ZM78.4479 29.96C78.6719 29.96 79.0399 28.168 79.5519 24.584C80.0959 21 80.3679 18.648 80.3679 17.528C80.3679 17.304 80.3519 17.192 80.3199 17.192C80.1919 17.192 80.1279 17.24 80.1279 17.336C80.1279 17.432 79.9839 18.536 79.6959 20.648C79.4399 22.728 79.2799 23.88 79.2159 24.104L79.1679 24.344L79.2159 24.44L79.4079 24.344C79.2799 24.536 79.1359 25.032 78.9759 25.832C78.5919 27.816 78.3999 29.144 78.3999 29.816L78.4479 29.96ZM78.8799 29.912C79.0079 29.848 79.1359 29.784 79.2639 29.72C79.3919 29.656 79.7439 29.432 80.3199 29.048C88.8319 24.024 93.0879 20.488 93.0879 18.44C93.0879 17.832 92.4479 17.192 91.1679 16.52C89.9199 15.848 88.3839 15.304 86.5599 14.888C84.3199 14.408 82.4479 14.168 80.9439 14.168C80.4959 14.168 80.2559 14.216 80.2239 14.312C80.2559 14.312 80.2879 14.344 80.3199 14.408C80.3519 14.44 80.4159 14.472 80.5119 14.504C80.6079 14.536 80.6719 14.552 80.7039 14.552H80.7519C80.9759 14.552 81.0879 14.744 81.0879 15.128C81.0879 15.736 80.9119 17.016 80.5599 18.968C80.1759 21.176 79.6159 24.824 78.8799 29.912ZM169.878 20.888H169.83C169.798 20.888 169.782 20.872 169.782 20.84H169.878V20.888ZM169.734 20.648C169.67 20.648 169.638 20.568 169.638 20.408C169.638 20.216 169.654 20.12 169.686 20.12C169.718 20.12 169.734 20.152 169.734 20.216C169.766 20.248 169.782 20.344 169.782 20.504C169.782 20.6 169.766 20.648 169.734 20.648ZM169.83 26.696C169.798 26.696 169.782 26.616 169.782 26.456L169.83 26.216L169.878 26.504L169.83 26.696ZM169.878 21.176H169.83C169.798 21.176 169.782 21.16 169.782 21.128C169.782 21.096 169.798 21.08 169.83 21.08L169.878 21.176ZM169.446 20.072H169.398C169.366 20.072 169.35 20.04 169.35 19.976C169.35 19.912 169.366 19.88 169.398 19.88C169.43 19.88 169.462 19.912 169.494 19.976L169.446 20.072ZM151.398 43.928C150.918 43.928 150.326 43.736 149.622 43.352C146.902 41.912 145.542 38.712 145.542 33.752C145.542 30.424 146.038 26.936 147.03 23.288C148.054 19.608 149.19 16.504 150.438 13.976C151.718 11.416 152.742 10.136 153.51 10.136C153.67 10.136 153.798 10.184 153.894 10.28C153.99 10.376 154.07 10.424 154.134 10.424C154.23 10.424 154.326 10.376 154.422 10.28C154.55 10.184 154.694 10.136 154.854 10.136C155.014 10.136 155.158 10.216 155.286 10.376C155.446 10.504 155.526 10.68 155.526 10.904L155.382 11.576C155.414 11.576 155.478 11.528 155.574 11.432C155.702 11.336 155.862 11.24 156.054 11.144C156.278 11.016 156.486 10.952 156.678 10.952C156.838 10.952 156.95 11.064 157.014 11.288C157.078 11.48 157.19 11.576 157.35 11.576C157.51 11.576 157.59 11.624 157.59 11.72C157.59 11.784 157.606 11.816 157.638 11.816L157.782 11.768C157.942 11.768 158.07 11.896 158.166 12.152C158.166 12.248 158.086 12.328 157.926 12.392C157.766 12.424 157.606 12.472 157.446 12.536V14.216C157.446 14.792 157.398 15.08 157.302 15.08H157.158C157.094 15.08 157.046 15.176 157.014 15.368C156.982 15.56 156.79 15.88 156.438 16.328C155.926 16.968 155.158 18.76 154.134 21.704C153.11 24.616 152.374 27.784 151.926 31.208C151.894 31.592 151.878 32.04 151.878 32.552C151.878 33.16 151.894 33.768 151.926 34.376C151.99 34.984 152.054 35.496 152.118 35.912C152.214 36.328 152.31 36.536 152.406 36.536C152.854 36.408 153.91 35.032 155.574 32.408C157.27 29.784 159.11 26.616 161.094 22.904C161.83 21.528 162.406 20.504 162.822 19.832C163.238 19.128 163.574 18.664 163.83 18.44C164.118 18.216 164.422 18.104 164.742 18.104H164.934C165.158 18.104 165.366 18.072 165.558 18.008C165.782 17.912 165.99 17.864 166.182 17.864C166.502 17.864 166.726 18.104 166.854 18.584C166.854 18.744 166.902 18.824 166.998 18.824C167.542 18.6 167.862 18.488 167.958 18.488C168.15 18.488 168.294 18.584 168.39 18.776C168.518 18.936 168.646 19.016 168.774 19.016C168.902 19.016 169.062 19.128 169.254 19.352L169.302 19.4L169.254 19.208C169.606 19.432 169.782 19.656 169.782 19.88L169.734 19.928L169.398 19.784C169.238 19.784 169.158 19.928 169.158 20.216C169.158 20.344 169.19 20.424 169.254 20.456L169.446 20.264L169.494 20.36C169.494 20.52 169.446 20.648 169.35 20.744C169.254 20.808 169.206 20.936 169.206 21.128L169.254 21.272L169.398 21.128C169.494 21.128 169.542 22.824 169.542 26.216C169.542 28.712 169.622 30.776 169.782 32.408C169.974 34.04 170.454 35.24 171.222 36.008L171.654 36.392L171.366 35.816C171.142 35.464 170.886 34.856 170.598 33.992C170.214 32.904 169.926 30.952 169.734 28.136C169.798 28.136 169.958 29.176 170.214 31.256L170.406 32.408C171.078 35.064 171.702 36.392 172.278 36.392L172.518 36.296C173.542 35.56 174.678 33.704 175.926 30.728C177.206 27.752 178.358 24.216 179.382 20.12C179.734 18.648 180.054 17.624 180.342 17.048C180.63 16.472 180.998 16.168 181.446 16.136H181.638C181.734 16.136 181.782 16.184 181.782 16.28V16.856C181.782 17.016 181.798 17.096 181.83 17.096C181.926 17.096 182.07 16.92 182.262 16.568C182.454 16.184 182.646 15.992 182.838 15.992C183.062 15.992 183.19 16.216 183.222 16.664L183.174 17.192C183.174 17.448 183.254 17.576 183.414 17.576C183.574 17.576 183.766 17.4 183.99 17.048C184.054 16.92 184.118 16.824 184.182 16.76C184.246 16.664 184.326 16.616 184.422 16.616C184.518 16.584 184.63 16.552 184.758 16.52C184.854 16.52 184.902 16.536 184.902 16.568C184.902 16.6 184.902 16.664 184.902 16.76C184.902 16.824 184.918 16.904 184.95 17C184.982 17.096 185.046 17.192 185.142 17.288C185.27 17.384 185.334 17.528 185.334 17.72C185.334 17.912 185.398 18.008 185.526 18.008C185.558 18.008 185.622 17.96 185.718 17.864C185.782 17.864 185.814 18.024 185.814 18.344C185.814 19.464 185.67 20.568 185.382 21.656C184.07 27 182.662 31.24 181.158 34.376C178.438 40.072 175.462 42.92 172.23 42.92C170.63 42.92 169.174 42.312 167.862 41.096C166.582 39.912 165.558 38.472 164.79 36.776C164.054 35.048 163.686 33.448 163.686 31.976C163.686 31.816 163.654 31.736 163.59 31.736C163.398 31.736 162.918 32.44 162.15 33.848C161.126 35.64 159.766 37.624 158.07 39.8C156.406 41.976 154.582 43.304 152.598 43.784C152.118 43.88 151.718 43.928 151.398 43.928ZM151.782 33.224V33.176C151.782 33.144 151.766 33.128 151.734 33.128C151.67 33.128 151.638 33.144 151.638 33.176C151.638 33.208 151.67 33.224 151.734 33.224H151.782ZM151.782 36.968C151.878 36.968 151.926 36.888 151.926 36.728L151.686 33.416L151.59 35.864C151.59 36.6 151.654 36.968 151.782 36.968ZM168.822 19.4V19.352C168.822 19.32 168.79 19.304 168.726 19.304C168.694 19.304 168.678 19.32 168.678 19.352C168.678 19.384 168.71 19.4 168.774 19.4H168.822ZM191.497 16.952C191.241 16.952 191.081 16.904 191.017 16.808V16.712C191.017 16.616 191.049 16.536 191.113 16.472L191.161 16.328C191.161 16.296 191.145 16.28 191.113 16.28C190.953 16.28 190.841 16.328 190.777 16.424C190.681 16.52 190.553 16.568 190.393 16.568C190.137 16.568 189.865 16.488 189.577 16.328C189.321 16.168 189.193 15.992 189.193 15.8C189.193 15.672 189.081 15.496 188.857 15.272C188.601 15.016 188.473 14.664 188.473 14.216C188.473 13.96 188.537 13.784 188.665 13.688L188.713 13.592C188.713 13.528 188.649 13.448 188.521 13.352C188.297 13.256 188.185 13.08 188.185 12.824C188.185 12.536 188.313 12.2 188.569 11.816C188.825 11.432 189.161 11.112 189.577 10.856C190.249 10.408 191.753 10.056 194.089 9.8C196.457 9.544 198.905 9.416 201.433 9.416C203.481 9.416 205.177 9.512 206.521 9.704C207.865 9.864 208.537 10.12 208.537 10.472C208.537 10.6 208.569 10.712 208.633 10.808C208.729 10.872 208.777 10.904 208.777 10.904L208.633 11.144C208.633 11.208 208.777 11.272 209.065 11.336C209.353 11.4 209.577 11.48 209.737 11.576C209.929 11.64 210.025 11.768 210.025 11.96C210.025 12.12 210.105 12.232 210.265 12.296C210.393 12.328 210.457 12.392 210.457 12.488C210.457 12.584 210.393 12.632 210.265 12.632C210.169 12.632 210.105 12.728 210.073 12.92C210.041 13.08 209.993 13.16 209.929 13.16C209.865 13.16 209.817 13.288 209.785 13.544C209.753 13.768 209.673 13.912 209.545 13.976C209.417 14.04 209.337 14.152 209.305 14.312C209.305 14.472 209.289 14.632 209.257 14.792C209.225 14.952 209.113 15.08 208.921 15.176C208.665 15.304 208.537 15.416 208.537 15.512C208.537 15.8 208.185 15.944 207.481 15.944L206.569 15.848C205.897 15.72 204.777 15.656 203.209 15.656C201.129 15.656 198.969 15.768 196.729 15.992C194.489 16.184 193.113 16.424 192.601 16.712C192.217 16.872 191.849 16.952 191.497 16.952ZM191.497 16.184H191.353C191.353 16.216 191.385 16.232 191.449 16.232L191.497 16.184ZM196.297 45.08C193.065 44.824 190.569 43.752 188.809 41.864C187.081 39.976 186.216 37.464 186.216 34.328C186.216 32.152 186.649 29.72 187.513 27.032C188.505 24.024 189.417 21.816 190.249 20.408C191.081 18.968 191.897 18.248 192.697 18.248L193.177 18.344C193.433 18.44 193.561 18.52 193.561 18.584C193.561 18.648 193.481 18.728 193.321 18.824C193.193 18.952 193.129 19.096 193.129 19.256C193.129 19.288 193.145 19.304 193.177 19.304C193.273 19.304 193.385 19.24 193.513 19.112C193.865 18.824 194.153 18.68 194.377 18.68C194.633 18.68 194.761 18.808 194.761 19.064C194.761 19.224 194.665 19.448 194.473 19.736C194.345 19.864 194.281 19.992 194.281 20.12C194.281 20.28 194.361 20.36 194.521 20.36C194.713 20.36 194.905 20.28 195.097 20.12C195.353 19.96 195.545 19.88 195.673 19.88C195.929 19.88 196.057 20.184 196.057 20.792V21.272C196.057 21.528 196.073 21.656 196.105 21.656L196.441 21.464C196.537 21.4 196.633 21.368 196.729 21.368C196.761 21.368 196.777 21.384 196.777 21.416C196.777 21.48 196.681 21.592 196.489 21.752C196.169 22.072 196.009 22.296 196.009 22.424L196.057 22.472L196.105 22.424H196.201C196.233 22.424 196.249 22.44 196.249 22.472C196.249 22.536 196.185 22.616 196.057 22.712C195.961 22.776 195.913 22.856 195.913 22.952V23.144C195.913 23.304 195.865 23.512 195.769 23.768C195.705 23.992 195.641 24.168 195.577 24.296L199.129 23.96C199.897 23.832 200.569 23.768 201.145 23.768C201.401 23.768 201.577 23.784 201.673 23.816C201.993 23.944 202.233 24.008 202.393 24.008C202.553 24.008 202.681 24.056 202.777 24.152C202.905 24.248 202.969 24.376 202.969 24.536C202.969 24.696 202.921 24.824 202.825 24.92L202.537 25.256L204.553 25.064C204.457 25.352 204.409 25.528 204.409 25.592C204.409 25.72 204.473 25.816 204.601 25.88C204.761 25.912 204.841 25.944 204.841 25.976L204.793 26.072C204.729 26.136 204.665 26.328 204.601 26.648C204.569 26.936 204.505 27.144 204.409 27.272L204.265 27.464L204.313 27.56L204.265 27.704C204.201 27.768 204.169 27.88 204.169 28.04V28.28C204.169 28.504 204.025 28.76 203.737 29.048C203.481 29.336 203.177 29.56 202.825 29.72C202.249 29.944 200.089 30.232 196.345 30.584L193.177 30.824C193.017 31.464 192.889 32.488 192.793 33.896L192.745 34.808C192.745 36.248 193.049 37.304 193.657 37.976C194.297 38.616 195.353 38.936 196.825 38.936C198.585 38.936 201.161 38.504 204.553 37.64C206.057 37.288 207.401 36.92 208.585 36.536C209.801 36.12 210.617 35.784 211.033 35.528C211.481 35.24 211.897 35.096 212.281 35.096C212.569 35.096 212.713 35.176 212.713 35.336C212.713 35.432 212.665 35.528 212.569 35.624C212.473 35.72 212.425 35.8 212.425 35.864C212.489 35.864 212.681 35.784 213.001 35.624C213.161 35.496 213.337 35.432 213.529 35.432C213.849 35.432 214.009 35.592 214.009 35.912C214.009 36.072 213.945 36.232 213.817 36.392L213.625 36.776C213.625 36.936 213.721 37.016 213.913 37.016C214.137 37.016 214.361 36.904 214.585 36.68C214.681 36.584 214.809 36.536 214.969 36.536C215.257 36.536 215.401 36.632 215.401 36.824V37.016C215.401 37.144 215.449 37.272 215.545 37.4C215.641 37.528 215.689 37.624 215.689 37.688L215.593 37.928L215.545 38.12C215.545 38.152 215.561 38.168 215.593 38.168C215.657 38.168 215.737 38.12 215.833 38.024L215.881 37.976C215.817 38.104 215.673 38.344 215.449 38.696C215.257 39.048 215.161 39.336 215.161 39.56V39.656C215.161 40.36 214.137 41.144 212.089 42.008C210.073 42.872 207.657 43.608 204.841 44.216C202.057 44.824 199.609 45.128 197.497 45.128L196.297 45.08ZM192.505 36.44C192.537 36.44 192.553 36.392 192.553 36.296L192.505 35.912L192.457 34.952C192.457 33.672 192.617 32.44 192.937 31.256L192.985 31.112L192.937 31.064L192.793 31.112C192.633 31.144 192.473 31.544 192.312 32.312C192.153 33.08 192.073 33.8 192.073 34.472C192.073 34.888 192.105 35.16 192.169 35.288C192.233 35.416 192.329 35.768 192.457 36.344L192.505 36.44ZM241.356 14.648C241.324 14.648 241.307 14.632 241.307 14.6L241.356 14.552L241.404 14.6L241.356 14.648ZM246.204 51.32C244.54 51.096 241.468 50.024 236.988 48.104C228.124 44.04 223.692 39.608 223.692 34.808C223.692 33.912 223.868 33 224.22 32.072C225.212 29.544 227.42 26.328 230.844 22.424C232.06 20.984 233.1 19.688 233.964 18.536C234.828 17.352 235.26 16.408 235.26 15.704C235.26 15.416 235.148 15.176 234.924 14.984C233.196 13.8 230.668 13.208 227.34 13.208C224.428 13.208 221.18 13.72 217.596 14.744C217.372 14.808 217.228 14.888 217.164 14.984C217.132 15.048 217.116 15.16 217.116 15.32C217.116 15.48 217.084 15.592 217.02 15.656C216.956 15.72 216.892 15.784 216.828 15.848C216.668 15.848 216.556 15.976 216.492 16.232C216.3 16.648 215.724 16.856 214.764 16.856C213.387 16.856 212.411 16.6 211.835 16.088C211.547 15.864 211.291 15.624 211.067 15.368C210.843 15.08 210.731 14.84 210.731 14.648C210.699 14.424 210.683 14.232 210.683 14.072C210.651 13.912 210.587 13.784 210.491 13.688C210.363 13.56 210.267 13.432 210.203 13.304C210.107 13.176 210.059 13.016 210.059 12.824C210.059 12.44 210.299 11.896 210.779 11.192C211.803 10.008 213.868 9.032 216.972 8.264C220.076 7.496 223.276 7.112 226.572 7.112C231.66 7.112 235.756 8.232 238.859 10.472C240.94 12.008 241.98 13.592 241.98 15.224C241.98 15.64 241.916 15.976 241.788 16.232C241.756 16.232 241.74 15.976 241.74 15.464C241.74 14.952 241.708 14.584 241.644 14.36C241.58 14.136 241.484 13.928 241.356 13.736C241.26 13.544 241.164 13.336 241.068 13.112L241.02 14.792C241.02 15.112 241.036 15.336 241.068 15.464C241.164 15.72 241.212 16.04 241.212 16.424C241.212 17.672 240.796 19.096 239.964 20.696C239.324 21.848 237.788 23.88 235.356 26.792C233.596 28.872 232.3 30.552 231.468 31.832C230.668 33.08 230.268 34.152 230.268 35.048C230.268 35.656 230.444 36.232 230.796 36.776C231.148 37.32 231.66 37.896 232.332 38.504C233.676 39.656 235.836 40.952 238.812 42.392C241.82 43.832 244.428 44.824 246.636 45.368C247.116 45.464 247.452 45.64 247.644 45.896C247.836 46.184 248.14 46.344 248.556 46.376C248.972 46.44 249.212 46.584 249.276 46.808C249.34 47.032 249.436 47.144 249.564 47.144C249.724 47.144 249.804 47.192 249.804 47.288C249.804 47.32 249.788 47.336 249.756 47.336C249.724 47.368 249.692 47.384 249.66 47.384C249.628 47.384 249.596 47.4 249.564 47.432L249.612 47.72C249.612 47.752 249.596 47.784 249.564 47.816C249.564 47.848 249.516 47.88 249.42 47.912C249.324 47.976 249.276 48.056 249.276 48.152L249.324 48.488C249.324 48.616 249.276 48.744 249.18 48.872C249.116 49.032 249.084 49.144 249.084 49.208C249.084 49.272 249.116 49.336 249.18 49.4C249.244 49.464 249.276 49.56 249.276 49.688C249.276 49.976 249.164 50.152 248.94 50.216C248.748 50.28 248.652 50.392 248.652 50.552L248.7 50.792C248.7 51.176 248.156 51.368 247.068 51.368L246.204 51.32ZM230.028 35.912C230.06 35.912 230.076 35.736 230.076 35.384C230.044 34.904 229.996 34.664 229.932 34.664C229.9 34.664 229.868 34.744 229.836 34.904C229.804 35.064 229.788 35.224 229.788 35.384C229.788 35.64 229.868 35.816 230.028 35.912ZM241.596 15.32C241.564 15.32 241.548 15.304 241.548 15.272L241.596 15.224L241.692 15.272L241.596 15.32ZM223.548 17.096C223.548 17 223.596 16.952 223.692 16.952L223.788 17C223.788 17.032 223.756 17.08 223.692 17.144C223.66 17.208 223.628 17.24 223.596 17.24L223.548 17.096ZM218.844 42.104C218.78 42.104 218.716 42.056 218.652 41.96C218.62 41.896 218.572 41.784 218.508 41.624C218.444 41.496 218.364 41.336 218.268 41.144C218.236 41.176 218.188 41.224 218.124 41.288C218.06 41.384 217.98 41.48 217.884 41.576C217.788 41.704 217.74 41.816 217.74 41.912C217.74 42.04 217.676 42.104 217.548 42.104C217.228 42.104 216.956 41.992 216.732 41.768C216.508 41.544 216.316 41.4 216.156 41.336C215.996 41.272 215.868 41.192 215.771 41.096C215.676 41 215.564 40.792 215.436 40.472C215.308 40.152 215.164 39.912 215.004 39.752C214.844 39.592 214.716 39.384 214.62 39.128C214.524 38.872 214.476 38.424 214.476 37.784C214.476 35.96 215.196 31.048 216.636 23.048C217.212 20.072 217.596 18.232 217.788 17.528C217.98 16.824 218.3 16.264 218.748 15.848C219.196 15.4 219.564 15.176 219.852 15.176C220.14 15.176 220.284 15.336 220.284 15.656C220.316 15.976 220.348 16.136 220.38 16.136C220.412 16.136 220.492 16.008 220.62 15.752C220.844 15.4 221.052 15.224 221.243 15.224C221.372 15.224 221.484 15.288 221.58 15.416C221.676 15.544 221.724 15.704 221.724 15.896C221.724 16.152 221.66 16.408 221.532 16.664C221.532 16.76 221.596 16.808 221.724 16.808C221.852 16.808 222.044 16.712 222.3 16.52C222.556 16.296 222.764 16.184 222.924 16.184C223.18 16.184 223.34 16.488 223.404 17.096L223.644 17.912C223.676 17.88 223.724 17.8 223.788 17.672C223.884 17.544 223.98 17.416 224.076 17.288C224.172 17.16 224.236 17.096 224.268 17.096C224.332 17.096 224.364 17.144 224.364 17.24C224.364 17.464 224.268 17.688 224.076 17.912C223.916 18.104 223.836 18.296 223.836 18.488C223.836 18.616 223.852 18.696 223.884 18.728C223.948 18.76 223.98 18.808 223.98 18.872C223.98 19.16 223.9 19.704 223.74 20.504C223.58 21.272 223.468 21.864 223.404 22.28C223.34 22.664 223.292 22.936 223.26 23.096C223.228 23.224 223.164 23.288 223.068 23.288C223.004 23.288 222.524 25.848 221.628 30.968C220.764 36.088 220.332 39.128 220.332 40.088V40.136C220.3 40.328 220.284 40.488 220.284 40.616C220.284 40.712 220.204 40.76 220.044 40.76C219.884 40.76 219.804 40.888 219.804 41.144C219.804 41.4 219.676 41.624 219.42 41.816C219.164 42.008 218.972 42.104 218.844 42.104ZM223.068 23C223.132 23 223.164 22.92 223.164 22.76L223.068 22.568L223.02 22.76C223.02 22.92 223.036 23 223.068 23ZM223.164 22.424C223.388 21.272 223.5 20.584 223.5 20.36V20.312C223.468 20.312 223.42 20.472 223.356 20.792C223.292 21.08 223.228 21.624 223.164 22.424ZM223.836 19.256L223.74 19.064C223.708 19.064 223.692 19.096 223.692 19.16C223.692 19.32 223.708 19.4 223.74 19.4L223.836 19.256Z" fill="#DC1438"/>
<path d="M108.512 38.017C104.837 34.4949 102.496 30.4558 101.423 25.835C101.163 24.4779 101 23.3469 101 22.4745C101 20.0833 101.585 17.8537 102.756 15.8503C103.927 13.8469 105.553 12.1344 107.667 10.7449C107.927 10.5187 108.285 10.2925 108.675 10.0986C109.065 9.90476 109.455 9.80782 109.846 9.80782C110.041 9.80782 110.203 9.80782 110.301 9.87245L112.285 9.29082C113.585 9.09694 114.821 9 116.024 9C118.886 9 121.26 9.58164 123.179 10.7449C123.764 11.3265 124.252 11.7143 124.642 11.9082C126.724 10.6803 128.967 10.034 131.374 10.034C134.041 10.034 136.512 10.7772 138.854 12.2959C141.195 13.8146 142.951 15.9473 144.122 18.6939C144.707 20.2449 145 21.9575 145 23.7993C145 26.2874 144.48 28.7109 143.406 31.1344C142.366 33.5255 141.13 35.6259 139.764 37.4031C138.366 39.1803 137.163 40.4728 136.122 41.2483H135.244C135.569 40.9252 136.187 40.2789 137.13 39.2449C138.073 38.2109 138.756 37.3708 139.244 36.6599C140.87 34.6565 142.073 32.6854 142.854 30.7789C143.602 28.8725 144.057 27.3214 144.154 26.0935C144.285 24.8657 144.154 24.7041 143.862 25.5442C143.309 28.4201 142.236 31.1667 140.675 33.8163C139.081 36.466 137.195 38.8572 135.016 40.9575C133.032 42.6378 130.528 44.318 127.537 46.0629C126.398 46.6769 125.195 47 123.894 47C123.146 47 122.333 46.8708 121.423 46.5799C116.48 44.3827 112.154 41.5068 108.48 37.9847L108.512 38.017ZM127.114 38.8572C128.512 37.7585 129.585 36.8537 130.333 36.0782C132.61 33.9779 134.366 31.7483 135.602 29.3248C136.837 26.9337 137.39 24.4133 137.228 21.8282C137.228 20.2772 136.74 19.0493 135.797 18.1769C134.854 17.2721 133.618 16.852 132.089 16.852C131.049 16.852 129.878 17.0782 128.642 17.5629L128.772 18.0799C128.772 18.0799 128.74 18.2415 128.642 18.2415C128.545 18.2415 128.382 18.1122 128.122 17.8214C128.057 17.8214 127.992 17.8861 127.992 18.0153C127.992 18.1446 127.927 18.1769 127.829 18.1122C127.829 18.1769 127.764 18.2415 127.634 18.2415C127.504 18.2415 127.472 18.3061 127.537 18.4031C127.797 18.7908 127.959 19.1786 127.959 19.5663C127.959 19.6956 127.959 19.7925 127.862 19.8895C127.797 19.9864 127.732 20.0187 127.667 20.0187C127.504 20.0187 127.276 19.8571 126.951 19.5663C126.593 19.3401 126.333 19.2109 126.203 19.2109C126.073 19.2109 125.911 19.2109 125.78 19.2755C125.618 19.3078 125.163 19.631 124.447 20.2126C123.927 20.6327 123.537 20.9235 123.244 21.085C122.951 21.2466 122.756 21.2143 122.691 20.9558H122.398L122.463 20.8265C122.463 20.8265 122.463 20.665 122.366 20.568C122.301 20.4711 122.301 20.3742 122.366 20.3095C122.203 20.568 122.073 20.7619 121.943 20.7942C121.813 20.8265 121.683 20.8588 121.553 20.7942C121.423 20.7296 121.325 20.6973 121.26 20.6973C121.13 20.3418 121.065 20.1156 121.032 20.0187C121 19.9218 120.967 19.9541 120.967 20.1156V19.534C120.74 19.6633 120.545 19.6956 120.382 19.6956C120.024 19.6956 119.927 19.4694 120.089 18.9847L120.154 18.7585C120.154 18.7585 120.057 18.5646 119.862 18.5323C119.667 18.5 119.569 18.4354 119.569 18.3708L119.732 17.9507C119.732 17.9507 119.569 17.9507 119.276 18.3708C119.146 18.3708 119.114 18.3384 119.146 18.2415C119.179 18.1769 119.211 18.1123 119.276 18.0799H118.984C118.854 18.3384 118.756 18.5 118.691 18.5C118.658 18.5 118.561 18.3708 118.398 18.0799C118.398 17.8537 118.593 17.466 118.951 16.9813C119.309 16.4643 119.537 16.1735 119.569 16.1088C118.528 15.7857 117.52 15.6565 116.577 15.6565C115.959 15.6565 115.244 15.7211 114.398 15.818C112.642 16.0442 111.211 16.7551 110.138 17.9507C109.033 19.1463 108.512 20.568 108.512 22.216C108.512 22.8299 108.642 23.6378 108.935 24.6718C109.65 27.5153 111.016 30.068 113.033 32.3622C115.049 34.6565 117.52 36.6599 120.415 38.3401C121.033 38.7925 121.911 39.2772 123.049 39.7942L124.154 40.3112C124.772 40.4405 125.78 39.9558 127.211 38.8572H127.114ZM128.642 26.9983C128.642 26.9983 128.577 27.1599 128.48 27.2245L126.789 28.8401C126.366 29.2602 126.171 29.7772 126.268 30.3588L126.691 32.6208V32.75C126.691 32.75 126.561 33.0408 126.268 33.1701L126.106 33.1054L125.358 32.75L124.935 32.5884C124.935 32.5884 124.642 32.4592 124.285 32.2976L124.057 32.1684L123.829 32.0068H123.764C123.569 31.9745 123.374 31.9422 123.179 31.8775C122.951 31.8775 122.658 31.9422 122.301 32.0391L122.138 32.1684C122.138 32.1684 122.073 32.1684 122.073 32.233L121.911 32.2976L121.78 32.3622L121.488 32.5238L121.13 32.6531L120.967 32.7177L120.154 33.1378C120.154 33.1378 119.829 33.2024 119.569 33.0085V32.8469C119.569 32.8469 119.537 32.7823 119.569 32.75C119.569 32.75 119.569 32.6854 119.569 32.6531L119.699 31.9422V31.716L119.764 31.5867V31.4252L119.894 30.9728L120.057 30.1003C120.057 29.648 119.862 29.2279 119.472 28.8725L117.78 27.2568C117.78 27.2568 117.65 27.0952 117.65 26.9014C117.65 26.7721 117.683 26.7075 117.78 26.6752L118.073 26.5136L118.431 26.449H118.496L118.561 26.3844C118.561 26.3844 118.691 26.3844 118.724 26.3197L119.146 26.2551L119.276 26.1905H119.699L119.569 26.2551C119.569 26.2551 119.569 26.2874 119.634 26.2551H119.764C119.764 26.2551 120.057 26.1905 120.219 26.1582C120.35 26.1582 120.512 26.1258 120.642 26.0612L121.163 25.835L121.618 25.415L121.748 25.2534L122.789 23.0884L123.081 22.9269C123.081 22.9269 123.341 22.8622 123.374 22.9915L123.602 23.1207L124.642 25.2857L124.772 25.4473C124.772 25.4473 124.837 25.4473 124.837 25.5119H124.902L125.065 25.6412L125.195 25.7058L125.325 25.835L125.455 25.8997L125.585 25.9643H125.715L125.846 26.0289L126.268 26.1582H127.016L127.309 26.2228L127.667 26.2874L127.829 26.4167L127.894 26.4813L127.959 26.5459L128.415 26.6105C128.675 26.7398 128.837 26.9014 128.837 27.1276L128.642 26.9983ZM121.325 32.5238L121.488 32.4592L121.618 32.3946L121.098 32.5561L121.325 32.4915V32.5238Z" fill="#DC1438"/>
</svg>
