<svg xmlns="http://www.w3.org/2000/svg" enable-background="new 0 0 5100 3900" viewBox="0 0 5100 3900" id="Losinginternetconnectionontablet"><path fill="#8f6feb" d="M2607.648,2031.517c0-39.555,22.061-86.393,48.238-103.675
						c79.823-52.699,218.552-15.06,285.005,36.517c104.128,84.365,153.218,201.577,188.088,326.563
						c178.043,638.171,191.338,603.337,133.948,865.717c-25.659,117.311-92.909,194.131-183.248,242.374
						c-271.017,144.73-749.832,32.271-936.877-15.678c-93.45-23.956-275.577-295.15-162.038-562.112
						c104.031-244.606,307.237-328.885,453.246-513.837C2489.899,2236.59,2607.648,2111.86,2607.648,2031.517z" class="coloreb9c6f svgShape"></path><path fill="#7f5ee0" d="M2400.087 2800.221c15.524 6.596 32.046 13.858 41.373 27.982 8.061 11.992 9.594 27.115 10.859 41.507 2.799 30.78 5.53 61.494 8.263 92.207 30.579-31.513 48.767-74.751 49.834-118.59.133-6.063-.067-12.458-3.198-17.656-4.531-7.661-14.058-10.726-22.786-12.791C2465.312 2808.483 2445.725 2806.085 2400.087 2800.221zM2102.812 2815.145c29.049-7.128 58.496-13.724 88.409-13.258 29.847.467 60.562 8.661 83.213 28.116-4.396-94.273-102.333-91.874-159.496-38.309C2108.276 2797.957 2101.68 2806.085 2102.812 2815.145z" class="colore08d5e svgShape"></path><path fill="#724ed9" d="M2142.802 3383.333c-36.013-9.232-85.184-55.204-125.539-123.477 92.855 41.944 193.174 67.956 293.454 87.924 127.927 25.474 258.337 41.952 388.667 36.606 130.331-5.347 260.949-33.111 377.131-92.408 17.609-8.988 100.905-51.884 185.878-133.167-26.02 116.063-92.946 192.262-182.714 240.2C2808.663 3543.742 2329.848 3431.283 2142.802 3383.333zM3146.364 2481.964c-72.54-16.533-147.99-15.773-218.391 9.24-34.52 11.826-67.301 28.6-97.372 49.243-12.231 8.507-24.907 18.112-36.513 27.46-16.749 13.302-33.227 26.887-49.779 40.49-33.423 27.423-66.117 56.751-99.589 84.434-4.835 4.052-9.778 8.022-14.838 11.907l-2.513-2.187c3.208-5.512 6.533-10.94 9.966-16.285 10.361-15.968 21.562-31.378 33.434-46.254 29.919-37.101 63.814-71.967 103.262-99.15 18.367-12.756 38.23-24.234 57.963-34.692 90.1-48.684 188.999-62.668 288.126-35.519 7.231 1.694 20.146 5.998 27.146 8.107C3147.267 2478.757 3146.364 2481.964 3146.364 2481.964L3146.364 2481.964zM2397.607 2362.139c-10.82 39.174-2.208 78.965 13.834 115.343 10.354 24.743 23.175 48.269 35.917 72.113 18.73 36.613 30.86 81.861 17.941 122.371-.001 0-2.662-.149-2.662-.149-2.416-9.892-4.77-19.607-7.688-29.248-4.859-15.566-10.646-30.634-17.039-45.633-10.638-24.274-19.12-49.722-29.024-74.607-19.201-47.335-35.623-101.226-17.548-151.498 0 0 3.753-9.571 3.753-9.571L2397.607 2362.139 2397.607 2362.139zM2131.885 2612.932c32.565-16.415 66.705-14.601 97.162 5.821 18.899 12.62 34.176 29.415 49.34 45.85 14.567 16.274 24.904 35.127 35.04 54.142 4.952 9.483 9.803 18.915 14.627 29.144l-1.876 1.893c-20.08-9.786-36.016-26.765-50.149-43.411-13.922-16.074-23.265-35.231-36.48-51.501-23.616-29.209-51.973-48.904-91.156-42.699-5.208.726-10.39 1.884-15.56 3.252L2131.885 2612.932 2131.885 2612.932z" class="colord9804e svgShape"></path><path fill="#724ed9" d="M2422.609 2790.385c-1.653 40.394 28.123 53.505 41.272 87.518 12.62 32.652 6.205 68.804-2.246 101.638-22.079 85.271-29.999 175.917-72.717 254.656-8.265 14.916-17.614 30.298-31.347 41.16 0 0-1.846 1.303-1.846 1.303-.607.435-1.224.857-1.9 1.226-3.824 2.285-8.39 4.128-12.89 4.083l-.41-2.633c4.852-1.862 8.408-5.59 11.507-9.619 9.146-12.937 14.404-28.072 19.642-43.088 10.299-30.603 18.13-62.454 27.007-93.67 8.954-31.42 19.216-63.061 27.685-94.638 6.437-23.652 14.158-52.326 22.016-75.451 9.208-31.016 15.102-65.971-.664-95.813-14.761-27.695-31.896-41.957-27.765-76.881C2419.952 2790.176 2422.609 2790.385 2422.609 2790.385L2422.609 2790.385zM2598.118 2770.733c35.366 17.598 75.895 11.316 112.837 1.85 17.264-4.204 40.525-10.953 57.834-13.669 4.5-.679 10.53-1.862 14.965-2.316 2.965-.293 16.2-1.766 18.858-1.853 5.824-.203 13.153-.729 18.955-.79 7.366.198 15.482-.115 22.789.457 35.435 1.495 71.513 7.49 103.913 22.441 6.855 2.855 13.906 6.796 20.536 10.175 28.606 15.892 55.032 37.067 74.84 63.072 0 0-1.793 1.972-1.793 1.972-17.152-10.17-33.892-19.801-51.054-28.338-5.476-2.473-10.713-5.266-16.193-7.636-4.4-1.874-10.356-4.445-14.701-6.385-7.083-2.58-14.442-5.839-21.577-8.134-7.991-2.927-18.885-6.379-26.827-8.916-4.401-1.49-9.115-2.635-13.553-3.99 0 0-6.775-2.046-6.775-2.046l-6.869-1.693c-2.389-.627-8.018-2.077-10.299-2.677-2.087-.417-14.993-3.077-17.4-3.56-4.679-.721-9.377-1.376-14.083-2.027-6.79-1.005-14.417-1.266-21.294-1.848-4.066-.25-10.143-.17-14.262-.291-1.976-.018-5.176-.139-7.14-.001l-14.279.603c-4.219.144-9.995.97-14.239 1.323-44.779 4.479-90.89 20.311-136.136 11.374-13.536-2.488-26.819-7.406-38.383-14.788C2596.788 2773.042 2598.118 2770.733 2598.118 2770.733L2598.118 2770.733z" class="colord9804e svgShape"></path><path fill="#9d7ef7" d="M2525.275 2940.43c6.785-19.707 31.885-24.371 52.528-27.243 38.865-5.407 76.86-15.702 114.732-25.971 42.379-11.492 84.905-23.034 125.394-40.027 14.629-6.14 29.088-13.022 44.565-16.508 48.198-10.854 102.198 16.946 121.368 62.48-19.421-11.558-40.353-20.574-62.094-26.744-9.927-2.817-20.446-5.048-30.497-2.712-12.345 2.87-22.027 12.096-32.806 18.764-20.065 12.413-44.177 16.008-67.535 19.338-43.913 6.26-87.827 12.521-131.74 18.781-21.657 3.088-43.741 6.304-63.328 16.047-12.076 6.007-22.829 14.321-33.493 22.579-20.813 16.116-41.626 32.231-62.438 48.347-10.702-8.723.397-25.634 11.738-33.507S2536.716 2953.029 2525.275 2940.43zM2994.076 2756.552c-44.234-30.432-94.185-62.307-147.322-54.615-5.24.758-10.62 1.898-15.76.629-5.14-1.269-9.945-5.893-9.295-11.147.448-3.624 3.268-6.475 6.169-8.692 20.292-15.505 48.572-13.102 73.915-9.962 4.728-8.587 9.544-17.438 10.776-27.162 1.233-9.725-1.936-20.662-10.214-25.912 6.913-17.575 12.515-40.808-2.172-52.681-10.752-8.692-26.439-5.764-39.846-2.387-.841-12.362 12.21-20.534 23.43-25.793 49.375-23.143 101.012-46.788 155.527-45.49 12.228.291 27.865 5.403 27.89 17.634.029 14.103-19.391 17.5-33.494 17.418-26.392-.154-55.875 5.623-70.982 27.264-6.215 8.903-9.276 19.585-11.867 30.129-6.712 27.309-10.97 55.22-12.708 83.288 18.209 1.204 23.31 25.075 34.324 39.625 6.053 7.996 14.832 13.725 20.285 22.142S2998.634 2752.594 2994.076 2756.552zM2855.032 2068.547c3.581 12.619-1.195 25.937-1.791 39.041-.595 13.104 6.481 29.108 19.598 29.179-19.85 10.111-42.537 14.577-64.738 12.742.083 7.956 7.549 13.958 15.094 16.484 7.545 2.526 15.754 2.841 23.086 5.929 17.523 7.381 25.04 31.914 14.659 47.845-3.288 5.046-8.124 9.541-8.829 15.522-.781 6.62 3.748 12.515 7.357 18.12 19.612 30.456 16.178 69.743 12.033 105.729.364-15.869 12.747-29.49 27.23-35.986 14.484-6.496 30.808-7.227 46.678-7.546 25.133-.505 51.458.056 73.553 12.043-1.328-11.743-11.555-20.511-22.145-25.755-10.59-5.244-22.344-8.317-31.946-15.205-13.722-9.843-22.401-26.985-38.421-32.327-3.184-1.062-6.633-1.64-9.337-3.629-13.737-10.108 9.214-33.86-.172-48.101-6.43-9.757-26.019-11.302-23.865-22.787 2.174-11.595 23.622-7.344 28.282-18.181 2.825-6.571-3.02-13.785-9.401-17.017-6.381-3.231-13.896-4.646-19.038-9.619 4.118-1.547 5.225-7.205 3.55-11.272-1.676-4.067-5.217-6.999-8.327-10.109C2877.213 2102.721 2870.52 2087.659 2855.032 2068.547z" class="colorf7aa7e svgShape"></path><path fill="#5e4d91" d="M2621.794,2678.646c0,0,15.402,114.891-175.873,140.534
								c-191.275,25.643-401.896,22.329-468.979-12.222c-67.082-34.551-120.674-150.107,13.372-182.337
								c125.391-30.149,277.819-49.938,362.645-66.826C2437.785,2540.907,2615.173,2559.382,2621.794,2678.646z" class="color914d4d svgShape"></path><path fill="#4b4756" d="M2626.419,2638.459c0,0-54.071-100.835-196.37-93.413s-370.542,56.329-427.476,68.705
									c-56.935,12.376-92.626,35.39-99.065,79.123c-6.439,43.733,8.353,118.027,132.958,136.79
									c124.605,18.763,332.163,13.021,421.478,2.736C2563.562,2820.239,2666.667,2725.959,2626.419,2638.459z" class="color564756 svgShape"></path><path fill="#5e4d91" d="M2065.992,2692.854c0,0,14.957,43.719,10.414,163.597
									c-4.543,119.878-39.267,194.012-68.497,290.875s-31.24,129.787-67.56,132.986c-46.856,4.127-40.932-61.189-42.246-168.604
									c-1.448-118.367,1.041-365.983,11.73-428.266C1920.523,2621.161,2039.774,2620.975,2065.992,2692.854z" class="color914d4d svgShape"></path><path fill="#5e4d91" d="M1900.728,3222.323c-0.786-25.098,89.166-23.853,83.492,0.615
										c-1.848,7.97-5.558,26.135-5.141,32.277c2.126,31.268,6.248,37.353,13.221,65.549c6.973,28.196-4.08,51.509-40.167,56.713
										c-36.087,5.204-96.899,17.159-148.588,20.744c-51.688,3.585-100.678-22.752-93.28-44.805
										c6.405-19.091,39.927-17.782,81.546-29.844c41.619-12.062,77.587-42.507,95.691-57.967
										C1903.332,3252.087,1901.375,3243.007,1900.728,3222.323z" class="color914d4d svgShape"></path><path fill="#bba3ff" d="M1999.846,3359.354c0,0,0.253,13.754-0.946,17.962c-1.2,4.208-42.862,14.519-66.016,17.365
											c-23.154,2.846-92.827,12.454-112.777,14.079c-19.951,1.625-60.435,0.316-85.122-9.733
											c-24.688-10.049-31.564-22.145-32.38-33.047c0,0,6.966-6.22,17.598-1.903c10.631,4.317,90.672,31.383,115.393,28.104
											C1860.316,3388.904,1999.846,3359.354,1999.846,3359.354z" class="colorffd9a3 svgShape"></path><path fill="#ae93fd" d="M1979.761,3270.95c0,0,2.565-0.328,4.384,0.308c1.819,0.636,7.515,29.537,11.562,42.834
												c4.047,13.298,5.707,33.07,4.139,45.261c-1.569,12.191-41.15,21.338-67.222,25.368
												c-26.073,4.03-100.02,14.185-124.225,17.194c-24.205,3.01-75.916-5.234-94.399-19.987
												c-18.483-14.753-12.49-31.073,2.178-42.072c14.668-11,73.474-26.081,89.276-32.969
												c15.802-6.887,63.183-35.887,73.904-43.775c10.721-7.888,16.442-7.317,30.096,0.929
												c13.654,8.246,12.568,20.81,11.834,25.943c-0.733,5.134,22.989,1.751,34.362-2.397
												C1967.023,3283.441,1973.566,3272.786,1979.761,3270.95z" class="colorfdc693 svgShape"></path><path fill="#8662f0" d="M1955.649 3287.59c11.373-4.148 17.917-14.804 24.112-16.639 0 0 .29-.034.72-.059-1.593 1.258-3.714 3.527-5.812 7.574-4.182 8.065-13.285 14.791-25.105 18.388-11.82 3.597-31.846 3.726-28.278-6.867C1920.553 3295.12 1944.276 3291.738 1955.649 3287.59zM1919.755 3290.24c0 0-39.075 17.858-56.514 25.534-17.439 7.676-40.728 13.088-47.788 11.326-7.061-1.761-19.782-14.268-19.782-14.268s6.887 15.802 18.372 19.546C1825.528 3336.123 1880.432 3320.642 1919.755 3290.24z" class="colorf0ae62 svgShape"></path><path fill="#4b4756" d="M1928.472,2649.313c0,0-9.141,4.729-17.642,19.432c-8.2,14.181-15.759,37.725-16.488,70.678
									c-1.484,67.116-1.053,477.239-1.053,477.239s39.417,24.893,94.999,15.447c0,0,67.517-201.034,84.601-275.972
									c17.083-74.938,28.038-235.064-2.916-281.66S1962.219,2623.092,1928.472,2649.313z" class="color564756 svgShape"></path><path fill="#6b599e" d="M2557.905,2353.997c0,0,159.726-4.445,158.931,163.183
							c-0.753,34.61-16.358,79.764-0.281,127.994c16.077,48.229-4.959,154.396-94.899,200.108s-202.775-15.813-236.982-133.344
							c-34.208-117.53-1.623-213.485,1.403-301.344C2388.255,2347.344,2469.054,2333.909,2557.905,2353.997z" class="color9e5959 svgShape"></path><path fill="#4b4756" d="M2681.74,2822.073c0,0,41.057-29.161,55.396-105.747
								c14.339-76.586,12.756-193.448,12.756-193.448l-373.739-51.408c0,0-13.197,115.06-16.241,126.355
								c-3.044,11.296,11.097,209.691,126.958,250.487C2602.731,2889.107,2681.74,2822.073,2681.74,2822.073z" class="color564756 svgShape"></path><path fill="#6b599e" d="M2711.283,2717.182c0,0,26.115,112.938-161.909,156.418
								c-188.024,43.479-398.027,59.946-468.056,31.842c-70.029-28.104-134.228-138.121-3.798-182.787
								c122.009-41.782,271.907-75.789,354.773-100.562C2515.16,2597.319,2693.5,2599.066,2711.283,2717.182z" class="color9e5959 svgShape"></path><path fill="#4b4756" d="M2728.807,2690.908c0,0,29.487,79.116-65.21,149.023
										c-84.758,62.569-377.525,79.414-470.119,85.323c-92.594,5.909-175.149-31.301-191.732-89.041
										c-16.584-57.739,1.169-101.49,79.762-128.214c78.593-26.724,330.539-89.964,399.859-106.666
										C2550.686,2584.631,2710.276,2604.51,2728.807,2690.908z" class="color564756 svgShape"></path><path fill="#3d3a47" d="M2011.067,2756.228c-0.751,0-1.509-0.232-2.16-0.715c-1.611-1.194-1.948-3.468-0.754-5.078
										c14.228-19.189,37.84-34.194,72.185-45.873c79.352-26.981,334.938-91.039,400.177-106.758
										c1.949-0.474,3.911,0.729,4.38,2.679s-0.73,3.91-2.679,4.38c-65.168,15.702-320.427,79.674-399.54,106.574
										c-32.901,11.188-55.37,25.358-68.69,43.322C2013.274,2755.72,2012.178,2756.228,2011.067,2756.228z" class="color473a47 svgShape"></path><path fill="#6b599e" d="M2043.766,3329.158c-1.773-25.048,88.158-27.344,83.452-2.671
										c-1.533,8.036-4.526,26.333-3.867,32.454c3.356,31.16,7.713,37.078,15.791,64.978c8.077,27.899-2.049,51.629-37.904,58.25
										c-35.854,6.621-96.148,20.96-147.656,26.576s-101.496-18.771-94.971-41.099c5.648-19.329,39.197-19.34,80.309-33.031
										c41.112-13.69,75.854-45.527,93.335-61.688C2047.54,3358.796,2045.227,3349.8,2043.766,3329.158z" class="color9e5959 svgShape"></path><path fill="#bba3ff" d="M2148.201,3462.181c0,0,0.794,13.733-0.239,17.986
											c-1.033,4.252-42.257,16.195-65.281,19.95c-23.024,3.755-92.265,16.098-112.136,18.507s-60.375,2.695-85.439-6.375
											c-25.064-9.07-32.411-20.885-33.655-31.747c0,0,6.716-6.49,17.509-2.595s91.837,27.789,116.409,23.541
											C2009.942,3497.2,2148.201,3462.181,2148.201,3462.181z" class="colorffd9a3 svgShape"></path><path fill="#ae93fd" d="M2124.652,3374.636c0,0,2.55-0.429,4.393,0.135c1.843,0.564,8.671,29.218,13.239,42.346
												s7.005,32.82,5.917,45.063c-1.088,12.244-40.278,22.941-66.172,27.995s-99.384,18.11-123.452,22.07
												c-24.068,3.96-76.063-2.242-95.112-16.256c-19.05-14.014-13.703-30.557,0.52-42.125
												c14.223-11.568,72.39-28.953,87.909-36.457c15.518-7.504,61.721-38.346,72.124-46.65
												c10.402-8.304,16.141-7.958,30.109-0.256c13.968,7.702,13.377,20.299,12.846,25.457
												c-0.531,5.158,23.04,0.845,34.241-3.748C2112.415,3387.619,2118.534,3376.714,2124.652,3374.636z" class="colorfdc693 svgShape"></path><path fill="#8662f0" d="M2101.214 3392.212c11.201-4.593 17.321-15.498 23.438-17.575 0 0 .288-.045.718-.087-1.542 1.32-3.572 3.671-5.51 7.797-3.861 8.224-12.692 15.302-24.362 19.362-11.669 4.06-31.675 4.977-28.526-5.749C2066.441 3401.118 2090.013 3396.805 2101.214 3392.212zM2065.452 3396.273c0 0-38.342 19.382-55.465 27.739s-40.181 14.681-47.306 13.198-20.328-13.478-20.328-13.478 7.504 15.518 19.127 18.808S2027.355 3428.2 2065.452 3396.273z" class="colorf0ae62 svgShape"></path><path fill="#6b599e" d="M2159.267,2783.486c0,0,18.994,42.122,25.721,161.898
									c6.727,119.775-20.887,196.84-40.898,296.02c-20.01,99.179-18.923,132.146-54.782,138.739
									c-46.262,8.506-46.494-57.078-57.882-163.895c-12.549-117.709-33.308-364.465-28.511-427.477
									S2126.419,2714.384,2159.267,2783.486z" class="color9e5959 svgShape"></path><path fill="#4b4756" d="M2102.277,2716.611c0,0,61.355,13.437,83.85,109.997s-3.863,269.728-11.475,334.333
										c-7.613,64.604-33.187,152.556-33.187,152.556s-72.657,13.979-107.567-2.21c0,0-32.542-437.483-38.157-495.97
										C1990.187,2757.465,2040.104,2704.01,2102.277,2716.611z" class="color564756 svgShape"></path><path fill="#3d3a47" d="M2033.647,3311.588c-1.883,0-3.475-1.453-3.617-3.361
										c-0.323-4.342-32.355-434.783-37.903-492.562c-1.334-13.898-0.91-41.052,16.93-66.755
										c11.104-15.999,28.464-27.647,59.921-40.205c1.863-0.74,3.975,0.165,4.718,2.026c0.743,1.862-0.164,3.975-2.026,4.718
										c-30.016,11.982-46.428,22.876-56.647,37.602c-16.52,23.801-16.907,49.012-15.667,61.921
										c5.555,57.855,37.593,488.375,37.916,492.717c0.149,2-1.352,3.741-3.351,3.891
										C2033.829,3311.585,2033.737,3311.588,2033.647,3311.588z" class="color473a47 svgShape"></path><g fill="#000000" class="color000000 svgShape"><path fill="#6b599e" d="M2440.708,1992.769c82.37-92.97,146.265-24.581,146.265-24.581
									c33.863,38.491,0.47,84.64-36.334,134.7c-36.804,50.061-150.823,149.062-206.73,189.632
									c-55.907,40.57-112.06,0.714-80.396-60.196C2295.177,2171.414,2358.338,2085.739,2440.708,1992.769z" class="color9e5959 svgShape"></path><path fill="#ebebed" d="M2518.369,1937.569c0,0-50.26,1.807-85.471,41.031
									c-35.211,39.225-107.942,141.151-107.942,141.151s41.149,57.298,119.813,111.157c0,0,135.879-130.688,155.466-191.619
									C2619.821,1978.359,2583.515,1936.286,2518.369,1937.569z" class="coloredebeb svgShape"></path><path fill="#433372" d="M2091.014,2032.071c-8.262-13.809-19.648-25.683-32.844-34.895
								c-0.182-0.143-0.369-0.19-0.554-0.297c-3.137-6.334-6.275-12.669-9.413-19.004c-2.929-5.525-5.767-12.661-12.188-14.724
								c-1.242-0.469-4.034,1.586-4.578,2.725c-4.011,6.946-1.575,13.888,1.283,21.382c3.111,6.006,7.965,15.575,10.991,21.667
								c0.659,1.326,2.474,5.675,4.47,9.245c1.759,8.879,3.605,17.685,8.653,25.37c6.497,7.836,19.299,39.701,31.63,27.859
								c1.765-2.268,1.629-5.413,2.173-8.234C2094.997,2051.664,2099.224,2043.495,2091.014,2032.071z" class="color723333 svgShape"></path><path fill="#6b599e" d="M2339.305,2214.271c0,0-91.922-90.312-120.72-121.431
									c-28.799-31.118-54.858-54.399-75.132-77.12c-11.563-12.959-55.749,3.124-43.43,28.673
									c12.319,25.549,38.5,74.522,78.861,138.296c19.277,30.459,70.451,114.295,104.625,124.91
									c12.652,3.93,32.975-0.689,48.864-11.304C2353.055,2282.479,2360.35,2242.769,2339.305,2214.271z" class="color9e5959 svgShape"></path><path fill="#5e4d91" d="M2335.045,2218.352c-0.919,0-1.837-0.347-2.544-1.041
										c-0.92-0.903-92.313-90.729-120.84-121.555c-1.362-1.472-1.273-3.769,0.198-5.131c1.473-1.362,3.77-1.271,5.131,0.199
										c28.411,30.699,119.682,120.404,120.6,121.307c1.431,1.405,1.451,3.704,0.045,5.135
										C2336.925,2217.988,2335.985,2218.352,2335.045,2218.352z" class="color914d4d svgShape"></path><path fill="#8257ff" d="M2148.922,2140.84c0,0,200.253-0.686,201.984-2.723c2.522-2.97,14.984-10.204,9.587-19.382
									l-131.961-250.51c-3.225-6.122-9.672-9.856-16.587-9.606l-203.021,7.342c-6.613,0.239-11.182,6.84-12.911,9.05
									c-2.316,2.959,136.323,256.224,136.323,256.224C2135.56,2137.356,2142.007,2141.09,2148.922,2140.84z" class="color495794 svgShape"></path><path fill="#443278" d="M1993.754,1887.242l35.422,67.203l96.573,183.275c3.208,6.135,9.664,9.86,16.601,9.61
									l203.031-7.342c7.423-0.268,11.999-8.144,8.496-14.754l-37.14-70.544l-94.786-179.936c-3.209-6.135-9.664-9.861-16.601-9.61
									l-203.033,7.342C1994.896,1872.754,1990.323,1880.698,1993.754,1887.242z" class="color324078 svgShape"></path><path fill="#503d87" d="M1993.754,1887.242l35.422,67.203l260.159,187.569l56.046-2.027
									c7.423-0.268,11.999-8.144,8.496-14.754l-37.14-70.544l-255.735-184.326l-58.685,2.122
									C1994.896,1872.754,1990.323,1880.698,1993.754,1887.242z" class="color3d4b87 svgShape"></path><path fill="#6b599e" d="M2110.276,2028.964c-4.062-1.388-20.119,15.344-22.71,18.42
										c-1.393,1.655-7.586,12.092-8.236,13.365c-0.268,0.523-0.944,1.848-1.692,3.306c2.191-7.086,5.259-19.776,6.73-21.753
										c2.112-2.841,18.566-21.934,19.752-24.447c1.188-2.511,6.457-12.662,0.487-15.816c-1.875-0.887-11.092,4.292-12.994,5.38
										c0.11-0.272,6.925-8.903,7.787-11.223c3.474-9.347-1.843-15.582-4.481-15.286c-2.638,0.296-25.097,20.414-29.998,26.244
										c-1.633,1.944-3.258,4.177-4.874,6.57c0.279-2.396,0.274-6.304,4.23-11.961c2.184-3.415,8.87-8.752,14.371-15.37
										c2.854-3.435,4.405-7.356,3.14-11.641c-0.801-2.714-1.989-4.417-3.938-3.9c-1.948,0.517-18.241,11.517-23.634,18.119
										c-5.31,6.501-16.068,16.977-14.874,27.095c1.634,3.246,3.173,6.708,4.678,10.27c0.298,1.07,0.513,1.79,0.573,1.972
										c-1.038,2.883-1.584,9.089-0.574,14.299c1.01,5.209,10.4,16.037,10.4,16.037c6.162,14.959,12.583,14.511,15.415,16.251
										c3.639,13.795,21.062,18.127,22.94,18.541c4.862,0.806,10.113,0.924,10.113,0.924c-2.995-5.633-5.126-11.082-8.159-15.511
										c0.574-4.542,2.775-18.171,9.8-26.462C2112.919,2042.489,2114.338,2030.352,2110.276,2028.964z" class="color9e5959 svgShape"></path><path fill="#433372" d="M2092.49 2006.231c-14.21 12.835-32.652 25.835-32.781 45.564 6.323-7.838 10.377-14.542 15.344-23.045C2079.982 2020.672 2088.486 2013.372 2092.49 2006.231zM2060.042 2012.926c-7.433 7.502-10.37 8.193-10.188 18.88 1.2-1.994 2.889-5.515 4.573-8.674 1.684-3.16 4.596-7.477 6.27-9.721C2060.824 2013.249 2060.202 2012.776 2060.042 2012.926z" class="color723333 svgShape"></path><path fill="#5e4d91" d="M2073.665,2073.912c3.906-1.104,4.73-4.035,2.85-7.445
											C2072.167,2066.041,2070.421,2071.213,2073.665,2073.912z" class="color914d4d svgShape"></path><g fill="#000000" class="color000000 svgShape"><path fill="#6b599e" d="M2388.804,2472.317c-0.556-3.868-1.011-7.598-1.396-11.139
								c-5.37-49.419,19.681-188.689,28.498-264.451c14.417-123.883,18.83-237.099,87.264-255.004
								c44.026-11.519,61.275-6.11,101.207-7.473c0,0,104.883,3.574,174.19,59.613c63.719,51.521,15.623,145.241-3.753,252.881
								c-14.34,79.661-43.172,202.697-56.803,275.464C2669.378,2515.696,2459.142,2487.224,2388.804,2472.317z" class="color9e5959 svgShape"></path><path fill="#6b599e" d="M2569.793,1947.522c3.536,34.942,33.851,58.636,68.831,55.104
									c30.786-3.112,53.967-25.543,56.73-55.24c0,0,0.374-3.984,0.408-4.874l8.074-113.331c0.199-2.55,0.358-4.769,0.476-6.659
									l0.128-1.961c0.207-2.922,0.335-4.584,0.335-4.584c0.438-3.901,0.509-7.848,0.111-11.926
									c-3.021-29.693-29.553-51.359-59.284-48.344c-24.403,2.471-43.351,20.792-47.683,43.769c0,0-0.009,0.074-0.067,0.252
									l-0.172,0.801l-24.204,114.348c-0.485,2.141-0.934,4.289-1.378,6.397C2570.24,1930.079,2568.926,1938.723,2569.793,1947.522
									z" class="color9e5959 svgShape"></path><path fill="#211447" d="M2560.967,1641.941c0,0-20.914,36.735-24.193,86.659l53.552-78.942L2560.967,1641.941z" class="color142347 svgShape"></path><path fill="#6b599e" d="M2690.443,1600.047c0,0-84.446-21.746-121.518,47.67
											c-37.072,69.416-71.531,205.451-28.074,235.52c39.651,27.435,122.056,3.723,165.255-32.768
											c45.462-38.402,75.802-96.229,73.003-148.219C2776.66,1656.73,2756.726,1617.472,2690.443,1600.047z" class="color9e5959 svgShape"></path><path fill="#5e4d91" d="M2550.549,1888.663c65.557,31.157,120.321,0.884,163.14-44.711
											c0.925-2.384-23.632,27.362-85.33,43.572S2551.581,1886.772,2550.549,1888.663z" class="color914d4d svgShape"></path><path fill="#211447" d="M2701.806,1772.674c0,0-17.326,26.275-22.932,43.727
													c-5.606,17.452,0.944,45.473-11.578,62.554c-7.249,9.889-77.574,42.096-133.408,13.054
													c-21.528-11.358-18.928-63.21-12.112-90.213c0,0,7.784,0.134,17.596,0.525c13.16,0.525,24.091,1.074,54.203,22.594
													c15.978,11.419,41.714,22.285,53.674,15.02c11.96-7.266,40.597-84.328,52.756-101.714
													C2712.164,1720.835,2706.61,1763.48,2701.806,1772.674z" class="color142347 svgShape"></path><path fill="#6b599e" d="M2557.544,1812.601c0,0,12.753,4.097,22.631,10.231
													c5.682,3.529,17.285,10.736,18.436,14.067c1.151,3.332-8.795,11.244-20.157,12.037
													c-11.362,0.793-19.921-7.14-17.765-13.852l-4.483-2.181c0,0-4.385,6.737-8.413,5.443
													c-4.027-1.294-15.104-15.219-12.302-23.945C2538.294,1805.677,2557.544,1812.601,2557.544,1812.601z" class="color9e5959 svgShape"></path><path fill="#5e4d91" d="M2552.723 1776.475c6.23-13.936-8.974-18.996-22.266-24.239-2.275 9.462-4.237 18.899-5.789 28.141C2536.001 1781.002 2549.796 1780.918 2552.723 1776.475zM2594.442 1784.059c0 0 8.181-8.481 31.385 1.294 12.912 5.439 27.198 10.943 22.542 22.815C2643.821 1824.141 2575.375 1804.133 2594.442 1784.059z" class="color914d4d svgShape"></path><path fill="#1e123f" d="M2631.233 1763.579c-2.396 6.39-8.366 10.06-13.336 8.198-4.969-1.863-7.056-8.553-4.661-14.944s8.366-10.06 13.336-8.198C2631.542 1750.498 2633.629 1757.189 2631.233 1763.579zM2569.606 1740.542c-2.366 6.313-8.246 9.946-13.132 8.115-4.886-1.831-6.928-8.434-4.562-14.747 2.367-6.313 8.246-9.947 13.132-8.115C2569.93 1727.626 2571.972 1734.228 2569.606 1740.542z" class="color121d3f svgShape"></path><path fill="#5e4d91" d="M2548.072,1835.084c0.336,0.206,0.74,0.308,1.163,0.268
													c0.093-0.009,9.407-0.808,15.402,5.455c0.72,0.751,1.91,0.777,2.661,0.059c0.751-0.719,0.777-1.91,0.059-2.661
													c-7.281-7.606-18.031-6.644-18.486-6.599c-1.034,0.102-1.79,1.023-1.688,2.057
													C2547.242,1834.274,2547.586,1834.787,2548.072,1835.084z" class="color914d4d svgShape"></path><path fill="#1c103d" d="M2612.597 1724.005c0 0-6.019-1.331-7.263 2.927-1.38 4.724-2.449 6.929.179 8.544 2.628 1.615 21.126 4.167 36.098 7.275 15.146 3.144 21.601 5.399 22.856 4.04 1.256-1.359-10.322-11.285-25.302-15.758C2623.358 1726.314 2626.265 1726.936 2612.597 1724.005zM2557.582 1701.935c.008-.027 12.417 1.851 15.557 2.563 1.967.446 4.498 1.076 9.089 2.191 0 0 6 1.418 5.269 5.793-.81 4.854-.805 7.305-3.874 7.617-2.879.292-35.87-10.796-38.153-11.443-3.557-1.009-4.268-1.531-4.584-2.568C2540.392 1704.466 2544.955 1700.659 2557.582 1701.935z" class="color101d3d svgShape"></path><path fill="#433372" d="M2562.226 1793.489c-.914-.561-1.743-1.161-2.437-1.8-4.35-4.006-1.563-7.996 1.132-11.855.523-.748 1.115-1.597 1.734-2.526 16.697-25.073 23.647-37.825 23.715-37.95.838-1.545 2.77-2.119 4.316-1.282 1.552.838 2.12 2.77 1.282 4.315-.283.523-7.127 13.089-24.014 38.446-.658.988-1.272 1.867-1.814 2.643-.85 1.217-1.885 2.699-2.163 3.404.034.035.075.075.124.121 2.66 2.449 10.193 4.809 14.317 5.721 1.717.379 2.801 2.078 2.422 3.795-.379 1.717-2.077 2.801-3.794 2.423C2575.968 1798.706 2567.617 1796.794 2562.226 1793.489zM2542.95 1824.042c.519.318 1.14.492 1.795.467 4.395-.171 8.746.308 12.931 1.426 9.465 2.53 16.18 7.825 20.159 11.826 1.209 1.249 3.269 1.263 4.527.016s1.267-3.274.016-4.531c-6.48-6.528-14.454-11.207-23.043-13.5-4.811-1.285-9.803-1.837-14.84-1.642-1.771.069-3.146 1.561-3.075 3.329C2541.461 1822.542 2542.068 1823.501 2542.95 1824.042z" class="color723333 svgShape"></path><g fill="#000000" class="color000000 svgShape"><path fill="#211447" d="M2720.13,1618.24c0,0,9.236-6.187,21.049-26.226s39.563-28.15,53.338-11.241
													s44.097,23.651,44.389,42.836c0.293,19.185-37.436,37.71-65.102,39.038
													C2746.14,1663.974,2720.13,1618.24,2720.13,1618.24z" class="color142347 svgShape"></path><path fill="#211447" d="M2721.854,1689.515c0,0-12.395,17.839-16.39,30.278s-11.192,29.872-4.113,51.994
													c7.079,22.122,3.758,22.221,1.176,43.262c-2.582,21.041-4.322,73.326-2.959,74.054s11.777-3.868,29.372-28.05
													c17.595-24.182,49.92-70.022,67.005-117.638s-11.63-110.541-55.499-130.002c0,0-37.015-33.37-84.221-29.44
													c-47.207,3.93-86.348,20.414-98.501,64.331l8.984,3.222c0,0,7.011-13.31,9.658-13.929
													c12.009-2.807,24.076-0.329,31.308,8.576c0,0,30.007,32.681,49.633,36.599
													C2657.304,1682.772,2694.744,1697.838,2721.854,1689.515z" class="color142347 svgShape"></path><path fill="#1b0f3d" d="M2786.039,1663.207c-0.659,0-1.294-0.359-1.616-0.985
														c-11.153-21.677-27.615-38.194-46.354-46.507c-0.175-0.077-0.337-0.183-0.479-0.311
														c-0.032-0.028-3.233-2.896-8.827-6.777c-0.823-0.572-1.028-1.703-0.456-2.526c0.571-0.823,1.701-1.029,2.526-0.457
														c5.022,3.485,8.133,6.138,8.966,6.867c19.386,8.684,36.371,25.736,47.852,48.049c0.459,0.892,0.107,1.986-0.784,2.445
														C2786.602,1663.142,2786.318,1663.207,2786.039,1663.207z" class="color0f1c3d svgShape"></path><path fill="#6b599e" d="M2690.37,1794.071c0,0,12.649-38.773,35.892-31.599
												c23.243,7.174,12.684,39.641-9.026,55.933C2705.084,1827.525,2677.132,1834.953,2690.37,1794.071z" class="color9e5959 svgShape"></path><path fill="#433372" d="M2720.001,1789.342c-4.641-1.21-9.04,0.148-12.359,1.88
												c2.075-4.253,5.296-7.975,10.372-9.297c1.309-0.341,2.093-1.677,1.75-2.986c-0.337-1.307-1.659-2.092-2.985-1.752
												c-18.1,4.713-17.751,30.548-17.728,31.646c0.031,1.351,1.149,2.422,2.5,2.393c1.387-0.068,2.422-1.169,2.397-2.496
												c-0.003-0.101-0.057-4.506,1.074-9.75c0.048-0.04,0.107-0.058,0.153-0.102c0.069-0.064,6.86-6.544,13.591-4.796
												c1.314,0.338,2.645-0.445,2.987-1.752C2722.093,1791.021,2721.311,1789.684,2720.001,1789.342z" class="color723333 svgShape"></path></g><g fill="#000000" class="color000000 svgShape"><path fill="#ebebed" d="M2694.972,1950.62c0,0-54.624,30.959-112.346,11.898
									c-23.068-10.306-12.561-29.391-12.561-29.391c-21.193-1.204-70.225,0.86-92.597,14.638
									c-22.57,13.899-51.376,105.062-59.2,164.664s-30.433,244.815-34.639,279.303c-4.206,34.488-20.419,132.589-14.272,139.34
									c-0.638,53.583,373.813,164.58,379.921,114.49c6.108-50.089,33.278-178.705,40.267-242.854
									c6.989-64.149,32.062-256.096,38.992-306.085c4.521-32.621,26.394-74.908,7.395-91.286
									C2816.934,1988.961,2736.644,1956.452,2694.972,1950.62z" class="coloredebeb svgShape"></path><path fill="#e1dee8" d="M2406.754,2212.103c-0.104-0.008-0.21-0.02-0.315-0.039c-1.979-0.327-3.317-2.194-2.99-4.175
									c7.854-47.552,12.594-77.943,14.917-95.648c5.751-43.813,16.781-82.218,22.843-101.209c0.608-1.912,2.644-2.95,4.563-2.357
									c1.909,0.61,2.963,2.654,2.354,4.563c-5.988,18.762-16.883,56.694-22.561,99.951c-2.334,17.782-7.084,48.251-14.953,95.887
									C2410.304,2210.948,2408.612,2212.247,2406.754,2212.103z" class="colore4dee8 svgShape"></path></g></g><g fill="#000000" class="color000000 svgShape"><path fill="#6b599e" d="M2821.175,2001.866c0,0-71.855-26.204-93.706,96.069
								c-21.851,122.273-37.777,338.842-33.06,407.329c2.759,40.056,30.33,58.515,59.161,56.498
								c20.463-1.432,42.22-11.794,53.251-38.262c26.573-63.761,59.504-318.331,64.827-380.236
								C2876.973,2081.358,2870.135,2017.07,2821.175,2001.866z" class="color9e5959 svgShape"></path><path fill="#ebebed" d="M2846.452,2012.378c0,0,26.919,21.875,30.128,80.434
										c3.209,58.559-19.25,222.059-19.25,222.059s-103.657,2.938-164.266-20.062c0,0,16.253-161.057,31.298-221.566
										C2739.408,2012.735,2794.43,1967.636,2846.452,2012.378z" class="coloredebeb svgShape"></path><path fill="#d6d3de" d="M2693.208,2292.997c-0.03-0.002-0.06-0.005-0.09-0.007
										c-1.993-0.204-3.447-1.984-3.243-3.981c0.158-1.56,16.03-156.576,30.966-216.643c0.484-1.943,2.439-3.105,4.401-2.647
										c1.945,0.485,3.13,2.454,2.647,4.401c-14.813,59.567-30.632,214.073-30.791,215.625
										C2696.897,2291.71,2695.166,2293.148,2693.208,2292.997z" class="colorded3d3 svgShape"></path><path fill="#6b599e" d="M2774.613,2455.847c46.316,17.134,45.158,85.441-1.127,102.657
									c-35.573,13.232-236.292,51.04-282.261,58.136c-22.849,3.527-52.224-10.651-47.351-33.251
									c1.265-5.866,4.765-13.239,9.45-15.738c0,0,43.575-20.539,85.878-38.423s137.513-72.206,185.492-78.987
									C2740.46,2448.014,2758.562,2449.909,2774.613,2455.847z" class="color9e5959 svgShape"></path><path fill="#5e4d91" d="M2700.479,2456.337c7.136-2.938,14.683-4.963,22.403-5.79
									c7.917-1.399,16.42-0.796,22.618,5.191c0,0-0.243,0.683-0.243,0.683c-7.909,1.631-14.563,1.088-22.222-0.082
									c-7.441-0.392-14.906-0.114-22.374,0.699C2700.661,2457.039,2700.479,2456.337,2700.479,2456.337L2700.479,2456.337z" class="color914d4d svgShape"></path><path fill="#6b599e" d="M2536.047,2568.783c-9.55-19.691-28.626-18.372-47.835-15.104
									c0,0-38.154,13.601-50.855,12.307c-20.121-2.051-36.474-3.323-47.664-3.86c-9.63-1.253-16.986-1.755-23.135,3.111
									c-9.708,7.681-20.552,16.874-26.164,23.297c-5.612,6.423-22.267,38.044-26.178,45.352
									c-3.911,7.307,3.017,11.722,4.971,11.219c0,0-2.273,7.748,0.497,11.405c2.77,3.657,10.606,1.267,12.539-0.433
									c0,0,7.491,11.535,20.667,1.336c0,0,4.846,8.761,12.221,5.237c7.375-3.524,34.334-23.333,36.099-23.585
									c1.534-0.217,17.423-9.854,21.042-11.198c0,0,41.419,7.095,72.224-7.29c5.195-1.814,16.403-5.807,28.049-9.337
									C2534.17,2607.707,2545.597,2588.473,2536.047,2568.783z" class="color9e5959 svgShape"></path><path fill="#5e4d91" d="M2436.062,2566.355c9.391,2.165,25.023,2.859,28.847,12.553
										c-5.039-2.02-9.644-3.904-14.343-6.452C2446.14,2570.027,2439.493,2568.741,2436.062,2566.355z" class="color914d4d svgShape"></path><path fill="#433372" d="M2319.187 2645.104c9.05-13.1 21.442-30.711 30.71-43.85 10.42-11.271 23.552-20.465 36.385-28.483-10.633 11.034-23.782 19.869-34.525 30.848C2341.97 2615.67 2328.92 2634.389 2319.187 2645.104zM2332.223 2656.076c10.55-13.353 24.07-30.03 34.762-43.38 8.866-8.742 20.497-17.368 30.722-22.914-8.717 8.604-19.331 16.625-28.319 24.926C2357.893 2627.01 2343.586 2645.018 2332.223 2656.076zM2352.889 2657.412c9.876-11.721 19.774-23.477 30.126-34.792 8.208-6.676 18.215-11.643 27.84-15.508-8.425 7.241-19.056 12.033-27.376 19.417C2374.047 2635.26 2362.036 2649.538 2352.889 2657.412z" class="color723333 svgShape"></path><path fill="#5e4d91" d="M2384.616 2573.914c-.117-.08-.227-.174-.326-.283-.687-.754-.632-1.921.121-2.608.156-.142 3.862-3.49 7.83-4.591.983-.273 2 .304 2.272 1.285.272.982-.302 2-1.285 2.272-2.597.72-5.45 2.96-6.33 3.763C2386.253 2574.339 2385.306 2574.384 2384.616 2573.914zM2399.14 2588.977c-.12-.075-.233-.165-.338-.27-.716-.726-.708-1.894.017-2.611.151-.148 3.719-3.641 7.641-4.899.972-.312 2.012.224 2.322 1.193.312.971-.222 2.01-1.193 2.322-2.566.823-5.328 3.175-6.175 4.012C2400.792 2589.336 2399.848 2589.419 2399.14 2588.977zM2412.019 2607.239c-.125-.065-.246-.145-.358-.242-.772-.666-.858-1.831-.193-2.604.138-.159 3.415-3.929 7.222-5.498.944-.389 2.022.062 2.41 1.003.388.943-.06 2.021-1.003 2.41-2.492 1.027-5.056 3.593-5.833 4.496C2413.695 2607.465 2412.761 2607.623 2412.019 2607.239z" class="color914d4d svgShape"></path></g></g><g fill="#000000" class="color000000 svgShape"><path fill="#7e5edd" d="M3942.678 2911.419l-396.854-215.608c-10.583-5.507-23.615-.816-28.259 10.174l-5.24 12.398c-3.955 9.359-.434 20.202 8.264 25.452l387.507 249.414L3942.678 2911.419zM4078.984 2807.96l-410.535-267.652c-10.666-6.715-24.808-2.27-29.714 9.34l-5.038 11.922c-3.714 8.787-.854 18.975 6.891 24.546l403.815 303.675L4078.984 2807.96z" class="colordd8d5e svgShape"></path><path fill="#6d4ec9" d="M3940.752 3135.063l-478.06-107.865c-12.249-2.969-18.917-16.208-14.011-27.818l5.038-11.922c3.714-8.788 13.013-13.837 22.405-12.166l499.209 77.94L3940.752 3135.063zM3769.563 3382.682L3302.192 3276.1c-12.143-3.067-18.696-16.235-13.821-27.771l5.051-11.952c3.749-8.872 13.183-13.922 22.645-12.122l488.077 76.596L3769.563 3382.682z" class="colorc97c4e svgShape"></path><g fill="#000000" class="color000000 svgShape"><path fill="#5e3fb8" d="M4065.033,2782.778c0,0-60.802-17.015-104.148,61.593
						c-43.346,78.607-177.312,402.462-192.946,494.227s45.826,100.378,45.826,100.378L4065.033,2782.778z" class="colorb86c3f svgShape"></path><path fill="#d6d4dd" d="M4550.472,3417.577c0,0-24.985,76.24-87.585,49.786
							c-58.917-24.898-348.593-147.314-348.593-147.314s-38.292-29.202-109.145,76.841
							c-65.925,98.667-112.776,85.433-185.765,45.908l185.377-192.189l468.881,198.153
							C4473.642,3448.761,4519.766,3469.7,4550.472,3417.577z" class="colordad4dd svgShape"></path><path fill="#c5c2cc" d="M4656.229,3016.702l-519.208-219.415l-182.587,432.059l519.208,219.416
							c29.827,12.605,64.226-1.357,76.831-31.184l136.94-324.045C4700.018,3063.705,4686.056,3029.307,4656.229,3016.702z" class="colorc8c2cc svgShape"></path><path fill="#b9b5c4" d="M4137.021,2797.287c0,0,51.362,18.812,3.122,132.964
							c-48.24,114.152-135.382,320.357-135.382,320.357s-28.839,45.148-87.26,106.532s-98.117,85.656-98.117,85.656
							s-38.138,1.242-13.307-105.442c24.832-106.685,95.173-295.317,116.592-334.09
							C3947.291,2958.698,4137.021,2797.287,4137.021,2797.287z" class="colorbeb5c4 svgShape"></path><path fill="#d6d4dd" d="M4687.413,3093.533c0,0,6.969-40.454-88.771-80.914
						c-95.741-40.46-346.139-146.277-346.139-146.277s-50.913-38.068-124.278,90.98c-75.157,132.2-110.318,124.913-220.788,78.229
						c0,0,17.534-61.694,47.013-114.335c29.479-52.641,81.022-171.184,180.722-143.518c99.7,27.666,224.812,97.898,304.406,128.641
						c57.325,22.142,175.971,73.199,237.873,100.035c21.904,9.496,32.061,34.865,22.768,56.857L4687.413,3093.533z" class="colordad4dd svgShape"></path></g></g><g fill="#000000" class="color000000 svgShape"><path fill="#d6d4dd" d="M1373.347,3081.462l-422.251,0c-6.95,0-12.584,5.634-12.584,12.584l0,341.771
					c0,6.95,5.635,12.583,12.584,12.583l422.251,0c6.95,0,12.585-5.634,12.585-12.584l0-341.771
					C1385.932,3087.096,1380.297,3081.462,1373.347,3081.462z M1242.703,3129.841c0,19.237-15.594,34.831-34.831,34.831h-91.301
					c-19.236,0-34.83-15.594-34.83-34.831v-4.02c0-4.911,3.981-8.892,8.893-8.892l143.176,0c4.911,0,8.893,3.981,8.893,8.893
					V3129.841z" class="colordad4dd svgShape"></path><path fill="#cbc7d6" d="M951.096,3448.401l422.251,0c6.951,0,12.584-5.634,12.584-12.584l0-341.771
					c0-6.95-5.633-12.584-12.584-12.584l-196.561,0c0.88,8.882,1.57,21.145,0.999,35.466h56.025c4.911,0,8.893,3.981,8.893,8.893
					v4.02c0,19.236-15.594,34.831-34.831,34.831h-36.712c-16.78,68.141-71.209,147.438-232.648,152.395l0,118.751
					C938.511,3442.767,944.147,3448.401,951.096,3448.401z" class="colord1c7d6 svgShape"></path></g><g fill="#000000" class="color000000 svgShape"><path fill="#6e5da0" d="M1464.737,3399.623l-17.278-129.28l124.215-34.664c49.112-13.705,98.998,19.186,105.752,69.724
					c6.754,50.539-32.744,95.375-83.731,95.048L1464.737,3399.623z" class="color90a05d svgShape"></path><path fill="#7765ad" d="M1677.952,3322.461c0.386-5.574,0.247-11.275-0.526-17.057
					c-6.754-50.539-56.64-83.429-105.752-69.725l-61.643,17.202C1530.578,3349.791,1639.602,3331.951,1677.952,3322.461z" class="color9cad65 svgShape"></path><path fill="#6e5da0" d="M1555.054 3425.574c-7.997 1.069-15.345-4.548-16.414-12.544-1.069-7.997 4.547-15.346 12.544-16.415 7.997-1.069 15.346 4.548 16.415 12.544C1568.667 3417.156 1563.051 3424.506 1555.054 3425.574zM1624.335 3421.411c-7.997 1.069-15.346-4.548-16.414-12.544-1.069-7.997 4.547-15.346 12.544-16.415 7.997-1.069 15.345 4.547 16.414 12.544C1637.947 3412.993 1632.332 3420.342 1624.335 3421.411zM1676.607 3379.148c-7.996 1.069-15.345-4.547-16.414-12.544-1.069-7.998 4.548-15.346 12.544-16.415 7.997-1.069 15.346 4.547 16.415 12.545C1690.221 3370.73 1684.604 3378.079 1676.607 3379.148z" class="color90a05d svgShape"></path><circle cx="1630.059" cy="3227.934" r="14.608" fill="#7765ad" transform="rotate(-52.611 1630.196 3228.115)" class="color9cad65 svgShape"></circle><path fill="#7765ad" d="M1510.591 3259.962c-7.997 1.069-15.346-4.548-16.415-12.545-1.069-7.997 4.548-15.345 12.544-16.414 7.997-1.069 15.346 4.547 16.414 12.544C1524.204 3251.544 1518.588 3258.894 1510.591 3259.962zM1497.906 3336.677c-7.996 1.069-15.345-4.548-16.414-12.544s4.547-15.346 12.544-16.415c7.997-1.069 15.346 4.548 16.415 12.544C1511.519 3328.259 1505.903 3335.608 1497.906 3336.677zM1570.837 3382.198c-7.996 1.069-15.345-4.548-16.414-12.544-1.069-7.997 4.547-15.345 12.544-16.414 7.997-1.069 15.346 4.547 16.415 12.544C1584.45 3373.78 1578.834 3381.129 1570.837 3382.198z" class="color9cad65 svgShape"></path><path fill="#6e5da0" d="M1588.359,3296.691c-7.996,1.069-15.346-4.547-16.414-12.544
					c-1.069-7.997,4.548-15.346,12.544-16.415c7.997-1.069,15.346,4.548,16.415,12.544
					C1601.973,3288.273,1596.356,3295.622,1588.359,3296.691z" class="color90a05d svgShape"></path><polygon fill="#ae93fd" points="1303.112 3450.569 1278.128 3263.63 1416.452 3229.353 1445.583 3447.318" class="colorfdc693 svgShape"></polygon><path fill="#ae93fd" d="M1444.792,3447.311l-29.101-217.745c-0.581-4.345,2.471-8.338,6.816-8.919l19.946-2.666
						c4.345-0.581,8.339,2.471,8.919,6.816l29.101,217.745c0.581,4.345-2.471,8.338-6.816,8.919l-19.946,2.666
						C1449.366,3454.708,1445.373,3451.656,1444.792,3447.311z" class="colorfdc693 svgShape"></path><path fill="#9a7bf5" d="M1442.525,3449.479c-1.905,0-3.56-1.414-3.812-3.354l-27.753-213.116
							c-0.275-2.108,1.212-4.04,3.32-4.314c2.104-0.28,4.04,1.212,4.314,3.32l27.753,213.116c0.275,2.108-1.212,4.04-3.32,4.314
							C1442.858,3449.468,1442.69,3449.479,1442.525,3449.479z" class="colorf5aa7b svgShape"></path></g><g fill="#000000" class="color000000 svgShape"><path fill="#c7b6f9" d="M1189.94,3426.835c0,0,14.622,16.248,2.843,28.027c0,0-2.437,13.404-16.653,13.81
								c0,0-10.967,7.311-23.965,2.843c-12.997-4.468-36.556-19.09-52.397-23.152c-15.841-4.062-145.413,7.311-156.786,6.093
								c-11.373-1.219-10.561-16.248-8.53-31.682c2.031-15.435,4.062-35.744,0.406-54.022c-3.655-18.278,82.861-27.62,95.859-25.589
								c12.998,2.031-17.06,47.929-17.872,55.646C1012.034,3406.526,1155.415,3400.84,1189.94,3426.835z" class="colorf9cab6 svgShape"></path><path fill="#b4a1ed" d="M1176.13 3468.672c1.143-5.699.451-19.603-7.83-16.837 1.145 4.386 3.293 6.327 5.091 10.055C1174.369 3462.99 1175.142 3469.191 1176.13 3468.672zM1192.783 3454.862c.886-4.425-.215-15.672-6.618-12.373.214 3.856 1.905 4.861 3.747 7.604C1190.84 3450.887 1191.845 3455.428 1192.783 3454.862z" class="coloredb8a1 svgShape"></path><path fill="#ede8fa" d="M533.455,3288.434c0,0-20.752,13.897-41.197,54.458c-15.39,30.533-30.329,36.827-65.53,57.407
								c-35.202,20.58-71.488,43.326-42.243,109.398c0,0-8.665-40.076,18.955-61.74c27.62-21.663,87.735-6.499,121.854-64.989
								C559.413,3324.478,533.455,3288.434,533.455,3288.434z" class="colorfaeee8 svgShape"></path><path fill="#7e5edd" d="M410.051,3410.493c1.394,4.226,0.316,10.181-0.654,13.093
									c-2.166,6.499,5.416,6.499,11.373,4.333c5.957-2.166,10.832-1.625,8.665,2.708c-0.73,1.46-1.707,4.092-2.68,6.936
									c-9.001,2.421-17.007,5.446-23.315,10.394c-27.62,21.663-18.956,61.74-18.956,61.74
									C359.911,3454.176,378.008,3428.922,410.051,3410.493z" class="colordd8d5e svgShape"></path><path fill="#7151cf" d="M384.485,3509.696c-5.681-14.794-8.647-45.486,2.717-59.815
									c11.365-14.329,39.554-12.318,39.554-12.318c-9.001,2.422-17.007,5.446-23.315,10.394
									C375.82,3469.62,384.485,3509.696,384.485,3509.696L384.485,3509.696z" class="colorcf7d51 svgShape"></path><g fill="#000000" class="color000000 svgShape"><path fill="#ede8fa" d="M1011.627,3275.736c0,0-33.307-4.875-47.929-14.623
									c-14.622-9.748-50.366-16.247-82.048-6.498c-31.682,9.748-148.662,0-190.092-10.561c-15.307-3.902-38.598-6.473-63.85-3.575
									c-43.097,4.945-93.749,23.343-111.078,80.208c-28.858,94.688,35.203,138.643,97.754,137.018
									c62.552-1.625,234.772-12.998,288.388-5.687c53.616,7.311,138.914-29.245,155.973-57.677
									C1075.803,3365.908,1085.552,3290.358,1011.627,3275.736z" class="colorfaeee8 svgShape"></path><path fill="#d4c7f9" d="M519.198,3402.421c-1.097,0-2.127-0.674-2.529-1.763
									c-8.356-22.659-7.917-49.493,1.307-79.756c4.305-14.127,10.9-26.701,19.604-37.373c0.941-1.155,2.639-1.325,3.792-0.386
									c1.153,0.941,1.326,2.639,0.385,3.792c-8.259,10.127-14.525,22.084-18.625,35.537c-8.873,29.112-9.345,54.79-1.406,76.32
									c0.515,1.396-0.2,2.946-1.596,3.461C519.822,3402.367,519.507,3402.421,519.198,3402.421z" class="colorf9d6c7 svgShape"></path><path fill="#d2c5f9" d="M685.87,3426.835c30.87-8.936,120.23-6.499,158.411,0.812
								c38.181,7.312,99.108,13.81,119.417,0.812c16.435-10.519,72.768-26.356,93.66-32.015
								c-19.844,28.094-102.284,62.706-154.586,55.574c-53.616-7.311-225.836,4.062-288.388,5.687
								c-3.224,0.083-6.451,0.039-9.669-0.12C623.047,3449.864,662.698,3433.543,685.87,3426.835z" class="colorf9d4c5 svgShape"></path><path fill="#7e5edd" d="M824.784 3317.166c-4.874 8.936-19.496 47.929-47.117 43.056-27.62-4.875-30.057-12.998-30.87-26.808-.812-13.81-1.624-24.371-13.81-23.559-12.186.813-19.497-6.498-20.309-13.81s-30.87 0-30.058-21.122c.583-15.163-5.95-23.209-5.775-33.755 5.446.795 10.399 1.786 14.712 2.885 41.43 10.561 158.411 20.309 190.092 10.561 7.088-2.18 14.377-3.542 21.589-4.243-2.291 5.102-6.229 10.698-12.652 11.554-12.185 1.625-25.995-.813-27.62 17.872-1.624 18.684.813 33.306-10.561 35.744C841.031 3317.979 829.658 3308.23 824.784 3317.166zM589.197 3248.824c-.026 4.114-.591 8.537-2.705 10.123-4.333 3.25-8.665 10.832-3.791 16.248 4.874 5.416 9.748 11.915 9.207 15.164-.541 3.25-13.54 9.748-21.121 5.957-7.582-3.791-10.29-8.665-15.706-4.874-3.524 2.468-13.7.112-19.332-7.207C550.127 3266.605 569.214 3255.58 589.197 3248.824z" class="colordd8d5e svgShape"></path></g><g fill="#000000" class="color000000 svgShape"><path fill="#ede8fa" d="M865.402,3392.716c0,0,14.622,21.934,8.936,39.806c-5.686,17.872-13.81,45.492-1.624,55.24
								c12.186,9.748,58.49,4.062,93.422,0c34.932-4.062,93.422-13.81,118.605-12.185s19.497,28.433,47.117,13.81
								c0,0,19.496,4.062,23.558-12.186c0,0,12.457-17.872-3.52-32.494c-15.976-14.622-46.034-17.872-71.217-19.496
								c-25.184-1.625-104.794-2.437-114.543-2.437c-7.311-0.812,0-11.373,0-30.87
								C966.135,3372.406,871.901,3342.35,865.402,3392.716z" class="colorfaeee8 svgShape"></path><path fill="#d4c7f9" d="M871.965,3453.206c-0.212,0-0.427-0.025-0.643-0.078c-1.446-0.354-2.331-1.812-1.977-3.258
								c1.505-6.149,3.318-12.043,5.053-17.495c5.221-16.407-8.472-37.287-8.611-37.496c-0.824-1.238-0.488-2.911,0.75-3.735
								c1.238-0.824,2.91-0.49,3.735,0.747c0.626,0.94,15.272,23.229,9.261,42.119c-1.706,5.361-3.487,11.148-4.954,17.142
								C874.279,3452.382,873.178,3453.206,871.965,3453.206z" class="colorf9d6c7 svgShape"></path><path fill="#c5b3f9" d="M1132.104 3489.426c2.681-6.419 1.971-22.328-7.671-19.72 1.476 3.285 3.024 6.015 4.856 9.021 1.397 3.364 2.047 6.969 2.322 10.632C1131.62 3489.625 1132.025 3489.681 1132.104 3489.426zM1155.415 3477.201c1.572-7.419-.691-25.087-11.036-20.891 3.745 4.642 7.501 8.982 9.177 14.778C1154.294 3472.075 1154.438 3477.831 1155.415 3477.201z" class="colorf9c8b3 svgShape"></path><path fill="#ede8fa" d="M810.744,3453.045c1.315,2.315,2.106,5.143,1.584,8.45c0,0,17.872,18.414-2.166,35.202
								c0,0-2.355,15.021-18.602,15.562c-16.247,0.542-89.712-20.436-108.126-23.145c-18.414-2.708-38.994-14.081-37.911-26.537
								c1.083-12.456,23.288-18.413,44.409-21.121c8.001-1.025,26.339-0.264,46.033,1.078c24.736,1.686,50.827,2.562,61.684,2.88
								C803.026,3445.572,808.088,3448.367,810.744,3453.045z" class="colorfaeee8 svgShape"></path><path fill="#baa7f1" d="M782,3477.201c0,0-2.166,16.789-14.623,15.706c-12.456-1.083-0.295-8.74-2.708-16.247
									C759.796,3461.496,780.375,3452.289,782,3477.201z" class="colorf1b9a7 svgShape"></path><circle cx="797.706" cy="3478.555" r="7.582" fill="#baa7f1" class="colorf1b9a7 svgShape"></circle><path fill="#baa7f1" d="M782.898 3458.174c0 4.188 3.394 7.582 7.582 7.582 4.188 0 7.582-3.394 7.582-7.582 0-4.187-3.394-7.582-7.582-7.582C786.292 3450.592 782.898 3453.986 782.898 3458.174zM779.562 3497.27c0 4.187 3.394 7.582 7.582 7.582 4.187 0 7.581-3.394 7.581-7.582 0-4.188-3.394-7.582-7.582-7.582C782.957 3489.688 779.562 3493.082 779.562 3497.27z" class="colorf1b9a7 svgShape"></path><g fill="#000000" class="color000000 svgShape"><path fill="#ede8fa" d="M700.493,3311.48c0,0-17.872,9.749-12.997,30.87c4.874,21.121,24.371,41.43,16.247,86.11
								c-8.123,44.68-50.366,55.241-69.05,64.989c-18.685,9.749-22.746,11.374-12.186,27.62
								c10.561,16.247,41.43,58.49,50.367,81.236c8.936,22.746,8.936,28.433,0.812,34.119c0,0-15.435,13.81-28.432,1.625
								c0,0-13.81,6.499-21.122-8.936c-7.311-15.435-12.997-37.368-18.684-47.929c-5.687-10.561-34.119-53.615-44.68-64.988
								c-10.561-11.373-1.625-23.559,9.748-33.307c11.373-9.749,19.497-19.496,8.936-34.931
								c-10.561-15.435-40.152-42.188-38.994-84.485C542.083,3304.169,663.125,3271.674,700.493,3311.48z" class="colorfaeee8 svgShape"></path><path fill="#d4c7f9" d="M660.497,3484.182c-0.979,0-1.923-0.535-2.4-1.467c-0.679-1.324-0.155-2.948,1.17-3.627
								c15.399-7.888,36.489-21.768,41.824-51.11c5.687-31.277-2.331-49.895-9.405-66.32c-2.771-6.433-5.387-12.508-6.816-18.702
								c-0.334-1.45,0.57-2.896,2.02-3.231c1.45-0.333,2.897,0.569,3.232,2.021c1.32,5.72,3.843,11.578,6.515,17.781
								c7.011,16.278,15.736,36.537,9.757,69.417c-5.762,31.69-28.253,46.534-44.67,54.942
								C661.331,3484.086,660.911,3484.182,660.497,3484.182z" class="colorf9d6c7 svgShape"></path><path fill="#7e5edd" d="M614.654,3539.483c7.582,3.791,5.415-4.875,4.874-8.665
									c-0.249-1.744,4.544-0.965,9.791,0.382c13.467,19.711,36.112,52.163,43.554,71.105c8.936,22.746,8.936,28.433,0.812,34.119
									c0,0-15.435,13.81-28.432,1.625c0,0-13.811,6.499-21.122-8.936c-7.311-15.435-12.997-37.369-18.684-47.929
									c-2.096-3.893-7.287-12.205-13.53-21.714c2.336-10.551,6.665-13.18,7.573-19.987
									C600.572,3531.359,607.072,3535.691,614.654,3539.483z" class="colordd8d5e svgShape"></path><path fill="#7151cf" d="M645.43 3638.226c4.165-2.961 6.393-9.343 4.593-14.181-.834-1.467-2.792-3.894-4.563-3.382-.426 2.457-.512 4.6.315 6.856 1.502 3.284.889 7.156-.698 10.354C644.92 3638.092 645.209 3638.387 645.43 3638.226zM673.685 3636.424c2.973-4.766 5.474-16.777-2.242-17.331-1.154 4.35.803 6.728 1.572 10.63C673.726 3630.917 672.775 3635.815 673.685 3636.424z" class="colorcf7d51 svgShape"></path></g><g fill="#000000" class="color000000 svgShape"><path fill="#7e5edd" d="M1071.2,3243.783c0,0,18.413-10.832,27.62-8.665c9.207,2.166,16.247,7.582,26.537,11.373
							c10.29,3.791,8.665,40.076,8.665,40.076S1086.364,3267.071,1071.2,3243.783z" class="colordd8d5e svgShape"></path><path fill="#dacff9" d="M1220.133,3399.756c0,0-3.25,12.456-5.416,21.663c-2.166,9.207-3.892,25.79-28.805,11.168
										C1185.912,3432.587,1193.054,3394.882,1220.133,3399.756z" class="colorf9dccf svgShape"></path><path fill="#ede8fa" d="M963.969,3299.024c0,0,18.955-67.155,109.398-57.949c0,0,44.95,1.083,68.78,52.533
										c23.829,51.449,50.366,64.447,69.863,76.362c19.497,11.914,1.083,26.537-1.083,31.953s-15.164,47.117-59.031,42.784
										c-18.955-2.166-29.245-14.081-29.245-14.081s-47.117,3.792-94.775-10.29
										C980.216,3406.255,951.513,3369.428,963.969,3299.024z" class="colorfaeee8 svgShape"></path><path fill="#d4c7f9" d="M1151.898,3447.402c-0.103,0-0.206-0.006-0.31-0.018
										c-16.697-1.909-26.965-10.918-30.026-13.987c-7.979,0.476-51.257,2.286-94.452-10.478
										c-38.063-11.246-80.376-41.951-65.796-124.366c0.259-1.466,1.66-2.444,3.123-2.184c1.466,0.259,2.444,1.657,2.185,3.123
										c-11.149,63.019,9.716,102.806,62.016,118.259c46.596,13.766,93.329,10.225,93.795,10.188l1.362-0.108l0.894,1.033
										c0.093,0.106,9.913,11.153,27.512,13.165c1.479,0.169,2.54,1.505,2.371,2.983
										C1154.415,3446.388,1153.25,3447.402,1151.898,3447.402z" class="colorf9d6c7 svgShape"></path><path fill="#baa7f1" d="M1207.677,3410.046c0,0,0-4.333-4.874-8.665c-4.875-4.333-10.832-9.749-9.207-15.706
									c1.625-5.958,17.331-17.331,29.245-9.207c4.052,2.762,6.973,10.357,2.437,19.496
									C1223.221,3400.11,1216.342,3412.754,1207.677,3410.046z" class="colorf1b9a7 svgShape"></path><path fill="#7e5edd" d="M1145.396,3328.81c0,0,0.541,8.124,8.665,15.706c8.123,7.582,8.665,23.829,1.624,27.62
									c-7.04,3.791-11.373,5.415-12.998,11.373c-1.624,5.957-20.038,13.539-32.494,1.625
									c-12.456-11.914-15.164-14.623-22.205-22.205c-7.04-7.582-3.249-17.872,2.166-25.995
									c5.416-8.124,10.29-18.414,21.663-21.663C1123.191,3312.021,1137.814,3310.938,1145.396,3328.81z" class="colordd8d5e svgShape"></path><path fill="#211447" d="M1123.312,3362.77c8.691,0,15.6-4.487,18.656-7.697c1.045-1.097,1.003-2.835-0.095-3.88
								c-1.094-1.045-2.828-1.002-3.875,0.089c-0.419,0.433-9.796,9.883-22.932,4.25c-1.393-0.597-3.006,0.05-3.604,1.442
								c-0.596,1.393,0.049,3.007,1.442,3.604C1116.55,3362.141,1120.057,3362.77,1123.312,3362.77z" class="color142347 svgShape"></path><g fill="#000000" class="color000000 svgShape"><path fill="#7e5edd" d="M1078.782,3277.361c0,0-1.696-7.27-14.623-12.998c-7.141-3.164-17.33-1.083-24.371-1.625
							c-7.04-0.542-21.798-4.617-34.119,7.582c-14.927,14.778-16.638,58.678-25.303,79.258
							c-8.665,20.58-26.147,49.095-19.107,66.967c7.041,17.872,79.07,15.164,88.277,8.123s5.416-58.49,1.625-83.944
							C1047.371,3315.271,1053.328,3281.693,1078.782,3277.361z" class="colordd8d5e svgShape"></path></g></g></g></g><g fill="#000000" class="color000000 svgShape"><circle cx="3955.669" cy="3419.132" r="73.412" fill="#4c3b7f" transform="rotate(-25.042 3955.967 3419.163)" class="color3b4e7f svgShape"></circle><path fill="#574391" d="M3954.311,3354.193c0,0,32.125-7.146,55.506,20.553c23.381,27.7,11.441,49.338,9.734,51.689
						c-1.707,2.352-2.247-9.031-7.567-22.396c-5.32-13.365-22.385-27.502-36.842-31.295
						C3960.684,3368.951,3939.258,3359.235,3954.311,3354.193z" class="color435991 svgShape"></path><polygon fill="#4c3b7f" points="3985.384 3443.377 3671.536 3434.428 3696.04 3391.351 3995.48 3399.889" class="color3b4e7f svgShape"></polygon><path fill="#574391" d="M3842.671 3410.024c-1.309-.774-2.17-2.214-2.129-3.842.061-2.392 2.05-4.282 4.442-4.22l47.944 1.229c2.391.062 4.281 2.05 4.22 4.442-.062 2.392-2.05 4.281-4.442 4.22l-47.944-1.229C3843.999 3410.604 3843.286 3410.388 3842.671 3410.024zM3744.825 3407.518c-1.309-.774-2.17-2.214-2.129-3.843.062-2.392 2.05-4.281 4.442-4.22l62.418 1.599c2.39.061 4.282 2.049 4.22 4.442-.061 2.392-2.05 4.281-4.442 4.22l-62.418-1.599C3746.153 3408.098 3745.44 3407.882 3744.825 3407.518z" class="color435991 svgShape"></path><circle cx="3644.262" cy="3416.168" r="77.986" fill="#4c3b7f" transform="rotate(-45.001 3644.24 3416.227)" class="color3b4e7f svgShape"></circle><path fill="#574391" d="M3596.389,3402.737c17.116-32.924,58.72-45.464,91.146-27.421
						c5.762,3.206,10.598-4.839-12.395-17.918c-31.278-17.792-71.48-6.615-89.629,24.456
						C3570.067,3408.295,3586.502,3421.756,3596.389,3402.737z" class="color435991 svgShape"></path><g fill="#000000" class="color000000 svgShape"><circle cx="4432.129" cy="3420.218" r="73.412" fill="#4c3b7f" transform="rotate(-26.475 4431.669 3420.05)" class="color3b4e7f svgShape"></circle><path fill="#574391" d="M4429.152,3355.332c0,0,31.938-7.944,56.001,19.164s12.667,49.037,11.019,51.431
						c-1.648,2.394-2.472-8.973-8.123-22.2c-5.652-13.228-23.063-26.936-37.61-30.368
						C4435.892,3369.927,4414.23,3360.748,4429.152,3355.332z" class="color435991 svgShape"></path><polygon fill="#4c3b7f" points="4462.439 3443.714 4148.465 3442.59 4171.889 3398.915 4471.448 3399.988" class="color3b4e7f svgShape"></polygon><path fill="#574391" d="M4318.939 3413.929c-1.328-.741-2.225-2.16-2.224-3.788.001-2.393 1.943-4.332 4.335-4.33l47.959.033c2.392.002 4.332 1.942 4.33 4.336-.002 2.393-1.943 4.331-4.335 4.33l-47.959-.033C4320.281 3414.475 4319.563 3414.277 4318.939 3413.929zM4221.062 3413.862c-1.328-.741-2.225-2.16-2.224-3.788.002-2.393 1.943-4.331 4.335-4.33l62.439.042c2.391.001 4.332 1.942 4.33 4.336-.002 2.392-1.943 4.331-4.335 4.33l-62.438-.043C4222.403 3414.409 4221.685 3414.21 4221.062 3413.862z" class="color435991 svgShape"></path><circle cx="4120.746" cy="3425.016" r="77.986" fill="#4c3b7f" transform="rotate(-45.001 4120.726 3425.08)" class="color3b4e7f svgShape"></circle><path fill="#574391" d="M4072.552,3412.782c16.29-33.34,57.569-46.913,90.434-29.685
						c5.84,3.061,10.474-5.102-12.837-17.603c-31.711-17.007-71.623-4.832-88.991,26.682
						C4046.377,3418.994,4063.142,3432.041,4072.552,3412.782z" class="color435991 svgShape"></path></g></g><g fill="#000000" class="color000000 svgShape"><path fill="#d5ceea" d="M3068.287,3514.676c-3.443,0.358-9.535-31.099-13.606-70.26
						c-4.071-39.162-4.58-71.199-1.137-71.557s9.535,31.099,13.606,70.26C3071.221,3482.281,3071.73,3514.318,3068.287,3514.676z" class="coloread6ce svgShape"></path><path fill="#c5c2cc" d="M3068.287,3514.676l-14.743-141.816l-234.326,42.768c-2.532,0.247-2.154,23.391,0.787,51.685
						c2.941,28.292,7.333,51.021,9.807,50.763C2829.833,3518.073,3068.287,3514.676,3068.287,3514.676z" class="colorc8c2cc svgShape"></path><path fill="#d6d4dd" d="M2883.307,3403.93c-1.448,21.116-2.128,64.588,10.438,113.232l105.404-1.502
						c-17.395-59.992-13.974-113.939-12.289-130.631L2883.307,3403.93z" class="colordad4dd svgShape"></path><path fill="#b6b2c2" d="M3068.509,3516.812c-3.547,0.369-9.822-32.036-14.015-72.378
						c-4.194-40.341-4.719-73.344-1.172-73.712c0.812-0.084,9.216-0.958,9.216-0.958s1.567,42.231,4.8,73.335
						c3.34,32.132,10.387,72.755,10.387,72.755S3069.231,3516.737,3068.509,3516.812z" class="colorbcb2c2 svgShape"></path><path fill="#d6d4dd" d="M3077.725,3515.854c-3.547,0.369-9.822-32.036-14.016-72.378
							c-4.194-40.342-4.718-73.344-1.171-73.713c3.547-0.369,9.822,32.036,14.015,72.377
							C3080.747,3482.484,3081.271,3515.486,3077.725,3515.854z" class="colordad4dd svgShape"></path><path fill="#b6b2c2" d="M3077.966,3498.974c-2.737,0.284-7.58-24.723-10.816-55.855
							c-3.237-31.132-3.641-56.6-0.904-56.885c0.544-0.056,6.313-0.656,6.313-0.656s1.91,31.567,4.503,56.51
							c2.395,23.036,7.217,56.229,7.217,56.229S3078.678,3498.9,3077.966,3498.974z" class="colorbcb2c2 svgShape"></path><path fill="#d6d4dd" d="M3084.279,3498.318c-2.737,0.284-7.58-24.723-10.816-55.855
								c-3.236-31.132-3.642-56.6-0.904-56.885c2.738-0.285,7.58,24.722,10.816,55.854
								C3086.612,3472.564,3087.017,3498.033,3084.279,3498.318z" class="colordad4dd svgShape"></path><path fill="#c6c1d6" d="M3083.162,3487.566c-1.477,0.154-4.797-20.146-7.417-45.341s-3.545-45.743-2.068-45.896
							c1.477-0.154,4.798,20.146,7.417,45.34C3083.713,3466.864,3084.638,3487.413,3083.162,3487.566z" class="colorcfc1d6 svgShape"></path></g><g fill="#000000" class="color000000 svgShape"><path fill="#6f47e2" d="M1726.055 494.896l-13.385 92.122h-192.118v130.703h167.709v90.547h-167.709v139.364h205.503v92.909h-334.631V494.896H1726.055zM1985.087 831.889h-50.392v208.652h-129.128V494.896H1984.3c74.529 0 130.567 13.656 168.103 40.943 37.523 27.299 56.296 69.03 56.296 125.191 0 35.173-8.402 64.441-25.196 87.791-16.805 23.363-43.305 43.182-79.524 59.446l138.577 232.273h-145.663L1985.087 831.889zM1934.695 742.917h54.329c28.862 0 50.514-6.557 64.958-19.684 14.431-13.114 21.652-33.856 21.652-62.202 0-26.242-7.75-45.397-23.227-57.478-15.489-12.069-39.245-18.109-71.257-18.109h-46.455V742.917zM2470.883 831.889h-50.392v208.652h-129.128V494.896h178.732c74.529 0 130.568 13.656 168.103 40.943 37.522 27.299 56.297 69.03 56.297 125.191 0 35.173-8.403 64.441-25.196 87.791-16.805 23.363-43.305 43.182-79.523 59.446l138.576 232.273h-145.663L2470.883 831.889zM2420.492 742.917h54.329c28.862 0 50.514-6.557 64.958-19.684 14.431-13.114 21.653-33.856 21.653-62.202 0-26.242-7.75-45.397-23.228-57.478-15.489-12.069-39.245-18.109-71.257-18.109h-46.455V742.917zM3168.887 556.311c43.306 49.875 64.958 120.208 64.958 211.014 0 59.323-9.842 110.502-29.526 153.536-19.684 43.047-48.029 75.981-85.035 98.814-37.007 22.833-80.976 34.25-131.884 34.25-50.921 0-94.755-11.294-131.49-33.857-36.748-22.563-64.958-55.238-84.642-98.027-19.685-42.776-29.526-94.349-29.526-154.717 0-58.782 9.842-109.703 29.526-152.749 19.684-43.035 47.894-75.981 84.642-98.814 36.735-22.834 80.569-34.25 131.49-34.25C3065.078 481.511 3125.582 506.448 3168.887 556.311zM2904.332 621.269c-18.109 30.19-27.164 78.872-27.164 146.057 0 67.197 9.178 116.013 27.558 146.45 18.368 30.449 45.926 45.667 82.674 45.667 37.793 0 65.745-15.083 83.854-45.273 18.109-30.178 27.164-79.13 27.164-146.844 0-67.714-9.19-116.53-27.558-146.45-18.381-29.92-46.196-44.88-83.461-44.88C2950.122 575.995 2922.441 591.09 2904.332 621.269zM3490.521 831.889h-50.392v208.652h-129.128V494.896h178.732c74.529 0 130.567 13.656 168.103 40.943 37.522 27.299 56.297 69.03 56.297 125.191 0 35.173-8.403 64.441-25.196 87.791-16.805 23.363-43.305 43.182-79.523 59.446l138.576 232.273h-145.663L3490.521 831.889zM3440.13 742.917h54.328c28.862 0 50.515-6.557 64.958-19.684 14.431-13.114 21.652-33.856 21.652-62.202 0-26.242-7.75-45.397-23.228-57.478-15.488-12.069-39.245-18.109-71.256-18.109h-46.455V742.917z" class="colore25a47 svgShape"></path></g></svg>