<svg width="122" height="147" viewBox="0 0 122 147" fill="none" xmlns="http://www.w3.org/2000/svg">
<path d="M57.6408 81.6533C57.4798 81.6533 57.4798 81.6533 57.3188 81.6533L0.322036 48.8077C0.161028 48.6467 0 48.4857 0 48.3247C0 48.1637 0.161028 48.0027 0.322036 47.8417L56.9968 14.9961C57.1579 14.8351 57.3188 14.8351 57.6408 14.9961L114.638 47.8417C114.799 48.0027 114.96 48.1637 114.96 48.3247C114.96 48.4857 114.799 48.6467 114.638 48.8077L57.9629 81.6533C57.8018 81.6533 57.6408 81.6533 57.6408 81.6533ZM1.77105 48.1637L57.6408 80.3653L113.189 48.1637L57.3188 15.9621L1.77105 48.1637Z" fill="black"/>
<path d="M57.3188 146.701C57.1578 146.701 57.1579 146.701 56.9968 146.701L0.322036 114.016C0.161028 113.855 0 113.694 0 113.533V48.4858C0 48.3248 0.161028 48.1638 0.322036 48.0027C0.483043 47.8417 0.643992 47.8417 0.966008 48.0027L57.6408 80.6874C57.8018 80.8484 57.9629 81.0094 57.9629 81.1704V146.218C57.9629 146.379 57.8018 146.54 57.6408 146.701C57.6408 146.701 57.4798 146.701 57.3188 146.701ZM1.12708 113.05L56.6748 145.091V81.3314L1.12708 49.2908V113.05Z" fill="black"/>
<path d="M57.48 146.7C57.319 146.7 57.319 146.7 57.158 146.7C56.997 146.539 56.8359 146.378 56.8359 146.217V81.1701C56.8359 81.009 56.997 80.8481 57.158 80.687L113.833 48.0024C113.994 47.8414 114.155 47.8414 114.477 48.0024C114.638 48.1634 114.799 48.3245 114.799 48.4855V113.533C114.799 113.694 114.638 113.855 114.477 114.016L57.802 146.7C57.641 146.7 57.641 146.7 57.48 146.7ZM58.124 81.4921V145.251L113.672 113.211V49.4515L58.124 81.4921Z" fill="black"/>
<path d="M64.4047 66.5182L7.08594 33.5116L64.0827 0.666016L121.402 33.6726L64.4047 66.5182Z" fill="#DFF265"/>
</svg>
