<svg width="213" height="197" viewBox="0 0 213 197" fill="none" xmlns="http://www.w3.org/2000/svg">
<path fill-rule="evenodd" clip-rule="evenodd" d="M102.14 3.64572C102.14 5.6592 100.509 7.29144 98.4968 7.29144C96.4847 7.29144 94.8535 5.6592 94.8535 3.64572C94.8535 1.63224 96.4847 0 98.4968 0C100.509 0 102.14 1.63224 102.14 3.64572ZM98.4997 21.2232C100.799 21.2232 102.663 19.3578 102.663 17.0567C102.663 14.7555 100.799 12.8901 98.4997 12.8901C96.2001 12.8901 94.3359 14.7555 94.3359 17.0567C94.3359 19.3578 96.2001 21.2232 98.4997 21.2232ZM103.185 31.3792C103.185 33.968 101.088 36.0666 98.5006 36.0666C95.9136 36.0666 93.8164 33.968 93.8164 31.3792C93.8164 28.7905 95.9136 26.6919 98.5006 26.6919C101.088 26.6919 103.185 28.7905 103.185 31.3792ZM98.5004 51.8215C101.303 51.8215 103.575 49.548 103.575 46.7435C103.575 43.939 101.303 41.6655 98.5004 41.6655C95.6978 41.6655 93.4258 43.939 93.4258 46.7435C93.4258 49.548 95.6978 51.8215 98.5004 51.8215ZM104.092 63.0192C104.092 66.1114 101.587 68.618 98.4973 68.618C95.4072 68.618 92.9023 66.1114 92.9023 63.0192C92.9023 59.9271 95.4072 57.4204 98.4973 57.4204C101.587 57.4204 104.092 59.9271 104.092 63.0192ZM98.5003 86.456C101.878 86.456 104.616 83.7162 104.616 80.3364C104.616 76.9566 101.878 74.2168 98.5003 74.2168C95.1228 74.2168 92.3848 76.9566 92.3848 80.3364C92.3848 83.7162 95.1228 86.456 98.5003 86.456ZM98.4981 104.945C102.091 104.945 105.004 102.031 105.004 98.435C105.004 94.8395 102.091 91.9248 98.4981 91.9248C94.905 91.9248 91.9922 94.8395 91.9922 98.435C91.9922 102.031 94.905 104.945 98.4981 104.945ZM80.8041 73.4357C83.8942 73.4357 86.3992 70.929 86.3992 67.8368C86.3992 64.7447 83.8942 62.238 80.8041 62.238C77.714 62.238 75.209 64.7447 75.209 67.8368C75.209 70.929 77.714 73.4357 80.8041 73.4357ZM77.6785 53.6444C77.6785 56.4489 75.4065 58.7224 72.6039 58.7224C69.8012 58.7224 67.5293 56.4489 67.5293 53.6444C67.5293 50.8399 69.8012 48.5664 72.6039 48.5664C75.4065 48.5664 77.6785 50.8399 77.6785 53.6444ZM64.9304 45.0508C67.5174 45.0508 69.6146 42.9522 69.6146 40.3634C69.6146 37.7746 67.5174 35.676 64.9304 35.676C62.3433 35.676 60.2461 37.7746 60.2461 40.3634C60.2461 42.9522 62.3433 45.0508 64.9304 45.0508ZM61.9352 27.9942C61.9352 30.2953 60.071 32.1607 57.7714 32.1607C55.4718 32.1607 53.6076 30.2953 53.6076 27.9942C53.6076 25.6931 55.4718 23.8276 57.7714 23.8276C60.071 23.8276 61.9352 25.6931 61.9352 27.9942ZM51.0046 19.9214C53.0168 19.9214 54.648 18.2891 54.648 16.2756C54.648 14.2622 53.0168 12.6299 51.0046 12.6299C48.9925 12.6299 47.3613 14.2622 47.3613 16.2756C47.3613 18.2891 48.9925 19.9214 51.0046 19.9214ZM88.8678 89.4507C88.8678 92.8304 86.1298 95.5703 82.7523 95.5703C79.3748 95.5703 76.6367 92.8304 76.6367 89.4507C76.6367 86.0709 79.3748 83.3311 82.7523 83.3311C86.1298 83.3311 88.8678 86.0709 88.8678 89.4507ZM67.7924 86.3258C70.8824 86.3258 73.3874 83.8191 73.3874 80.727C73.3874 77.6349 70.8824 75.1282 67.7924 75.1282C64.7023 75.1282 62.1973 77.6349 62.1973 80.727C62.1973 83.8191 64.7023 86.3258 67.7924 86.3258ZM58.8114 72.6542C58.8114 75.4586 56.5394 77.7321 53.7368 77.7321C50.9342 77.7321 48.6622 75.4586 48.6622 72.6542C48.6622 69.8497 50.9342 67.5762 53.7368 67.5762C56.5394 67.5762 58.8114 69.8497 58.8114 72.6542ZM40.4674 69.6597C43.0545 69.6597 45.1517 67.5611 45.1517 64.9723C45.1517 62.3835 43.0545 60.2849 40.4674 60.2849C37.8804 60.2849 35.7832 62.3835 35.7832 64.9723C35.7832 67.5611 37.8804 69.6597 40.4674 69.6597ZM32.1401 57.8109C32.1401 60.112 30.2759 61.9774 27.9763 61.9774C25.6767 61.9774 23.8125 60.112 23.8125 57.8109C23.8125 55.5097 25.6767 53.6443 27.9763 53.6443C30.2759 53.6443 32.1401 55.5097 32.1401 57.8109ZM16.3953 54.686C18.4074 54.686 20.0386 53.0537 20.0386 51.0403C20.0386 49.0268 18.4074 47.3945 16.3953 47.3945C14.3831 47.3945 12.752 49.0268 12.752 51.0403C12.752 53.0537 14.3831 54.686 16.3953 54.686ZM68.7019 98.435C68.7019 101.527 66.1969 104.034 63.1068 104.034C60.0167 104.034 57.5117 101.527 57.5117 98.435C57.5117 95.3428 60.0167 92.8362 63.1068 92.8362C66.1969 92.8362 68.7019 95.3428 68.7019 98.435ZM46.7133 103.513C49.5159 103.513 51.7879 101.239 51.7879 98.4349C51.7879 95.6304 49.5159 93.3569 46.7133 93.3569C43.9106 93.3569 41.6387 95.6304 41.6387 98.4349C41.6387 101.239 43.9106 103.513 46.7133 103.513ZM36.1751 98.4349C36.1751 101.024 34.0779 103.122 31.4909 103.122C28.9039 103.122 26.8066 101.024 26.8066 98.4349C26.8066 95.8461 28.9039 93.7476 31.4909 93.7476C34.0779 93.7476 36.1751 95.8461 36.1751 98.4349ZM17.0427 102.601C19.3423 102.601 21.2065 100.736 21.2065 98.4346C21.2065 96.1335 19.3423 94.2681 17.0427 94.2681C14.7431 94.2681 12.8789 96.1335 12.8789 98.4346C12.8789 100.736 14.7431 102.601 17.0427 102.601ZM7.28661 98.4349C7.28661 100.448 5.65544 102.081 3.64329 102.081C1.63115 102.081 0 100.448 0 98.4349C0 96.4214 1.63115 94.7892 3.64329 94.7892C5.65544 94.7892 7.28661 96.4214 7.28661 98.4349ZM82.7523 113.669C86.1298 113.669 88.8678 110.929 88.8678 107.549C88.8678 104.169 86.1298 101.429 82.7523 101.429C79.3748 101.429 76.6367 104.169 76.6367 107.549C76.6367 110.929 79.3748 113.669 82.7523 113.669ZM73.3874 116.142C73.3874 119.235 70.8824 121.741 67.7924 121.741C64.7023 121.741 62.1973 119.235 62.1973 116.142C62.1973 113.05 64.7023 110.544 67.7924 110.544C70.8824 110.544 73.3874 113.05 73.3874 116.142ZM53.7368 129.424C56.5394 129.424 58.8114 127.15 58.8114 124.346C58.8114 121.541 56.5394 119.268 53.7368 119.268C50.9342 119.268 48.6622 121.541 48.6622 124.346C48.6622 127.15 50.9342 129.424 53.7368 129.424ZM45.1517 132.028C45.1517 134.616 43.0545 136.715 40.4674 136.715C37.8804 136.715 35.7832 134.616 35.7832 132.028C35.7832 129.439 37.8804 127.34 40.4674 127.34C43.0545 127.34 45.1517 129.439 45.1517 132.028ZM27.9763 143.356C30.2759 143.356 32.1401 141.49 32.1401 139.189C32.1401 136.888 30.2759 135.022 27.9763 135.022C25.6767 135.022 23.8125 136.888 23.8125 139.189C23.8125 141.49 25.6767 143.356 27.9763 143.356ZM20.0386 145.96C20.0386 147.973 18.4074 149.605 16.3953 149.605C14.3831 149.605 12.752 147.973 12.752 145.96C12.752 143.946 14.3831 142.314 16.3953 142.314C18.4074 142.314 20.0386 143.946 20.0386 145.96ZM80.8041 134.762C83.8942 134.762 86.3992 132.255 86.3992 129.163C86.3992 126.071 83.8942 123.564 80.8041 123.564C77.714 123.564 75.209 126.071 75.209 129.163C75.209 132.255 77.714 134.762 80.8041 134.762ZM77.6785 143.225C77.6785 146.03 75.4065 148.303 72.6039 148.303C69.8012 148.303 67.5293 146.03 67.5293 143.225C67.5293 140.421 69.8012 138.147 72.6039 138.147C75.4065 138.147 77.6785 140.421 77.6785 143.225ZM64.9304 161.324C67.5174 161.324 69.6146 159.225 69.6146 156.636C69.6146 154.048 67.5174 151.949 64.9304 151.949C62.3433 151.949 60.2461 154.048 60.2461 156.636C60.2461 159.225 62.3433 161.324 64.9304 161.324ZM61.9352 169.006C61.9352 171.307 60.071 173.173 57.7714 173.173C55.4718 173.173 53.6076 171.307 53.6076 169.006C53.6076 166.705 55.4718 164.839 57.7714 164.839C60.071 164.839 61.9352 166.705 61.9352 169.006ZM51.0046 184.37C53.0168 184.37 54.648 182.738 54.648 180.724C54.648 178.711 53.0168 177.079 51.0046 177.079C48.9925 177.079 47.3613 178.711 47.3613 180.724C47.3613 182.738 48.9925 184.37 51.0046 184.37ZM104.616 116.663C104.616 120.043 101.878 122.783 98.5003 122.783C95.1228 122.783 92.3848 120.043 92.3848 116.663C92.3848 113.284 95.1228 110.544 98.5003 110.544C101.878 110.544 104.616 113.284 104.616 116.663ZM98.4973 139.58C101.587 139.58 104.092 137.073 104.092 133.981C104.092 130.889 101.587 128.382 98.4973 128.382C95.4072 128.382 92.9023 130.889 92.9023 133.981C92.9023 137.073 95.4072 139.58 98.4973 139.58ZM103.575 150.256C103.575 153.061 101.303 155.334 98.5004 155.334C95.6978 155.334 93.4258 153.061 93.4258 150.256C93.4258 147.452 95.6978 145.178 98.5004 145.178C101.303 145.178 103.575 147.452 103.575 150.256ZM98.5006 170.308C101.088 170.308 103.185 168.21 103.185 165.621C103.185 163.032 101.088 160.933 98.5006 160.933C95.9136 160.933 93.8164 163.032 93.8164 165.621C93.8164 168.21 95.9136 170.308 98.5006 170.308ZM102.663 179.943C102.663 182.244 100.799 184.11 98.4997 184.11C96.2001 184.11 94.3359 182.244 94.3359 179.943C94.3359 177.642 96.2001 175.777 98.4997 175.777C100.799 175.777 102.663 177.642 102.663 179.943ZM98.4968 197C100.509 197 102.14 195.368 102.14 193.354C102.14 191.341 100.509 189.708 98.4968 189.708C96.4847 189.708 94.8535 191.341 94.8535 193.354C94.8535 195.368 96.4847 197 98.4968 197ZM121.79 129.163C121.79 132.255 119.285 134.762 116.195 134.762C113.105 134.762 110.6 132.255 110.6 129.163C110.6 126.071 113.105 123.564 116.195 123.564C119.285 123.564 121.79 126.071 121.79 129.163ZM124.264 148.303C127.067 148.303 129.339 146.03 129.339 143.225C129.339 140.421 127.067 138.147 124.264 138.147C121.461 138.147 119.189 140.421 119.189 143.225C119.189 146.03 121.461 148.303 124.264 148.303ZM136.624 156.636C136.624 159.225 134.527 161.324 131.94 161.324C129.353 161.324 127.256 159.225 127.256 156.636C127.256 154.048 129.353 151.949 131.94 151.949C134.527 151.949 136.624 154.048 136.624 156.636ZM139.228 173.173C141.528 173.173 143.392 171.307 143.392 169.006C143.392 166.705 141.528 164.839 139.228 164.839C136.929 164.839 135.064 166.705 135.064 169.006C135.064 171.307 136.929 173.173 139.228 173.173ZM149.507 180.724C149.507 182.738 147.876 184.37 145.864 184.37C143.852 184.37 142.221 182.738 142.221 180.724C142.221 178.711 143.852 177.079 145.864 177.079C147.876 177.079 149.507 178.711 149.507 180.724ZM114.246 113.669C117.624 113.669 120.362 110.929 120.362 107.549C120.362 104.169 117.624 101.429 114.246 101.429C110.869 101.429 108.131 104.169 108.131 107.549C108.131 110.929 110.869 113.669 114.246 113.669ZM134.671 116.142C134.671 119.235 132.166 121.741 129.076 121.741C125.985 121.741 123.48 119.235 123.48 116.142C123.48 113.05 125.985 110.544 129.076 110.544C132.166 110.544 134.671 113.05 134.671 116.142ZM143.26 129.424C146.063 129.424 148.335 127.15 148.335 124.346C148.335 121.541 146.063 119.268 143.26 119.268C140.458 119.268 138.186 121.541 138.186 124.346C138.186 127.15 140.458 129.424 143.26 129.424ZM161.216 132.028C161.216 134.616 159.119 136.715 156.532 136.715C153.945 136.715 151.848 134.616 151.848 132.028C151.848 129.439 153.945 127.34 156.532 127.34C159.119 127.34 161.216 129.439 161.216 132.028ZM169.023 143.356C171.323 143.356 173.187 141.49 173.187 139.189C173.187 136.888 171.323 135.022 169.023 135.022C166.724 135.022 164.859 136.888 164.859 139.189C164.859 141.49 166.724 143.356 169.023 143.356ZM184.247 145.96C184.247 147.973 182.616 149.605 180.604 149.605C178.592 149.605 176.961 147.973 176.961 145.96C176.961 143.946 178.592 142.314 180.604 142.314C182.616 142.314 184.247 143.946 184.247 145.96ZM133.894 104.034C136.984 104.034 139.489 101.527 139.489 98.435C139.489 95.3428 136.984 92.8362 133.894 92.8362C130.804 92.8362 128.299 95.3428 128.299 98.435C128.299 101.527 130.804 104.034 133.894 104.034ZM155.231 98.4349C155.231 101.239 152.959 103.513 150.156 103.513C147.354 103.513 145.082 101.239 145.082 98.4349C145.082 95.6304 147.354 93.3569 150.156 93.3569C152.959 93.3569 155.231 95.6304 155.231 98.4349ZM165.512 103.122C168.099 103.122 170.197 101.024 170.197 98.4349C170.197 95.8461 168.099 93.7476 165.512 93.7476C162.925 93.7476 160.828 95.8461 160.828 98.4349C160.828 101.024 162.925 103.122 165.512 103.122ZM183.988 98.4346C183.988 100.736 182.124 102.601 179.824 102.601C177.524 102.601 175.66 100.736 175.66 98.4346C175.66 96.1335 177.524 94.2681 179.824 94.2681C182.124 94.2681 183.988 96.1335 183.988 98.4346ZM193.356 102.081C195.368 102.081 197 100.449 197 98.435C197 96.4215 195.368 94.7893 193.356 94.7893C191.344 94.7893 189.713 96.4215 189.713 98.435C189.713 100.449 191.344 102.081 193.356 102.081ZM120.362 89.4507C120.362 92.8304 117.624 95.5703 114.246 95.5703C110.869 95.5703 108.131 92.8304 108.131 89.4507C108.131 86.0709 110.869 83.3311 114.246 83.3311C117.624 83.3311 120.362 86.0709 120.362 89.4507ZM129.076 86.3258C132.166 86.3258 134.671 83.8191 134.671 80.727C134.671 77.6349 132.166 75.1282 129.076 75.1282C125.985 75.1282 123.48 77.6349 123.48 80.727C123.48 83.8191 125.985 86.3258 129.076 86.3258ZM148.335 72.6542C148.335 75.4586 146.063 77.7321 143.26 77.7321C140.458 77.7321 138.186 75.4586 138.186 72.6542C138.186 69.8497 140.458 67.5762 143.26 67.5762C146.063 67.5762 148.335 69.8497 148.335 72.6542ZM156.532 69.6597C159.119 69.6597 161.216 67.5611 161.216 64.9723C161.216 62.3835 159.119 60.2849 156.532 60.2849C153.945 60.2849 151.848 62.3835 151.848 64.9723C151.848 67.5611 153.945 69.6597 156.532 69.6597ZM173.187 57.8109C173.187 60.112 171.323 61.9774 169.023 61.9774C166.724 61.9774 164.859 60.112 164.859 57.8109C164.859 55.5097 166.724 53.6443 169.023 53.6443C171.323 53.6443 173.187 55.5097 173.187 57.8109ZM180.604 54.686C182.616 54.686 184.247 53.0537 184.247 51.0403C184.247 49.0268 182.616 47.3945 180.604 47.3945C178.592 47.3945 176.961 49.0268 176.961 51.0403C176.961 53.0537 178.592 54.686 180.604 54.686ZM140.136 61.8476C140.136 64.652 137.864 66.9255 135.061 66.9255C132.258 66.9255 129.986 64.652 129.986 61.8476C129.986 59.0431 132.258 56.7695 135.061 56.7695C137.864 56.7695 140.136 59.0431 140.136 61.8476ZM145.862 55.7278C148.449 55.7278 150.546 53.6292 150.546 51.0404C150.546 48.4516 148.449 46.353 145.862 46.353C143.275 46.353 141.178 48.4516 141.178 51.0404C141.178 53.6292 143.275 55.7278 145.862 55.7278ZM160.175 40.8843C160.175 43.1855 158.311 45.0509 156.011 45.0509C153.712 45.0509 151.848 43.1855 151.848 40.8843C151.848 38.5832 153.712 36.7178 156.011 36.7178C158.311 36.7178 160.175 38.5832 160.175 40.8843ZM165.508 35.0251C167.521 35.0251 169.152 33.3928 169.152 31.3794C169.152 29.3659 167.521 27.7336 165.508 27.7336C163.496 27.7336 161.865 29.3659 161.865 31.3794C161.865 33.3928 163.496 35.0251 165.508 35.0251ZM129.339 53.6444C129.339 56.4489 127.067 58.7224 124.264 58.7224C121.461 58.7224 119.189 56.4489 119.189 53.6444C119.189 50.8399 121.461 48.5664 124.264 48.5664C127.067 48.5664 129.339 50.8399 129.339 53.6444ZM131.94 45.0508C134.527 45.0508 136.624 42.9522 136.624 40.3634C136.624 37.7746 134.527 35.676 131.94 35.676C129.353 35.676 127.256 37.7746 127.256 40.3634C127.256 42.9522 129.353 45.0508 131.94 45.0508ZM143.392 27.9942C143.392 30.2953 141.528 32.1607 139.228 32.1607C136.929 32.1607 135.064 30.2953 135.064 27.9942C135.064 25.6931 136.929 23.8276 139.228 23.8276C141.528 23.8276 143.392 25.6931 143.392 27.9942ZM145.864 19.9214C147.876 19.9214 149.507 18.2891 149.507 16.2756C149.507 14.2622 147.876 12.6299 145.864 12.6299C143.852 12.6299 142.221 14.2622 142.221 16.2756C142.221 18.2891 143.852 19.9214 145.864 19.9214ZM116.977 48.5663C116.977 51.3708 114.705 53.6442 111.903 53.6442C109.1 53.6442 106.828 51.3708 106.828 48.5663C106.828 45.7618 109.1 43.4883 111.903 43.4883C114.705 43.4883 116.977 45.7618 116.977 48.5663ZM115.803 38.4104C118.39 38.4104 120.488 36.3118 120.488 33.723C120.488 31.1343 118.39 29.0356 115.803 29.0356C113.216 29.0356 111.119 31.1343 111.119 33.723C111.119 36.3118 113.216 38.4104 115.803 38.4104ZM123.741 19.791C123.741 22.0922 121.877 23.9576 119.578 23.9576C117.278 23.9576 115.414 22.0922 115.414 19.791C115.414 17.4899 117.278 15.6245 119.578 15.6245C121.877 15.6245 123.741 17.4899 123.741 19.791ZM122.96 10.4162C124.972 10.4162 126.603 8.78396 126.603 6.77048C126.603 4.75699 124.972 3.12476 122.96 3.12476C120.948 3.12476 119.316 4.75699 119.316 6.77048C119.316 8.78396 120.948 10.4162 122.96 10.4162ZM90.1726 48.5663C90.1726 51.3708 87.9007 53.6442 85.098 53.6442C82.2954 53.6442 80.0234 51.3708 80.0234 48.5663C80.0234 45.7618 82.2954 43.4883 85.098 43.4883C87.9007 43.4883 90.1726 45.7618 90.1726 48.5663ZM81.0632 38.4104C83.6502 38.4104 85.7474 36.3118 85.7474 33.723C85.7474 31.1343 83.6502 29.0356 81.0632 29.0356C78.4761 29.0356 76.3789 31.1343 76.3789 33.723C76.3789 36.3118 78.4761 38.4104 81.0632 38.4104ZM81.5852 19.791C81.5852 22.0922 79.721 23.9576 77.4214 23.9576C75.1218 23.9576 73.2576 22.0922 73.2576 19.791C73.2576 17.4899 75.1218 15.6245 77.4214 15.6245C79.721 15.6245 81.5852 17.4899 81.5852 19.791ZM73.9071 10.4162C75.9192 10.4162 77.5504 8.78396 77.5504 6.77048C77.5504 4.75699 75.9192 3.12476 73.9071 3.12476C71.8949 3.12476 70.2638 4.75699 70.2638 6.77048C70.2638 8.78396 71.8949 10.4162 73.9071 10.4162ZM67.0106 61.8476C67.0106 64.652 64.7386 66.9255 61.9359 66.9255C59.1333 66.9255 56.8613 64.652 56.8613 61.8476C56.8613 59.0431 59.1333 56.7695 61.9359 56.7695C64.7386 56.7695 67.0106 59.0431 67.0106 61.8476ZM51.0084 55.7278C53.5954 55.7278 55.6926 53.6292 55.6926 51.0404C55.6926 48.4516 53.5954 46.353 51.0084 46.353C48.4214 46.353 46.3241 48.4516 46.3241 51.0404C46.3241 53.6292 48.4214 55.7278 51.0084 55.7278ZM45.019 40.8843C45.019 43.1855 43.1548 45.0509 40.8552 45.0509C38.5556 45.0509 36.6914 43.1855 36.6914 40.8843C36.6914 38.5832 38.5556 36.7178 40.8552 36.7178C43.1548 36.7178 45.019 38.5832 45.019 40.8843ZM31.3601 35.0251C33.3723 35.0251 35.0034 33.3928 35.0034 31.3794C35.0034 29.3659 33.3723 27.7336 31.3601 27.7336C29.348 27.7336 27.7168 29.3659 27.7168 31.3794C27.7168 33.3928 29.348 35.0251 31.3601 35.0251ZM53.6063 85.1539C53.6063 87.9584 51.3343 90.2319 48.5316 90.2319C45.729 90.2319 43.457 87.9584 43.457 85.1539C43.457 82.3494 45.729 80.0759 48.5316 80.0759C51.3343 80.0759 53.6063 82.3494 53.6063 85.1539ZM33.7018 85.8049C36.2889 85.8049 38.3861 83.7063 38.3861 81.1176C38.3861 78.5288 36.2889 76.4302 33.7018 76.4302C31.1148 76.4302 29.0176 78.5288 29.0176 81.1176C29.0176 83.7063 31.1148 85.8049 33.7018 85.8049ZM23.9408 77.3416C23.9408 79.6427 22.0767 81.5081 19.7771 81.5081C17.4775 81.5081 15.6133 79.6427 15.6133 77.3416C15.6133 75.0405 17.4775 73.175 19.7771 73.175C22.0767 73.175 23.9408 75.0405 23.9408 77.3416ZM6.8972 77.602C8.90935 77.602 10.5405 75.9697 10.5405 73.9563C10.5405 71.9428 8.90935 70.3105 6.8972 70.3105C4.88506 70.3105 3.25391 71.9428 3.25391 73.9563C3.25391 75.9697 4.88506 77.602 6.8972 77.602ZM53.6063 111.846C53.6063 114.651 51.3343 116.924 48.5316 116.924C45.729 116.924 43.457 114.651 43.457 111.846C43.457 109.042 45.729 106.768 48.5316 106.768C51.3343 106.768 53.6063 109.042 53.6063 111.846ZM33.7018 120.57C36.2889 120.57 38.3861 118.471 38.3861 115.882C38.3861 113.293 36.2889 111.195 33.7018 111.195C31.1148 111.195 29.0176 113.293 29.0176 115.882C29.0176 118.471 31.1148 120.57 33.7018 120.57ZM23.9408 119.528C23.9408 121.829 22.0767 123.695 19.7771 123.695C17.4775 123.695 15.6133 121.829 15.6133 119.528C15.6133 117.227 17.4775 115.362 19.7771 115.362C22.0767 115.362 23.9408 117.227 23.9408 119.528ZM6.8972 126.689C8.90935 126.689 10.5405 125.057 10.5405 123.043C10.5405 121.03 8.90935 119.398 6.8972 119.398C4.88506 119.398 3.25391 121.03 3.25391 123.043C3.25391 125.057 4.88506 126.689 6.8972 126.689ZM67.0106 135.023C67.0106 137.827 64.7386 140.101 61.9359 140.101C59.1333 140.101 56.8613 137.827 56.8613 135.023C56.8613 132.218 59.1333 129.945 61.9359 129.945C64.7386 129.945 67.0106 132.218 67.0106 135.023ZM51.0084 150.647C53.5954 150.647 55.6926 148.548 55.6926 145.96C55.6926 143.371 53.5954 141.272 51.0084 141.272C48.4214 141.272 46.3241 143.371 46.3241 145.96C46.3241 148.548 48.4214 150.647 51.0084 150.647ZM45.019 156.116C45.019 158.417 43.1548 160.282 40.8552 160.282C38.5556 160.282 36.6914 158.417 36.6914 156.116C36.6914 153.814 38.5556 151.949 40.8552 151.949C43.1548 151.949 45.019 153.814 45.019 156.116ZM31.3601 169.266C33.3723 169.266 35.0034 167.634 35.0034 165.62C35.0034 163.607 33.3723 161.975 31.3601 161.975C29.348 161.975 27.7168 163.607 27.7168 165.62C27.7168 167.634 29.348 169.266 31.3601 169.266ZM90.1726 148.434C90.1726 151.238 87.9007 153.512 85.098 153.512C82.2954 153.512 80.0234 151.238 80.0234 148.434C80.0234 145.629 82.2954 143.356 85.098 143.356C87.9007 143.356 90.1726 145.629 90.1726 148.434ZM81.0632 167.964C83.6502 167.964 85.7474 165.866 85.7474 163.277C85.7474 160.688 83.6502 158.59 81.0632 158.59C78.4761 158.59 76.3789 160.688 76.3789 163.277C76.3789 165.866 78.4761 167.964 81.0632 167.964ZM81.5852 177.209C81.5852 179.51 79.721 181.375 77.4214 181.375C75.1218 181.375 73.2576 179.51 73.2576 177.209C73.2576 174.907 75.1218 173.042 77.4214 173.042C79.721 173.042 81.5852 174.907 81.5852 177.209ZM73.9071 193.745C75.9192 193.745 77.5504 192.113 77.5504 190.099C77.5504 188.086 75.9192 186.453 73.9071 186.453C71.8949 186.453 70.2638 188.086 70.2638 190.099C70.2638 192.113 71.8949 193.745 73.9071 193.745ZM116.977 148.434C116.977 151.238 114.705 153.512 111.903 153.512C109.1 153.512 106.828 151.238 106.828 148.434C106.828 145.629 109.1 143.356 111.903 143.356C114.705 143.356 116.977 145.629 116.977 148.434ZM115.803 167.964C118.39 167.964 120.488 165.866 120.488 163.277C120.488 160.688 118.39 158.59 115.803 158.59C113.216 158.59 111.119 160.688 111.119 163.277C111.119 165.866 113.216 167.964 115.803 167.964ZM123.741 177.209C123.741 179.51 121.877 181.375 119.578 181.375C117.278 181.375 115.414 179.51 115.414 177.209C115.414 174.907 117.278 173.042 119.578 173.042C121.877 173.042 123.741 174.907 123.741 177.209ZM122.96 193.745C124.972 193.745 126.603 192.113 126.603 190.099C126.603 188.086 124.972 186.453 122.96 186.453C120.948 186.453 119.316 188.086 119.316 190.099C119.316 192.113 120.948 193.745 122.96 193.745ZM140.136 135.023C140.136 137.827 137.864 140.101 135.061 140.101C132.258 140.101 129.986 137.827 129.986 135.023C129.986 132.218 132.258 129.945 135.061 129.945C137.864 129.945 140.136 132.218 140.136 135.023ZM145.862 150.647C148.449 150.647 150.546 148.548 150.546 145.96C150.546 143.371 148.449 141.272 145.862 141.272C143.275 141.272 141.178 143.371 141.178 145.96C141.178 148.548 143.275 150.647 145.862 150.647ZM160.175 156.116C160.175 158.417 158.311 160.282 156.011 160.282C153.712 160.282 151.848 158.417 151.848 156.116C151.848 153.814 153.712 151.949 156.011 151.949C158.311 151.949 160.175 153.814 160.175 156.116ZM165.508 169.266C167.521 169.266 169.152 167.634 169.152 165.62C169.152 163.607 167.521 161.975 165.508 161.975C163.496 161.975 161.865 163.607 161.865 165.62C161.865 167.634 163.496 169.266 165.508 169.266ZM153.538 111.846C153.538 114.651 151.266 116.924 148.463 116.924C145.661 116.924 143.389 114.651 143.389 111.846C143.389 109.042 145.661 106.768 148.463 106.768C151.266 106.768 153.538 109.042 153.538 111.846ZM163.169 120.57C165.756 120.57 167.853 118.471 167.853 115.882C167.853 113.293 165.756 111.195 163.169 111.195C160.582 111.195 158.484 113.293 158.484 115.882C158.484 118.471 160.582 120.57 163.169 120.57ZM181.253 119.528C181.253 121.829 179.389 123.695 177.09 123.695C174.79 123.695 172.926 121.829 172.926 119.528C172.926 117.227 174.79 115.362 177.09 115.362C179.389 115.362 181.253 117.227 181.253 119.528ZM190.104 126.689C192.116 126.689 193.748 125.057 193.748 123.043C193.748 121.03 192.116 119.398 190.104 119.398C188.092 119.398 186.461 121.03 186.461 123.043C186.461 125.057 188.092 126.689 190.104 126.689ZM153.538 85.1539C153.538 87.9584 151.266 90.2319 148.463 90.2319C145.661 90.2319 143.389 87.9584 143.389 85.1539C143.389 82.3494 145.661 80.0759 148.463 80.0759C151.266 80.0759 153.538 82.3494 153.538 85.1539ZM163.169 85.8049C165.756 85.8049 167.853 83.7063 167.853 81.1176C167.853 78.5288 165.756 76.4302 163.169 76.4302C160.582 76.4302 158.484 78.5288 158.484 81.1176C158.484 83.7063 160.582 85.8049 163.169 85.8049ZM181.253 77.3416C181.253 79.6427 179.389 81.5081 177.09 81.5081C174.79 81.5081 172.926 79.6427 172.926 77.3416C172.926 75.0405 174.79 73.175 177.09 73.175C179.389 73.175 181.253 75.0405 181.253 77.3416ZM190.104 77.602C192.116 77.602 193.748 75.9697 193.748 73.9563C193.748 71.9428 192.116 70.3105 190.104 70.3105C188.092 70.3105 186.461 71.9428 186.461 73.9563C186.461 75.9697 188.092 77.602 190.104 77.602ZM121.79 67.8368C121.79 70.929 119.285 73.4357 116.195 73.4357C113.105 73.4357 110.6 70.929 110.6 67.8368C110.6 64.7447 113.105 62.238 116.195 62.238C119.285 62.238 121.79 64.7447 121.79 67.8368Z" fill="url(#paint0_linear_129_2811)"/>
<path d="M169.495 57.8355L172.348 51.3023C174.886 45.4887 179.455 40.8607 185.154 38.3309L193.005 34.8459C195.501 33.738 195.501 30.1067 193.005 28.9988L185.399 25.6226C179.553 23.0277 174.903 18.2284 172.408 12.2163L169.518 5.25413C168.446 2.67049 164.876 2.6705 163.804 5.25413L160.915 12.2162C158.42 18.2284 153.769 23.0277 147.923 25.6226L140.317 28.9988C137.821 30.1067 137.821 33.738 140.317 34.8459L148.169 38.3309C153.868 40.8607 158.437 45.4887 160.975 51.3023L163.827 57.8355C164.924 60.3464 168.399 60.3464 169.495 57.8355ZM198.053 73.7419L198.855 71.9034C200.285 68.6255 202.861 66.0154 206.074 64.5877L208.546 63.4895C209.882 62.8957 209.882 60.9532 208.546 60.3594L206.213 59.3227C202.916 57.8582 200.295 55.1516 198.889 51.7622L198.065 49.7755C197.491 48.391 195.577 48.391 195.003 49.7755L194.179 51.7622C192.774 55.1516 190.152 57.8582 186.856 59.3227L184.522 60.3594C183.186 60.9532 183.186 62.8957 184.522 63.4895L186.994 64.5877C190.208 66.0154 192.783 68.6255 194.213 71.9034L195.015 73.7419C195.602 75.0878 197.466 75.0878 198.053 73.7419Z" fill="#7E74FF"/>
<defs>
<linearGradient id="paint0_linear_129_2811" x1="0" y1="0" x2="196.609" y2="196.478" gradientUnits="userSpaceOnUse">
<stop stop-color="#6B61E4"/>
<stop offset="1" stop-color="#E4B761"/>
</linearGradient>
</defs>
</svg>
