<svg width="136" height="136" viewBox="0 0 136 136" fill="none" xmlns="http://www.w3.org/2000/svg">
<g opacity="0.2">
<mask id="mask0_64_8067" style="mask-type:luminance" maskUnits="userSpaceOnUse" x="0" y="0" width="136" height="136">
<path d="M135.5 0H0V135.5H135.5V0Z" fill="white"/>
</mask>
<g mask="url(#mask0_64_8067)">
<path d="M-56.1 69.8998L-57.5 68.4998C-54.1 65.0998 -50.8 64.9998 -47.8 64.8998C-45 64.7998 -42.3 64.6998 -39.5 61.7998C-36.7 58.9998 -36.6 56.2998 -36.4 53.4998C-36.3 50.4998 -36.1 47.1998 -32.8 43.7998C-29.4 40.3998 -26.1 40.2998 -23.1 40.1998C-20.3 40.0998 -17.6 39.9998 -14.8 37.0998C-12 34.1998 -11.9 31.5998 -11.7 28.7998C-11.6 25.7998 -11.4 22.4998 -8.1 19.0998C-4.7 15.6998 -1.4 15.5998 1.6 15.4998C4.4 15.3998 7.1 15.2998 9.9 12.3998C12.7 9.5998 12.8 6.89981 13 4.09981C13.1 1.09981 13.3 -2.2002 16.6 -5.6002C20 -9.0002 23.3 -9.1002 26.3 -9.2002C29.1 -9.30019 31.8 -9.40019 34.6 -12.3002C37.4 -15.1002 37.5 -17.8002 37.7 -20.6002C37.8 -23.6002 38 -26.9002 41.3 -30.3002C44.8 -33.8002 48.1 -33.9002 51.1 -34.0002C53.9 -34.1002 56.6 -34.2002 59.5 -37.1002C62.3 -39.9002 62.4 -42.6002 62.6 -45.5002C62.7 -48.5002 62.9 -51.8002 66.2 -55.2002L67.6 -53.8002C64.8 -51.0002 64.7 -48.3002 64.5 -45.4002C64.4 -42.4002 64.2 -39.1002 60.9 -35.7002C57.6 -32.3002 54.1 -32.2002 51.2 -32.0002C48.4 -31.9002 45.7 -31.8002 42.8 -28.9002C40 -26.1002 39.9 -23.4002 39.7 -20.6002C39.6 -17.6002 39.4 -14.3002 36.1 -10.9002C32.7 -7.50019 29.4 -7.40019 26.4 -7.30019C23.6 -7.2002 20.9 -7.1002 18.1 -4.2002C15.3 -1.4002 15.2 1.29981 15 4.09981C14.9 7.09981 14.7 10.3998 11.4 13.7998C8 17.1998 4.7 17.2998 1.7 17.3998C-1.1 17.4998 -3.8 17.5998 -6.6 20.4998C-9.4 23.2998 -9.5 25.9998 -9.7 28.7998C-9.8 31.7998 -10 35.0998 -13.3 38.4998C-16.6 41.8998 -20 41.9998 -23 42.0998C-25.9 42.1998 -28.6 42.3998 -31.4 45.1998C-34.2 47.9998 -34.3 50.6998 -34.5 53.4998C-34.6 56.4998 -34.8 59.7998 -38.1 63.1998C-41.5 66.5998 -44.8 66.6998 -47.8 66.7998C-50.6 66.9998 -53.3 67.0998 -56.1 69.8998Z" fill="#13161A"/>
</g>
<mask id="mask1_64_8067" style="mask-type:luminance" maskUnits="userSpaceOnUse" x="0" y="0" width="136" height="136">
<path d="M135.5 0H0V135.5H135.5V0Z" fill="white"/>
</mask>
<g mask="url(#mask1_64_8067)">
<path d="M-44.6 81.3999L-46 79.9999C-42.6 76.5999 -39.3 76.4999 -36.3 76.3999C-33.5 76.2999 -30.8 76.1999 -28 73.2999C-25.2 70.4999 -25.1 67.7999 -24.9 64.9999C-24.8 61.9999 -24.6 58.6999 -21.3 55.2999C-17.9 51.8999 -14.6 51.7999 -11.6 51.6999C-8.8 51.5999 -6.1 51.4999 -3.3 48.5999C-0.500004 45.7999 -0.400002 43.0999 -0.200001 40.2999C-0.100002 37.2999 0.0999985 33.9999 3.4 30.5999C6.8 27.1999 10.1 27.0999 13.1 26.9999C15.9 26.8999 18.6 26.7999 21.4 23.8999C24.2 21.0999 24.3 18.3999 24.5 15.5999C24.6 12.5999 24.8 9.2999 28.1 5.8999C31.5 2.4999 34.8 2.3999 37.8 2.2999C40.6 2.1999 43.3 2.0999 46.1 -0.800098C48.9 -3.6001 49 -6.3001 49.2 -9.1001C49.3 -12.1001 49.5 -15.4001 52.8 -18.8001C56.2 -22.2001 59.5 -22.3001 62.5 -22.4001C65.3 -22.5001 68 -22.6001 70.9 -25.5001C73.7 -28.3001 73.8 -31.0001 74 -33.9001C74.1 -36.9001 74.3 -40.2001 77.6 -43.6001L79 -42.2001C76.2 -39.4001 76.1 -36.7001 75.9 -33.8001C75.8 -30.8001 75.6 -27.5001 72.3 -24.1001C69 -20.7001 65.6 -20.6001 62.6 -20.5001C59.8 -20.4001 57.1 -20.3001 54.2 -17.4001C51.4 -14.6001 51.3 -11.9001 51.1 -9.1001C51 -6.1001 50.8 -2.8001 47.5 0.599903C44.1 3.9999 40.8 4.0999 37.8 4.1999C35 4.2999 32.3 4.3999 29.5 7.2999C26.7 10.0999 26.6 12.7999 26.4 15.5999C26.3 18.5999 26.1 21.8999 22.8 25.2999C19.4 28.6999 16.1 28.7999 13.1 28.8999C10.3 28.9999 7.6 29.0999 4.8 31.9999C2 34.7999 1.9 37.4999 1.7 40.2999C1.6 43.2999 1.4 46.5999 -1.9 49.9999C-5.3 53.3999 -8.6 53.4999 -11.6 53.5999C-14.4 53.6999 -17.1 53.7999 -19.9 56.6999C-22.7 59.4999 -22.8 62.1999 -23 64.9999C-23.1 67.9999 -23.3 71.2999 -26.6 74.6999C-30 78.0999 -33.3 78.1999 -36.3 78.2999C-39.1 78.4999 -41.8 78.5999 -44.6 81.3999Z" fill="#13161A"/>
</g>
<mask id="mask2_64_8067" style="mask-type:luminance" maskUnits="userSpaceOnUse" x="0" y="0" width="136" height="136">
<path d="M135.5 0H0V135.5H135.5V0Z" fill="white"/>
</mask>
<g mask="url(#mask2_64_8067)">
<path d="M-33.1 92.8999L-34.5 91.4999C-31.1 88.0999 -27.8 87.9999 -24.8 87.8999C-22 87.7999 -19.3 87.6999 -16.5 84.7999C-13.7 81.9999 -13.6 79.2999 -13.4 76.4999C-13.3 73.4999 -13.1 70.1999 -9.8 66.7999C-6.4 63.3999 -3.1 63.2999 -0.0999985 63.1999C2.7 63.0999 5.4 62.9999 8.2 60.0999C11 57.2999 11.1 54.5999 11.3 51.7999C11.4 48.7999 11.6 45.4999 14.9 42.0999C18.3 38.6999 21.6 38.5999 24.6 38.4999C27.4 38.3999 30.1 38.2999 32.9 35.3999C35.7 32.5999 35.8 29.8999 36 27.0999C36.1 24.0999 36.3 20.7999 39.6 17.3999C43 13.9999 46.3 13.8999 49.3 13.7999C52.1 13.6999 54.8 13.5999 57.6 10.6999C60.4 7.8999 60.5 5.1999 60.7 2.3999C60.8 -0.600098 61 -3.9001 64.3 -7.3001C67.7 -10.7001 71 -10.8001 74 -10.9001C76.8 -11.0001 79.5 -11.1001 82.4 -14.0001C85.2 -16.8001 85.3 -19.5001 85.5 -22.4001C85.6 -25.4001 85.8 -28.7001 89.1 -32.1001L90.5 -30.7001C87.7 -27.9001 87.6 -25.2001 87.4 -22.3001C87.3 -19.3001 87.1 -16.0001 83.8 -12.6001C80.4 -9.2001 77.1 -9.1001 74.1 -9.0001C71.3 -8.9001 68.6 -8.8001 65.7 -5.9001C62.9 -3.1001 62.8 -0.400097 62.6 2.3999C62.5 5.3999 62.3 8.6999 59 12.0999C55.6 15.4999 52.3 15.5999 49.3 15.6999C46.5 15.7999 43.8 15.8999 41 18.7999C38.2 21.5999 38.1 24.2999 37.9 27.0999C37.8 30.0999 37.6 33.3999 34.3 36.7999C30.9 40.1999 27.6 40.2999 24.6 40.3999C21.8 40.4999 19.1 40.5999 16.3 43.4999C13.5 46.2999 13.4 48.9999 13.2 51.7999C13.1 54.7999 12.9 58.0999 9.6 61.4999C6.2 64.8999 2.9 64.9999 -0.0999985 65.0999C-2.9 65.1999 -5.6 65.2999 -8.4 68.1999C-11.2 71.0999 -11.3 73.6999 -11.5 76.4999C-11.6 79.4999 -11.8 82.7999 -15.1 86.1999C-18.5 89.5999 -21.8 89.6999 -24.8 89.7999C-27.6 89.9999 -30.2 90.0999 -33.1 92.8999Z" fill="#13161A"/>
</g>
<mask id="mask3_64_8067" style="mask-type:luminance" maskUnits="userSpaceOnUse" x="0" y="0" width="136" height="136">
<path d="M135.5 0H0V135.5H135.5V0Z" fill="white"/>
</mask>
<g mask="url(#mask3_64_8067)">
<path d="M-21.6 104.4L-23 103C-19.6 99.5999 -16.3 99.4999 -13.3 99.3999C-10.5 99.2999 -7.8 99.1999 -5 96.2999C-2.2 93.4999 -2.1 90.7999 -1.9 87.9999C-1.8 84.9999 -1.6 81.6999 1.7 78.2999C5.1 74.8999 8.4 74.7999 11.4 74.6999C14.2 74.5999 16.9 74.4999 19.7 71.5999C22.5 68.7999 22.6 66.0999 22.8 63.2999C22.9 60.2999 23.1 56.9999 26.4 53.5999C29.8 50.1999 33.1 50.0999 36.1 49.9999C38.9 49.8999 41.6 49.7999 44.4 46.8999C47.2 44.0999 47.3 41.3999 47.5 38.5999C47.6 35.5999 47.8 32.2999 51.1 28.8999C54.5 25.4999 57.8 25.3999 60.8 25.2999C63.6 25.1999 66.3 25.0999 69.1 22.1999C71.9 19.3999 72 16.6999 72.2 13.8999C72.3 10.8999 72.5 7.5999 75.8 4.1999C79.2 0.799902 82.5 0.699903 85.5 0.599903C88.3 0.499903 91 0.3999 93.9 -2.5001C96.8 -5.4001 96.8 -8.0001 97 -10.9001C97.1 -13.9001 97.3 -17.2001 100.6 -20.6001L102 -19.2001C99.2 -16.4001 99.1 -13.7001 98.9 -10.8001C98.8 -7.8001 98.6 -4.5001 95.3 -1.1001C91.9 2.2999 88.6 2.3999 85.6 2.4999C82.8 2.5999 80.1 2.6999 77.2 5.5999C74.4 8.3999 74.3 11.0999 74.1 13.8999C74 16.8999 73.8 20.1999 70.5 23.5999C67.1 26.9999 63.8 27.0999 60.8 27.1999C58 27.2999 55.3 27.3999 52.5 30.2999C49.7 33.0999 49.6 35.7999 49.4 38.5999C49.3 41.5999 49.1 44.8999 45.8 48.2999C42.4 51.6999 39.1 51.7999 36.1 51.8999C33.3 51.9999 30.6 52.0999 27.8 54.9999C25 57.7999 24.9 60.4999 24.7 63.2999C24.6 66.2999 24.4 69.5999 21.1 72.9999C17.8 76.3999 14.4 76.4999 11.4 76.5999C8.6 76.6999 5.9 76.7999 3.1 79.6999C0.300001 82.4999 0.200003 85.1999 1.90735e-06 87.9999C-0.0999985 90.9999 -0.300001 94.2999 -3.6 97.6999C-7 101.1 -10.3 101.2 -13.3 101.3C-16.1 101.5 -18.7 101.6 -21.6 104.4Z" fill="#13161A"/>
</g>
<mask id="mask4_64_8067" style="mask-type:luminance" maskUnits="userSpaceOnUse" x="0" y="0" width="136" height="136">
<path d="M135.5 0H0V135.5H135.5V0Z" fill="white"/>
</mask>
<g mask="url(#mask4_64_8067)">
<path d="M-9.99844 116L-11.3984 114.6C-7.99844 111.2 -4.69844 111.1 -1.69844 111C1.10156 110.9 3.80156 110.8 6.60156 107.9C9.40156 105.1 9.50156 102.4 9.70156 99.6C9.80156 96.6 10.0016 93.3 13.3016 89.9C16.7016 86.5 20.0016 86.4 23.0016 86.3C25.8016 86.2 28.5016 86.1 31.3016 83.2C34.1016 80.4 34.2016 77.7 34.4016 74.9C34.5016 71.9 34.7016 68.6 38.0016 65.2C41.4016 61.8 44.7016 61.7 47.7016 61.6C50.5016 61.5 53.2016 61.4 56.0016 58.5C58.8016 55.7 58.9016 53 59.1016 50.2C59.2016 47.2 59.4016 43.9 62.7016 40.5C66.1016 37.1 69.4016 37 72.4016 36.9C75.2016 36.8 77.9016 36.7 80.7016 33.8C83.5016 31 83.6016 28.3 83.8016 25.5C83.9016 22.5 84.1016 19.2 87.4016 15.8C90.8016 12.4 94.1016 12.3 97.1016 12.2C99.9016 12.1 102.602 12 105.502 9.1C108.402 6.2 108.402 3.6 108.602 0.700001C108.702 -2.3 108.902 -5.6 112.202 -9L113.602 -7.6C110.802 -4.8 110.702 -2.1 110.502 0.799999C110.402 3.8 110.202 7.1 106.902 10.5C103.502 13.9 100.202 14 97.2016 14.1C94.4016 14.2 91.7016 14.3 88.8016 17.2C86.0016 20 85.9016 22.7 85.7016 25.5C85.6016 28.5 85.4016 31.8 82.1016 35.2C78.7016 38.6 75.4016 38.7 72.4016 38.8C69.6016 38.9 66.9016 39 64.1016 41.9C61.3016 44.7 61.2016 47.4 61.0016 50.2C60.9016 53.2 60.7016 56.5 57.4016 59.9C54.0016 63.3 50.7016 63.4 47.7016 63.5C44.9016 63.6 42.2016 63.7 39.4016 66.6C36.6016 69.4 36.5016 72.1 36.3016 74.9C36.2016 77.9 36.0016 81.2 32.7016 84.6C29.4016 88 26.0016 88.1 23.0016 88.2C20.2016 88.3 17.5016 88.4 14.7016 91.3C11.9016 94.1 11.8016 96.8 11.6016 99.6C11.5016 102.6 11.3016 105.9 8.00156 109.3C4.60156 112.7 1.30156 112.8 -1.69844 112.9C-4.49844 113 -7.19844 113.1 -9.99844 116Z" fill="#13161A"/>
</g>
<mask id="mask5_64_8067" style="mask-type:luminance" maskUnits="userSpaceOnUse" x="0" y="0" width="136" height="136">
<path d="M135.5 0H0V135.5H135.5V0Z" fill="white"/>
</mask>
<g mask="url(#mask5_64_8067)">
<path d="M1.50156 127.5L0.101562 126.1C3.50156 122.7 6.80156 122.6 9.80156 122.5C12.6016 122.4 15.3016 122.3 18.1016 119.4C20.9016 116.6 21.0016 113.9 21.2016 111.1C21.3016 108.1 21.5016 104.8 24.8016 101.4C28.2016 98 31.5016 97.9 34.5016 97.8C37.3016 97.7 40.0016 97.6 42.8016 94.7C45.6016 91.9 45.7016 89.2 45.9016 86.4C46.0016 83.4 46.2016 80.1 49.5016 76.7C52.9016 73.3 56.2016 73.2 59.2016 73.1C62.0016 73 64.7016 72.9 67.5016 70C70.3016 67.2 70.4016 64.5 70.6016 61.7C70.7016 58.7 70.9016 55.4 74.2016 52C77.6016 48.6 80.9016 48.5 83.9016 48.4C86.7016 48.3 89.4016 48.2 92.2016 45.3C95.0016 42.5 95.1016 39.8 95.3016 37C95.4016 34 95.6016 30.7 98.9016 27.3C102.302 23.9 105.602 23.8 108.602 23.7C111.402 23.6 114.102 23.5 117.002 20.6C119.802 17.8 119.902 15.1 120.102 12.2C120.202 9.2 120.402 5.9 123.702 2.5L125.102 3.9C122.302 6.7 122.202 9.4 122.002 12.3C121.902 15.3 121.702 18.6 118.402 22C115.002 25.4 111.702 25.5 108.702 25.6C105.902 25.7 103.202 25.8 100.302 28.7C97.5016 31.5 97.4016 34.2 97.2016 37C97.1016 40 96.9016 43.3 93.6016 46.7C90.2016 50.1 86.9016 50.2 83.9016 50.3C81.1016 50.4 78.4016 50.5 75.6016 53.4C72.8016 56.2 72.7016 58.9 72.5016 61.7C72.4016 64.7 72.2016 68 68.9016 71.4C65.5016 74.8 62.2016 74.9 59.2016 75C56.4016 75.1 53.7016 75.2 50.9016 78.1C48.1016 80.9 48.0016 83.6 47.8016 86.4C47.7016 89.4 47.5016 92.7 44.2016 96.1C40.9016 99.5 37.5016 99.6 34.5016 99.7C31.7016 99.8 29.0016 99.9 26.2016 102.8C23.4016 105.6 23.3016 108.3 23.1016 111.1C23.0016 114.1 22.8016 117.4 19.5016 120.8C16.1016 124.2 12.8016 124.3 9.80156 124.4C7.00156 124.5 4.30156 124.6 1.50156 127.5Z" fill="#13161A"/>
</g>
<mask id="mask6_64_8067" style="mask-type:luminance" maskUnits="userSpaceOnUse" x="0" y="0" width="136" height="136">
<path d="M135.5 0H0V135.5H135.5V0Z" fill="white"/>
</mask>
<g mask="url(#mask6_64_8067)">
<path d="M13.0016 139L11.6016 137.6C15.0016 134.2 18.3016 134.1 21.3016 134C24.1016 133.9 26.8016 133.8 29.6016 130.9C32.4016 128.1 32.5016 125.4 32.7016 122.6C32.8016 119.6 33.0016 116.3 36.3016 112.9C39.6016 109.5 43.0016 109.4 46.0016 109.3C48.8016 109.2 51.5016 109.1 54.3016 106.2C57.1016 103.4 57.2016 100.7 57.4016 97.9C57.5016 94.9 57.7016 91.6 61.0016 88.2C64.4016 84.8 67.7016 84.7 70.7016 84.6C73.5016 84.5 76.2016 84.4 79.0016 81.5C81.8016 78.7 81.9016 76 82.1016 73.2C82.2016 70.2 82.4016 66.9 85.7016 63.5C89.1016 60.1 92.4016 60 95.4016 59.9C98.2016 59.8 100.902 59.7 103.702 56.8C106.502 54 106.602 51.3 106.802 48.5C106.902 45.5 107.102 42.2 110.402 38.8C113.802 35.4 117.102 35.3 120.102 35.2C122.902 35.1 125.602 35 128.502 32.1C131.302 29.3 131.402 26.6 131.602 23.7C131.702 20.7 131.902 17.4 135.202 14L136.602 15.4C133.802 18.2 133.702 20.9 133.502 23.8C133.402 26.8 133.202 30.1 129.902 33.5C126.502 36.9 123.202 37 120.202 37.1C117.402 37.2 114.702 37.3 111.802 40.2C109.002 43 108.902 45.7 108.702 48.5C108.602 51.5 108.402 54.8 105.102 58.2C101.702 61.6 98.4016 61.7 95.4016 61.8C92.6016 61.9 89.9016 62 87.1016 64.9C84.3016 67.7 84.2016 70.4 84.0016 73.2C83.9016 76.2 83.7016 79.5 80.4016 82.9C77.0016 86.3 73.7016 86.4 70.7016 86.5C67.9016 86.6 65.2016 86.7 62.4016 89.6C59.6016 92.4 59.5016 95.1 59.3016 97.9C59.2016 100.9 59.0016 104.2 55.7016 107.6C52.4016 111 49.0016 111.1 46.0016 111.2C43.2016 111.3 40.5016 111.4 37.7016 114.3C34.9016 117.2 34.8016 119.8 34.6016 122.6C34.5016 125.6 34.3016 128.9 31.0016 132.3C27.6016 135.7 24.3016 135.8 21.3016 135.9C18.5016 136 15.8016 136.2 13.0016 139Z" fill="#13161A"/>
</g>
<mask id="mask7_64_8067" style="mask-type:luminance" maskUnits="userSpaceOnUse" x="0" y="0" width="136" height="136">
<path d="M135.5 0H0V135.5H135.5V0Z" fill="white"/>
</mask>
<g mask="url(#mask7_64_8067)">
<path d="M24.5016 150.5L23.1016 149.1C26.5016 145.7 29.8016 145.6 32.8016 145.5C35.6016 145.4 38.3016 145.3 41.1016 142.4C43.9016 139.6 44.0016 136.9 44.2016 134.1C44.3016 131.1 44.5016 127.8 47.8016 124.4C51.2016 121 54.5016 120.9 57.5016 120.8C60.3016 120.7 63.0016 120.6 65.8016 117.7C68.6016 114.8 68.7016 112.2 68.9016 109.4C69.0016 106.4 69.2016 103.1 72.5016 99.7C75.9016 96.3 79.2016 96.2 82.2016 96.1C85.0016 96 87.7016 95.9 90.5016 93C93.3016 90.2 93.4016 87.5 93.6016 84.7C93.7016 81.7 93.9016 78.4 97.2016 75C100.602 71.6 103.902 71.5 106.902 71.4C109.702 71.3 112.402 71.2 115.202 68.3C118.002 65.5 118.102 62.8 118.302 60C118.402 57 118.602 53.7 121.902 50.3C125.302 46.9 128.602 46.8 131.602 46.7C134.402 46.6 137.102 46.5 140.002 43.6C142.802 40.8 142.902 38.1 143.102 35.2C143.202 32.2 143.402 28.9 146.702 25.5L148.102 26.9C145.302 29.7 145.202 32.4 145.002 35.3C144.902 38.3 144.702 41.6 141.402 45C138.002 48.4 134.702 48.5 131.702 48.6C128.902 48.7 126.202 48.8 123.302 51.7C120.502 54.5 120.402 57.2 120.202 60C120.102 63 119.902 66.3 116.602 69.7C113.202 73.1 109.902 73.2 106.902 73.3C104.102 73.4 101.402 73.5 98.6016 76.4C95.8016 79.2 95.7016 81.9 95.5016 84.7C95.4016 87.7 95.2016 91 91.9016 94.4C88.5016 97.8 85.2016 97.9 82.2016 98C79.4016 98.1 76.7016 98.2 73.9016 101.1C71.1016 103.9 71.0016 106.6 70.8016 109.4C70.7016 112.4 70.5016 115.7 67.2016 119.1C63.9016 122.5 60.5016 122.6 57.5016 122.7C54.7016 122.8 52.0016 122.9 49.2016 125.8C46.4016 128.7 46.3016 131.3 46.1016 134.1C46.0016 137.1 45.8016 140.4 42.5016 143.8C39.1016 147.2 35.8016 147.3 32.8016 147.4C30.0016 147.6 27.3016 147.7 24.5016 150.5Z" fill="#13161A"/>
</g>
<mask id="mask8_64_8067" style="mask-type:luminance" maskUnits="userSpaceOnUse" x="0" y="0" width="136" height="136">
<path d="M135.5 0H0V135.5H135.5V0Z" fill="white"/>
</mask>
<g mask="url(#mask8_64_8067)">
<path d="M36.0016 162L34.6016 160.6C38.0016 157.2 41.3016 157.1 44.3016 157C47.1016 156.9 49.8016 156.8 52.6016 153.9C55.4016 151.1 55.5016 148.4 55.7016 145.6C55.8016 142.6 56.0016 139.3 59.3016 135.9C62.7016 132.5 66.0016 132.4 69.0016 132.3C71.8016 132.2 74.5016 132.1 77.3016 129.2C80.1016 126.3 80.2016 123.7 80.4016 120.9C80.5016 117.9 80.7016 114.6 84.0016 111.2C87.4016 107.8 90.7016 107.7 93.7016 107.6C96.5016 107.5 99.2016 107.4 102.002 104.5C104.802 101.7 104.902 99 105.102 96.2C105.202 93.2 105.402 89.9 108.702 86.5C112.102 83.1 115.402 83 118.402 82.9C121.202 82.8 123.902 82.7 126.702 79.8C129.502 77 129.602 74.3 129.802 71.5C129.902 68.5 130.102 65.2 133.402 61.8C136.802 58.4 140.102 58.3 143.102 58.2C145.902 58.1 148.602 58 151.502 55.1C154.302 52.3 154.402 49.6 154.602 46.7C154.702 43.7 154.902 40.4 158.202 37L159.602 38.4C156.802 41.2 156.702 43.9 156.502 46.8C156.402 49.8 156.202 53.1 152.902 56.5C149.602 59.9 146.202 60 143.202 60.1C140.402 60.2 137.702 60.3 134.802 63.2C132.002 66 131.902 68.7 131.702 71.5C131.602 74.5 131.402 77.8 128.102 81.2C124.702 84.6 121.402 84.7 118.402 84.8C115.602 84.9 112.902 85 110.102 87.9C107.302 90.7 107.202 93.4 107.002 96.2C106.902 99.2 106.702 102.5 103.402 105.9C100.002 109.3 96.7016 109.4 93.7016 109.5C90.9016 109.6 88.2016 109.7 85.4016 112.6C82.6016 115.4 82.5016 118.1 82.3016 120.9C82.2016 123.9 82.0016 127.2 78.7016 130.6C75.4016 134 72.0016 134.1 69.0016 134.2C66.2016 134.3 63.5016 134.4 60.7016 137.3C57.9016 140.2 57.8016 142.8 57.6016 145.6C57.5016 148.6 57.3016 151.9 54.0016 155.3C50.6016 158.7 47.3016 158.8 44.3016 158.9C41.5016 159.1 38.8016 159.2 36.0016 162Z" fill="#13161A"/>
</g>
<mask id="mask9_64_8067" style="mask-type:luminance" maskUnits="userSpaceOnUse" x="0" y="0" width="136" height="136">
<path d="M135.5 0H0V135.5H135.5V0Z" fill="white"/>
</mask>
<g mask="url(#mask9_64_8067)">
<path d="M47.5016 173.5L46.1016 172.1C49.5016 168.7 52.8016 168.6 55.8016 168.5C58.6016 168.4 61.3016 168.3 64.1016 165.4C66.9016 162.6 67.0016 159.9 67.2016 157.1C67.3016 154.1 67.5016 150.8 70.8016 147.4C74.2016 144 77.5016 143.9 80.5016 143.8C83.3016 143.7 86.0016 143.6 88.8016 140.7C91.6016 137.9 91.7016 135.2 91.9016 132.4C92.0016 129.4 92.2016 126.1 95.5016 122.7C98.9016 119.3 102.202 119.2 105.202 119.1C108.002 119 110.702 118.9 113.502 116C116.302 113.2 116.402 110.5 116.602 107.7C116.702 104.7 116.902 101.4 120.202 98C123.602 94.6 126.902 94.5 129.902 94.4C132.702 94.3 135.402 94.2 138.202 91.3C141.002 88.5 141.102 85.8 141.302 83C141.402 80 141.602 76.7 144.902 73.3C148.302 69.9 151.602 69.8 154.602 69.7C157.402 69.6 160.102 69.5 163.002 66.6C165.802 63.8 165.902 61.1 166.102 58.2C166.202 55.2 166.402 51.9 169.702 48.5L171.102 49.9C168.302 52.7 168.202 55.4 168.002 58.3C167.902 61.3 167.702 64.6 164.402 68C161.102 71.4 157.702 71.5 154.702 71.6C151.902 71.7 149.202 71.8 146.302 74.7C143.502 77.5 143.402 80.2 143.202 83C143.102 86 142.902 89.3 139.602 92.7C136.202 96.1 132.902 96.2 129.902 96.3C127.102 96.4 124.402 96.5 121.602 99.4C118.802 102.2 118.702 104.9 118.502 107.7C118.402 110.7 118.202 114 114.902 117.4C111.502 120.8 108.202 120.9 105.202 121C102.402 121.1 99.7016 121.2 96.9016 124.1C94.1016 126.9 94.0016 129.6 93.8016 132.4C93.7016 135.4 93.5016 138.7 90.2016 142.1C86.8016 145.5 83.5016 145.6 80.5016 145.7C77.7016 145.8 75.0016 145.9 72.2016 148.8C69.4016 151.6 69.3016 154.3 69.1016 157.1C69.0016 160.1 68.8016 163.4 65.5016 166.8C62.1016 170.2 58.8016 170.3 55.8016 170.4C53.0016 170.6 50.3016 170.7 47.5016 173.5Z" fill="#13161A"/>
</g>
<mask id="mask10_64_8067" style="mask-type:luminance" maskUnits="userSpaceOnUse" x="0" y="0" width="136" height="136">
<path d="M135.5 0H0V135.5H135.5V0Z" fill="white"/>
</mask>
<g mask="url(#mask10_64_8067)">
<path d="M59.0016 185L57.6016 183.6C61.0016 180.2 64.3016 180.1 67.3016 180C70.1016 179.9 72.8016 179.8 75.6016 176.9C78.4016 174.1 78.5016 171.4 78.7016 168.6C78.8016 165.6 79.0016 162.3 82.3016 158.9C85.7016 155.5 89.0016 155.4 92.0016 155.3C94.8016 155.2 97.5016 155.1 100.302 152.2C103.102 149.4 103.202 146.7 103.402 143.9C103.502 140.9 103.702 137.6 107.002 134.2C110.402 130.8 113.702 130.7 116.702 130.6C119.502 130.5 122.202 130.4 125.002 127.5C127.802 124.7 127.902 122 128.102 119.2C128.202 116.2 128.402 112.9 131.702 109.5C135.102 106.1 138.402 106 141.402 105.9C144.202 105.8 146.902 105.7 149.702 102.8C152.502 100 152.602 97.3 152.802 94.5C152.902 91.5 153.102 88.2 156.402 84.8C159.802 81.4 163.102 81.3 166.102 81.2C168.902 81.1 171.602 81 174.502 78.1C177.302 75.3 177.402 72.6 177.602 69.7C177.702 66.7 177.902 63.4 181.202 60L182.602 61.4C179.802 64.2 179.702 66.9 179.502 69.8C179.402 72.8 179.202 76.1 175.902 79.5C172.502 82.9 169.202 83 166.202 83.1C163.402 83.2 160.702 83.3 157.802 86.2C155.002 89 154.902 91.7 154.702 94.5C154.602 97.5 154.402 100.8 151.102 104.2C147.702 107.6 144.402 107.7 141.402 107.8C138.602 107.9 135.902 108 133.102 110.9C130.302 113.7 130.202 116.4 130.002 119.2C129.902 122.2 129.702 125.5 126.402 128.9C123.002 132.3 119.702 132.4 116.702 132.5C113.902 132.6 111.202 132.7 108.402 135.6C105.602 138.4 105.502 141.1 105.302 143.9C105.202 146.9 105.002 150.2 101.702 153.6C98.3016 157 95.0016 157.1 92.0016 157.2C89.2016 157.3 86.5016 157.4 83.7016 160.3C80.9016 163.2 80.8016 165.8 80.6016 168.6C80.5016 171.6 80.3016 174.9 77.0016 178.3C73.6016 181.7 70.3016 181.8 67.3016 181.9C64.5016 182.1 61.8016 182.2 59.0016 185Z" fill="#13161A"/>
</g>
</g>
</svg>
