<svg width="174" height="20" viewBox="0 0 174 20" fill="none" xmlns="http://www.w3.org/2000/svg">
<path fill-rule="evenodd" clip-rule="evenodd" d="M12.291 2.46081C10.4576 0.530411 8.10642 -0.296089 5.75624 0.0944728C3.53704 0.463268 1.60231 1.894 0.644977 3.91768C-0.423348 6.17598 -0.161163 8.83801 1.40659 11.4321C3.24251 14.4699 6.768 17.3155 11.882 19.8012L12.291 20L12.7001 19.8012C17.8141 17.3155 21.3396 14.4699 23.1755 11.4321C24.7433 8.83801 25.0054 6.17598 23.9371 3.91768C22.9798 1.894 21.0451 0.463268 18.8259 0.0944728C16.4757 -0.296089 14.1245 0.530411 12.291 2.46081ZM11.0237 3.84546C9.55727 2.24682 7.77433 1.65608 6.06301 1.94048C4.43214 2.2115 3.0244 3.26392 2.33656 4.71791C1.593 6.2897 1.69017 8.28339 3.00814 10.4642C4.53646 12.993 7.56904 15.5622 12.291 17.9168C17.0131 15.5622 20.0456 12.993 21.5739 10.4642C22.8919 8.28339 22.9891 6.2897 22.2455 4.71791C21.5577 3.26392 20.15 2.2115 18.5191 1.94048C16.8078 1.65608 15.0248 2.24682 13.5584 3.84546L12.291 5.22698L11.0237 3.84546Z" fill="#BF0020"/>
<path d="M11.7788 12.0814L10.4089 12.7886C10.269 12.8609 10.0958 12.8081 10.0221 12.6707C9.99282 12.6159 9.9827 12.5532 9.99334 12.4923L10.2551 10.9935C10.3163 10.6428 10.1979 10.285 9.93842 10.0366L8.82962 8.97514C8.71637 8.86673 8.71409 8.68872 8.82452 8.57755C8.86848 8.53329 8.92606 8.50449 8.98837 8.4956L10.5203 8.277C10.8791 8.22579 11.1893 8.00452 11.3497 7.68529L12.0347 6.32211C12.1047 6.18286 12.2764 6.12566 12.4183 6.19436C12.4748 6.22173 12.5206 6.26664 12.5484 6.32211L13.2335 7.68529C13.3939 8.00452 13.7041 8.22579 14.0629 8.277L15.5948 8.4956C15.7513 8.51794 15.8598 8.66062 15.837 8.81429C15.828 8.87546 15.7986 8.93199 15.7536 8.97514L14.6447 10.0366C14.3852 10.285 14.2668 10.6428 14.3281 10.9935L14.5898 12.4923C14.6166 12.6453 14.5118 12.7907 14.3559 12.8169C14.2938 12.8274 14.23 12.8174 14.1742 12.7886L12.8043 12.0814C12.4833 11.9156 12.0998 11.9156 11.7788 12.0814Z" fill="#0027DC"/>
<path d="M40.5679 9.23634H47.6119C47.6119 9.90295 47.5818 10.5085 47.5214 11.0529C47.461 11.5972 47.3403 12.1028 47.1592 12.5694C46.9057 13.2249 46.5617 13.8082 46.1271 14.3192C45.6925 14.8192 45.1794 15.2414 44.5879 15.5858C44.0084 15.9191 43.3686 16.1746 42.6685 16.3524C41.9683 16.5302 41.2319 16.619 40.4593 16.619C39.397 16.619 38.4252 16.4579 37.5439 16.1357C36.6747 15.8136 35.9263 15.3636 35.2985 14.7859C34.6708 14.197 34.1819 13.4971 33.8318 12.686C33.4817 11.8639 33.3066 10.9584 33.3066 9.96961C33.3066 8.99192 33.4757 8.09755 33.8137 7.28651C34.1638 6.46436 34.6527 5.76442 35.2804 5.18669C35.9202 4.60896 36.6868 4.159 37.5801 3.83681C38.4734 3.51461 39.4694 3.35352 40.5679 3.35352C41.9924 3.35352 43.2419 3.63682 44.3163 4.20344C45.3907 4.77006 46.2418 5.64776 46.8695 6.83655L43.5014 8.11977C43.1876 7.43094 42.7771 6.93654 42.2701 6.63657C41.7751 6.33659 41.2078 6.1866 40.5679 6.1866C40.0368 6.1866 39.5539 6.28104 39.1193 6.46991C38.6847 6.64768 38.3105 6.90876 37.9966 7.25318C37.6948 7.58648 37.4534 7.992 37.2723 8.46974C37.1033 8.94748 37.0188 9.48077 37.0188 10.0696C37.0188 10.6029 37.0912 11.0973 37.2361 11.5528C37.393 12.0083 37.6224 12.4027 37.9242 12.736C38.226 13.0693 38.6002 13.3304 39.0469 13.5193C39.4935 13.6971 40.0126 13.7859 40.6041 13.7859C40.9542 13.7859 41.2923 13.7526 41.6182 13.686C41.9441 13.6082 42.2339 13.4915 42.4874 13.336C42.753 13.1693 42.9703 12.9582 43.1393 12.7027C43.3083 12.4472 43.423 12.1361 43.4833 11.7695H40.5679V9.23634Z" fill="black"/>
<path d="M53.8571 9.98628C53.8571 10.4862 53.9597 10.9473 54.1649 11.3695C54.3701 11.7917 54.6478 12.1583 54.9979 12.4694C55.3479 12.7805 55.7524 13.0249 56.2111 13.2027C56.6819 13.3693 57.1768 13.4526 57.6959 13.4526C58.215 13.4526 58.704 13.3693 59.1627 13.2027C59.6335 13.0249 60.0439 12.7805 60.394 12.4694C60.7562 12.1583 61.0399 11.7917 61.2451 11.3695C61.4503 10.9473 61.5529 10.4862 61.5529 9.98628C61.5529 9.48632 61.4503 9.02525 61.2451 8.60306C61.0399 8.18088 60.7562 7.81424 60.394 7.50316C60.0439 7.19207 59.6335 6.95321 59.1627 6.78655C58.704 6.60879 58.215 6.51991 57.6959 6.51991C57.1768 6.51991 56.6819 6.60879 56.2111 6.78655C55.7524 6.95321 55.3479 7.19207 54.9979 7.50316C54.6478 7.81424 54.3701 8.18088 54.1649 8.60306C53.9597 9.02525 53.8571 9.48632 53.8571 9.98628ZM50.1449 9.98628C50.1449 9.05302 50.332 8.18643 50.7063 7.3865C51.0805 6.57546 51.5996 5.86997 52.2635 5.27002C52.9275 4.67007 53.7182 4.20344 54.6357 3.87014C55.5652 3.52572 56.5853 3.35352 57.6959 3.35352C58.7945 3.35352 59.8085 3.52572 60.7381 3.87014C61.6676 4.20344 62.4644 4.67007 63.1283 5.27002C63.8044 5.86997 64.3295 6.57546 64.7037 7.3865C65.078 8.18643 65.2651 9.05302 65.2651 9.98628C65.2651 10.9195 65.078 11.7917 64.7037 12.6027C64.3295 13.4026 63.8044 14.1026 63.1283 14.7025C62.4644 15.3025 61.6676 15.7747 60.7381 16.1191C59.8085 16.4524 58.7945 16.619 57.6959 16.619C56.5853 16.619 55.5652 16.4524 54.6357 16.1191C53.7182 15.7747 52.9275 15.3025 52.2635 14.7025C51.5996 14.1026 51.0805 13.4026 50.7063 12.6027C50.332 11.7917 50.1449 10.9195 50.1449 9.98628Z" fill="black"/>
<path d="M71.5088 9.98628C71.5088 10.4862 71.6114 10.9473 71.8166 11.3695C72.0218 11.7917 72.2995 12.1583 72.6496 12.4694C72.9997 12.7805 73.4041 13.0249 73.8628 13.2027C74.3336 13.3693 74.8286 13.4526 75.3477 13.4526C75.8668 13.4526 76.3557 13.3693 76.8144 13.2027C77.2852 13.0249 77.6957 12.7805 78.0457 12.4694C78.4079 12.1583 78.6916 11.7917 78.8968 11.3695C79.1021 10.9473 79.2047 10.4862 79.2047 9.98628C79.2047 9.48632 79.1021 9.02525 78.8968 8.60306C78.6916 8.18088 78.4079 7.81424 78.0457 7.50316C77.6957 7.19207 77.2852 6.95321 76.8144 6.78655C76.3557 6.60879 75.8668 6.51991 75.3477 6.51991C74.8286 6.51991 74.3336 6.60879 73.8628 6.78655C73.4041 6.95321 72.9997 7.19207 72.6496 7.50316C72.2995 7.81424 72.0218 8.18088 71.8166 8.60306C71.6114 9.02525 71.5088 9.48632 71.5088 9.98628ZM67.7966 9.98628C67.7966 9.05302 67.9838 8.18643 68.358 7.3865C68.7322 6.57546 69.2513 5.86997 69.9153 5.27002C70.5792 4.67007 71.37 4.20344 72.2874 3.87014C73.217 3.52572 74.237 3.35352 75.3477 3.35352C76.4462 3.35352 77.4603 3.52572 78.3898 3.87014C79.3193 4.20344 80.1161 4.67007 80.7801 5.27002C81.4561 5.86997 81.9812 6.57546 82.3554 7.3865C82.7297 8.18643 82.9168 9.05302 82.9168 9.98628C82.9168 10.9195 82.7297 11.7917 82.3554 12.6027C81.9812 13.4026 81.4561 14.1026 80.7801 14.7025C80.1161 15.3025 79.3193 15.7747 78.3898 16.1191C77.4603 16.4524 76.4462 16.619 75.3477 16.619C74.237 16.619 73.217 16.4524 72.2874 16.1191C71.37 15.7747 70.5792 15.3025 69.9153 14.7025C69.2513 14.1026 68.7322 13.4026 68.358 12.6027C67.9838 11.7917 67.7966 10.9195 67.7966 9.98628Z" fill="black"/>
<path d="M89.6132 13.5026H90.4281C91.0437 13.5026 91.593 13.4138 92.0759 13.236C92.5588 13.0582 92.9632 12.8138 93.2891 12.5027C93.6271 12.1916 93.8807 11.825 94.0497 11.4028C94.2307 10.9695 94.3213 10.4973 94.3213 9.98628C94.3213 9.48632 94.2307 9.01969 94.0497 8.5864C93.8686 8.1531 93.609 7.78091 93.271 7.46983C92.9451 7.15874 92.5407 6.91432 92.0578 6.73656C91.5749 6.55879 91.0317 6.46991 90.4281 6.46991H89.6132V13.5026ZM86.064 3.70349H91.3154C92.2449 3.70349 93.1141 3.87569 93.9229 4.22011C94.7438 4.56452 95.456 5.02559 96.0596 5.60332C96.6753 6.16994 97.1582 6.83655 97.5083 7.60315C97.8584 8.35864 98.0334 9.15302 98.0334 9.98628C98.0334 10.8084 97.8584 11.6028 97.5083 12.3694C97.1703 13.1249 96.6934 13.7915 96.0778 14.3692C95.4742 14.947 94.7619 15.408 93.941 15.7524C93.1322 16.0969 92.257 16.2691 91.3154 16.2691H86.064V3.70349Z" fill="black"/>
<path d="M111.813 9.46966H112.99C114.294 9.46966 114.946 8.94748 114.946 7.90312C114.946 6.85877 114.294 6.33659 112.99 6.33659H111.813V9.46966ZM111.813 16.2691H108.264V3.70349H113.914C115.447 3.70349 116.618 4.07012 117.427 4.80339C118.248 5.53666 118.658 6.5699 118.658 7.90312C118.658 9.23634 118.248 10.2696 117.427 11.0029C116.618 11.7361 115.447 12.1028 113.914 12.1028H111.813V16.2691Z" fill="black"/>
<path d="M128.106 11.6028L126.512 7.41983L124.919 11.6028H128.106ZM129.047 14.0859H123.977L123.162 16.2691H119.378L124.575 3.70349H128.45L133.647 16.2691H129.862L129.047 14.0859Z" fill="black"/>
<path d="M139.654 9.31967H140.324C141.024 9.31967 141.562 9.18635 141.936 8.9197C142.31 8.65306 142.497 8.26976 142.497 7.7698C142.497 7.26984 142.31 6.88654 141.936 6.6199C141.562 6.35326 141.024 6.21993 140.324 6.21993H139.654V9.31967ZM147.459 16.2691H143.04L139.654 11.4362V16.2691H136.105V3.70349H141.628C142.388 3.70349 143.052 3.80903 143.62 4.02013C144.187 4.22011 144.652 4.49786 145.014 4.85339C145.388 5.20891 145.666 5.61999 145.847 6.08661C146.04 6.55324 146.137 7.0532 146.137 7.58648C146.137 8.54196 145.883 9.31967 145.376 9.91962C144.881 10.5085 144.145 10.9084 143.167 11.1195L147.459 16.2691Z" fill="black"/>
<path d="M155.045 6.46991V16.2691H151.496V6.46991H148.581V3.70349H157.961V6.46991H155.045Z" fill="black"/>
<path d="M164.624 10.2363L159.645 3.70349H163.882L166.417 7.13652L168.934 3.70349H173.171L168.174 10.2363V16.2691H164.624V10.2363Z" fill="black"/>
</svg>
