<svg width="81" height="81" viewBox="0 0 81 81" fill="none" xmlns="http://www.w3.org/2000/svg">
<path d="M51.4122 4.91385L50.4299 3.39505L48.8204 4.22029L40.4911 8.49082L32.1571 4.22463L30.547 3.40041L29.5657 4.91988L24.4866 12.7844L15.1385 13.2568L13.3323 13.348L13.2419 15.1542L12.774 24.5042L4.91385 29.5878L3.39505 30.5701L4.22029 32.1796L8.49082 40.5089L4.22463 48.8429L3.40041 50.453L4.91988 51.4343L12.7844 56.5134L13.2568 65.8615L13.348 67.6677L15.1542 67.7581L24.5042 68.226L29.5878 76.0862L30.5701 77.6049L32.1796 76.7797L40.5089 72.5092L48.8429 76.7754L50.453 77.5996L51.4343 76.0801L56.5134 68.2156L65.8615 67.7432L67.6677 67.652L67.7581 65.8458L68.226 56.4958L76.0862 51.4122L77.6049 50.4299L76.7797 48.8204L72.5092 40.4911L76.7754 32.1571L77.5996 30.547L76.0801 29.5657L68.2156 24.4866L67.7432 15.1385L67.652 13.3323L65.8458 13.2419L56.4958 12.774L51.4122 4.91385Z" fill="black" stroke="#E1E1E1" stroke-width="4"/>
<path d="M19.205 36.225H21.795V39.3C21.4217 39.5733 21.0233 39.7717 20.6 39.895C20.18 40.0183 19.74 40.08 19.28 40.08C18.68 40.08 18.1333 39.9867 17.64 39.8C17.15 39.61 16.73 39.35 16.38 39.02C16.03 38.6867 15.76 38.2933 15.57 37.84C15.38 37.3833 15.285 36.8883 15.285 36.355C15.285 35.8117 15.375 35.3133 15.555 34.86C15.735 34.4033 15.9917 34.01 16.325 33.68C16.6617 33.35 17.0667 33.0933 17.54 32.91C18.0167 32.7267 18.5483 32.635 19.135 32.635C19.4383 32.635 19.7233 32.66 19.99 32.71C20.2567 32.76 20.5017 32.8283 20.725 32.915C20.9517 33.0017 21.1583 33.105 21.345 33.225C21.5317 33.345 21.6983 33.475 21.845 33.615L21.355 34.36C21.2783 34.4767 21.1783 34.5483 21.055 34.575C20.935 34.6017 20.805 34.5717 20.665 34.485C20.5317 34.405 20.405 34.3367 20.285 34.28C20.1683 34.22 20.0483 34.1717 19.925 34.135C19.8017 34.0983 19.6717 34.0717 19.535 34.055C19.3983 34.0383 19.245 34.03 19.075 34.03C18.7583 34.03 18.4733 34.0867 18.22 34.2C17.9667 34.31 17.75 34.4667 17.57 34.67C17.3933 34.8733 17.2567 35.1183 17.16 35.405C17.0633 35.6883 17.015 36.005 17.015 36.355C17.015 36.7417 17.0683 37.085 17.175 37.385C17.2817 37.685 17.4317 37.9383 17.625 38.145C17.8217 38.3517 18.055 38.51 18.325 38.62C18.5983 38.7267 18.9 38.78 19.23 38.78C19.4333 38.78 19.6167 38.76 19.78 38.72C19.9467 38.68 20.1083 38.6267 20.265 38.56V37.455H19.545C19.4383 37.455 19.355 37.4267 19.295 37.37C19.235 37.3133 19.205 37.2417 19.205 37.155V36.225ZM30.2816 36.355C30.2816 36.8817 30.1899 37.3717 30.0066 37.825C29.8266 38.2783 29.5716 38.6733 29.2416 39.01C28.9116 39.3433 28.5132 39.605 28.0466 39.795C27.5832 39.985 27.0682 40.08 26.5016 40.08C25.9349 40.08 25.4182 39.985 24.9516 39.795C24.4849 39.605 24.0849 39.3433 23.7516 39.01C23.4216 38.6733 23.1649 38.2783 22.9816 37.825C22.8016 37.3717 22.7116 36.8817 22.7116 36.355C22.7116 35.8283 22.8016 35.3383 22.9816 34.885C23.1649 34.4317 23.4216 34.0383 23.7516 33.705C24.0849 33.3717 24.4849 33.11 24.9516 32.92C25.4182 32.73 25.9349 32.635 26.5016 32.635C27.0682 32.635 27.5832 32.7317 28.0466 32.925C28.5132 33.115 28.9116 33.3767 29.2416 33.71C29.5716 34.0433 29.8266 34.4367 30.0066 34.89C30.1899 35.3433 30.2816 35.8317 30.2816 36.355ZM28.5516 36.355C28.5516 35.995 28.5049 35.6717 28.4116 35.385C28.3182 35.095 28.1832 34.85 28.0066 34.65C27.8332 34.45 27.6199 34.2967 27.3666 34.19C27.1132 34.0833 26.8249 34.03 26.5016 34.03C26.1749 34.03 25.8832 34.0833 25.6266 34.19C25.3732 34.2967 25.1582 34.45 24.9816 34.65C24.8082 34.85 24.6749 35.095 24.5816 35.385C24.4882 35.6717 24.4416 35.995 24.4416 36.355C24.4416 36.7183 24.4882 37.045 24.5816 37.335C24.6749 37.6217 24.8082 37.865 24.9816 38.065C25.1582 38.265 25.3732 38.4183 25.6266 38.525C25.8832 38.6283 26.1749 38.68 26.5016 38.68C26.8249 38.68 27.1132 38.6283 27.3666 38.525C27.6199 38.4183 27.8332 38.265 28.0066 38.065C28.1832 37.865 28.3182 37.6217 28.4116 37.335C28.5049 37.045 28.5516 36.7183 28.5516 36.355ZM38.6261 36.355C38.6261 36.8817 38.5344 37.3717 38.3511 37.825C38.1711 38.2783 37.9161 38.6733 37.5861 39.01C37.2561 39.3433 36.8578 39.605 36.3911 39.795C35.9278 39.985 35.4128 40.08 34.8461 40.08C34.2794 40.08 33.7628 39.985 33.2961 39.795C32.8294 39.605 32.4294 39.3433 32.0961 39.01C31.7661 38.6733 31.5094 38.2783 31.3261 37.825C31.1461 37.3717 31.0561 36.8817 31.0561 36.355C31.0561 35.8283 31.1461 35.3383 31.3261 34.885C31.5094 34.4317 31.7661 34.0383 32.0961 33.705C32.4294 33.3717 32.8294 33.11 33.2961 32.92C33.7628 32.73 34.2794 32.635 34.8461 32.635C35.4128 32.635 35.9278 32.7317 36.3911 32.925C36.8578 33.115 37.2561 33.3767 37.5861 33.71C37.9161 34.0433 38.1711 34.4367 38.3511 34.89C38.5344 35.3433 38.6261 35.8317 38.6261 36.355ZM36.8961 36.355C36.8961 35.995 36.8494 35.6717 36.7561 35.385C36.6628 35.095 36.5278 34.85 36.3511 34.65C36.1778 34.45 35.9644 34.2967 35.7111 34.19C35.4578 34.0833 35.1694 34.03 34.8461 34.03C34.5194 34.03 34.2278 34.0833 33.9711 34.19C33.7178 34.2967 33.5028 34.45 33.3261 34.65C33.1528 34.85 33.0194 35.095 32.9261 35.385C32.8328 35.6717 32.7861 35.995 32.7861 36.355C32.7861 36.7183 32.8328 37.045 32.9261 37.335C33.0194 37.6217 33.1528 37.865 33.3261 38.065C33.5028 38.265 33.7178 38.4183 33.9711 38.525C34.2278 38.6283 34.5194 38.68 34.8461 38.68C35.1694 38.68 35.4578 38.6283 35.7111 38.525C35.9644 38.4183 36.1778 38.265 36.3511 38.065C36.5278 37.865 36.6628 37.6217 36.7561 37.335C36.8494 37.045 36.8961 36.7183 36.8961 36.355ZM46.4306 36.355C46.4306 36.8817 46.339 37.3683 46.1556 37.815C45.9756 38.2583 45.7206 38.6433 45.3906 38.97C45.0606 39.2933 44.6623 39.5467 44.1956 39.73C43.7323 39.91 43.2173 40 42.6506 40H39.8206V32.715H42.6506C43.2173 32.715 43.7323 32.8067 44.1956 32.99C44.6623 33.1733 45.0606 33.4267 45.3906 33.75C45.7206 34.0733 45.9756 34.4583 46.1556 34.905C46.339 35.3483 46.4306 35.8317 46.4306 36.355ZM44.7006 36.355C44.7006 35.995 44.654 35.67 44.5606 35.38C44.4673 35.09 44.3323 34.845 44.1556 34.645C43.9823 34.4417 43.769 34.2867 43.5156 34.18C43.2623 34.07 42.974 34.015 42.6506 34.015H41.5206V38.7H42.6506C42.974 38.7 43.2623 38.6467 43.5156 38.54C43.769 38.43 43.9823 38.275 44.1556 38.075C44.3323 37.8717 44.4673 37.625 44.5606 37.335C44.654 37.045 44.7006 36.7183 44.7006 36.355ZM20.615 48.115C20.655 48.115 20.695 48.1233 20.735 48.14C20.775 48.1533 20.8133 48.1783 20.85 48.215L21.52 48.92C21.2267 49.3033 20.8583 49.5933 20.415 49.79C19.975 49.9833 19.4533 50.08 18.85 50.08C18.2967 50.08 17.8 49.9867 17.36 49.8C16.9233 49.61 16.5517 49.35 16.245 49.02C15.9417 48.6867 15.7083 48.2933 15.545 47.84C15.3817 47.3833 15.3 46.8883 15.3 46.355C15.3 45.8117 15.3883 45.3133 15.565 44.86C15.7417 44.4033 15.99 44.01 16.31 43.68C16.63 43.35 17.0133 43.0933 17.46 42.91C17.9067 42.7267 18.3983 42.635 18.935 42.635C19.2083 42.635 19.465 42.66 19.705 42.71C19.9483 42.7567 20.175 42.8233 20.385 42.91C20.595 42.9933 20.7883 43.095 20.965 43.215C21.1417 43.335 21.2983 43.465 21.435 43.605L20.865 44.37C20.8283 44.4167 20.785 44.46 20.735 44.5C20.685 44.5367 20.615 44.555 20.525 44.555C20.465 44.555 20.4083 44.5417 20.355 44.515C20.3017 44.4883 20.245 44.4567 20.185 44.42C20.125 44.38 20.0583 44.3383 19.985 44.295C19.915 44.2483 19.83 44.2067 19.73 44.17C19.6333 44.13 19.5183 44.0967 19.385 44.07C19.255 44.0433 19.1017 44.03 18.925 44.03C18.645 44.03 18.3883 44.0817 18.155 44.185C17.925 44.2883 17.725 44.44 17.555 44.64C17.3883 44.8367 17.2583 45.08 17.165 45.37C17.075 45.6567 17.03 45.985 17.03 46.355C17.03 46.7283 17.08 47.06 17.18 47.35C17.2833 47.64 17.4217 47.885 17.595 48.085C17.7717 48.2817 17.9767 48.4317 18.21 48.535C18.4433 48.6383 18.6933 48.69 18.96 48.69C19.1133 48.69 19.2533 48.6833 19.38 48.67C19.5067 48.6533 19.625 48.6283 19.735 48.595C19.845 48.5583 19.9483 48.5117 20.045 48.455C20.1417 48.395 20.24 48.32 20.34 48.23C20.38 48.1967 20.4233 48.17 20.47 48.15C20.5167 48.1267 20.565 48.115 20.615 48.115ZM24.1577 44.015V45.715H26.4477V46.965H24.1577V48.7H27.1477V50H22.4577V42.715H27.1477V44.015H24.1577ZM30.7602 46.14C30.9902 46.14 31.1852 46.1117 31.3452 46.055C31.5085 45.995 31.6418 45.9133 31.7452 45.81C31.8485 45.7067 31.9235 45.5867 31.9702 45.45C32.0168 45.31 32.0402 45.16 32.0402 45C32.0402 44.68 31.9352 44.43 31.7252 44.25C31.5185 44.07 31.1968 43.98 30.7602 43.98H30.0802V46.14H30.7602ZM34.3502 50H32.8202C32.5368 50 32.3335 49.8933 32.2102 49.68L31.0002 47.565C30.9435 47.475 30.8802 47.41 30.8102 47.37C30.7402 47.3267 30.6402 47.305 30.5102 47.305H30.0802V50H28.3902V42.715H30.7602C31.2868 42.715 31.7352 42.77 32.1052 42.88C32.4785 42.9867 32.7818 43.1367 33.0152 43.33C33.2518 43.5233 33.4235 43.7517 33.5302 44.015C33.6368 44.2783 33.6902 44.565 33.6902 44.875C33.6902 45.1117 33.6585 45.335 33.5952 45.545C33.5318 45.755 33.4385 45.95 33.3152 46.13C33.1918 46.3067 33.0385 46.465 32.8552 46.605C32.6752 46.745 32.4668 46.86 32.2302 46.95C32.3402 47.0067 32.4435 47.0783 32.5402 47.165C32.6368 47.2483 32.7235 47.3483 32.8002 47.465L34.3502 50ZM40.2509 44.055H38.2009V50H36.5109V44.055H34.4609V42.715H40.2509V44.055ZM43.0097 50H41.3097V42.715H43.0097V50ZM46.3152 44.015V45.86H48.8052V47.165H46.3152V50H44.6152V42.715H49.3052V44.015H46.3152ZM52.1792 50H50.4792V42.715H52.1792V50ZM55.4847 44.015V45.715H57.7747V46.965H55.4847V48.7H58.4747V50H53.7847V42.715H58.4747V44.015H55.4847ZM66.3271 46.355C66.3271 46.8817 66.2354 47.3683 66.0521 47.815C65.8721 48.2583 65.6171 48.6433 65.2871 48.97C64.9571 49.2933 64.5588 49.5467 64.0921 49.73C63.6288 49.91 63.1138 50 62.5471 50H59.7171V42.715H62.5471C63.1138 42.715 63.6288 42.8067 64.0921 42.99C64.5588 43.1733 64.9571 43.4267 65.2871 43.75C65.6171 44.0733 65.8721 44.4583 66.0521 44.905C66.2354 45.3483 66.3271 45.8317 66.3271 46.355ZM64.5971 46.355C64.5971 45.995 64.5504 45.67 64.4571 45.38C64.3638 45.09 64.2288 44.845 64.0521 44.645C63.8788 44.4417 63.6654 44.2867 63.4121 44.18C63.1588 44.07 62.8704 44.015 62.5471 44.015H61.4171V48.7H62.5471C62.8704 48.7 63.1588 48.6467 63.4121 48.54C63.6654 48.43 63.8788 48.275 64.0521 48.075C64.2288 47.8717 64.3638 47.625 64.4571 47.335C64.5504 47.045 64.5971 46.7183 64.5971 46.355Z" fill="white"/>
</svg>
