<svg width="32" height="27" viewBox="0 0 32 27" fill="none" xmlns="http://www.w3.org/2000/svg">
<path d="M16 25.001C22.5433 21.8117 26.8894 18.2348 29.1037 14.5606C30.9787 11.4493 31.2122 8.41571 30.0349 5.92007C28.966 3.65406 26.7942 2.03607 24.2926 1.61917C21.6225 1.17418 18.9052 2.12516 16.7509 4.48028L16 5.30113L15.2491 4.48028C13.0948 2.12516 10.3775 1.17418 7.70737 1.61917C5.20578 2.03607 3.03402 3.65406 1.96508 5.92007C0.787807 8.41571 1.0213 11.4493 2.89629 14.5606C5.11058 18.2348 9.45672 21.8117 16 25.001Z" fill="url(#paint0_linear_199_2823)" fill-opacity="0.3"/>
<path fill-rule="evenodd" clip-rule="evenodd" d="M16 3.45964C13.6146 0.953138 10.5589 -0.120385 7.50348 0.388818C4.61089 0.87088 2.08889 2.74101 0.840829 5.38672C-0.552283 8.33991 -0.209121 11.819 1.83188 15.2057C4.22158 19.171 8.80832 22.8824 15.4563 26.1228L16 26.3878L16.5437 26.1228C23.1917 22.8824 27.7784 19.171 30.1681 15.2057C32.2091 11.819 32.5523 8.33991 31.1592 5.38672C29.9111 2.74101 27.3891 0.87088 24.4965 0.388818C21.4411 -0.120385 18.3854 0.953138 16 3.45964ZM14.3326 5.32339C12.4327 3.2463 10.1249 2.48061 7.91125 2.84952C5.80068 3.20125 3.97916 4.5671 3.08933 6.45342C2.1279 8.49151 2.25171 11.0797 3.9607 13.9155C5.94159 17.2024 9.87327 20.5452 16 23.6108C22.1267 20.5452 26.0584 17.2024 28.0393 13.9155C29.7483 11.0797 29.8721 8.49151 28.9107 6.45342C28.0208 4.5671 26.1993 3.20125 24.0887 2.84952C21.8751 2.48061 19.5673 3.2463 17.6674 5.32339L16 7.14617L14.3326 5.32339Z" fill="#DD1537"/>
<path d="M15.334 16.0373L13.5539 16.959C13.372 17.0532 13.1469 16.9844 13.0512 16.8053C13.0131 16.734 13 16.6523 13.0138 16.5728L13.354 14.6197C13.4335 14.1627 13.2797 13.6963 12.9424 13.3726L11.5016 11.9894C11.3544 11.8481 11.3514 11.6161 11.4949 11.4712C11.5521 11.4136 11.6269 11.376 11.7079 11.3644L13.6985 11.0796C14.1648 11.0128 14.5679 10.7245 14.7764 10.3085L15.6666 8.532C15.7575 8.35052 15.9807 8.27598 16.165 8.36551C16.2385 8.40118 16.2979 8.4597 16.3341 8.532L17.2244 10.3085C17.4328 10.7245 17.8359 11.0128 18.3022 11.0796L20.2929 11.3644C20.4963 11.3935 20.6372 11.5795 20.6077 11.7797C20.5959 11.8595 20.5578 11.9331 20.4992 11.9894L19.0583 13.3726C18.7211 13.6963 18.5672 14.1627 18.6468 14.6197L18.9869 16.5728C19.0217 16.7723 18.8856 16.9617 18.683 16.9959C18.6023 17.0095 18.5193 16.9965 18.4468 16.959L16.6667 16.0373C16.2496 15.8213 15.7512 15.8213 15.334 16.0373Z" fill="#2D52FF"/>
<defs>
<linearGradient id="paint0_linear_199_2823" x1="3" y1="3.00018" x2="24" y2="20.5002" gradientUnits="userSpaceOnUse">
<stop stop-color="#1AFFFF"/>
<stop offset="1" stop-color="#ECF015" stop-opacity="0.5"/>
</linearGradient>
</defs>
</svg>
