<svg width="136" height="112" viewBox="0 0 136 112" fill="none" xmlns="http://www.w3.org/2000/svg">
<path d="M57.5 11.5918L67.5 19.5918L84 8.0918H100.5L117 11.5918L130 28.0918V48.0918L117 67.5918L103 82.0918L82.5 99.0918L67.5 105.592L54.5 100.592L34.5 88.5918L13.5 63.0918L10.5 51.0918L5.5 34.0918L15.5 11.5918L36 4.0918L57.5 11.5918Z" fill="white"/>
<path d="M68 105.596C95.8089 92.0412 114.28 76.8396 123.691 61.2241C131.659 48.0013 132.652 35.1084 127.648 24.5019C123.105 14.8714 113.875 7.99492 103.244 6.22309C91.8956 4.33189 80.347 8.37357 71.1912 18.3828L68 21.8714L64.8088 18.3828C55.653 8.37357 44.1044 4.33189 32.7563 6.22309C22.1246 7.99492 12.8946 14.8714 8.35158 24.5019C3.34818 35.1084 4.34051 48.0013 12.3092 61.2241C21.72 76.8396 40.1911 92.0412 68 105.596Z" fill="url(#paint0_linear_883_6057)" fill-opacity="0.3"/>
<path fill-rule="evenodd" clip-rule="evenodd" d="M68 14.0451C57.8621 3.39247 44.8754 -1.17001 31.8898 0.994106C19.5963 3.04287 8.87777 10.9909 3.57352 22.2352C-2.3472 34.7863 -0.888766 49.5723 7.78547 63.9658C17.9417 80.8184 37.4354 96.5916 65.6894 110.363L68 111.49L70.3106 110.363C98.5646 96.5916 118.058 80.8184 128.215 63.9658C136.889 49.5723 138.347 34.7863 132.426 22.2352C127.122 10.9909 116.404 3.04287 104.11 0.994106C91.1245 -1.17001 78.1379 3.39247 68 14.0451ZM60.9137 21.966C52.8388 13.1384 43.0308 9.88421 33.6228 11.4521C24.6529 12.947 16.9114 18.7518 13.1296 26.7686C9.04356 35.4305 9.56978 46.4302 16.833 58.4824C25.2518 72.452 41.9614 86.6588 68 99.6875C94.0386 86.6588 110.748 72.452 119.167 58.4824C126.43 46.4302 126.956 35.4305 122.87 26.7686C119.089 18.7518 111.347 12.947 102.377 11.4521C92.9692 9.88421 83.1612 13.1384 75.0863 21.966L68 29.7128L60.9137 21.966Z" fill="#DD1537"/>
<path d="M65.1697 67.5003L57.604 71.4175C56.8309 71.8178 55.8744 71.5253 55.4678 70.7641C55.3058 70.4609 55.2499 70.1137 55.3087 69.7761L56.7543 61.4753C57.0926 59.533 56.4386 57.551 55.0054 56.1752L48.8816 50.2964C48.2562 49.696 48.2435 48.7101 48.8535 48.0943C49.0962 47.8493 49.4143 47.6897 49.7584 47.6405L58.2188 46.4298C60.2005 46.1462 61.9136 44.9206 62.7996 43.1526L66.583 35.6026C66.9695 34.8314 67.918 34.5146 68.7014 34.8951C69.0135 35.0467 69.2661 35.2954 69.4201 35.6026L73.2036 43.1526C74.0896 44.9206 75.8026 46.1462 77.7844 46.4298L86.2447 47.6405C87.1093 47.7642 87.7082 48.5544 87.5825 49.4055C87.5325 49.7443 87.3705 50.0574 87.1215 50.2964L80.9977 56.1752C79.5645 57.551 78.9106 59.533 79.2488 61.4753L80.6944 69.7761C80.8421 70.6238 80.2637 71.4287 79.4027 71.5741C79.0598 71.632 78.707 71.5769 78.3991 71.4175L70.8335 67.5003C69.0607 66.5824 66.9425 66.5824 65.1697 67.5003Z" fill="#2D52FF"/>
<defs>
<linearGradient id="paint0_linear_883_6057" x1="12.75" y1="12.0924" x2="102" y2="86.4674" gradientUnits="userSpaceOnUse">
<stop stop-color="#1AFFFF"/>
<stop offset="1" stop-color="#ECF015" stop-opacity="0.5"/>
</linearGradient>
</defs>
</svg>
