<svg width="145" height="32" viewBox="0 0 145 32" fill="none" xmlns="http://www.w3.org/2000/svg">
<path d="M46.416 22.176C45.5947 22.176 44.8213 22.0267 44.096 21.728C43.3813 21.4293 42.7573 21.0187 42.224 20.496C41.6907 19.9627 41.2693 19.344 40.96 18.64C40.6613 17.9253 40.512 17.1573 40.512 16.336C40.512 15.5147 40.6667 14.752 40.976 14.048C41.2853 13.344 41.712 12.7307 42.256 12.208C42.8107 11.6747 43.456 11.264 44.192 10.976C44.928 10.6773 45.7173 10.528 46.56 10.528C47.5307 10.528 48.4107 10.704 49.2 11.056C50 11.408 50.6613 11.8933 51.184 12.512L49.472 14.224C49.1093 13.7547 48.6827 13.4027 48.192 13.168C47.7013 12.9333 47.1467 12.816 46.528 12.816C45.8667 12.816 45.2747 12.9653 44.752 13.264C44.2293 13.552 43.8187 13.9627 43.52 14.496C43.232 15.0187 43.088 15.632 43.088 16.336C43.088 17.04 43.232 17.6587 43.52 18.192C43.808 18.7253 44.2027 19.1413 44.704 19.44C45.2053 19.7387 45.7813 19.888 46.432 19.888C47.0933 19.888 47.6533 19.7653 48.112 19.52C48.5813 19.264 48.9387 18.9013 49.184 18.432C49.44 17.952 49.568 17.3707 49.568 16.688L51.232 17.808L46.192 17.728V15.6H52.128V15.968C52.128 17.3227 51.8827 18.464 51.392 19.392C50.912 20.3093 50.24 21.0027 49.376 21.472C48.5227 21.9413 47.536 22.176 46.416 22.176ZM59.1988 22.192C58.3454 22.192 57.5561 22.0427 56.8307 21.744C56.1161 21.4453 55.4868 21.0293 54.9428 20.496C54.3988 19.9627 53.9774 19.344 53.6788 18.64C53.3801 17.9253 53.2308 17.1573 53.2308 16.336C53.2308 15.504 53.3801 14.736 53.6788 14.032C53.9774 13.328 54.3934 12.7147 54.9268 12.192C55.4601 11.6587 56.0841 11.248 56.7988 10.96C57.5241 10.6613 58.3134 10.512 59.1668 10.512C60.0094 10.512 60.7881 10.6613 61.5028 10.96C62.2281 11.248 62.8574 11.6587 63.3908 12.192C63.9348 12.7147 64.3561 13.3333 64.6548 14.048C64.9534 14.752 65.1028 15.52 65.1028 16.352C65.1028 17.1733 64.9534 17.9413 64.6548 18.656C64.3561 19.36 63.9401 19.9787 63.4068 20.512C62.8734 21.0347 62.2441 21.4453 61.5188 21.744C60.8041 22.0427 60.0308 22.192 59.1988 22.192ZM59.1668 19.904C59.8388 19.904 60.4254 19.7547 60.9268 19.456C61.4388 19.1573 61.8334 18.7413 62.1108 18.208C62.3881 17.664 62.5268 17.04 62.5268 16.336C62.5268 15.8027 62.4468 15.3227 62.2868 14.896C62.1268 14.4587 61.8974 14.0853 61.5988 13.776C61.3001 13.456 60.9428 13.216 60.5268 13.056C60.1214 12.8853 59.6681 12.8 59.1668 12.8C58.4948 12.8 57.9028 12.9493 57.3908 13.248C56.8894 13.536 56.5001 13.9467 56.2228 14.48C55.9454 15.0027 55.8068 15.6213 55.8068 16.336C55.8068 16.8693 55.8868 17.3547 56.0468 17.792C56.2068 18.2293 56.4308 18.608 56.7188 18.928C57.0174 19.2373 57.3748 19.4773 57.7908 19.648C58.2068 19.8187 58.6654 19.904 59.1668 19.904ZM72.2456 22.192C71.3923 22.192 70.603 22.0427 69.8776 21.744C69.163 21.4453 68.5336 21.0293 67.9896 20.496C67.4456 19.9627 67.0243 19.344 66.7256 18.64C66.427 17.9253 66.2776 17.1573 66.2776 16.336C66.2776 15.504 66.427 14.736 66.7256 14.032C67.0243 13.328 67.4403 12.7147 67.9736 12.192C68.507 11.6587 69.131 11.248 69.8456 10.96C70.571 10.6613 71.3603 10.512 72.2136 10.512C73.0563 10.512 73.835 10.6613 74.5496 10.96C75.275 11.248 75.9043 11.6587 76.4376 12.192C76.9816 12.7147 77.403 13.3333 77.7016 14.048C78.0003 14.752 78.1496 15.52 78.1496 16.352C78.1496 17.1733 78.0003 17.9413 77.7016 18.656C77.403 19.36 76.987 19.9787 76.4536 20.512C75.9203 21.0347 75.291 21.4453 74.5656 21.744C73.851 22.0427 73.0776 22.192 72.2456 22.192ZM72.2136 19.904C72.8856 19.904 73.4723 19.7547 73.9736 19.456C74.4856 19.1573 74.8803 18.7413 75.1576 18.208C75.435 17.664 75.5736 17.04 75.5736 16.336C75.5736 15.8027 75.4936 15.3227 75.3336 14.896C75.1736 14.4587 74.9443 14.0853 74.6456 13.776C74.347 13.456 73.9896 13.216 73.5736 13.056C73.1683 12.8853 72.715 12.8 72.2136 12.8C71.5416 12.8 70.9496 12.9493 70.4376 13.248C69.9363 13.536 69.547 13.9467 69.2696 14.48C68.9923 15.0027 68.8536 15.6213 68.8536 16.336C68.8536 16.8693 68.9336 17.3547 69.0936 17.792C69.2536 18.2293 69.4776 18.608 69.7656 18.928C70.0643 19.2373 70.4216 19.4773 70.8376 19.648C71.2536 19.8187 71.7123 19.904 72.2136 19.904ZM81.4403 22V19.792H84.2403C84.9229 19.792 85.5203 19.6587 86.0323 19.392C86.5443 19.1147 86.9389 18.7147 87.2163 18.192C87.4936 17.6693 87.6323 17.0507 87.6323 16.336C87.6323 15.6213 87.4883 15.008 87.2003 14.496C86.9229 13.984 86.5283 13.5893 86.0163 13.312C85.5149 13.0347 84.9229 12.896 84.2403 12.896H81.3603V10.704H84.2723C85.1256 10.704 85.9096 10.8427 86.6243 11.12C87.3496 11.3867 87.9789 11.776 88.5123 12.288C89.0563 12.7893 89.4723 13.3867 89.7603 14.08C90.0589 14.7627 90.2083 15.52 90.2083 16.352C90.2083 17.1733 90.0589 17.9307 89.7603 18.624C89.4723 19.3173 89.0616 19.9147 88.5283 20.416C87.9949 20.9173 87.3656 21.3067 86.6403 21.584C85.9256 21.8613 85.1469 22 84.3043 22H81.4403ZM79.7443 22V10.704H82.2563V22H79.7443ZM96.7736 17.888V15.936H99.2056C99.515 15.936 99.7976 15.872 100.054 15.744C100.31 15.616 100.512 15.4293 100.662 15.184C100.811 14.9387 100.886 14.64 100.886 14.288C100.886 13.9467 100.811 13.6533 100.662 13.408C100.512 13.1627 100.31 12.976 100.054 12.848C99.7976 12.72 99.515 12.656 99.2056 12.656H96.7736V10.704H99.5736C100.288 10.704 100.934 10.848 101.51 11.136C102.086 11.424 102.539 11.84 102.87 12.384C103.211 12.9173 103.382 13.552 103.382 14.288C103.382 15.024 103.211 15.664 102.87 16.208C102.539 16.7413 102.086 17.1573 101.51 17.456C100.934 17.744 100.288 17.888 99.5736 17.888H96.7736ZM94.8536 22V10.704H97.3656V22H94.8536ZM103.162 22L107.642 10.704H109.914L114.346 22H111.69L108.298 12.624H109.21L105.77 22H103.162ZM105.706 19.952V17.904H111.866V19.952H105.706ZM117.461 17.344V15.488H119.845C120.346 15.488 120.73 15.36 120.997 15.104C121.274 14.848 121.413 14.5013 121.413 14.064C121.413 13.6587 121.28 13.3227 121.013 13.056C120.746 12.7893 120.362 12.656 119.861 12.656H117.461V10.704H120.149C120.896 10.704 121.552 10.848 122.117 11.136C122.682 11.4133 123.125 11.8027 123.445 12.304C123.765 12.8053 123.925 13.3813 123.925 14.032C123.925 14.6933 123.765 15.2747 123.445 15.776C123.125 16.2667 122.677 16.6507 122.101 16.928C121.525 17.2053 120.848 17.344 120.069 17.344H117.461ZM115.541 22V10.704H118.053V22H115.541ZM121.685 22L118.165 17.136L120.469 16.512L124.661 22H121.685ZM128.153 22V10.864H130.665V22H128.153ZM124.617 12.896V10.704H134.201V12.896H124.617ZM138.529 17.792L134.177 10.704H137.089L140.433 16.432H138.561L141.905 10.704H144.753L140.369 17.792H138.529ZM138.225 22V16.64H140.737V22H138.225Z" fill="#242D3D"/>
<path d="M16 28.001C22.5433 24.8117 26.8894 21.2348 29.1037 17.5606C30.9787 14.4493 31.2122 11.4157 30.0349 8.92007C28.966 6.65406 26.7942 5.03607 24.2926 4.61917C21.6225 4.17418 18.9052 5.12516 16.7509 7.48028L16 8.30113L15.2491 7.48028C13.0948 5.12516 10.3775 4.17418 7.70737 4.61917C5.20578 5.03607 3.03402 6.65406 1.96508 8.92007C0.787807 11.4157 1.0213 14.4493 2.89629 17.5606C5.11058 21.2348 9.45672 24.8117 16 28.001Z" fill="url(#paint0_linear_199_2819)" fill-opacity="0.3"/>
<path fill-rule="evenodd" clip-rule="evenodd" d="M16 6.45964C13.6146 3.95314 10.5589 2.87961 7.50348 3.38882C4.61089 3.87088 2.08889 5.74101 0.840829 8.38672C-0.552283 11.3399 -0.209121 14.819 1.83188 18.2057C4.22158 22.171 8.80832 25.8824 15.4563 29.1228L16 29.3878L16.5437 29.1228C23.1917 25.8824 27.7784 22.171 30.1681 18.2057C32.2091 14.819 32.5523 11.3399 31.1592 8.38672C29.9111 5.74101 27.3891 3.87088 24.4965 3.38882C21.4411 2.87961 18.3854 3.95314 16 6.45964ZM14.3326 8.32339C12.4327 6.2463 10.1249 5.48061 7.91125 5.84952C5.80068 6.20125 3.97916 7.5671 3.08933 9.45342C2.1279 11.4915 2.25171 14.0797 3.9607 16.9155C5.94159 20.2024 9.87327 23.5452 16 26.6108C22.1267 23.5452 26.0584 20.2024 28.0393 16.9155C29.7483 14.0797 29.8721 11.4915 28.9107 9.45342C28.0208 7.5671 26.1993 6.20126 24.0887 5.84952C21.8751 5.48061 19.5673 6.2463 17.6674 8.32339L16 10.1462L14.3326 8.32339Z" fill="#DD1537"/>
<path d="M15.334 19.0373L13.5539 19.959C13.372 20.0532 13.1469 19.9844 13.0512 19.8053C13.0131 19.734 13 19.6523 13.0138 19.5728L13.354 17.6197C13.4335 17.1627 13.2797 16.6963 12.9424 16.3726L11.5016 14.9894C11.3544 14.8481 11.3514 14.6161 11.4949 14.4712C11.5521 14.4136 11.6269 14.376 11.7079 14.3644L13.6985 14.0796C14.1648 14.0128 14.5679 13.7245 14.7764 13.3085L15.6666 11.532C15.7575 11.3505 15.9807 11.276 16.165 11.3655C16.2385 11.4012 16.2979 11.4597 16.3341 11.532L17.2244 13.3085C17.4328 13.7245 17.8359 14.0128 18.3022 14.0796L20.2929 14.3644C20.4963 14.3935 20.6372 14.5795 20.6077 14.7797C20.5959 14.8595 20.5578 14.9331 20.4992 14.9894L19.0583 16.3726C18.7211 16.6963 18.5672 17.1627 18.6468 17.6197L18.9869 19.5728C19.0217 19.7723 18.8856 19.9617 18.683 19.9959C18.6023 20.0095 18.5193 19.9965 18.4468 19.959L16.6667 19.0373C16.2496 18.8213 15.7512 18.8213 15.334 19.0373Z" fill="#2D52FF"/>
<defs>
<linearGradient id="paint0_linear_199_2819" x1="3" y1="6.00018" x2="24" y2="23.5002" gradientUnits="userSpaceOnUse">
<stop stop-color="#1AFFFF"/>
<stop offset="1" stop-color="#ECF015" stop-opacity="0.5"/>
</linearGradient>
</defs>
</svg>
