<svg width="1055" height="471" viewBox="0 0 1055 471" fill="none" xmlns="http://www.w3.org/2000/svg">
<mask id="path-1-inside-1_406_148" fill="white">
<path fill-rule="evenodd" clip-rule="evenodd" d="M486.125 191.627V111.592H477.702V65H471.277V84.5892H439.459V65H433.038V111.592H424.615V183.727H418.882V155.734H373.239V171.229H362.144V256.359H357.523V142.022H344.846V136.207H341.991V111.363H339.733V136.207H336.882V142.022H323.516V238.39H318.58V147.118H313.859V132.975H289.824V147.118H285.102V217.928H265.637V147.118H260.915V132.975H236.88V147.118H232.159V238.39H226.866V241.741H221.861V241.744V256.359H216.227C212.545 256.359 209.543 258.963 209.543 262.153C209.543 262.226 209.544 262.298 209.548 262.369H176.88C163.142 262.369 151.902 271.649 151.902 283H774.379H803.492H903.996C903.996 271.649 892.756 262.369 879.018 262.369H872.452L872.453 262.34L872.454 262.31C872.455 262.292 872.455 262.274 872.456 262.256L872.456 262.219C872.457 262.197 872.457 262.175 872.457 262.153C872.457 258.963 869.454 256.359 865.772 256.359H852.352V241.744L852.348 241.741H847.343V238.39H842.053V147.118H837.332V132.975H813.297V147.118H808.572V217.928H803.492V193.421H805.144V187.122H802.376V184.157H805.144V177.858H800.389C800.245 172.985 797.137 171.831 794.061 170.689C792.161 169.984 790.272 169.283 789.102 167.713V147.118H784.385V132.975H760.346V147.118H755.628V238.39H751.27V164.023H716.913V102.222H703.896V96.1215H701.046V71.2806H698.787V96.1215H695.936V102.222H682.924V212.02H660.724V171.229H649.626V155.734H603.982V236.555H597.933V143.555H565.283V138.588H553.518V210.946H528.93V191.627H486.125Z"/>
</mask>
<path d="M486.125 111.592H488.125V109.592H486.125V111.592ZM486.125 191.627H484.125V193.627H486.125V191.627ZM477.702 111.592H475.702V113.592H477.702V111.592ZM477.702 65H479.702V63H477.702V65ZM471.277 65V63H469.277V65H471.277ZM471.277 84.5892V86.5892H473.277V84.5892H471.277ZM439.459 84.5892H437.459V86.5892H439.459V84.5892ZM439.459 65H441.459V63H439.459V65ZM433.038 65V63H431.038V65H433.038ZM433.038 111.592V113.592H435.038V111.592H433.038ZM424.615 111.592V109.592H422.615V111.592H424.615ZM424.615 183.727V185.727H426.615V183.727H424.615ZM418.882 183.727H416.882V185.727H418.882V183.727ZM418.882 155.734H420.882V153.734H418.882V155.734ZM373.239 155.734V153.734H371.239V155.734H373.239ZM373.239 171.229V173.229H375.239V171.229H373.239ZM362.144 171.229V169.229H360.144V171.229H362.144ZM362.144 256.359V258.359H364.144V256.359H362.144ZM357.523 256.359H355.523V258.359H357.523V256.359ZM357.523 142.022H359.523V140.022H357.523V142.022ZM344.846 142.022H342.846V144.022H344.846V142.022ZM344.846 136.207H346.846V134.207H344.846V136.207ZM341.991 136.207H339.991V138.207H341.991V136.207ZM341.991 111.363H343.991V109.363H341.991V111.363ZM339.733 111.363V109.363H337.733V111.363H339.733ZM339.733 136.207V138.207H341.733V136.207H339.733ZM336.882 136.207V134.207H334.882V136.207H336.882ZM336.882 142.022V144.022H338.882V142.022H336.882ZM323.516 142.022V140.022H321.516V142.022H323.516ZM323.516 238.39V240.39H325.516V238.39H323.516ZM318.58 238.39H316.58V240.39H318.58V238.39ZM318.58 147.118H320.58V145.118H318.58V147.118ZM313.859 147.118H311.859V149.118H313.859V147.118ZM313.859 132.975H315.859V130.975H313.859V132.975ZM289.824 132.975V130.975H287.824V132.975H289.824ZM289.824 147.118V149.118H291.824V147.118H289.824ZM285.102 147.118V145.118H283.102V147.118H285.102ZM285.102 217.928V219.928H287.102V217.928H285.102ZM265.637 217.928H263.637V219.928H265.637V217.928ZM265.637 147.118H267.637V145.118H265.637V147.118ZM260.915 147.118H258.915V149.118H260.915V147.118ZM260.915 132.975H262.915V130.975H260.915V132.975ZM236.88 132.975V130.975H234.88V132.975H236.88ZM236.88 147.118V149.118H238.88V147.118H236.88ZM232.159 147.118V145.118H230.159V147.118H232.159ZM232.159 238.39V240.39H234.159V238.39H232.159ZM226.866 238.39V236.39H224.866V238.39H226.866ZM226.866 241.741V243.741H228.866V241.741H226.866ZM221.861 241.741V239.741H219.861V241.741H221.861ZM221.861 256.359V258.359H223.861V256.359H221.861ZM209.548 262.369V264.369H211.635L211.546 262.284L209.548 262.369ZM151.902 283H149.902V285H151.902V283ZM903.996 283V285H905.996V283H903.996ZM872.452 262.369L870.454 262.29L870.371 264.369H872.452V262.369ZM872.453 262.34L874.452 262.419L874.452 262.408L872.453 262.34ZM872.454 262.31L874.453 262.378L874.453 262.371L872.454 262.31ZM872.456 262.256L874.455 262.297L874.455 262.292L872.456 262.256ZM872.456 262.219L874.456 262.255L874.456 262.247L872.456 262.219ZM852.352 256.359H850.352V258.359H852.352V256.359ZM852.352 241.744H854.352V240.838L853.671 240.24L852.352 241.744ZM852.348 241.741L853.667 240.237L853.101 239.741H852.348V241.741ZM847.343 241.741H845.343V243.741H847.343V241.741ZM847.343 238.39H849.343V236.39H847.343V238.39ZM842.053 238.39H840.053V240.39H842.053V238.39ZM842.053 147.118H844.053V145.118H842.053V147.118ZM837.332 147.118H835.332V149.118H837.332V147.118ZM837.332 132.975H839.332V130.975H837.332V132.975ZM813.297 132.975V130.975H811.297V132.975H813.297ZM813.297 147.118V149.118H815.297V147.118H813.297ZM808.572 147.118V145.118H806.572V147.118H808.572ZM808.572 217.928V219.928H810.572V217.928H808.572ZM803.492 217.928H801.492V219.928H803.492V217.928ZM803.492 193.421V191.421H801.492V193.421H803.492ZM805.144 193.421V195.421H807.144V193.421H805.144ZM805.144 187.122H807.144V185.122H805.144V187.122ZM802.376 187.122H800.376V189.122H802.376V187.122ZM802.376 184.157V182.157H800.376V184.157H802.376ZM805.144 184.157V186.157H807.144V184.157H805.144ZM805.144 177.858H807.144V175.858H805.144V177.858ZM800.389 177.858L798.39 177.917L798.447 179.858H800.389V177.858ZM794.061 170.689L793.365 172.564L794.061 170.689ZM789.102 167.713H787.102V168.377L787.499 168.908L789.102 167.713ZM789.102 147.118H791.102V145.118H789.102V147.118ZM784.385 147.118H782.385V149.118H784.385V147.118ZM784.385 132.975H786.385V130.975H784.385V132.975ZM760.346 132.975V130.975H758.346V132.975H760.346ZM760.346 147.118V149.118H762.346V147.118H760.346ZM755.628 147.118V145.118H753.628V147.118H755.628ZM755.628 238.39V240.39H757.628V238.39H755.628ZM751.27 238.39H749.27V240.39H751.27V238.39ZM751.27 164.023H753.27V162.023H751.27V164.023ZM716.913 164.023H714.913V166.023H716.913V164.023ZM716.913 102.222H718.913V100.222H716.913V102.222ZM703.896 102.222H701.896V104.222H703.896V102.222ZM703.896 96.1215H705.896V94.1215H703.896V96.1215ZM701.046 96.1215H699.046V98.1215H701.046V96.1215ZM701.046 71.2806H703.046V69.2806H701.046V71.2806ZM698.787 71.2806V69.2806H696.787V71.2806H698.787ZM698.787 96.1215V98.1215H700.787V96.1215H698.787ZM695.936 96.1215V94.1215H693.936V96.1215H695.936ZM695.936 102.222V104.222H697.936V102.222H695.936ZM682.924 102.222V100.222H680.924V102.222H682.924ZM682.924 212.02V214.02H684.924V212.02H682.924ZM660.724 212.02H658.724V214.02H660.724V212.02ZM660.724 171.229H662.724V169.229H660.724V171.229ZM649.626 171.229H647.626V173.229H649.626V171.229ZM649.626 155.734H651.626V153.734H649.626V155.734ZM603.982 155.734V153.734H601.982V155.734H603.982ZM603.982 236.555V238.555H605.982V236.555H603.982ZM597.933 236.555H595.933V238.555H597.933V236.555ZM597.933 143.555H599.933V141.555H597.933V143.555ZM565.283 143.555H563.283V145.555H565.283V143.555ZM565.283 138.588H567.283V136.588H565.283V138.588ZM553.518 138.588V136.588H551.518V138.588H553.518ZM553.518 210.946V212.946H555.518V210.946H553.518ZM528.93 210.946H526.93V212.946H528.93V210.946ZM528.93 191.627H530.93V189.627H528.93V191.627ZM484.125 111.592V191.627H488.125V111.592H484.125ZM477.702 113.592H486.125V109.592H477.702V113.592ZM475.702 65V111.592H479.702V65H475.702ZM471.277 67H477.702V63H471.277V67ZM473.277 84.5892V65H469.277V84.5892H473.277ZM439.459 86.5892H471.277V82.5892H439.459V86.5892ZM437.459 65V84.5892H441.459V65H437.459ZM433.038 67H439.459V63H433.038V67ZM435.038 111.592V65H431.038V111.592H435.038ZM424.615 113.592H433.038V109.592H424.615V113.592ZM426.615 183.727V111.592H422.615V183.727H426.615ZM418.882 185.727H424.615V181.727H418.882V185.727ZM416.882 155.734V183.727H420.882V155.734H416.882ZM373.239 157.734H418.882V153.734H373.239V157.734ZM375.239 171.229V155.734H371.239V171.229H375.239ZM362.144 173.229H373.239V169.229H362.144V173.229ZM364.144 256.359V171.229H360.144V256.359H364.144ZM357.523 258.359H362.144V254.359H357.523V258.359ZM355.523 142.022V256.359H359.523V142.022H355.523ZM344.846 144.022H357.523V140.022H344.846V144.022ZM342.846 136.207V142.022H346.846V136.207H342.846ZM341.991 138.207H344.846V134.207H341.991V138.207ZM339.991 111.363V136.207H343.991V111.363H339.991ZM339.733 113.363H341.991V109.363H339.733V113.363ZM341.733 136.207V111.363H337.733V136.207H341.733ZM336.882 138.207H339.733V134.207H336.882V138.207ZM338.882 142.022V136.207H334.882V142.022H338.882ZM323.516 144.022H336.882V140.022H323.516V144.022ZM325.516 238.39V142.022H321.516V238.39H325.516ZM318.58 240.39H323.516V236.39H318.58V240.39ZM316.58 147.118V238.39H320.58V147.118H316.58ZM313.859 149.118H318.58V145.118H313.859V149.118ZM311.859 132.975V147.118H315.859V132.975H311.859ZM289.824 134.975H313.859V130.975H289.824V134.975ZM291.824 147.118V132.975H287.824V147.118H291.824ZM285.102 149.118H289.824V145.118H285.102V149.118ZM287.102 217.928V147.118H283.102V217.928H287.102ZM265.637 219.928H285.102V215.928H265.637V219.928ZM263.637 147.118V217.928H267.637V147.118H263.637ZM260.915 149.118H265.637V145.118H260.915V149.118ZM258.915 132.975V147.118H262.915V132.975H258.915ZM236.88 134.975H260.915V130.975H236.88V134.975ZM238.88 147.118V132.975H234.88V147.118H238.88ZM232.159 149.118H236.88V145.118H232.159V149.118ZM234.159 238.39V147.118H230.159V238.39H234.159ZM226.866 240.39H232.159V236.39H226.866V240.39ZM228.866 241.741V238.39H224.866V241.741H228.866ZM221.861 243.741H226.866V239.741H221.861V243.741ZM223.861 241.744V241.741H219.861V241.744H223.861ZM223.861 256.359V241.744H219.861V256.359H223.861ZM216.227 258.359H221.861V254.359H216.227V258.359ZM211.543 262.153C211.543 260.326 213.372 258.359 216.227 258.359V254.359C211.719 254.359 207.543 257.599 207.543 262.153H211.543ZM211.546 262.284C211.544 262.241 211.543 262.197 211.543 262.153H207.543C207.543 262.254 207.545 262.355 207.549 262.455L211.546 262.284ZM176.88 264.369H209.548V260.369H176.88V264.369ZM153.902 283C153.902 273.094 163.872 264.369 176.88 264.369V260.369C162.413 260.369 149.902 270.203 149.902 283H153.902ZM774.379 281H151.902V285H774.379V281ZM803.492 281H774.379V285H803.492V281ZM903.996 281H803.492V285H903.996V281ZM879.018 264.369C892.026 264.369 901.996 273.094 901.996 283H905.996C905.996 270.203 893.485 260.369 879.018 260.369V264.369ZM872.452 264.369H879.018V260.369H872.452V264.369ZM870.455 262.261L870.454 262.29L874.451 262.448L874.452 262.419L870.455 262.261ZM870.456 262.241L870.455 262.272L874.452 262.408L874.453 262.378L870.456 262.241ZM870.456 262.215C870.456 262.228 870.456 262.239 870.455 262.248L874.453 262.371C874.454 262.344 874.455 262.319 874.455 262.297L870.456 262.215ZM870.457 262.183L870.456 262.22L874.455 262.292L874.456 262.255L870.457 262.183ZM870.457 262.153C870.457 262.168 870.457 262.18 870.457 262.191L874.456 262.247C874.457 262.214 874.457 262.183 874.457 262.153H870.457ZM865.772 258.359C868.628 258.359 870.457 260.326 870.457 262.153H874.457C874.457 257.599 870.281 254.359 865.772 254.359V258.359ZM852.352 258.359H865.772V254.359H852.352V258.359ZM850.352 241.744V256.359H854.352V241.744H850.352ZM851.029 243.244L851.033 243.248L853.671 240.24L853.667 240.237L851.029 243.244ZM847.343 243.741H852.348V239.741H847.343V243.741ZM845.343 238.39V241.741H849.343V238.39H845.343ZM842.053 240.39H847.343V236.39H842.053V240.39ZM840.053 147.118V238.39H844.053V147.118H840.053ZM837.332 149.118H842.053V145.118H837.332V149.118ZM835.332 132.975V147.118H839.332V132.975H835.332ZM813.297 134.975H837.332V130.975H813.297V134.975ZM815.297 147.118V132.975H811.297V147.118H815.297ZM808.572 149.118H813.297V145.118H808.572V149.118ZM810.572 217.928V147.118H806.572V217.928H810.572ZM803.492 219.928H808.572V215.928H803.492V219.928ZM801.492 193.421V217.928H805.492V193.421H801.492ZM805.144 191.421H803.492V195.421H805.144V191.421ZM803.144 187.122V193.421H807.144V187.122H803.144ZM802.376 189.122H805.144V185.122H802.376V189.122ZM800.376 184.157V187.122H804.376V184.157H800.376ZM805.144 182.157H802.376V186.157H805.144V182.157ZM803.144 177.858V184.157H807.144V177.858H803.144ZM800.389 179.858H805.144V175.858H800.389V179.858ZM793.365 172.564C794.978 173.163 796.15 173.624 797.001 174.374C797.72 175.008 798.332 175.97 798.39 177.917L802.388 177.799C802.302 174.873 801.288 172.821 799.647 171.374C798.139 170.044 796.219 169.357 794.757 168.814L793.365 172.564ZM787.499 168.908C789.085 171.036 791.591 171.906 793.365 172.564L794.757 168.814C792.73 168.062 791.46 167.53 790.706 166.518L787.499 168.908ZM787.102 147.118V167.713H791.102V147.118H787.102ZM784.385 149.118H789.102V145.118H784.385V149.118ZM782.385 132.975V147.118H786.385V132.975H782.385ZM760.346 134.975H784.385V130.975H760.346V134.975ZM762.346 147.118V132.975H758.346V147.118H762.346ZM755.628 149.118H760.346V145.118H755.628V149.118ZM757.628 238.39V147.118H753.628V238.39H757.628ZM751.27 240.39H755.628V236.39H751.27V240.39ZM749.27 164.023V238.39H753.27V164.023H749.27ZM716.913 166.023H751.27V162.023H716.913V166.023ZM714.913 102.222V164.023H718.913V102.222H714.913ZM703.896 104.222H716.913V100.222H703.896V104.222ZM701.896 96.1215V102.222H705.896V96.1215H701.896ZM701.046 98.1215H703.896V94.1215H701.046V98.1215ZM699.046 71.2806V96.1215H703.046V71.2806H699.046ZM698.787 73.2806H701.046V69.2806H698.787V73.2806ZM700.787 96.1215V71.2806H696.787V96.1215H700.787ZM695.936 98.1215H698.787V94.1215H695.936V98.1215ZM697.936 102.222V96.1215H693.936V102.222H697.936ZM682.924 104.222H695.936V100.222H682.924V104.222ZM684.924 212.02V102.222H680.924V212.02H684.924ZM660.724 214.02H682.924V210.02H660.724V214.02ZM658.724 171.229V212.02H662.724V171.229H658.724ZM649.626 173.229H660.724V169.229H649.626V173.229ZM647.626 155.734V171.229H651.626V155.734H647.626ZM603.982 157.734H649.626V153.734H603.982V157.734ZM605.982 236.555V155.734H601.982V236.555H605.982ZM597.933 238.555H603.982V234.555H597.933V238.555ZM595.933 143.555V236.555H599.933V143.555H595.933ZM565.283 145.555H597.933V141.555H565.283V145.555ZM563.283 138.588V143.555H567.283V138.588H563.283ZM553.518 140.588H565.283V136.588H553.518V140.588ZM555.518 210.946V138.588H551.518V210.946H555.518ZM528.93 212.946H553.518V208.946H528.93V212.946ZM526.93 191.627V210.946H530.93V191.627H526.93ZM486.125 193.627H528.93V189.627H486.125V193.627Z" fill="url(#paint0_linear_406_148)" mask="url(#path-1-inside-1_406_148)"/>
<rect x="112" y="266" width="831" height="89" fill="#EEF3F7"/>
<path d="M574.635 105.588C598.914 99.5764 616.089 90.6832 626.171 79.9299C634.708 70.8243 637.674 60.7992 635.513 51.5674C633.55 43.185 627.416 36.187 619.311 32.9875C610.659 29.5724 600.845 30.8139 591.913 37.1781L588.8 39.3962L586.868 36.0983C581.322 26.6361 572.876 21.4869 563.584 21.0622C554.879 20.6643 546.419 24.5391 541.198 31.3843C535.448 38.9232 534.051 49.284 538.114 61.086C542.912 75.0236 554.943 90.1667 574.635 105.588Z" fill="white"/>
<path d="M574.635 105.588C598.914 99.5764 616.089 90.6832 626.171 79.9299C634.708 70.8243 637.674 60.7992 635.513 51.5674C633.55 43.185 627.416 36.187 619.311 32.9875C610.659 29.5724 600.845 30.8139 591.913 37.1781L588.8 39.3962L586.868 36.0983C581.322 26.6361 572.876 21.4869 563.584 21.0622C554.879 20.6643 546.419 24.5391 541.198 31.3843C535.448 38.9232 534.051 49.284 538.114 61.086C542.912 75.0236 554.943 90.1667 574.635 105.588Z" fill="url(#paint1_linear_406_148)" fill-opacity="0.3"/>
<path fill-rule="evenodd" clip-rule="evenodd" d="M590.124 33.2088C583.912 23.0718 574.416 17.2676 563.784 16.7816C553.718 16.3215 543.9 20.7917 537.804 28.7839C531 37.7049 529.651 49.6413 534.074 62.4882C539.252 77.5299 551.995 93.2981 572.002 108.966L573.638 110.247L575.656 109.748C600.323 103.64 618.403 94.468 629.283 82.8628C638.576 72.951 642.231 61.5081 639.673 50.5837C637.382 40.7967 630.253 32.6997 620.881 29.0001C610.98 25.0922 599.942 26.5021 590.124 33.2088ZM583.182 38.2721C578.291 29.927 571.088 25.6949 563.385 25.3428C556.04 25.007 548.938 28.2865 544.592 33.9847C539.896 40.1414 538.451 48.9267 542.154 59.6838C546.447 72.1523 557.254 86.211 575.635 100.917C598.425 95.0216 614.039 86.6168 623.058 76.997C630.84 68.6975 633.117 60.0903 631.352 52.5511C629.718 45.5732 624.58 39.6743 617.741 36.9749C610.569 34.1436 602.264 35.057 594.387 40.6699L587.474 45.5955L583.182 38.2721Z" fill="#DD1537"/>
<path d="M578.843 74.991L572.199 76.8079C571.52 76.9936 570.813 76.6005 570.621 75.9299C570.544 75.6628 570.558 75.3789 570.662 75.1219L573.209 68.804C573.805 67.3256 573.624 65.6481 572.723 64.3179L568.876 58.6342C568.484 58.0536 568.64 57.2721 569.227 56.8885C569.46 56.7358 569.739 56.6635 570.019 56.6827L576.912 57.1569C578.527 57.268 580.089 56.5889 581.088 55.341L585.357 50.0122C585.793 49.4678 586.596 49.3778 587.151 49.8112C587.373 49.9839 587.53 50.2232 587.6 50.4922L589.314 57.1012C589.715 58.6489 590.862 59.9076 592.381 60.4671L598.865 62.8556C599.527 63.0997 599.867 63.8258 599.624 64.4774C599.527 64.7368 599.346 64.9569 599.108 65.1037L593.272 68.7153C591.907 69.5606 591.054 71.0168 590.993 72.6097L590.732 79.4167C590.705 80.1119 590.112 80.6504 589.406 80.6197C589.125 80.6074 588.856 80.5042 588.639 80.3261L583.321 75.9492C582.074 74.9236 580.4 74.5652 578.843 74.991Z" fill="#2D52FF"/>
<path d="M266.43 349.64C262.888 349.64 259.731 348.872 256.958 347.336C254.227 345.757 252.072 343.603 250.494 340.872C248.915 338.141 248.126 335.048 248.126 331.592V304.008H256.83V331.848C256.83 333.853 257.235 335.581 258.046 337.032C258.899 338.483 260.051 339.613 261.502 340.424C262.995 341.192 264.638 341.576 266.43 341.576C268.264 341.576 269.886 341.192 271.294 340.424C272.702 339.613 273.811 338.483 274.622 337.032C275.475 335.581 275.902 333.875 275.902 331.912V304.008H284.67V331.656C284.67 335.112 283.88 338.205 282.302 340.936C280.723 343.624 278.568 345.757 275.838 347.336C273.15 348.872 270.014 349.64 266.43 349.64ZM309.52 349.64C307.302 349.64 305.296 349.192 303.504 348.296C301.712 347.357 300.283 346.099 299.216 344.52C298.15 342.941 297.574 341.128 297.488 339.08V328.136C297.574 326.088 298.15 324.275 299.216 322.696C300.326 321.075 301.755 319.795 303.504 318.856C305.296 317.917 307.302 317.448 309.52 317.448C312.379 317.448 314.939 318.152 317.2 319.56C319.462 320.968 321.232 322.888 322.512 325.32C323.835 327.752 324.496 330.504 324.496 333.576C324.496 336.605 323.835 339.336 322.512 341.768C321.232 344.2 319.462 346.12 317.2 347.528C314.939 348.936 312.379 349.64 309.52 349.64ZM308.048 341.896C309.584 341.896 310.95 341.555 312.144 340.872C313.339 340.147 314.256 339.165 314.896 337.928C315.579 336.648 315.92 335.176 315.92 333.512C315.92 331.891 315.579 330.461 314.896 329.224C314.256 327.944 313.339 326.963 312.144 326.28C310.95 325.555 309.584 325.192 308.048 325.192C306.555 325.192 305.211 325.555 304.016 326.28C302.822 326.963 301.883 327.944 301.2 329.224C300.56 330.461 300.24 331.891 300.24 333.512C300.24 335.176 300.56 336.648 301.2 337.928C301.883 339.165 302.8 340.147 303.952 340.872C305.147 341.555 306.512 341.896 308.048 341.896ZM292.368 361.928V318.088H300.752V326.216L299.344 333.704L300.688 341.192V361.928H292.368ZM344.585 349.64C341.428 349.64 338.591 348.936 336.073 347.528C333.556 346.12 331.572 344.2 330.121 341.768C328.671 339.336 327.945 336.605 327.945 333.576C327.945 330.504 328.671 327.752 330.121 325.32C331.572 322.888 333.556 320.968 336.073 319.56C338.633 318.109 341.471 317.384 344.585 317.384C347.017 317.384 349.257 317.832 351.305 318.728C353.353 319.624 355.124 320.904 356.617 322.568L351.241 328.008C350.431 327.112 349.449 326.429 348.297 325.96C347.188 325.491 345.951 325.256 344.585 325.256C343.049 325.256 341.663 325.619 340.425 326.344C339.231 327.027 338.271 327.987 337.545 329.224C336.863 330.419 336.521 331.848 336.521 333.512C336.521 335.133 336.863 336.584 337.545 337.864C338.271 339.101 339.231 340.083 340.425 340.808C341.663 341.491 343.049 341.832 344.585 341.832C345.993 341.832 347.252 341.597 348.361 341.128C349.513 340.616 350.495 339.891 351.305 338.952L356.745 344.392C355.167 346.099 353.353 347.4 351.305 348.296C349.257 349.192 347.017 349.64 344.585 349.64ZM375.334 349.64C372.219 349.64 369.403 348.936 366.886 347.528C364.411 346.077 362.427 344.136 360.934 341.704C359.483 339.229 358.758 336.477 358.758 333.448C358.758 330.419 359.483 327.709 360.934 325.32C362.384 322.888 364.368 320.968 366.886 319.56C369.403 318.109 372.198 317.384 375.27 317.384C378.427 317.384 381.243 318.109 383.718 319.56C386.235 320.968 388.219 322.888 389.67 325.32C391.12 327.709 391.846 330.419 391.846 333.448C391.846 336.477 391.12 339.229 389.67 341.704C388.219 344.136 386.235 346.077 383.718 347.528C381.243 348.936 378.448 349.64 375.334 349.64ZM375.27 341.832C376.848 341.832 378.235 341.491 379.43 340.808C380.667 340.083 381.606 339.101 382.246 337.864C382.928 336.584 383.27 335.133 383.27 333.512C383.27 331.891 382.928 330.461 382.246 329.224C381.563 327.987 380.624 327.027 379.43 326.344C378.235 325.619 376.848 325.256 375.27 325.256C373.734 325.256 372.368 325.619 371.174 326.344C369.979 327.027 369.04 327.987 368.358 329.224C367.675 330.461 367.334 331.891 367.334 333.512C367.334 335.133 367.675 336.584 368.358 337.864C369.04 339.101 369.979 340.083 371.174 340.808C372.368 341.491 373.734 341.832 375.27 341.832ZM397.243 349V318.088H405.627V349H397.243ZM417.403 349V330.76C417.403 328.968 416.827 327.581 415.675 326.6C414.566 325.576 413.179 325.064 411.515 325.064C410.406 325.064 409.403 325.299 408.507 325.768C407.611 326.195 406.907 326.835 406.395 327.688C405.883 328.541 405.627 329.565 405.627 330.76L402.363 329.16C402.363 326.771 402.875 324.701 403.899 322.952C404.966 321.203 406.395 319.859 408.187 318.92C409.979 317.939 412.006 317.448 414.267 317.448C416.401 317.448 418.342 317.939 420.091 318.92C421.841 319.859 423.227 321.203 424.251 322.952C425.275 324.659 425.787 326.728 425.787 329.16V349H417.403ZM437.563 349V330.76C437.563 328.968 436.987 327.581 435.835 326.6C434.726 325.576 433.339 325.064 431.675 325.064C430.609 325.064 429.606 325.299 428.667 325.768C427.771 326.195 427.067 326.835 426.555 327.688C426.043 328.541 425.787 329.565 425.787 330.76L420.987 329.608C421.158 327.133 421.819 325 422.971 323.208C424.123 321.373 425.638 319.965 427.515 318.984C429.393 317.96 431.483 317.448 433.787 317.448C436.091 317.448 438.161 317.939 439.995 318.92C441.83 319.859 443.281 321.224 444.347 323.016C445.414 324.808 445.947 326.941 445.947 329.416V349H437.563ZM452.743 349V318.088H461.191V349H452.743ZM456.967 313.096C455.602 313.096 454.471 312.648 453.575 311.752C452.679 310.813 452.231 309.661 452.231 308.296C452.231 306.973 452.679 305.843 453.575 304.904C454.471 303.965 455.602 303.496 456.967 303.496C458.375 303.496 459.506 303.965 460.359 304.904C461.255 305.843 461.703 306.973 461.703 308.296C461.703 309.661 461.255 310.813 460.359 311.752C459.506 312.648 458.375 313.096 456.967 313.096ZM489.418 349V331.272C489.418 329.437 488.842 327.944 487.69 326.792C486.538 325.64 485.045 325.064 483.21 325.064C482.016 325.064 480.949 325.32 480.01 325.832C479.072 326.344 478.325 327.069 477.77 328.008C477.258 328.947 477.002 330.035 477.002 331.272L473.738 329.608C473.738 327.176 474.25 325.064 475.274 323.272C476.341 321.437 477.792 320.008 479.626 318.984C481.504 317.96 483.616 317.448 485.962 317.448C488.224 317.448 490.25 318.024 492.042 319.176C493.834 320.285 495.242 321.757 496.266 323.592C497.29 325.384 497.802 327.325 497.802 329.416V349H489.418ZM468.618 349V318.088H477.002V349H468.618ZM517.484 362.696C514.198 362.696 511.297 362.099 508.78 360.904C506.262 359.752 504.257 358.109 502.764 355.976L508.076 350.664C509.27 352.072 510.593 353.139 512.044 353.864C513.537 354.632 515.329 355.016 517.42 355.016C520.022 355.016 522.07 354.355 523.564 353.032C525.1 351.709 525.868 349.875 525.868 347.528V339.784L527.276 333L525.932 326.216V318.088H534.252V347.4C534.252 350.472 533.526 353.139 532.076 355.4C530.668 357.704 528.705 359.496 526.188 360.776C523.67 362.056 520.769 362.696 517.484 362.696ZM517.1 348.168C514.326 348.168 511.83 347.507 509.612 346.184C507.393 344.819 505.644 342.963 504.364 340.616C503.126 338.269 502.508 335.645 502.508 332.744C502.508 329.843 503.126 327.24 504.364 324.936C505.644 322.632 507.393 320.819 509.612 319.496C511.83 318.131 514.326 317.448 517.1 317.448C519.404 317.448 521.43 317.896 523.18 318.792C524.972 319.688 526.38 320.925 527.404 322.504C528.428 324.04 528.982 325.853 529.068 327.944V337.672C528.982 339.72 528.406 341.555 527.34 343.176C526.316 344.755 524.908 345.992 523.116 346.888C521.366 347.741 519.361 348.168 517.1 348.168ZM518.764 340.552C520.3 340.552 521.622 340.232 522.732 339.592C523.884 338.909 524.78 337.992 525.42 336.84C526.06 335.645 526.38 334.301 526.38 332.808C526.38 331.272 526.06 329.928 525.42 328.776C524.78 327.624 523.884 326.728 522.732 326.088C521.622 325.405 520.3 325.064 518.764 325.064C517.228 325.064 515.884 325.405 514.732 326.088C513.58 326.728 512.684 327.645 512.044 328.84C511.404 329.992 511.084 331.315 511.084 332.808C511.084 334.259 511.404 335.581 512.044 336.776C512.684 337.928 513.58 338.845 514.732 339.528C515.884 340.211 517.228 340.552 518.764 340.552ZM555.014 349V304.008H563.718V349H555.014ZM561.414 349V341.32H586.31V349H561.414ZM561.414 329.736V322.312H584.07V329.736H561.414ZM561.414 311.688V304.008H585.99V311.688H561.414ZM592.618 349V302.728H601.002V349H592.618ZM623.215 349.64C619.972 349.64 617.092 348.957 614.575 347.592C612.057 346.184 610.052 344.264 608.559 341.832C607.108 339.4 606.383 336.627 606.383 333.512C606.383 330.44 607.087 327.709 608.495 325.32C609.945 322.888 611.908 320.968 614.383 319.56C616.857 318.109 619.609 317.384 622.639 317.384C625.625 317.384 628.249 318.067 630.511 319.432C632.815 320.755 634.607 322.589 635.887 324.936C637.209 327.24 637.871 329.864 637.871 332.808C637.871 333.363 637.828 333.939 637.743 334.536C637.7 335.091 637.593 335.731 637.423 336.456L611.439 336.52V330.248L633.519 330.184L630.127 332.808C630.041 330.973 629.7 329.437 629.103 328.2C628.548 326.963 627.716 326.024 626.607 325.384C625.54 324.701 624.217 324.36 622.639 324.36C620.975 324.36 619.524 324.744 618.287 325.512C617.049 326.237 616.089 327.283 615.407 328.648C614.767 329.971 614.447 331.549 614.447 333.384C614.447 335.261 614.788 336.904 615.471 338.312C616.196 339.677 617.22 340.744 618.543 341.512C619.865 342.237 621.401 342.6 623.151 342.6C624.729 342.6 626.159 342.344 627.439 341.832C628.719 341.277 629.828 340.467 630.767 339.4L635.695 344.328C634.201 346.077 632.367 347.4 630.191 348.296C628.057 349.192 625.732 349.64 623.215 349.64ZM657.648 349.64C654.49 349.64 651.653 348.936 649.136 347.528C646.618 346.12 644.634 344.2 643.184 341.768C641.733 339.336 641.008 336.605 641.008 333.576C641.008 330.504 641.733 327.752 643.184 325.32C644.634 322.888 646.618 320.968 649.136 319.56C651.696 318.109 654.533 317.384 657.648 317.384C660.08 317.384 662.32 317.832 664.368 318.728C666.416 319.624 668.186 320.904 669.68 322.568L664.304 328.008C663.493 327.112 662.512 326.429 661.36 325.96C660.25 325.491 659.013 325.256 657.648 325.256C656.112 325.256 654.725 325.619 653.488 326.344C652.293 327.027 651.333 327.987 650.608 329.224C649.925 330.419 649.584 331.848 649.584 333.512C649.584 335.133 649.925 336.584 650.608 337.864C651.333 339.101 652.293 340.083 653.488 340.808C654.725 341.491 656.112 341.832 657.648 341.832C659.056 341.832 660.314 341.597 661.424 341.128C662.576 340.616 663.557 339.891 664.368 338.952L669.808 344.392C668.229 346.099 666.416 347.4 664.368 348.296C662.32 349.192 660.08 349.64 657.648 349.64ZM678.6 349V305.224H686.984V349H678.6ZM671.368 325.448V318.088H694.216V325.448H671.368ZM698.931 349V318.088H707.379V349H698.931ZM703.155 313.096C701.789 313.096 700.659 312.648 699.763 311.752C698.867 310.813 698.419 309.661 698.419 308.296C698.419 306.973 698.867 305.843 699.763 304.904C700.659 303.965 701.789 303.496 703.155 303.496C704.563 303.496 705.693 303.965 706.547 304.904C707.443 305.843 707.891 306.973 707.891 308.296C707.891 309.661 707.443 310.813 706.547 311.752C705.693 312.648 704.563 313.096 703.155 313.096ZM729.334 349.64C726.219 349.64 723.403 348.936 720.886 347.528C718.411 346.077 716.427 344.136 714.934 341.704C713.483 339.229 712.758 336.477 712.758 333.448C712.758 330.419 713.483 327.709 714.934 325.32C716.384 322.888 718.368 320.968 720.886 319.56C723.403 318.109 726.198 317.384 729.27 317.384C732.427 317.384 735.243 318.109 737.718 319.56C740.235 320.968 742.219 322.888 743.67 325.32C745.12 327.709 745.846 330.419 745.846 333.448C745.846 336.477 745.12 339.229 743.67 341.704C742.219 344.136 740.235 346.077 737.718 347.528C735.243 348.936 732.448 349.64 729.334 349.64ZM729.27 341.832C730.848 341.832 732.235 341.491 733.43 340.808C734.667 340.083 735.606 339.101 736.246 337.864C736.928 336.584 737.27 335.133 737.27 333.512C737.27 331.891 736.928 330.461 736.246 329.224C735.563 327.987 734.624 327.027 733.43 326.344C732.235 325.619 730.848 325.256 729.27 325.256C727.734 325.256 726.368 325.619 725.174 326.344C723.979 327.027 723.04 327.987 722.358 329.224C721.675 330.461 721.334 331.891 721.334 333.512C721.334 335.133 721.675 336.584 722.358 337.864C723.04 339.101 723.979 340.083 725.174 340.808C726.368 341.491 727.734 341.832 729.27 341.832ZM772.043 349V331.272C772.043 329.437 771.467 327.944 770.315 326.792C769.163 325.64 767.67 325.064 765.835 325.064C764.641 325.064 763.574 325.32 762.635 325.832C761.697 326.344 760.95 327.069 760.395 328.008C759.883 328.947 759.627 330.035 759.627 331.272L756.363 329.608C756.363 327.176 756.875 325.064 757.899 323.272C758.966 321.437 760.417 320.008 762.251 318.984C764.129 317.96 766.241 317.448 768.587 317.448C770.849 317.448 772.875 318.024 774.667 319.176C776.459 320.285 777.867 321.757 778.891 323.592C779.915 325.384 780.427 327.325 780.427 329.416V349H772.043ZM751.243 349V318.088H759.627V349H751.243ZM797.805 349.704C796.055 349.704 794.327 349.469 792.621 349C790.957 348.531 789.421 347.891 788.013 347.08C786.605 346.227 785.389 345.203 784.365 344.008L789.357 338.952C790.423 340.147 791.661 341.043 793.069 341.64C794.477 342.237 796.034 342.536 797.741 342.536C799.106 342.536 800.13 342.344 800.813 341.96C801.538 341.576 801.901 341 801.901 340.232C801.901 339.379 801.517 338.717 800.749 338.248C800.023 337.779 799.063 337.395 797.869 337.096C796.674 336.755 795.415 336.392 794.093 336.008C792.813 335.581 791.575 335.048 790.381 334.408C789.186 333.725 788.205 332.808 787.437 331.656C786.711 330.461 786.349 328.925 786.349 327.048C786.349 325.085 786.818 323.379 787.757 321.928C788.738 320.477 790.125 319.347 791.917 318.536C793.709 317.725 795.821 317.32 798.253 317.32C800.813 317.32 803.117 317.768 805.165 318.664C807.255 319.56 808.983 320.904 810.349 322.696L805.293 327.752C804.354 326.6 803.287 325.768 802.093 325.256C800.941 324.744 799.682 324.488 798.317 324.488C797.079 324.488 796.119 324.68 795.437 325.064C794.797 325.448 794.477 325.981 794.477 326.664C794.477 327.432 794.839 328.029 795.565 328.456C796.333 328.883 797.314 329.267 798.509 329.608C799.703 329.907 800.941 330.269 802.221 330.696C803.543 331.08 804.781 331.635 805.933 332.36C807.127 333.085 808.087 334.045 808.813 335.24C809.581 336.435 809.965 337.971 809.965 339.848C809.965 342.877 808.877 345.288 806.701 347.08C804.525 348.829 801.559 349.704 797.805 349.704Z" fill="black"/>
<path d="M176.84 465V389.076H187.1L191.528 403.764V465H176.84ZM229.328 465L184.292 406.68L187.1 389.076L232.136 447.396L229.328 465ZM229.328 465L225.116 450.744V389.076H239.912V465H229.328ZM275.613 466.08C270.861 466.08 266.577 464.892 262.761 462.516C258.945 460.14 255.957 456.9 253.797 452.796C251.637 448.692 250.557 444.084 250.557 438.972C250.557 433.788 251.637 429.144 253.797 425.04C255.957 420.936 258.945 417.696 262.761 415.32C266.577 412.944 270.861 411.756 275.613 411.756C279.357 411.756 282.705 412.512 285.657 414.024C288.609 415.536 290.949 417.66 292.677 420.396C294.477 423.06 295.449 426.084 295.593 429.468V448.26C295.449 451.716 294.477 454.776 292.677 457.44C290.949 460.104 288.609 462.228 285.657 463.812C282.705 465.324 279.357 466.08 275.613 466.08ZM278.205 453.012C282.165 453.012 285.369 451.716 287.817 449.124C290.265 446.46 291.489 443.04 291.489 438.864C291.489 436.128 290.913 433.716 289.761 431.628C288.681 429.468 287.133 427.812 285.117 426.66C283.173 425.436 280.869 424.824 278.205 424.824C275.613 424.824 273.309 425.436 271.293 426.66C269.349 427.812 267.801 429.468 266.649 431.628C265.569 433.716 265.029 436.128 265.029 438.864C265.029 441.672 265.569 444.156 266.649 446.316C267.801 448.404 269.349 450.06 271.293 451.284C273.309 452.436 275.613 453.012 278.205 453.012ZM290.733 465V450.96L293.001 438.216L290.733 425.688V412.836H304.773V465H290.733ZM335.217 466.188C332.265 466.188 329.349 465.792 326.469 465C323.661 464.208 321.069 463.128 318.693 461.76C316.317 460.32 314.265 458.592 312.537 456.576L320.961 448.044C322.761 450.06 324.849 451.572 327.225 452.58C329.601 453.588 332.229 454.092 335.109 454.092C337.413 454.092 339.141 453.768 340.293 453.12C341.517 452.472 342.129 451.5 342.129 450.204C342.129 448.764 341.481 447.648 340.185 446.856C338.961 446.064 337.341 445.416 335.325 444.912C333.309 444.336 331.185 443.724 328.953 443.076C326.793 442.356 324.705 441.456 322.689 440.376C320.673 439.224 319.017 437.676 317.721 435.732C316.497 433.716 315.885 431.124 315.885 427.956C315.885 424.644 316.677 421.764 318.261 419.316C319.917 416.868 322.257 414.96 325.281 413.592C328.305 412.224 331.869 411.54 335.973 411.54C340.293 411.54 344.181 412.296 347.637 413.808C351.165 415.32 354.081 417.588 356.385 420.612L347.853 429.144C346.269 427.2 344.469 425.796 342.453 424.932C340.509 424.068 338.385 423.636 336.081 423.636C333.993 423.636 332.373 423.96 331.221 424.608C330.141 425.256 329.601 426.156 329.601 427.308C329.601 428.604 330.213 429.612 331.437 430.332C332.733 431.052 334.389 431.7 336.405 432.276C338.421 432.78 340.509 433.392 342.669 434.112C344.901 434.76 346.989 435.696 348.933 436.92C350.949 438.144 352.569 439.764 353.793 441.78C355.089 443.796 355.737 446.388 355.737 449.556C355.737 454.668 353.901 458.736 350.229 461.76C346.557 464.712 341.553 466.188 335.217 466.188ZM400.378 465V435.084C400.378 431.988 399.406 429.468 397.462 427.524C395.518 425.58 392.998 424.608 389.902 424.608C387.886 424.608 386.086 425.04 384.502 425.904C382.918 426.768 381.658 427.992 380.722 429.576C379.858 431.16 379.426 432.996 379.426 435.084L373.918 432.276C373.918 428.172 374.782 424.608 376.51 421.584C378.238 418.488 380.614 416.076 383.638 414.348C386.734 412.62 390.262 411.756 394.222 411.756C398.182 411.756 401.674 412.62 404.698 414.348C407.794 416.076 410.206 418.452 411.934 421.476C413.662 424.5 414.526 427.992 414.526 431.952V465H400.378ZM365.278 465V386.916H379.426V465H365.278ZM442.878 465L419.874 412.836H435.426L451.95 455.82H444.282L460.914 412.836H475.926L453.03 465H442.878ZM482.453 465V412.836H496.709V465H482.453ZM489.581 404.412C487.277 404.412 485.369 403.656 483.857 402.144C482.345 400.56 481.589 398.616 481.589 396.312C481.589 394.08 482.345 392.172 483.857 390.588C485.369 389.004 487.277 388.212 489.581 388.212C491.957 388.212 493.865 389.004 495.305 390.588C496.817 392.172 497.573 394.08 497.573 396.312C497.573 398.616 496.817 400.56 495.305 402.144C493.865 403.656 491.957 404.412 489.581 404.412ZM509.243 465V386.916H523.391V465H509.243ZM535.926 465V386.916H550.074V465H535.926ZM587.558 466.08C582.086 466.08 577.226 464.928 572.978 462.624C568.73 460.248 565.346 457.008 562.826 452.904C560.378 448.8 559.154 444.12 559.154 438.864C559.154 433.68 560.342 429.072 562.718 425.04C565.166 420.936 568.478 417.696 572.654 415.32C576.83 412.872 581.474 411.648 586.586 411.648C591.626 411.648 596.054 412.8 599.87 415.104C603.758 417.336 606.782 420.432 608.942 424.392C611.174 428.28 612.29 432.708 612.29 437.676C612.29 438.612 612.218 439.584 612.074 440.592C612.002 441.528 611.822 442.608 611.534 443.832L567.686 443.94V433.356L604.946 433.248L599.222 437.676C599.078 434.58 598.502 431.988 597.494 429.9C596.558 427.812 595.154 426.228 593.282 425.148C591.482 423.996 589.25 423.42 586.586 423.42C583.778 423.42 581.33 424.068 579.242 425.364C577.154 426.588 575.534 428.352 574.382 430.656C573.302 432.888 572.762 435.552 572.762 438.648C572.762 441.816 573.338 444.588 574.49 446.964C575.714 449.268 577.442 451.068 579.674 452.364C581.906 453.588 584.498 454.2 587.45 454.2C590.114 454.2 592.526 453.768 594.686 452.904C596.846 451.968 598.718 450.6 600.302 448.8L608.618 457.116C606.098 460.068 603.002 462.3 599.33 463.812C595.73 465.324 591.806 466.08 587.558 466.08ZM638.677 456.576L667.297 426.66C669.313 424.5 670.933 422.592 672.157 420.936C673.453 419.208 674.389 417.588 674.965 416.076C675.541 414.492 675.829 412.908 675.829 411.324C675.829 408.156 674.785 405.672 672.697 403.872C670.681 402.072 668.053 401.172 664.813 401.172C661.501 401.172 658.549 402.036 655.957 403.764C653.437 405.492 651.061 408.228 648.829 411.972L638.785 403.44C641.809 398.328 645.553 394.476 650.017 391.884C654.553 389.22 659.737 387.888 665.569 387.888C670.537 387.888 674.857 388.86 678.529 390.804C682.273 392.748 685.153 395.448 687.169 398.904C689.185 402.36 690.193 406.392 690.193 411C690.193 414.096 689.797 416.904 689.005 419.424C688.285 421.944 687.025 424.464 685.225 426.984C683.497 429.432 681.085 432.204 677.989 435.3L657.145 456.576H638.677ZM638.677 465V456.576L651.205 452.256H691.813V465H638.677ZM731.42 466.08C725.444 466.08 720.044 464.46 715.22 461.22C710.396 457.98 706.544 453.408 703.664 447.504C700.856 441.6 699.452 434.724 699.452 426.876C699.452 419.028 700.856 412.188 703.664 406.356C706.472 400.524 710.252 395.988 715.004 392.748C719.828 389.508 725.192 387.888 731.096 387.888C737.144 387.888 742.544 389.508 747.296 392.748C752.12 395.988 755.936 400.56 758.744 406.464C761.552 412.296 762.956 419.172 762.956 427.092C762.956 434.94 761.552 441.816 758.744 447.72C755.936 453.552 752.156 458.088 747.404 461.328C742.652 464.496 737.324 466.08 731.42 466.08ZM731.204 452.796C734.66 452.796 737.648 451.824 740.168 449.88C742.688 447.936 744.632 445.056 746 441.24C747.44 437.424 748.16 432.672 748.16 426.984C748.16 421.296 747.44 416.544 746 412.728C744.632 408.912 742.652 406.068 740.06 404.196C737.54 402.252 734.552 401.28 731.096 401.28C727.712 401.28 724.76 402.252 722.24 404.196C719.72 406.068 717.74 408.912 716.3 412.728C714.932 416.472 714.248 421.188 714.248 426.876C714.248 432.636 714.932 437.424 716.3 441.24C717.74 445.056 719.72 447.936 722.24 449.88C724.76 451.824 727.748 452.796 731.204 452.796ZM769.669 456.576L798.289 426.66C800.305 424.5 801.925 422.592 803.149 420.936C804.445 419.208 805.381 417.588 805.957 416.076C806.533 414.492 806.821 412.908 806.821 411.324C806.821 408.156 805.777 405.672 803.689 403.872C801.673 402.072 799.045 401.172 795.805 401.172C792.493 401.172 789.541 402.036 786.949 403.764C784.429 405.492 782.053 408.228 779.821 411.972L769.777 403.44C772.801 398.328 776.545 394.476 781.009 391.884C785.545 389.22 790.729 387.888 796.561 387.888C801.529 387.888 805.849 388.86 809.521 390.804C813.265 392.748 816.145 395.448 818.161 398.904C820.177 402.36 821.185 406.392 821.185 411C821.185 414.096 820.789 416.904 819.997 419.424C819.277 421.944 818.017 424.464 816.217 426.984C814.489 429.432 812.077 432.204 808.981 435.3L788.137 456.576H769.669ZM769.669 465V456.576L782.197 452.256H822.805V465H769.669ZM853.449 466.08C848.337 466.08 843.657 465.18 839.409 463.38C835.161 461.508 831.597 458.844 828.717 455.388L838.437 445.776C839.877 447.936 841.929 449.664 844.593 450.96C847.257 452.256 850.137 452.904 853.233 452.904C856.113 452.904 858.597 452.4 860.685 451.392C862.773 450.312 864.393 448.836 865.545 446.964C866.769 445.02 867.381 442.788 867.381 440.268C867.381 437.604 866.769 435.336 865.545 433.464C864.393 431.592 862.701 430.152 860.469 429.144C858.237 428.136 855.573 427.632 852.477 427.632C851.109 427.632 849.705 427.74 848.265 427.956C846.825 428.1 845.601 428.352 844.593 428.712L851.073 420.504C852.873 419.928 854.637 419.46 856.365 419.1C858.165 418.668 859.821 418.452 861.333 418.452C865.221 418.452 868.713 419.388 871.809 421.26C874.977 423.06 877.461 425.652 879.261 429.036C881.133 432.348 882.069 436.272 882.069 440.808C882.069 445.848 880.881 450.276 878.505 454.092C876.129 457.836 872.781 460.788 868.461 462.948C864.213 465.036 859.209 466.08 853.449 466.08ZM844.593 428.712V420.288L864.033 397.716L880.881 397.5L860.793 420.504L844.593 428.712ZM832.929 401.82V389.076H880.881V397.5L868.893 401.82H832.929Z" fill="url(#paint2_linear_406_148)"/>
<defs>
<linearGradient id="paint0_linear_406_148" x1="188" y1="90.5" x2="904" y2="264" gradientUnits="userSpaceOnUse">
<stop stop-color="#8D56FB"/>
<stop offset="1"/>
</linearGradient>
<linearGradient id="paint1_linear_406_148" x1="546.775" y1="22.3177" x2="604.752" y2="96.2172" gradientUnits="userSpaceOnUse">
<stop stop-color="#1AFFFF"/>
<stop offset="1" stop-color="#ECF015" stop-opacity="0.5"/>
</linearGradient>
<linearGradient id="paint2_linear_406_148" x1="165.5" y1="379" x2="886" y2="465" gradientUnits="userSpaceOnUse">
<stop stop-color="#8B55FF"/>
<stop offset="1" stop-color="#AC721C"/>
</linearGradient>
</defs>
</svg>
