<svg width="79" height="65" viewBox="0 0 79 65" fill="none" xmlns="http://www.w3.org/2000/svg">
<path d="M39.0136 61.4542C54.9548 53.5239 65.5372 44.6254 70.9409 35.4964C75.4891 27.7505 76.0745 20.2352 73.1925 14.0109C70.5807 8.38595 65.3121 4.37471 59.1878 3.31427C52.6582 2.20772 46.0386 4.55914 40.8149 10.4146L38.9686 12.4433L37.1223 10.4146C31.8536 4.55914 25.234 2.20772 18.7494 3.31427C12.6702 4.32861 7.35644 8.38595 4.74461 14.0109C1.86259 20.1891 2.448 27.7505 6.99619 35.4964C12.4 44.6254 22.9824 53.5239 38.9236 61.4542H39.0136Z" fill="white"/>
<path fill-rule="evenodd" clip-rule="evenodd" d="M39.0136 7.92458C33.2045 1.70024 25.7293 -0.973923 18.2992 0.317051C11.2292 1.51581 5.10491 6.17255 2.04277 12.7196C-1.33459 20.0505 -0.524055 28.7185 4.47444 37.1098C10.2835 46.9765 21.4964 56.1978 37.7077 64.2202L39.0136 64.8657L40.3196 64.2202C56.5309 56.1517 67.6987 46.9304 73.5528 37.1098C78.5062 28.7185 79.3619 20.0505 75.9845 12.7196C72.9224 6.12644 66.7981 1.51581 59.7281 0.317051C52.2979 -0.927817 44.8227 1.70024 39.0136 7.92458ZM34.9157 12.5813C30.2775 7.41742 24.6486 5.52706 19.2448 6.44918C14.1112 7.3252 9.65306 10.737 7.49155 15.3938C5.14991 20.4654 5.46513 26.8742 9.60803 33.9285C14.4264 42.0893 24.0181 50.3884 38.9686 57.9959C53.9191 50.3884 63.4658 42.0893 68.3292 33.9285C72.5171 26.8742 72.7873 20.4654 70.4456 15.3938C68.2841 10.6909 63.826 7.3252 58.6924 6.44918C53.2886 5.52706 47.6597 7.41742 43.0214 12.5813L38.9686 17.0997L34.9157 12.5813Z" fill="#BA0C2F"/>
<path d="M37.3921 39.1847L33.0691 41.49C32.6188 41.7205 32.0784 41.5361 31.8532 41.1211C31.7631 40.9367 31.7181 40.7523 31.7631 40.5218L32.5737 35.6806C32.7539 34.5279 32.3936 33.3753 31.583 32.5915L28.0706 29.1335C27.7103 28.7647 27.7103 28.2114 28.0706 27.8426C28.2057 27.7042 28.3858 27.612 28.6109 27.5659L33.4743 26.8743C34.6001 26.6899 35.5908 25.9983 36.0862 24.9378L38.2477 20.5117C38.4728 20.0506 39.0132 19.8662 39.4635 20.0967C39.6437 20.1889 39.7787 20.3272 39.8688 20.5117L42.0303 24.9378C42.5257 25.9522 43.5164 26.6899 44.6421 26.8743L49.5056 27.5659C50.0009 27.6581 50.3611 28.1192 50.2711 28.5802C50.2711 28.7647 50.136 28.9491 50.0009 29.0874L46.4884 32.5454C45.6779 33.3292 45.2726 34.528 45.4977 35.6345L46.3084 40.4756C46.3984 40.9828 46.0832 41.4439 45.5878 41.5361C45.4077 41.5361 45.1825 41.5361 45.0024 41.4439L40.6794 39.1386C39.6437 38.5853 38.4278 38.5853 37.4371 39.1386L37.3921 39.1847Z" fill="#0047BB"/>
</svg>
