<svg width="24" height="24" viewBox="0 0 24 24" fill="none" xmlns="http://www.w3.org/2000/svg">
<path fill-rule="evenodd" clip-rule="evenodd" d="M12.002 5.3823C10.2149 3.51113 7.91528 2.70722 5.62948 3.09531C3.45451 3.45568 1.57046 4.8556 0.628431 6.82379C-0.410569 9.02761 -0.161219 11.6334 1.3765 14.156C3.16358 17.1221 6.61307 19.8942 11.6003 22.306L12.002 22.5L12.4038 22.306C17.391 19.8804 20.8266 17.1083 22.6275 14.156C24.1514 11.6334 24.4146 9.02761 23.3756 6.82379C22.4336 4.84174 20.5495 3.45568 18.3745 3.09531C16.0887 2.72108 13.7891 3.51113 12.002 5.3823ZM10.7413 6.78221C9.31445 5.22983 7.58279 4.66155 5.92039 4.93876C4.34111 5.20211 2.96963 6.22778 2.30467 7.62769C1.5843 9.15234 1.68127 11.079 2.95578 13.1996C4.43809 15.6529 7.38885 18.1478 11.9882 20.4348C16.5875 18.1478 19.5244 15.6529 21.0205 13.1996C22.3089 11.079 22.392 9.15234 21.6716 7.62769C21.0067 6.21392 19.6352 5.20211 18.0559 4.93876C16.3935 4.66155 14.6618 5.22983 13.2349 6.78221L11.9882 8.14053L10.7413 6.78221Z" fill="white"/>
<path d="M11.5032 14.7796L10.1733 15.4726C10.0348 15.5419 9.86855 15.4864 9.79929 15.3617C9.77158 15.3063 9.75772 15.2508 9.77157 15.1815L10.0209 13.7262C10.0764 13.3796 9.96553 13.0331 9.71617 12.7975L8.63561 11.758C8.52478 11.6471 8.52478 11.4808 8.63561 11.3699C8.67717 11.3283 8.73258 11.3006 8.80184 11.2867L10.298 11.0788C10.6443 11.0234 10.9491 10.8154 11.1015 10.4967L11.7665 9.16605C11.8357 9.02745 12.002 8.97201 12.1405 9.04131C12.1959 9.06903 12.2375 9.11061 12.2652 9.16605L12.9301 10.4967C13.0825 10.8016 13.3873 11.0234 13.7336 11.0788L15.2298 11.2867C15.3822 11.3144 15.493 11.453 15.4653 11.5916C15.4653 11.6471 15.4237 11.7025 15.3822 11.7441L14.3016 12.7836C14.0523 13.0193 13.9276 13.3796 13.9968 13.7123L14.2462 15.1676C14.2739 15.3201 14.1769 15.4587 14.0246 15.4864C13.9691 15.4864 13.8999 15.4864 13.8445 15.4587L12.5145 14.7657C12.1959 14.5994 11.8219 14.5994 11.5171 14.7657L11.5032 14.7796Z" fill="white"/>
</svg>
