<svg width="100" height="100" viewBox="0 0 100 100" fill="none" xmlns="http://www.w3.org/2000/svg">
<path d="M66.74 53.83C66.69 52.41 66.62 50.88 66.51 49.24C66.48 48.66 65.99 48.23 65.4 48.26C64.82 48.29 64.38 48.79 64.42 49.37C64.88 56.5 64.73 61.64 64.63 63.68H35.37C35.24 60.93 35.02 52.47 36.32 41.06C36.88 36.17 38.59 32.42 40.56 29.6C42.97 31.77 46.4 33.04 50 33.04C53.6 33.04 57.02 31.77 59.43 29.6C59.95 30.35 60.46 31.16 60.93 32.04C61.21 32.55 61.84 32.75 62.35 32.48C62.87 32.21 63.06 31.57 62.79 31.06C62.02 29.6 61.16 28.34 60.27 27.21C60.26 27.21 60.26 27.2 60.25 27.2C58.42 24.88 56.46 23.22 54.93 22.15C53.52 21.16 51.81 20.63 50 20.63C48.19 20.63 46.48 21.16 45.07 22.15C41.53 24.62 35.43 30.34 34.24 40.82C33.67 45.78 33.39 50.18 33.26 53.84L32.18 53.99C26.06 54.88 21.45 60.22 21.45 66.4V73.77C21.45 74.7 21.97 75.52 22.82 75.91C23.14 76.06 23.48 76.13 23.82 76.13C24.37 76.13 24.91 75.94 25.36 75.57C28.75 72.68 32.52 71.38 36.92 71.55L38.52 74.46C38.7 74.8 39.06 75.01 39.44 75.01H42.48L43.14 77.91C39.91 78.95 37.65 81.95 37.65 85.45C37.65 85.7 37.67 85.95 37.69 86.2C37.04 86.06 36.37 85.99 35.69 85.99C30.3 85.99 25.92 90.37 25.92 95.76C25.92 96.01 25.93 96.27 25.95 96.53C25.99 97.08 26.45 97.5 27 97.5H27.08C27.66 97.45 28.09 96.94 28.05 96.37C28.03 96.16 28.02 95.96 28.02 95.76C28.02 91.53 31.46 88.09 35.69 88.09C36.59 88.09 37.47 88.25 38.3 88.56C38.8 89.73 39.57 90.77 40.58 91.6C40.78 91.75 41.01 91.83 41.24 91.83C41.55 91.83 41.85 91.7 42.06 91.44C42.43 90.99 42.36 90.33 41.91 89.96C41.06 89.27 40.43 88.38 40.08 87.37C40.08 87.36 40.07 87.35 40.07 87.34C39.86 86.74 39.75 86.1 39.75 85.45C39.75 82.94 41.33 80.78 43.62 79.97L44 81.65C44.11 82.14 44.55 82.47 45.02 82.47C45.1 82.47 45.18 82.46 45.26 82.44C45.83 82.31 46.18 81.75 46.05 81.18L44.63 75.01H55.28L53.97 79.4C53.8 79.96 54.12 80.54 54.67 80.71C55.24 80.87 55.82 80.55 55.98 80L56.17 79.37C58.54 80.12 60.25 82.35 60.25 84.9C60.25 86.51 59.61 88 58.44 89.12C58.02 89.52 58.01 90.18 58.41 90.6C58.62 90.82 58.89 90.93 59.17 90.93C59.43 90.93 59.69 90.83 59.9 90.63C60.5 90.06 60.99 89.4 61.38 88.68C62.31 88.29 63.29 88.09 64.31 88.09C68.54 88.09 71.98 91.53 71.98 95.76C71.98 95.96 71.97 96.16 71.95 96.37C71.91 96.94 72.34 97.45 72.92 97.5H73C73.55 97.5 74.01 97.08 74.05 96.53C74.07 96.27 74.08 96.01 74.08 95.76C74.08 90.37 69.7 85.99 64.31 85.99C63.6 85.99 62.91 86.07 62.23 86.22C62.3 85.78 62.35 85.34 62.35 84.9C62.35 81.42 60.02 78.36 56.77 77.35L57.47 75.01H60.56C60.94 75.01 61.3 74.8 61.48 74.46L63.08 71.55C67.43 71.37 71.23 72.67 74.65 75.57C75.09 75.94 75.63 76.13 76.18 76.13C76.52 76.13 76.86 76.06 77.18 75.91C78.03 75.52 78.55 74.7 78.55 73.77V67.54C78.55 60.73 73.48 54.85 66.74 53.83ZM46.27 23.87C48.39 22.38 51.61 22.38 53.72 23.87C55 24.76 56.6 26.09 58.14 27.92C56.12 29.82 53.15 30.94 50 30.94C46.85 30.94 43.88 29.82 41.86 27.92C43.42 26.07 45.02 24.75 46.27 23.87ZM59.94 72.9H51.05V69.48C51.05 68.9 50.58 68.43 50 68.43C49.42 68.43 48.95 68.9 48.95 69.48V72.9H40.06L36.15 65.78H63.85L59.94 72.9Z" fill="#436BFF"/>
<path d="M57.04 46.9661C58.6469 43.0892 56.8068 38.6437 52.93 37.0368C49.0532 35.4298 44.6077 37.2699 43.0007 41.1468C41.3938 45.0236 43.2339 49.4691 47.1107 51.076C50.9875 52.683 55.433 50.8429 57.04 46.9661Z" fill="#436BFF"/>
<path d="M92.5909 34.4016C92.6752 33.9057 92.7148 33.3999 92.7148 32.8842C92.7148 27.777 88.5844 23.6416 83.4722 23.6416C79.3467 23.6416 75.846 26.3489 74.6659 30.0926C74.299 30.0182 73.9271 29.9786 73.5403 29.9786C70.838 29.9786 68.6016 31.9471 68.1802 34.5206C67.7488 34.4065 67.2975 34.347 66.8314 34.347C63.8315 34.347 61.4019 36.7816 61.4019 39.7815C61.4019 42.7814 63.8315 45.2111 66.8314 45.2111H91.8471C94.847 45.2111 97.2816 42.7814 97.2816 39.7815C97.2816 37.0345 95.2437 34.7585 92.5909 34.4016Z" fill="#436BFF"/>
<path d="M33.6351 13.9223C33.6351 11.2741 31.4869 9.12573 28.8281 9.12573H18.8096C18.1183 5.3609 14.8107 2.5 10.8331 2.5C6.35565 2.5 2.71838 6.13721 2.71838 10.6147C2.71838 15.0922 6.35565 18.7294 10.8331 18.7294H28.8281C31.4869 18.7294 33.6351 16.5811 33.6351 13.9223Z" fill="#436BFF"/>
<path d="M69.6124 9.04706H71.1793V10.6149C71.1793 11.1957 71.6492 11.6656 72.23 11.6656C72.8107 11.6656 73.2806 11.1957 73.2806 10.6149V9.04706H74.8485C75.4293 9.04706 75.8992 8.57709 75.8992 7.99634C75.8992 7.41559 75.4293 6.94568 74.8485 6.94568H73.2806V5.37885C73.2806 4.7981 72.8107 4.32812 72.23 4.32812C71.6492 4.32812 71.1793 4.7981 71.1793 5.37885V6.94568H69.6124C69.0317 6.94568 68.5618 7.41559 68.5618 7.99634C68.5618 8.57709 69.0317 9.04706 69.6124 9.04706Z" fill="#436BFF"/>
<path d="M17.3133 39.3891H15.7465V37.8223C15.7465 37.2415 15.2765 36.7716 14.6957 36.7716C14.115 36.7716 13.6451 37.2415 13.6451 37.8223V39.3891H12.0772C11.4965 39.3891 11.0265 39.8591 11.0265 40.4398C11.0265 41.0206 11.4965 41.4905 12.0772 41.4905H13.6451V43.0583C13.6451 43.6392 14.115 44.1091 14.6957 44.1091C15.2765 44.1091 15.7465 43.6392 15.7465 43.0583V41.4905H17.3133C17.894 41.4905 18.364 41.0206 18.364 40.4398C18.364 39.8591 17.894 39.3891 17.3133 39.3891Z" fill="#436BFF"/>
<path d="M93.5754 60.6259H92.0086V59.058C92.0086 58.4772 91.5387 58.0073 90.9579 58.0073C90.3771 58.0073 89.9072 58.4772 89.9072 59.058V60.6259H88.3394C87.7586 60.6259 87.2887 61.0958 87.2887 61.6766C87.2887 62.2573 87.7586 62.7272 88.3394 62.7272H89.9072V64.2941C89.9072 64.8748 90.3771 65.3448 90.9579 65.3448C91.5387 65.3448 92.0086 64.8748 92.0086 64.2941V62.7272H93.5754C94.1562 62.7272 94.6262 62.2573 94.6262 61.6766C94.6262 61.0958 94.1562 60.6259 93.5754 60.6259Z" fill="#436BFF"/>
</svg>
