<svg width="33" height="32" viewBox="0 0 33 32" fill="none" xmlns="http://www.w3.org/2000/svg">
  <circle cx="16.5" cy="16" r="15.125" stroke="#00C31F" stroke-width="1.75"/>
  <path d="M24.5612 16.3935L24.6977 11.8956L19.8999 11.75" stroke="#00C31F" stroke-width="1.75" stroke-linecap="round" stroke-linejoin="round"/>
  <path d="M24.4999 12L18.8544 17.2927C18.7554 17.3856 18.6377 17.4593 18.5083 17.5096C18.3788 17.5599 18.2401 17.5858 18.0999 17.5858C17.9598 17.5858 17.821 17.5599 17.6916 17.5096C17.5621 17.4593 17.4445 17.3856 17.3454 17.2927L15.1211 15.2073C15.022 15.1144 14.9044 15.0407 14.775 14.9904C14.6455 14.9401 14.5068 14.9142 14.3666 14.9142C14.2265 14.9142 14.0877 14.9401 13.9583 14.9904C13.8288 15.0407 13.7112 15.1144 13.6121 15.2073L8.5 20" stroke="#00C31F" stroke-width="1.75" stroke-linecap="round" stroke-linejoin="round"/>
</svg>
