<svg width="181" height="180" viewBox="0 0 181 180" fill="none" xmlns="http://www.w3.org/2000/svg">
<rect x="0.25" width="180" height="180" rx="90" fill="url(#paint0_linear_146_507)"/>
<path fill-rule="evenodd" clip-rule="evenodd" d="M79.9617 78.5017H85.9958C86.84 78.5017 87.5974 77.9576 87.8581 77.1662L89.7205 71.4411L91.5828 77.1662C91.8436 77.9699 92.5885 78.5017 93.4328 78.5017H99.4792L94.5874 82.0381C93.8922 82.5327 93.6066 83.4107 93.8797 84.2021L95.7421 89.9272L90.8503 86.3907C90.155 85.8961 89.2363 85.8961 88.5534 86.3907L83.6616 89.9272L85.524 84.2021C85.7847 83.3983 85.5115 82.5327 84.8287 82.0381L79.9369 78.5017H79.9617ZM79.2664 92.8578C78.8443 94.1314 79.8127 95.405 81.1164 95.405C81.5013 95.405 81.911 95.2814 82.2586 95.0341L89.7205 89.6304L97.1699 95.0341C98.697 96.1222 100.758 94.6384 100.175 92.8701L97.3189 84.1279L104.781 78.7242C106.308 77.6114 105.513 75.2125 103.638 75.2125H94.4012L91.558 66.4702C90.962 64.6649 88.4168 64.702 87.8333 66.4702L84.9901 75.2125H75.7652C73.8532 75.2125 73.0958 77.6237 74.6106 78.7242L82.0724 84.1279L79.2292 92.8701L79.2664 92.8578ZM75.9142 101.415C78.5339 103.269 81.5385 104.617 84.7914 105.31L78.3725 116.364L77.2303 112.086C76.8826 110.837 75.5914 110.083 74.3374 110.416L70.0292 111.566L75.9266 101.415H75.9142ZM69.0856 81.9145C69.0856 93.2906 78.3725 102.54 89.795 102.54C101.217 102.54 110.504 93.2906 110.504 81.9145C110.504 70.5384 101.23 61.2892 89.8074 61.2892C78.3849 61.2892 69.098 70.5384 69.098 81.9145H69.0856ZM109.573 111.566L105.277 110.416C104.011 110.083 102.72 110.825 102.372 112.086L101.23 116.364L94.8233 105.31C98.0638 104.617 101.068 103.269 103.688 101.415L109.586 111.566H109.573ZM67.695 115.598L74.2753 113.842L76.0384 120.395C76.4729 122.052 78.7202 122.337 79.5768 120.853L88.3051 105.792H91.2849L100.013 120.853C100.882 122.349 103.117 122.027 103.564 120.383L105.315 113.829L111.895 115.585C113.546 116.018 114.937 114.225 114.08 112.754L106.271 99.2877C110.914 94.9228 113.807 88.7401 113.807 81.9021C113.819 68.7331 103.043 58 89.8074 58C76.5722 58 65.783 68.7331 65.783 81.9145C65.783 88.7525 68.6758 94.9351 73.3193 99.3001L65.5098 112.766C64.6656 114.225 66.0065 116.043 67.695 115.598Z" fill="black"/>
<defs>
<linearGradient id="paint0_linear_146_507" x1="26.8409" y1="24.1364" x2="154.161" y2="163.552" gradientUnits="userSpaceOnUse">
<stop stop-color="#D299FF"/>
<stop offset="1" stop-color="#B7FFEE" stop-opacity="0.86"/>
</linearGradient>
</defs>
</svg>
