<svg width="181" height="180" viewBox="0 0 181 180" fill="none" xmlns="http://www.w3.org/2000/svg">
<rect x="0.75" width="180" height="180" rx="90" fill="url(#paint0_linear_146_578)"/>
<path d="M90.7893 102.329C97.9501 102.329 103.775 96.6151 103.775 89.5909C103.775 82.5667 97.9501 76.8527 90.7893 76.8527C83.6284 76.8527 77.8032 82.5667 77.8032 89.5909C77.8032 96.6151 83.6284 102.329 90.7893 102.329ZM90.7893 80.4922C95.9095 80.4922 100.065 84.5684 100.065 89.5909C100.065 94.6134 95.9095 98.6897 90.7893 98.6897C85.6691 98.6897 81.5135 94.6134 81.5135 89.5909C81.5135 84.5684 85.6691 80.4922 90.7893 80.4922ZM88.9341 84.1317C88.9341 83.1247 89.7628 82.3119 90.7893 82.3119C94.883 82.3119 98.2099 85.5753 98.2099 89.5909C98.2099 90.5978 97.3812 91.4107 96.3547 91.4107C95.3282 91.4107 94.4996 90.5978 94.4996 89.5909C94.4996 87.5892 92.8299 85.9514 90.7893 85.9514C89.7628 85.9514 88.9341 85.1386 88.9341 84.1317ZM61.9974 88.6325C61.9974 88.6325 61.9603 88.7053 61.9479 88.7417C61.9231 88.7902 61.8984 88.8509 61.8737 88.8994C61.8489 88.9601 61.8242 89.0207 61.8118 89.0814C61.8118 89.1299 61.7871 89.1784 61.7747 89.2391C61.7624 89.2998 61.75 89.3604 61.75 89.4332V89.7729C61.75 89.7729 61.75 89.8821 61.7747 89.9427C61.7747 90.0034 61.7995 90.064 61.8242 90.1126C61.8242 90.1611 61.8613 90.2218 61.8737 90.2703C61.8984 90.3309 61.9355 90.3916 61.9603 90.4523C61.9603 90.4887 61.985 90.5129 62.0097 90.5493C62.4302 91.2287 72.6583 107.182 90.8016 107.182C108.945 107.182 119.161 91.2287 119.594 90.5493C119.618 90.5129 119.631 90.4765 119.643 90.4401C119.668 90.3916 119.692 90.3309 119.717 90.2824C119.742 90.2218 119.767 90.1611 119.779 90.1004C119.779 90.0519 119.804 89.9913 119.816 89.9427C119.816 89.8821 119.841 89.8214 119.841 89.7608V89.4211C119.841 89.4211 119.841 89.2998 119.816 89.2391C119.816 89.1906 119.791 89.1299 119.779 89.0814C119.779 89.0207 119.742 88.9601 119.717 88.8994C119.692 88.8509 119.668 88.7902 119.643 88.7417C119.618 88.7053 119.606 88.6689 119.594 88.6325C119.173 87.9531 108.945 72 90.8016 72C72.6583 72 62.4302 87.9653 61.9974 88.6325ZM90.7893 75.6395C104.431 75.6395 113.336 86.3032 115.747 89.5909C113.323 92.8786 104.418 103.542 90.7893 103.542C77.1601 103.542 68.243 92.8786 65.8313 89.5909C68.243 86.3032 77.1106 75.6395 90.7893 75.6395Z" fill="black"/>
<defs>
<linearGradient id="paint0_linear_146_578" x1="0.75" y1="0" x2="180.393" y2="179.523" gradientUnits="userSpaceOnUse">
<stop stop-color="#F9FFB1"/>
<stop offset="1" stop-color="#FFD27A"/>
</linearGradient>
</defs>
</svg>
