<svg width="181" height="180" viewBox="0 0 181 180" fill="none" xmlns="http://www.w3.org/2000/svg">
<rect x="0.25" width="180" height="180" rx="90" fill="url(#paint0_linear_146_599)"/>
<path d="M86.7004 104.175C85.8722 106.072 83.2477 106.072 82.4196 104.175L80.2654 99.2411C78.3483 94.8504 74.8977 91.3551 70.5934 89.4445L64.6639 86.8125C62.7787 85.9758 62.7787 83.2332 64.6639 82.3964L70.4082 79.8466C74.8231 77.8869 78.3357 74.2622 80.22 69.7216L82.4022 64.4635C83.2119 62.5122 85.908 62.5122 86.7178 64.4635L88.8999 69.7216C90.7842 74.2622 94.2967 77.8869 98.7117 79.8466L104.456 82.3964C106.341 83.2332 106.341 85.9758 104.456 86.8125L98.5266 89.4445C94.2223 91.3551 90.7717 94.8504 88.8545 99.2411L86.7004 104.175ZM71.7894 84.6045C77.4001 87.095 81.9622 91.1887 84.56 96.8214C87.1579 91.1887 91.7199 87.095 97.3305 84.6045C91.6529 82.0842 87.0764 77.791 84.56 72.0582C82.0436 77.791 77.467 82.0842 71.7894 84.6045ZM108.268 116.189L108.874 114.8C109.954 112.324 111.899 110.353 114.327 109.275L116.193 108.445C117.203 107.997 117.203 106.53 116.193 106.081L114.431 105.298C111.941 104.192 109.961 102.148 108.9 99.5884L108.278 98.088C107.844 97.0423 106.398 97.0423 105.965 98.088L105.343 99.5884C104.281 102.148 102.301 104.192 99.8116 105.298L98.0494 106.081C97.0401 106.53 97.0401 107.997 98.0494 108.445L99.9159 109.275C102.343 110.353 104.288 112.324 105.368 114.8L105.974 116.189C106.417 117.205 107.825 117.205 108.268 116.189ZM105.748 107.247L107.129 105.875L108.481 107.247L107.129 108.579L105.748 107.247Z" fill="#161F31"/>
<defs>
<linearGradient id="paint0_linear_146_599" x1="0.25" y1="0" x2="179.893" y2="179.523" gradientUnits="userSpaceOnUse">
<stop stop-color="#9991FF"/>
<stop offset="1" stop-color="#FFC28A"/>
</linearGradient>
</defs>
</svg>
