<svg width="115" height="100" viewBox="0 0 115 100" fill="none" xmlns="http://www.w3.org/2000/svg">
<path d="M59.5761 29.2828L59.5761 29.2827L62.0688 18.7671C62.8257 15.5758 66.8749 14.8501 68.693 17.5796L74.6842 26.5746L75.5165 26.0203L74.6842 26.5747C80.1512 34.7823 88.3943 40.6269 97.7956 42.9464L110.405 46.0573L110.644 45.0864L110.405 46.0573C113.573 46.8389 114.348 51.1567 111.648 52.9902L112.21 53.8175L111.648 52.9903L101.24 60.0592C93.0242 65.6395 87.2472 74.2681 85.0928 84.1553L82.6596 95.3215L82.6596 95.3215C81.9466 98.594 77.7864 99.3397 75.9808 96.5186L69.82 86.8928L68.9777 87.4318L69.82 86.8928C64.3648 78.3697 55.95 72.2849 46.3069 69.9058L34.0914 66.892C30.923 66.1103 30.1489 61.7925 32.8483 59.959L43.5915 52.6623C51.6015 47.2219 57.3007 38.8782 59.5761 29.2828ZM2.06803 21.3306L2.06815 21.3305L5.44943 19.032C10.0577 15.8998 13.3329 11.1007 14.6383 5.58688L15.339 2.62783C15.339 2.62781 15.339 2.62778 15.339 2.62776C15.6507 1.31221 17.3026 1.01664 18.0512 2.14149L18.0514 2.14172L19.7368 4.67297C19.7369 4.67302 19.7369 4.67307 19.7369 4.67312C22.8767 9.39003 27.6146 12.7528 33.0246 14.0892L36.9938 15.0702L36.9939 15.0702C38.3004 15.3931 38.6226 17.1897 37.5096 17.9463L38.0717 18.7733L37.5095 17.9463L34.3172 20.1163C29.5901 23.3291 26.2705 28.2919 25.0346 33.9725L25.0346 33.9726L24.3418 37.1585C24.0481 38.5075 22.3503 38.8119 21.6062 37.6488L19.8496 34.9019L19.8495 34.9018C16.7167 30.0044 11.8797 26.5037 6.33084 25.1328C6.3308 25.1328 6.33076 25.1328 6.33071 25.1328L2.58384 24.2066L2.58367 24.2066C1.27674 23.8838 0.95464 22.0872 2.06803 21.3306Z" fill="#D8ED50" stroke="black" stroke-width="2"/>
</svg>
