<svg width="381" height="107" viewBox="0 0 381 107" fill="none" xmlns="http://www.w3.org/2000/svg">
<rect x="14.6309" y="14.6306" width="365.362" height="91.2982" fill="url(#paint0_linear_84_9139)" stroke="black" stroke-width="1.22461"/>
<rect x="7.62165" y="7.62122" width="365.362" height="91.2982" fill="white" stroke="black" stroke-width="1.22461"/>
<rect x="0.612307" y="0.612307" width="365.362" height="91.2982" fill="white" stroke="black" stroke-width="1.22461"/>
<path d="M0.61499 31.9838H366.587" stroke="black" stroke-width="1.22461"/>
<path d="M35.8677 81.6127C46.9982 76.2253 54.3912 70.1833 58.1578 63.9767C61.3473 58.7212 61.7445 53.5969 59.7419 49.3812C57.9235 45.5535 54.2293 42.8204 49.9739 42.1162C45.4319 41.3645 40.8096 42.9709 37.145 46.9492L35.8677 48.3357L34.5905 46.9492C30.9259 42.9709 26.3035 41.3645 21.7615 42.1162C17.5062 42.8204 13.8119 45.5535 11.9936 49.3812C9.99096 53.5969 10.3881 58.7212 13.5776 63.9767C17.3442 70.1833 24.7373 76.2253 35.8677 81.6127Z" fill="#6852EE"/>
<path d="M108.973 81.6126C120.104 76.2251 127.497 70.1832 131.263 63.9766C134.453 58.7211 134.85 53.5967 132.847 49.3811C131.029 45.5534 127.335 42.8203 123.079 42.1161C118.537 41.3644 113.915 42.9708 110.25 46.949L108.973 48.3356L107.696 46.949C104.031 42.9708 99.409 41.3644 94.867 42.1161C90.6116 42.8203 86.9174 45.5534 85.099 49.3811C83.0964 53.5967 83.4936 58.7211 86.6831 63.9766C90.4497 70.1832 97.8427 76.2251 108.973 81.6126Z" fill="#6852EE"/>
<path d="M182.079 81.6126C193.209 76.2251 200.602 70.1832 204.369 63.9766C207.558 58.7211 207.956 53.5967 205.953 49.3811C204.135 45.5534 200.44 42.8203 196.185 42.1161C191.643 41.3644 187.021 42.9708 183.356 46.949L182.079 48.3356L180.802 46.949C177.137 42.9708 172.515 41.3644 167.973 42.1161C163.717 42.8203 160.023 45.5534 158.205 49.3811C156.202 53.5967 156.599 58.7211 159.789 63.9766C163.555 70.1832 170.948 76.2251 182.079 81.6126Z" fill="#6852EE"/>
<path d="M255.184 81.6126C266.315 76.2251 273.708 70.1832 277.474 63.9766C280.664 58.7211 281.061 53.5967 279.059 49.3811C277.24 45.5534 273.546 42.8203 269.291 42.1161C264.749 41.3644 260.126 42.9708 256.462 46.949L255.184 48.3356L253.907 46.949C250.243 42.9708 245.62 41.3644 241.078 42.1161C236.823 42.8203 233.129 45.5534 231.31 49.3811C229.308 53.5967 229.705 58.7211 232.894 63.9766C236.661 70.1832 244.054 76.2251 255.184 81.6126Z" fill="#6852EE"/>
<path d="M328.29 81.6126C339.42 76.2251 346.813 70.1832 350.58 63.9766C353.77 58.7211 354.167 53.5967 352.164 49.3811C350.346 45.5534 346.652 42.8203 342.396 42.1161C337.854 41.3644 333.232 42.9708 329.567 46.949L328.29 48.3356L327.013 46.949C323.348 42.9708 318.726 41.3644 314.184 42.1161C309.928 42.8203 306.234 45.5534 304.416 49.3811C302.413 53.5967 302.81 58.7211 306 63.9766C309.766 70.1832 317.159 76.2251 328.29 81.6126Z" fill="#6852EE"/>
<path d="M53.512 10.4561L66.4286 23.3727M66.4286 10.4561L53.512 23.3727" stroke="#2D52FF" stroke-width="1.83692"/>
<circle cx="41.5178" cy="16.9146" r="7.68848" fill="#2D52FF"/>
<rect x="13.5317" y="9.84131" width="14.1468" height="14.1468" fill="#2D52FF"/>
<defs>
<linearGradient id="paint0_linear_84_9139" x1="84.4814" y1="26.892" x2="110.703" y2="149.607" gradientUnits="userSpaceOnUse">
<stop stop-color="#99FBDB"/>
<stop offset="0.286458" stop-color="#D7ED53"/>
<stop offset="0.635417" stop-color="#EB88E5"/>
<stop offset="1" stop-color="#A584FF"/>
</linearGradient>
</defs>
</svg>
