<svg width="181" height="180" viewBox="0 0 181 180" fill="none" xmlns="http://www.w3.org/2000/svg">
<rect x="0.75" width="180" height="180" rx="90" fill="url(#paint0_linear_146_300)"/>
<path d="M118.463 65C118.233 65 117.996 65.0229 117.759 65.0688L102.121 68.0602C101.012 68.2712 100.23 68.8676 99.9766 69.6958C99.7235 70.5239 100.036 71.4529 100.835 72.2489L103.604 75.0017L91.9225 86.6918L89.6059 84.3909C88.5799 83.3701 87.2157 82.8104 85.7664 82.8127C84.3171 82.815 82.9552 83.3793 81.9337 84.4047L61.3328 105.025C60.309 106.048 59.7477 107.409 59.75 108.854C59.7523 110.299 60.3182 111.657 61.3466 112.676C62.3726 113.696 63.7368 114.256 65.1861 114.254C66.6354 114.251 67.9973 113.687 69.0187 112.662L85.794 95.8722L88.1106 98.1731C89.1366 99.1939 90.5008 99.7536 91.9501 99.7513C93.3994 99.749 94.7613 99.1847 95.7827 98.1593L111.293 82.6383L114.063 85.3911C114.679 86.0059 115.362 86.3293 116.039 86.327C116.908 86.327 117.948 85.7375 118.259 84.0927L121.203 68.4891C121.387 67.5119 121.189 66.6127 120.642 65.9566C120.127 65.3395 119.354 65 118.466 65H118.463Z" stroke="black" stroke-width="5" stroke-miterlimit="10"/>
<defs>
<linearGradient id="paint0_linear_146_300" x1="0.75" y1="0" x2="180.393" y2="179.523" gradientUnits="userSpaceOnUse">
<stop stop-color="#C5F4FF"/>
<stop offset="1" stop-color="#FFD481"/>
</linearGradient>
</defs>
</svg>
