<?xml version="1.0" encoding="utf-8"?>
<!-- Generator: Adobe Illustrator 27.4.1, SVG Export Plug-In . SVG Version: 6.00 Build 0)  -->
<svg version="1.1" id="Default" xmlns="http://www.w3.org/2000/svg" xmlns:xlink="http://www.w3.org/1999/xlink" x="0px" y="0px"
	 viewBox="0 0 1500 1500" style="enable-background:new 0 0 1500 1500;" xml:space="preserve">
<style type="text/css">
	.st0{fill:url(#SVGID_1_);}
</style>
<linearGradient id="SVGID_1_" gradientUnits="userSpaceOnUse" x1="143.4547" y1="1190.6809" x2="1356.5453" y2="309.3191">
	<stop  offset="0" style="stop-color:#182742"/>
	<stop  offset="2.177849e-02" style="stop-color:#1B2545"/>
	<stop  offset="0.1987" style="stop-color:#331858"/>
	<stop  offset="0.3627" style="stop-color:#421063"/>
	<stop  offset="0.5" style="stop-color:#470D67"/>
	<stop  offset="0.5731" style="stop-color:#4C0F64"/>
	<stop  offset="0.6645" style="stop-color:#5C145D"/>
	<stop  offset="0.7656" style="stop-color:#751C51"/>
	<stop  offset="0.8738" style="stop-color:#992741"/>
	<stop  offset="0.9865" style="stop-color:#C6362C"/>
	<stop  offset="1" style="stop-color:#CC3829"/>
</linearGradient>
<path class="st0" d="M371.9,1015.6l-17.9,55h774.1l17.9-55H371.9z M371.9,916.6l-17.9,55h774.1l17.9-55H371.9z M371.9,817.7
	l-17.9,55h774.1l17.9-55H371.9z M1083.9,655.4c0,22.7-6,35.8-20.9,44.6c-7.8,4.6-17.9,8-37.6,8h-28.6V483.7h28.6
	c19.7,0,29.8,3.4,37.6,8c14.9,8.8,20.9,21.9,20.9,44.6V655.4L1083.9,655.4z M1109,448.2c-19.7-13.1-44.7-19.1-74-19.1H934.8
	c0.2,11.4,0.4,22.7,0.6,34.1v265.5c-0.2,11.3-0.4,22.7-0.6,34.1H1035c29.2,0,54.3-6.1,74-19.1c25.7-16.8,37-41.1,37-94.7V542.9
	C1146,489.3,1134.6,465,1109,448.2L1109,448.2z M517,483.7h-101v83.4h96l-17.8,54.7h-78.3v106.8l0.6,34.1H354l0.6-34.1V463.1
	l-0.6-34.1h180.8L517,483.7z M736,541c1.2,13.1,2.4,29.4,5.4,42.9c12.5,59.6,25,119.1,37.6,178.7h59.7
	c22.5-111.2,44.9-222.4,67.4-333.6h-60.2c-11.5,62.5-23.1,125-34.6,187.5c-2.4,13.5-4.8,29.9-5.4,42.9h-2.4
	c-1.2-13.1-2.4-28.9-5.4-42.9c-12.3-62.5-24.7-125-37-187.5h-52.5c-12.3,62.5-24.7,125-37,187.5c-3,14-4.2,29.9-5.4,42.9h-2.4
	c-0.6-13.1-3-29.4-5.4-42.9c-11.5-62.5-23.1-125-34.6-187.5h-60.2c22.5,111.2,44.9,222.4,67.4,333.6h59.7
	c12.5-59.6,25-119.1,37.6-178.7c3-13.5,4.2-29.9,5.4-42.9H736L736,541z M750,1500C336.5,1500,0,1163.6,0,750S336.5,0,750,0
	s750,336.5,750,750S1163.6,1500,750,1500z M1445,750c0-383.2-311.8-695-695-695S55,366.8,55,750s311.8,695,695,695
	S1445,1133.2,1445,750z"/>
</svg>
